<svg xmlns="http://www.w3.org/2000/svg" xmlns:xlink="http://www.w3.org/1999/xlink" zoomAndPan="magnify" preserveAspectRatio="xMidYMid meet" version="1.0" viewBox="45.12 50.55 59.79 48.77"><defs><clipPath id="09d7f9dc03"><path d="M 77 50.550781 L 95 50.550781 L 95 56 L 77 56 Z M 77 50.550781 " clip-rule="nonzero"/></clipPath><clipPath id="286bfb636b"><path d="M 72 93 L 78 93 L 78 99.300781 L 72 99.300781 Z M 72 93 " clip-rule="nonzero"/></clipPath><clipPath id="4620c70c57"><path d="M 55 50.550781 L 73 50.550781 L 73 56 L 55 56 Z M 55 50.550781 " clip-rule="nonzero"/></clipPath></defs><path fill="#ff3f76" d="M 90.949219 59.3125 L 89.277344 54.511719 L 83.542969 54.511719 L 81.507812 55.972656 L 77.066406 57.835938 L 76.375 64.097656 L 73.460938 63.648438 L 73.085938 59.957031 L 67.535156 54.511719 L 60.316406 55.253906 L 54.300781 63.375 L 54.671875 71.675781 L 59.761719 78.507812 L 63.554688 79.980469 L 65.5 83.949219 L 69.578125 85.148438 L 70.492188 90.59375 L 79.65625 91.191406 L 79.933594 85.773438 L 84.007812 84.867188 L 84.285156 79.980469 L 89.375 81.828125 L 91.320312 75.644531 L 96.21875 74.9375 L 96.75 67.246094 L 95.015625 60.785156 Z M 90.949219 59.3125 " fill-opacity="1" fill-rule="nonzero"/><path fill="#ff3f76" d="M 55.992188 61.390625 L 61.429688 61.390625 L 61.429688 66.804688 L 55.992188 66.804688 Z M 55.992188 61.390625 " fill-opacity="1" fill-rule="nonzero"/><path fill="#ff3f76" d="M 61.429688 55.972656 L 66.863281 55.972656 L 66.863281 61.390625 L 61.429688 61.390625 Z M 61.429688 55.972656 " fill-opacity="1" fill-rule="nonzero"/><path fill="#ffffff" d="M 61.429688 61.390625 L 66.863281 61.390625 L 66.863281 66.804688 L 61.429688 66.804688 Z M 61.429688 61.390625 " fill-opacity="1" fill-rule="nonzero"/><path fill="#ffffff" d="M 55.992188 66.804688 L 61.429688 66.804688 L 61.429688 72.226562 L 55.992188 72.226562 Z M 55.992188 66.804688 " fill-opacity="1" fill-rule="nonzero"/><path fill="#e71d65" d="M 72.296875 61.390625 L 77.734375 61.390625 L 77.734375 66.804688 L 72.296875 66.804688 Z M 72.296875 61.390625 " fill-opacity="1" fill-rule="nonzero"/><path fill="#e71d65" d="M 88.601562 55.972656 L 94.035156 55.972656 L 94.035156 61.390625 L 88.601562 61.390625 Z M 88.601562 55.972656 " fill-opacity="1" fill-rule="nonzero"/><path fill="#e71d65" d="M 77.734375 55.972656 L 83.164062 55.972656 L 83.164062 61.390625 L 77.734375 61.390625 Z M 77.734375 55.972656 " fill-opacity="1" fill-rule="nonzero"/><path fill="#e71d65" d="M 94.035156 61.390625 L 94.035156 72.226562 L 99.46875 72.226562 L 99.46875 61.390625 Z M 94.035156 61.390625 " fill-opacity="1" fill-rule="nonzero"/><path fill="#e71d65" d="M 88.601562 72.226562 L 94.035156 72.226562 L 94.035156 77.644531 L 88.601562 77.644531 Z M 88.601562 72.226562 " fill-opacity="1" fill-rule="nonzero"/><path fill="#e71d65" d="M 83.164062 77.644531 L 88.601562 77.644531 L 88.601562 83.066406 L 83.164062 83.066406 Z M 83.164062 77.644531 " fill-opacity="1" fill-rule="nonzero"/><path fill="#e71d65" d="M 77.734375 83.066406 L 83.164062 83.066406 L 83.164062 88.484375 L 77.734375 88.484375 Z M 77.734375 83.066406 " fill-opacity="1" fill-rule="nonzero"/><path fill="#e71d65" d="M 72.296875 88.484375 L 77.734375 88.484375 L 77.734375 93.898438 L 72.296875 93.898438 Z M 72.296875 88.484375 " fill-opacity="1" fill-rule="nonzero"/><path fill="#e71d65" d="M 66.863281 83.066406 L 72.296875 83.066406 L 72.296875 88.484375 L 66.863281 88.484375 Z M 66.863281 83.066406 " fill-opacity="1" fill-rule="nonzero"/><path fill="#e71d65" d="M 55.992188 72.226562 L 61.429688 72.226562 L 61.429688 77.644531 L 55.992188 77.644531 Z M 55.992188 72.226562 " fill-opacity="1" fill-rule="nonzero"/><path fill="#e71d65" d="M 61.429688 77.644531 L 66.863281 77.644531 L 66.863281 83.066406 L 61.429688 83.066406 Z M 61.429688 77.644531 " fill-opacity="1" fill-rule="nonzero"/><path fill="#e71d65" d="M 66.863281 55.972656 L 72.296875 55.972656 L 72.296875 61.390625 L 66.863281 61.390625 Z M 66.863281 55.972656 " fill-opacity="1" fill-rule="nonzero"/><path fill="#e71d65" d="M 55.992188 55.972656 L 61.429688 55.972656 L 61.429688 61.390625 L 55.992188 61.390625 Z M 55.992188 55.972656 " fill-opacity="1" fill-rule="nonzero"/><path fill="#e71d65" d="M 55.992188 61.390625 L 50.558594 61.390625 L 50.558594 72.226562 L 55.992188 72.226562 Z M 55.992188 61.390625 " fill-opacity="1" fill-rule="nonzero"/><path fill="#342e5e" d="M 99.46875 61.390625 L 99.46875 72.226562 L 104.90625 72.226562 L 104.90625 61.390625 Z M 99.46875 61.390625 " fill-opacity="1" fill-rule="nonzero"/><path fill="#342e5e" d="M 94.035156 72.226562 L 99.46875 72.226562 L 99.46875 77.644531 L 94.035156 77.644531 Z M 94.035156 72.226562 " fill-opacity="1" fill-rule="nonzero"/><path fill="#342e5e" d="M 94.035156 55.972656 L 99.46875 55.972656 L 99.46875 61.390625 L 94.035156 61.390625 Z M 94.035156 55.972656 " fill-opacity="1" fill-rule="nonzero"/><path fill="#342e5e" d="M 88.601562 77.644531 L 94.035156 77.644531 L 94.035156 83.066406 L 88.601562 83.066406 Z M 88.601562 77.644531 " fill-opacity="1" fill-rule="nonzero"/><path fill="#342e5e" d="M 83.164062 83.066406 L 88.601562 83.066406 L 88.601562 88.484375 L 83.164062 88.484375 Z M 83.164062 83.066406 " fill-opacity="1" fill-rule="nonzero"/><g clip-path="url(#09d7f9dc03)"><path fill="#342e5e" d="M 88.601562 55.972656 L 94.035156 55.972656 L 94.035156 50.550781 L 77.734375 50.550781 L 77.734375 55.972656 Z M 88.601562 55.972656 " fill-opacity="1" fill-rule="nonzero"/></g><path fill="#342e5e" d="M 77.734375 88.484375 L 83.164062 88.484375 L 83.164062 93.898438 L 77.734375 93.898438 Z M 77.734375 88.484375 " fill-opacity="1" fill-rule="nonzero"/><g clip-path="url(#286bfb636b)"><path fill="#342e5e" d="M 72.296875 93.898438 L 77.734375 93.898438 L 77.734375 99.320312 L 72.296875 99.320312 Z M 72.296875 93.898438 " fill-opacity="1" fill-rule="nonzero"/></g><path fill="#342e5e" d="M 72.296875 55.972656 L 77.734375 55.972656 L 77.734375 61.390625 L 72.296875 61.390625 Z M 72.296875 55.972656 " fill-opacity="1" fill-rule="nonzero"/><path fill="#342e5e" d="M 66.863281 88.484375 L 72.296875 88.484375 L 72.296875 93.898438 L 66.863281 93.898438 Z M 66.863281 88.484375 " fill-opacity="1" fill-rule="nonzero"/><path fill="#342e5e" d="M 61.429688 83.066406 L 66.863281 83.066406 L 66.863281 88.484375 L 61.429688 88.484375 Z M 61.429688 83.066406 " fill-opacity="1" fill-rule="nonzero"/><g clip-path="url(#4620c70c57)"><path fill="#342e5e" d="M 66.863281 55.972656 L 72.296875 55.972656 L 72.296875 50.550781 L 55.992188 50.550781 L 55.992188 55.972656 Z M 66.863281 55.972656 " fill-opacity="1" fill-rule="nonzero"/></g><path fill="#342e5e" d="M 55.992188 77.644531 L 61.429688 77.644531 L 61.429688 83.066406 L 55.992188 83.066406 Z M 55.992188 77.644531 " fill-opacity="1" fill-rule="nonzero"/><path fill="#342e5e" d="M 50.558594 72.226562 L 55.992188 72.226562 L 55.992188 77.644531 L 50.558594 77.644531 Z M 50.558594 72.226562 " fill-opacity="1" fill-rule="nonzero"/><path fill="#342e5e" d="M 50.558594 55.972656 L 55.992188 55.972656 L 55.992188 61.390625 L 50.558594 61.390625 Z M 50.558594 55.972656 " fill-opacity="1" fill-rule="nonzero"/><path fill="#342e5e" d="M 50.558594 61.390625 L 45.121094 61.390625 L 45.121094 72.226562 L 50.558594 72.226562 Z M 50.558594 61.390625 " fill-opacity="1" fill-rule="nonzero"/></svg>