<svg xmlns="http://www.w3.org/2000/svg" xmlns:xlink="http://www.w3.org/1999/xlink" zoomAndPan="magnify" preserveAspectRatio="xMidYMid meet" version="1.0" viewBox="45.09 48.6 59.81 52.5"><defs><clipPath id="f6f35ecf4d"><path d="M 59 48.601562 L 91 48.601562 L 91 53 L 59 53 Z M 59 48.601562 " clip-rule="nonzero"/></clipPath><clipPath id="1fea7588e5"><path d="M 59 83 L 67 83 L 67 101.101562 L 59 101.101562 Z M 59 83 " clip-rule="nonzero"/></clipPath></defs><path fill="#ffffff" d="M 98.910156 57.347656 L 97.863281 55.597656 L 94.34375 53.851562 L 92.585938 53.851562 L 90.828125 52.101562 L 87.304688 50.351562 L 83.789062 50.351562 L 80.273438 50.910156 L 76.277344 50.351562 L 73.234375 50.351562 L 69.714844 49.863281 L 66.195312 50.351562 L 63.449219 49.863281 L 59.160156 52.101562 L 56.796875 53.851562 L 54.816406 53.347656 L 52.128906 55.597656 L 50.371094 56.59375 L 48.609375 59.09375 L 46.851562 62.59375 L 46.851562 73.09375 L 48.609375 76.589844 L 50.371094 78.984375 L 52.128906 80.09375 L 55.648438 81.839844 L 57.40625 82.460938 L 59.164062 83.589844 L 60.929688 87.089844 L 60.929688 91.164062 L 61.589844 94.085938 L 62.167969 96.386719 L 66.195312 94.078125 L 67.917969 91.851562 L 69.714844 90.582031 L 71.476562 88.253906 L 73.234375 87.085938 L 74.992188 84.773438 L 76.277344 85.332031 L 81.0625 85.332031 L 83.789062 85.933594 L 87.304688 85.332031 L 90.828125 83.582031 L 92.585938 81.296875 L 94.34375 82.339844 L 97.863281 80.085938 L 99.625 78.335938 L 101.382812 76.585938 L 103.925781 73.085938 L 103.140625 69.589844 L 103.925781 66.089844 L 103.925781 62.589844 L 101.382812 59.105469 Z M 74.53125 78.34375 L 74.410156 74.84375 L 71.476562 74.84375 L 71.476562 72.136719 L 67.527344 71.34375 L 67.292969 69.007812 L 65.082031 67.847656 L 64.4375 66.570312 L 65.820312 65.71875 L 64.4375 64.347656 L 67.179688 63.667969 L 67.761719 61.929688 L 69.164062 62.597656 L 69.714844 60.847656 L 71.03125 60.847656 L 72.3125 64.347656 L 77.335938 64.347656 L 76.757812 62.597656 L 79.761719 62.597656 L 81.394531 60.847656 L 82.015625 64.347656 L 83.773438 64.347656 L 85.535156 65.292969 L 85.535156 67.84375 L 83.773438 66.917969 L 82.015625 70.746094 L 78.496094 72.136719 L 78.496094 74.84375 L 75.859375 75.386719 L 74.515625 78.34375 Z M 74.53125 78.34375 " fill-opacity="1" fill-rule="nonzero"/><path fill="#fffffd" d="M 67.917969 64.828125 L 75.382812 64.828125 L 75.382812 71.09375 L 67.917969 71.09375 Z M 67.917969 64.828125 " fill-opacity="1" fill-rule="nonzero"/><path fill="#ff0000" d="M 83.789062 62.597656 L 83.789062 59.105469 L 76.75 59.105469 L 76.75 62.605469 L 73.234375 62.605469 L 73.234375 59.105469 L 66.195312 59.105469 L 66.195312 62.605469 L 62.679688 62.605469 L 62.679688 69.597656 L 66.195312 69.597656 L 66.195312 73.09375 L 69.714844 73.09375 L 69.714844 76.589844 L 73.234375 76.589844 L 73.234375 80.09375 L 76.75 80.09375 L 76.75 76.589844 L 80.273438 76.589844 L 80.273438 73.09375 L 83.789062 73.09375 L 83.789062 69.597656 L 87.300781 69.597656 L 87.300781 62.597656 Z M 69.714844 66.09375 L 73.234375 66.09375 L 73.234375 69.597656 L 69.714844 69.597656 Z M 69.714844 66.09375 " fill-opacity="1" fill-rule="nonzero"/><path fill="#231f20" d="M 101.382812 59.097656 L 101.382812 76.589844 L 104.898438 76.589844 L 104.898438 59.097656 Z M 101.382812 59.097656 " fill-opacity="1" fill-rule="nonzero"/><path fill="#231f20" d="M 97.863281 76.589844 L 101.382812 76.589844 L 101.382812 80.09375 L 97.863281 80.09375 Z M 97.863281 76.589844 " fill-opacity="1" fill-rule="nonzero"/><path fill="#231f20" d="M 97.863281 55.597656 L 101.382812 55.597656 L 101.382812 59.097656 L 97.863281 59.097656 Z M 97.863281 55.597656 " fill-opacity="1" fill-rule="nonzero"/><path fill="#231f20" d="M 94.34375 52.101562 L 90.828125 52.101562 L 90.828125 55.597656 L 97.863281 55.597656 L 97.863281 52.101562 Z M 94.34375 52.101562 " fill-opacity="1" fill-rule="nonzero"/><path fill="#231f20" d="M 90.828125 80.09375 L 90.828125 83.589844 L 97.863281 83.589844 L 97.863281 80.09375 Z M 90.828125 80.09375 " fill-opacity="1" fill-rule="nonzero"/><g clip-path="url(#f6f35ecf4d)"><path fill="#231f20" d="M 87.304688 48.601562 L 59.160156 48.601562 L 59.160156 52.101562 L 90.828125 52.101562 L 90.828125 48.601562 Z M 87.304688 48.601562 " fill-opacity="1" fill-rule="nonzero"/></g><path fill="#231f20" d="M 83.789062 83.589844 L 73.234375 83.589844 L 73.234375 87.089844 L 90.828125 87.089844 L 90.828125 83.589844 Z M 83.789062 83.589844 " fill-opacity="1" fill-rule="nonzero"/><path fill="#231f20" d="M 69.714844 87.089844 L 73.234375 87.089844 L 73.234375 90.589844 L 69.714844 90.589844 Z M 69.714844 87.089844 " fill-opacity="1" fill-rule="nonzero"/><path fill="#231f20" d="M 66.195312 90.589844 L 69.714844 90.589844 L 69.714844 94.085938 L 66.195312 94.085938 Z M 66.195312 90.589844 " fill-opacity="1" fill-rule="nonzero"/><g clip-path="url(#1fea7588e5)"><path fill="#231f20" d="M 62.679688 90.589844 L 62.679688 83.589844 L 59.160156 83.589844 L 59.160156 101.085938 L 62.679688 101.085938 L 62.679688 97.589844 L 66.195312 97.589844 L 66.195312 94.085938 L 62.679688 94.085938 Z M 62.679688 90.589844 " fill-opacity="1" fill-rule="nonzero"/></g><path fill="#231f20" d="M 55.640625 83.589844 L 59.160156 83.589844 L 59.160156 80.09375 L 52.121094 80.09375 L 52.121094 83.589844 Z M 55.640625 83.589844 " fill-opacity="1" fill-rule="nonzero"/><path fill="#231f20" d="M 52.121094 52.101562 L 52.121094 55.597656 L 59.160156 55.597656 L 59.160156 52.101562 Z M 52.121094 52.101562 " fill-opacity="1" fill-rule="nonzero"/><path fill="#231f20" d="M 48.601562 76.589844 L 52.121094 76.589844 L 52.121094 80.09375 L 48.601562 80.09375 Z M 48.601562 76.589844 " fill-opacity="1" fill-rule="nonzero"/><path fill="#231f20" d="M 48.601562 55.597656 L 52.121094 55.597656 L 52.121094 59.097656 L 48.601562 59.097656 Z M 48.601562 55.597656 " fill-opacity="1" fill-rule="nonzero"/><path fill="#231f20" d="M 45.085938 62.597656 L 45.085938 76.589844 L 48.601562 76.589844 L 48.601562 59.097656 L 45.085938 59.097656 Z M 45.085938 62.597656 " fill-opacity="1" fill-rule="nonzero"/></svg>