<svg xmlns="http://www.w3.org/2000/svg" xmlns:xlink="http://www.w3.org/1999/xlink" zoomAndPan="magnify" preserveAspectRatio="xMidYMid meet" version="1.0" viewBox="45 59.48 60 30.75"><defs><clipPath id="19f7b93be6"><path d="M 51 59.476562 L 99 59.476562 L 99 79 L 51 79 Z M 51 59.476562 " clip-rule="nonzero"/></clipPath><clipPath id="e662ce025c"><path d="M 88 88 L 101 88 L 101 90.226562 L 88 90.226562 Z M 88 88 " clip-rule="nonzero"/></clipPath><clipPath id="da34cfe900"><path d="M 49 88 L 62 88 L 62 90.226562 L 49 90.226562 Z M 49 88 " clip-rule="nonzero"/></clipPath></defs><path fill="#fdde5f" d="M 92.578125 71.777344 L 86.902344 62.753906 L 63.058594 62.753906 L 52.859375 75.925781 L 54.265625 78.957031 L 59.363281 78.957031 L 73.429688 68.390625 L 77.628906 68.390625 L 88.632812 79.980469 L 92.925781 79.980469 L 97.019531 77.921875 Z M 92.578125 71.777344 " fill-opacity="1" fill-rule="nonzero"/><path fill="#68c8f0" d="M 88.425781 75.878906 L 88.425781 73.832031 L 86.363281 73.820312 L 86.363281 71.777344 L 84.289062 71.777344 L 84.289062 69.722656 L 82.210938 69.722656 L 82.210938 67.675781 L 67.789062 67.675781 L 67.789062 69.722656 L 65.710938 69.722656 L 65.710938 71.777344 L 63.636719 71.777344 L 63.636719 73.820312 L 61.574219 73.832031 L 61.574219 75.878906 L 59.496094 75.878906 L 59.496094 80.277344 L 63.636719 80.277344 L 63.648438 77.921875 L 65.710938 77.921875 L 65.710938 75.878906 L 67.777344 75.878906 L 67.777344 73.820312 L 69.851562 73.820312 L 69.851562 71.777344 L 80.148438 71.777344 L 80.148438 73.820312 L 82.222656 73.820312 L 82.222656 75.878906 L 84.289062 75.878906 L 84.289062 77.921875 L 86.363281 77.921875 L 86.363281 80.15625 L 90.503906 80.15625 L 90.503906 75.878906 Z M 88.425781 75.878906 " fill-opacity="1" fill-rule="nonzero"/><g clip-path="url(#19f7b93be6)"><path fill="#ff8788" d="M 96.71875 73.820312 L 96.71875 69.722656 L 94.65625 69.722656 L 94.644531 67.675781 L 92.578125 67.675781 L 92.566406 65.621094 L 90.503906 65.621094 L 90.503906 63.574219 L 88.425781 63.574219 L 88.425781 61.519531 L 84.289062 61.519531 L 84.289062 59.476562 L 65.710938 59.476562 L 65.710938 61.519531 L 61.574219 61.519531 L 61.574219 63.574219 L 59.496094 63.574219 L 59.496094 65.621094 L 57.433594 65.621094 L 57.433594 67.785156 L 57.421875 67.785156 L 57.421875 67.675781 L 55.355469 67.675781 L 55.34375 69.722656 L 53.28125 69.722656 L 53.28125 73.820312 L 51.203125 73.820312 L 51.203125 78.101562 L 55.34375 78.101562 L 55.34375 75.878906 L 57.421875 75.878906 L 57.421875 71.777344 L 59.496094 71.777344 L 59.496094 69.722656 L 61.574219 69.722656 L 61.574219 67.675781 L 63.636719 67.675781 L 63.636719 65.621094 L 67.777344 65.621094 L 67.777344 63.574219 L 82.222656 63.574219 L 82.222656 65.621094 L 86.363281 65.621094 L 86.363281 67.675781 L 88.425781 67.675781 L 88.425781 69.722656 L 90.503906 69.722656 L 90.503906 71.777344 L 92.578125 71.777344 L 92.578125 75.878906 L 94.65625 75.878906 L 94.65625 78.160156 L 98.796875 78.160156 L 98.796875 73.820312 Z M 96.71875 73.820312 " fill-opacity="1" fill-rule="nonzero"/></g><path fill="#ffffff" d="M 47.066406 82.023438 L 46.03125 84.199219 L 47.066406 86.125 L 49.140625 88.179688 L 61.574219 88.179688 L 63.636719 86.125 L 65.0625 84.128906 L 63.636719 82.023438 L 59.496094 79.980469 L 55.546875 78.824219 L 51.203125 79.980469 Z M 47.066406 82.023438 " fill-opacity="1" fill-rule="nonzero"/><path fill="#ffffff" d="M 102.933594 82.023438 L 103.96875 84.199219 L 102.933594 86.125 L 100.859375 88.179688 L 88.425781 88.179688 L 86.363281 86.125 L 84.9375 84.128906 L 86.363281 82.023438 L 90.503906 79.980469 L 94.453125 78.824219 L 98.796875 79.980469 Z M 102.933594 82.023438 " fill-opacity="1" fill-rule="nonzero"/><path fill="#ebf6fb" d="M 102.933594 82.023438 L 105 82.023438 L 105 84.066406 L 102.933594 84.066406 Z M 102.933594 82.023438 " fill-opacity="1" fill-rule="nonzero"/><path fill="#ebf6fb" d="M 86.363281 79.980469 L 86.363281 82.023438 L 90.503906 82.023438 L 90.503906 79.980469 Z M 86.363281 79.980469 " fill-opacity="1" fill-rule="nonzero"/><path fill="#ebf6fb" d="M 92.566406 77.921875 L 90.503906 77.921875 L 90.503906 79.980469 L 98.796875 79.980469 L 98.796875 77.921875 Z M 92.566406 77.921875 " fill-opacity="1" fill-rule="nonzero"/><path fill="#ebf6fb" d="M 84.289062 82.023438 L 86.351562 82.023438 L 86.351562 84.066406 L 84.289062 84.066406 Z M 84.289062 82.023438 " fill-opacity="1" fill-rule="nonzero"/><path fill="#ebf6fb" d="M 100.859375 79.980469 L 98.796875 79.980469 L 98.796875 82.023438 L 102.933594 82.023438 L 102.933594 79.980469 Z M 100.859375 79.980469 " fill-opacity="1" fill-rule="nonzero"/><path fill="#ebf6fb" d="M 88.425781 86.125 L 100.859375 86.125 L 100.859375 88.167969 L 88.425781 88.167969 Z M 88.425781 86.125 " fill-opacity="1" fill-rule="nonzero"/><path fill="#ebf6fb" d="M 61.574219 79.980469 L 59.496094 79.980469 L 59.496094 82.023438 L 63.636719 82.023438 L 63.636719 79.980469 Z M 61.574219 79.980469 " fill-opacity="1" fill-rule="nonzero"/><path fill="#ebf6fb" d="M 58.464844 77.921875 L 51.203125 77.921875 L 51.203125 79.980469 L 59.496094 79.980469 L 59.496094 77.921875 Z M 58.464844 77.921875 " fill-opacity="1" fill-rule="nonzero"/><path fill="#ebf6fb" d="M 63.636719 82.023438 L 65.699219 82.023438 L 65.699219 84.066406 L 63.636719 84.066406 Z M 63.636719 82.023438 " fill-opacity="1" fill-rule="nonzero"/><path fill="#ebf6fb" d="M 47.066406 79.980469 L 47.066406 82.023438 L 51.203125 82.023438 L 51.203125 79.980469 Z M 47.066406 79.980469 " fill-opacity="1" fill-rule="nonzero"/><path fill="#ebf6fb" d="M 49.140625 86.125 L 61.574219 86.125 L 61.574219 88.167969 L 49.140625 88.167969 Z M 49.140625 86.125 " fill-opacity="1" fill-rule="nonzero"/><path fill="#ebf6fb" d="M 45 82.023438 L 47.066406 82.023438 L 47.066406 84.066406 L 45 84.066406 Z M 45 82.023438 " fill-opacity="1" fill-rule="nonzero"/><path fill="#7bafde" d="M 102.933594 84.078125 L 105 84.078125 L 105 86.125 L 102.933594 86.125 Z M 102.933594 84.078125 " fill-opacity="1" fill-rule="nonzero"/><path fill="#7bafde" d="M 100.859375 86.125 L 102.921875 86.125 L 102.921875 88.167969 L 100.859375 88.167969 Z M 100.859375 86.125 " fill-opacity="1" fill-rule="nonzero"/><path fill="#7bafde" d="M 84.289062 84.078125 L 86.351562 84.078125 L 86.351562 86.125 L 84.289062 86.125 Z M 84.289062 84.078125 " fill-opacity="1" fill-rule="nonzero"/><path fill="#7bafde" d="M 86.363281 86.125 L 88.425781 86.125 L 88.425781 88.167969 L 86.363281 88.167969 Z M 86.363281 86.125 " fill-opacity="1" fill-rule="nonzero"/><g clip-path="url(#e662ce025c)"><path fill="#7bafde" d="M 99.574219 88.179688 L 100.859375 88.179688 L 100.859375 90.226562 L 88.425781 90.226562 L 88.425781 88.179688 Z M 99.574219 88.179688 " fill-opacity="1" fill-rule="nonzero"/></g><path fill="#7bafde" d="M 45 84.078125 L 47.066406 84.078125 L 47.066406 86.125 L 45 86.125 Z M 45 84.078125 " fill-opacity="1" fill-rule="nonzero"/><path fill="#7bafde" d="M 47.066406 86.125 L 49.128906 86.125 L 49.128906 88.167969 L 47.066406 88.167969 Z M 47.066406 86.125 " fill-opacity="1" fill-rule="nonzero"/><path fill="#7bafde" d="M 63.636719 84.078125 L 65.699219 84.078125 L 65.699219 86.125 L 63.636719 86.125 Z M 63.636719 84.078125 " fill-opacity="1" fill-rule="nonzero"/><path fill="#7bafde" d="M 61.574219 86.125 L 63.636719 86.125 L 63.636719 88.167969 L 61.574219 88.167969 Z M 61.574219 86.125 " fill-opacity="1" fill-rule="nonzero"/><g clip-path="url(#da34cfe900)"><path fill="#7bafde" d="M 50.425781 88.179688 L 49.140625 88.179688 L 49.140625 90.226562 L 61.574219 90.226562 L 61.574219 88.179688 Z M 50.425781 88.179688 " fill-opacity="1" fill-rule="nonzero"/></g></svg>