<svg xmlns="http://www.w3.org/2000/svg" xmlns:xlink="http://www.w3.org/1999/xlink" width="48" zoomAndPan="magnify" viewBox="0 0 36 36.000001" height="48" preserveAspectRatio="xMidYMid meet" version="1.0"><defs><clipPath id="67104ce12d"><path d="M 1.351562 1.429688 L 34.921875 1.429688 L 34.921875 33.535156 L 1.351562 33.535156 Z M 1.351562 1.429688 " clip-rule="nonzero"/></clipPath><clipPath id="f0a38d81f6"><path d="M 1.351562 1.429688 L 34.921875 1.429688 L 34.921875 33.535156 L 1.351562 33.535156 Z M 1.351562 1.429688 " clip-rule="nonzero"/></clipPath></defs><g clip-path="url(#67104ce12d)"><path fill="#fed308" d="M 34.835938 11.894531 L 33.660156 11.886719 L 33.589844 9.746094 L 31.949219 9.738281 L 31.976562 8.847656 L 31.886719 7.15625 L 30.144531 7.035156 L 30.15625 5.46875 L 28.453125 5.460938 L 28.421875 3.832031 L 26.300781 3.84375 L 26.253906 2.542969 L 24.429688 2.523438 L 24.242188 1.703125 L 12.292969 1.960938 L 11.855469 2.550781 L 10.449219 2.878906 L 9.953125 3.734375 L 8.5 4.304688 L 7.792969 5.351562 L 6.457031 5.734375 L 6.078125 6.949219 L 4.863281 7.65625 L 4.257812 8.78125 L 4.257812 9.636719 L 3.289062 10.386719 L 2.761719 11.953125 L 1.675781 12.082031 L 1.617188 22.125 L 2.8125 22.300781 L 2.941406 25.582031 L 4.425781 25.691406 L 4.714844 27.328125 L 6.039062 27.625 L 6.089844 29.238281 L 7.902344 29.300781 L 7.929688 30.785156 L 9.914062 30.796875 L 9.980469 32.316406 L 11.746094 32.335938 L 11.894531 33.398438 L 24.507812 33.4375 L 24.53125 32.375 L 26.164062 32.226562 L 26.351562 30.875 L 28.273438 30.609375 L 28.511719 29.367188 L 30.164062 29.160156 L 30.363281 27.691406 L 31.847656 27.605469 L 31.96875 25.742188 L 33.570312 25.742188 L 33.601562 22.421875 L 34.855469 22.371094 Z M 34.835938 11.894531 " fill-opacity="1" fill-rule="nonzero"/></g><path fill="#d59913" d="M 11.664062 30.835938 L 11.664062 29.339844 L 9.890625 29.339844 L 9.890625 30.835938 Z M 26.382812 29.40625 L 24.609375 29.40625 L 24.609375 30.835938 L 11.664062 30.835938 L 11.664062 31.949219 L 24.609375 31.949219 L 24.609375 30.894531 L 26.382812 30.894531 Z M 6.058594 22.378906 L 4.394531 22.378906 L 4.394531 25.730469 L 6.007812 25.730469 L 6.007812 27.664062 L 7.871094 27.664062 L 7.871094 25.730469 L 6.058594 25.730469 Z M 3.089844 20.546875 L 3.089844 22.390625 L 4.386719 22.390625 L 4.386719 20.546875 Z M 28.542969 26.027344 L 28.542969 27.730469 L 30.402344 27.730469 L 30.402344 26.027344 Z M 32.015625 22.449219 L 30.402344 22.449219 L 30.402344 25.800781 L 32.015625 25.800781 Z M 33.453125 11.84375 L 32.015625 11.84375 L 32.015625 22.449219 L 33.453125 22.449219 Z M 28.542969 27.730469 L 26.382812 27.730469 L 26.382812 29.40625 L 28.542969 29.40625 Z M 9.890625 27.664062 L 7.859375 27.664062 L 7.859375 29.339844 L 9.890625 29.339844 Z M 32.015625 11.84375 L 32.015625 8.847656 L 30.195312 8.847656 L 30.195312 11.84375 Z M 30.195312 8.839844 L 30.195312 7.015625 L 28.484375 7.015625 L 28.484375 8.847656 L 30.195312 8.847656 Z M 28.484375 5.417969 L 26.320312 5.417969 L 26.320312 7.015625 L 28.484375 7.015625 Z M 24.480469 3.804688 L 24.480469 2.886719 L 22.699219 2.886719 L 22.699219 3.804688 Z M 26.320312 3.804688 L 24.488281 3.804688 L 24.488281 5.417969 L 26.320312 5.417969 Z M 26.320312 3.804688 " fill-opacity="1" fill-rule="nonzero"/><g clip-path="url(#f0a38d81f6)"><path fill="#422412" d="M 24.609375 30.894531 L 24.609375 31.949219 L 11.664062 31.949219 L 11.664062 30.835938 L 9.890625 30.835938 L 9.890625 32.414062 L 11.664062 32.414062 L 11.664062 33.535156 L 24.609375 33.535156 L 24.609375 32.480469 L 26.382812 32.480469 L 26.382812 30.90625 L 24.609375 30.90625 Z M 6 27.664062 L 6 25.730469 L 4.386719 25.730469 L 4.386719 27.664062 Z M 3.089844 11.777344 L 4.257812 11.777344 L 4.257812 9.636719 L 2.605469 9.636719 L 2.605469 11.777344 L 1.390625 11.777344 L 1.367188 22.378906 L 2.644531 22.378906 L 2.644531 25.730469 L 4.394531 25.730469 L 4.394531 22.378906 L 3.101562 22.378906 L 3.101562 11.777344 Z M 30.402344 26.027344 L 30.402344 27.730469 L 32.015625 27.730469 L 32.015625 25.800781 L 30.402344 25.800781 Z M 32.015625 9.707031 L 32.015625 11.84375 L 33.453125 11.84375 L 33.453125 22.449219 L 32.015625 22.449219 L 32.015625 25.800781 L 33.660156 25.800781 L 33.660156 22.449219 L 34.90625 22.449219 L 34.886719 11.84375 L 33.671875 11.84375 L 33.671875 9.707031 Z M 30.402344 27.730469 L 28.542969 27.730469 L 28.542969 29.40625 L 30.402344 29.40625 Z M 7.859375 30.835938 L 9.890625 30.835938 L 9.890625 29.339844 L 7.859375 29.339844 Z M 6 27.664062 L 6 29.339844 L 7.859375 29.339844 L 7.859375 27.664062 Z M 6.078125 8.78125 L 6.078125 6.949219 L 4.257812 6.949219 L 4.257812 8.78125 Z M 7.792969 6.949219 L 7.792969 5.351562 L 6.078125 5.351562 L 6.078125 6.949219 Z M 7.792969 5.351562 L 9.953125 5.351562 L 9.953125 3.734375 L 7.792969 3.734375 Z M 28.542969 29.40625 L 26.382812 29.40625 L 26.382812 30.90625 L 28.542969 30.90625 Z M 32.015625 8.839844 L 32.015625 7.015625 L 30.195312 7.015625 L 30.195312 8.847656 L 32.015625 8.847656 Z M 30.195312 5.417969 L 28.484375 5.417969 L 28.484375 7.015625 L 30.195312 7.015625 Z M 26.320312 5.417969 L 28.484375 5.417969 L 28.484375 3.804688 L 26.320312 3.804688 Z M 26.320312 2.503906 L 24.488281 2.503906 L 24.488281 1.429688 L 11.792969 1.429688 L 11.792969 2.433594 L 9.960938 2.433594 L 9.960938 3.746094 L 11.792969 3.746094 L 11.792969 2.898438 L 24.488281 2.898438 L 24.488281 3.8125 L 26.320312 3.8125 Z M 26.320312 2.503906 " fill-opacity="1" fill-rule="nonzero"/></g><path fill="#e964b5" d="M 16.703125 25.601562 L 16.703125 27.210938 L 21.144531 27.21875 L 21.144531 26.519531 L 21.929688 26.519531 L 21.929688 25.515625 L 21.015625 25.515625 L 21.015625 24.253906 L 17.796875 24.253906 L 17.796875 25.59375 L 16.703125 25.59375 Z M 16.703125 25.601562 " fill-opacity="1" fill-rule="nonzero"/><path fill="#431230" d="M 24.558594 24.261719 L 25.347656 24.261719 L 25.347656 20.332031 L 23.671875 20.332031 L 23.671875 22.292969 L 12.761719 22.292969 L 12.761719 20.332031 L 10.929688 20.332031 L 10.929688 24.261719 L 11.765625 24.261719 L 11.765625 25.730469 L 13.535156 25.730469 L 13.535156 26.53125 L 14.574219 26.53125 L 14.574219 25.613281 L 15.597656 25.613281 L 15.597656 24.816406 L 15.609375 24.816406 L 15.609375 24.273438 L 21.003906 24.273438 L 21.003906 25.535156 L 21.921875 25.535156 L 21.921875 26.539062 L 22.90625 26.539062 L 22.90625 25.742188 L 24.550781 25.742188 L 24.550781 24.261719 Z M 24.558594 24.261719 " fill-opacity="1" fill-rule="nonzero"/><path fill="#dbdacf" d="M 23.664062 20.890625 L 23.664062 20.332031 L 12.761719 20.332031 L 12.761719 22.292969 L 14.214844 22.292969 L 14.214844 20.890625 Z M 23.664062 20.890625 " fill-opacity="1" fill-rule="nonzero"/><path fill="#fffef7" d="M 23.664062 22.292969 L 23.664062 20.890625 L 14.203125 20.890625 L 14.203125 22.292969 Z M 17.011719 5.65625 L 17.011719 4.207031 L 11.773438 4.207031 L 11.773438 5.578125 L 9.953125 5.578125 L 9.953125 6.949219 L 7.792969 6.949219 L 7.792969 8.78125 L 6.078125 8.78125 L 6.078125 10.742188 L 5.164062 10.742188 L 5.164062 12.484375 L 7.085938 12.484375 L 7.085938 10.742188 L 9.144531 10.742188 L 9.144531 8.78125 L 11.773438 8.78125 L 11.773438 6.949219 L 13.566406 6.949219 L 13.566406 5.65625 Z M 17.011719 5.65625 " fill-opacity="1" fill-rule="nonzero"/><path fill="#fffef7" d="M 13.535156 11.667969 L 11.027344 11.570312 L 11.457031 13.867188 L 13.527344 13.746094 Z M 13.535156 11.667969 " fill-opacity="1" fill-rule="nonzero"/><path fill="#312526" d="M 13.535156 11.824219 L 13.535156 10.277344 L 9.972656 10.277344 L 9.972656 17.886719 L 13.535156 17.886719 L 13.535156 13.351562 L 11.863281 13.351562 L 11.863281 11.835938 L 13.535156 11.835938 Z M 13.535156 11.824219 " fill-opacity="1" fill-rule="nonzero"/><path fill="#f18882" d="M 29.835938 17.511719 L 25.964844 17.511719 C 25.933594 17.511719 25.902344 17.53125 25.902344 17.570312 L 25.902344 19.011719 C 25.902344 19.039062 25.921875 19.070312 25.964844 19.070312 L 29.835938 19.070312 C 29.867188 19.070312 29.894531 19.050781 29.894531 19.011719 L 29.894531 17.570312 C 29.894531 17.542969 29.867188 17.511719 29.835938 17.511719 Z M 29.835938 17.511719 " fill-opacity="1" fill-rule="nonzero"/><path fill="#f18882" d="M 9.863281 18.488281 L 5.988281 18.488281 C 5.960938 18.488281 5.929688 18.507812 5.929688 18.546875 L 5.929688 19.984375 C 5.929688 20.015625 5.949219 20.046875 5.988281 20.046875 L 9.863281 20.046875 C 9.890625 20.046875 9.921875 20.023438 9.921875 19.984375 L 9.921875 18.546875 C 9.914062 18.507812 9.890625 18.488281 9.863281 18.488281 Z M 9.863281 18.488281 " fill-opacity="1" fill-rule="nonzero"/><path fill="#d43295" d="M 21.144531 26.597656 L 16.703125 26.550781 L 16.703125 25.601562 L 17.789062 25.601562 L 17.789062 24.261719 L 15.609375 24.261719 L 15.609375 25.601562 L 14.574219 25.601562 L 14.574219 26.519531 L 15.410156 26.519531 L 15.410156 27.21875 L 16.703125 27.210938 L 21.144531 27.21875 Z M 21.144531 26.597656 " fill-opacity="1" fill-rule="nonzero"/><path fill="#312526" d="M 20.277344 14.878906 L 22.050781 14.878906 L 22.050781 16.398438 L 20.277344 16.398438 Z M 20.277344 14.878906 " fill-opacity="1" fill-rule="nonzero"/><path fill="#312526" d="M 25.992188 14.878906 L 27.765625 14.878906 L 27.765625 16.398438 L 25.992188 16.398438 Z M 25.992188 14.878906 " fill-opacity="1" fill-rule="nonzero"/><path fill="#312526" d="M 22.050781 13.363281 L 25.992188 13.363281 L 25.992188 14.878906 L 22.050781 14.878906 Z M 22.050781 13.363281 " fill-opacity="1" fill-rule="nonzero"/></svg>