<svg xmlns="http://www.w3.org/2000/svg" xmlns:xlink="http://www.w3.org/1999/xlink" width="48" zoomAndPan="magnify" viewBox="0 0 36 36.000001" height="48" preserveAspectRatio="xMidYMid meet" version="1.0"><defs><clipPath id="ae3974174e"><path d="M 12.785156 26.515625 L 25.839844 26.515625 L 25.839844 34.800781 L 12.785156 34.800781 Z M 12.785156 26.515625 " clip-rule="nonzero"/></clipPath><clipPath id="f3aaa3ae33"><path d="M 5.699219 0.53125 L 30.507812 0.53125 L 30.507812 34.800781 L 5.699219 34.800781 Z M 5.699219 0.53125 " clip-rule="nonzero"/></clipPath><clipPath id="eca6015127"><path d="M 9.242188 21.792969 L 27 21.792969 L 27 34.800781 L 9.242188 34.800781 Z M 9.242188 21.792969 " clip-rule="nonzero"/></clipPath></defs><g clip-path="url(#ae3974174e)"><path fill="#fcf7db" d="M 24.601562 27.710938 L 24.601562 28.890625 L 23.417969 28.890625 L 23.417969 30.074219 L 21.054688 30.074219 L 21.054688 31.253906 L 19.875 31.253906 L 19.875 32.4375 L 18.695312 32.4375 L 18.695312 31.253906 L 17.511719 31.253906 L 17.511719 30.074219 L 18.695312 30.074219 L 18.695312 26.527344 L 17.511719 26.527344 L 17.511719 28.890625 L 16.332031 28.890625 L 16.332031 31.253906 L 15.148438 31.253906 L 15.148438 30.074219 L 13.96875 30.074219 L 13.96875 28.890625 L 12.785156 28.890625 L 12.785156 31.253906 L 13.96875 31.253906 L 13.96875 32.4375 L 15.148438 32.4375 L 15.148438 33.617188 L 16.332031 33.617188 L 16.332031 34.800781 L 21.054688 34.800781 L 21.054688 33.617188 L 22.238281 33.617188 L 22.238281 32.4375 L 23.417969 32.4375 L 23.417969 31.253906 L 24.601562 31.253906 L 24.601562 30.074219 L 25.78125 30.074219 L 25.78125 27.710938 L 24.601562 27.710938 " fill-opacity="1" fill-rule="nonzero"/></g><path fill="#e2902a" d="M 26.960938 25.347656 L 26.960938 22.984375 L 24.601562 22.984375 L 24.601562 19.4375 L 23.417969 19.4375 L 23.417969 20.621094 L 22.238281 20.621094 L 22.238281 19.4375 L 21.054688 19.4375 L 21.054688 17.074219 L 19.875 17.074219 L 19.875 15.894531 L 21.054688 15.894531 L 21.054688 14.710938 L 22.238281 14.710938 L 22.238281 12.347656 L 21.054688 12.347656 L 21.054688 9.984375 L 19.875 9.984375 L 19.875 11.167969 L 18.695312 11.167969 L 18.695312 13.53125 L 17.511719 13.53125 L 17.511719 19.4375 L 18.695312 19.4375 L 18.695312 21.800781 L 17.511719 21.800781 L 17.511719 22.984375 L 15.148438 22.984375 L 15.148438 24.164062 L 13.96875 24.164062 L 13.96875 26.527344 L 15.148438 26.527344 L 15.148438 28.890625 L 16.332031 28.890625 L 16.332031 27.710938 L 17.511719 27.710938 L 17.511719 25.347656 L 18.695312 25.347656 L 18.695312 27.710938 L 21.054688 27.710938 L 21.054688 24.164062 L 19.875 24.164062 L 19.875 21.800781 L 21.054688 21.800781 L 21.054688 24.164062 L 22.238281 24.164062 L 22.238281 28.890625 L 23.417969 28.890625 L 23.417969 26.527344 L 24.601562 26.527344 L 24.601562 25.347656 L 25.78125 25.347656 L 25.78125 26.527344 L 26.960938 26.527344 L 26.960938 28.890625 L 28.144531 28.890625 L 28.144531 25.347656 Z M 9.242188 28.890625 L 9.242188 30.074219 L 10.425781 30.074219 L 10.425781 31.253906 L 11.605469 31.253906 L 11.605469 28.890625 L 10.425781 28.890625 L 10.425781 27.710938 L 9.242188 27.710938 Z M 13.96875 22.984375 L 13.96875 24.164062 L 12.785156 24.164062 L 12.785156 27.710938 L 10.425781 27.710938 L 10.425781 26.527344 L 9.242188 26.527344 L 9.242188 25.347656 L 10.425781 25.347656 L 10.425781 22.984375 L 11.605469 22.984375 L 11.605469 20.621094 L 12.785156 20.621094 L 12.785156 22.984375 L 13.96875 22.984375 " fill-opacity="1" fill-rule="nonzero"/><g clip-path="url(#f3aaa3ae33)"><path fill="#d75623" d="M 5.699219 18.257812 L 5.699219 19.4375 L 6.878906 19.4375 L 6.878906 18.257812 Z M 10.425781 5.257812 L 9.242188 5.257812 L 9.242188 6.441406 L 10.425781 6.441406 Z M 10.425781 8.804688 L 10.425781 7.621094 L 9.242188 7.621094 L 9.242188 9.984375 L 10.425781 9.984375 Z M 11.605469 11.167969 L 11.605469 9.984375 L 10.425781 9.984375 L 10.425781 11.167969 Z M 21.054688 1.714844 L 21.054688 0.53125 L 19.875 0.53125 L 19.875 2.894531 L 21.054688 2.894531 Z M 22.238281 17.074219 L 22.238281 15.894531 L 23.417969 15.894531 L 23.417969 9.984375 L 22.238281 9.984375 L 22.238281 8.804688 L 21.054688 8.804688 L 21.054688 6.441406 L 19.875 6.441406 L 19.875 2.894531 L 18.695312 2.894531 L 18.695312 9.984375 L 17.511719 9.984375 L 17.511719 7.621094 L 16.332031 7.621094 L 16.332031 6.441406 L 15.148438 6.441406 L 15.148438 8.804688 L 16.332031 8.804688 L 16.332031 11.167969 L 17.511719 11.167969 L 17.511719 12.347656 L 16.332031 12.347656 L 16.332031 13.53125 L 15.148438 13.53125 L 15.148438 15.894531 L 16.332031 15.894531 L 16.332031 21.800781 L 15.148438 21.800781 L 15.148438 20.621094 L 13.96875 20.621094 L 13.96875 15.894531 L 12.785156 15.894531 L 12.785156 14.710938 L 11.605469 14.710938 L 11.605469 19.4375 L 10.425781 19.4375 L 10.425781 21.800781 L 9.242188 21.800781 L 9.242188 20.621094 L 8.0625 20.621094 L 8.0625 19.4375 L 6.878906 19.4375 L 6.878906 21.800781 L 8.0625 21.800781 L 8.0625 26.527344 L 6.878906 26.527344 L 6.878906 30.074219 L 8.0625 30.074219 L 8.0625 31.253906 L 9.242188 31.253906 L 9.242188 32.4375 L 10.425781 32.4375 L 10.425781 33.617188 L 11.605469 33.617188 L 11.605469 34.800781 L 13.96875 34.800781 L 13.96875 33.617188 L 12.785156 33.617188 L 12.785156 32.4375 L 11.605469 32.4375 L 11.605469 31.253906 L 10.425781 31.253906 L 10.425781 30.074219 L 9.242188 30.074219 L 9.242188 25.347656 L 10.425781 25.347656 L 10.425781 22.984375 L 11.605469 22.984375 L 11.605469 20.621094 L 12.785156 20.621094 L 12.785156 22.984375 L 17.511719 22.984375 L 17.511719 21.800781 L 18.695312 21.800781 L 18.695312 19.4375 L 17.511719 19.4375 L 17.511719 13.53125 L 18.695312 13.53125 L 18.695312 11.167969 L 19.875 11.167969 L 19.875 9.984375 L 21.054688 9.984375 L 21.054688 12.347656 L 22.238281 12.347656 L 22.238281 14.710938 L 21.054688 14.710938 L 21.054688 15.894531 L 19.875 15.894531 L 19.875 17.074219 L 21.054688 17.074219 L 21.054688 19.4375 L 22.238281 19.4375 Z M 22.238281 20.621094 L 23.417969 20.621094 L 23.417969 19.4375 L 22.238281 19.4375 Z M 29.324219 8.804688 L 28.144531 8.804688 L 28.144531 9.984375 L 29.324219 9.984375 Z M 30.507812 25.347656 L 30.507812 30.074219 L 29.324219 30.074219 L 29.324219 31.253906 L 28.144531 31.253906 L 28.144531 32.4375 L 26.960938 32.4375 L 26.960938 33.617188 L 25.78125 33.617188 L 25.78125 34.800781 L 23.417969 34.800781 L 23.417969 33.617188 L 24.601562 33.617188 L 24.601562 32.4375 L 25.78125 32.4375 L 25.78125 31.253906 L 26.960938 31.253906 L 26.960938 28.890625 L 28.144531 28.890625 L 28.144531 25.347656 L 26.960938 25.347656 L 26.960938 22.984375 L 24.601562 22.984375 L 24.601562 19.4375 L 23.417969 19.4375 L 23.417969 17.074219 L 24.601562 17.074219 L 24.601562 14.710938 L 25.78125 14.710938 L 25.78125 12.347656 L 26.960938 12.347656 L 26.960938 11.167969 L 28.144531 11.167969 L 28.144531 13.53125 L 26.960938 13.53125 L 26.960938 19.4375 L 25.78125 19.4375 L 25.78125 21.800781 L 26.960938 21.800781 L 26.960938 19.4375 L 28.144531 19.4375 L 28.144531 17.074219 L 29.324219 17.074219 L 29.324219 20.621094 L 28.144531 20.621094 L 28.144531 24.164062 L 29.324219 24.164062 L 29.324219 25.347656 L 30.507812 25.347656 " fill-opacity="1" fill-rule="nonzero"/></g><g clip-path="url(#eca6015127)"><path fill="#f0c82f" d="M 9.242188 26.527344 L 9.242188 27.710938 L 10.425781 27.710938 L 10.425781 26.527344 Z M 15.148438 22.984375 L 13.96875 22.984375 L 13.96875 24.164062 L 15.148438 24.164062 Z M 15.148438 27.710938 L 15.148438 26.527344 L 13.96875 26.527344 L 13.96875 24.164062 L 12.785156 24.164062 L 12.785156 27.710938 L 10.425781 27.710938 L 10.425781 28.890625 L 11.605469 28.890625 L 11.605469 32.4375 L 12.785156 32.4375 L 12.785156 33.617188 L 13.96875 33.617188 L 13.96875 34.800781 L 16.332031 34.800781 L 16.332031 33.617188 L 15.148438 33.617188 L 15.148438 32.4375 L 13.96875 32.4375 L 13.96875 31.253906 L 12.785156 31.253906 L 12.785156 28.890625 L 13.96875 28.890625 L 13.96875 30.074219 L 15.148438 30.074219 L 15.148438 31.253906 L 16.332031 31.253906 L 16.332031 28.890625 L 15.148438 28.890625 Z M 17.511719 27.710938 L 16.332031 27.710938 L 16.332031 28.890625 L 17.511719 28.890625 Z M 18.695312 25.347656 L 17.511719 25.347656 L 17.511719 26.527344 L 18.695312 26.527344 Z M 21.054688 21.800781 L 19.875 21.800781 L 19.875 24.164062 L 21.054688 24.164062 Z M 22.238281 27.710938 L 22.238281 24.164062 L 21.054688 24.164062 L 21.054688 27.710938 L 18.695312 27.710938 L 18.695312 30.074219 L 17.511719 30.074219 L 17.511719 31.253906 L 18.695312 31.253906 L 18.695312 32.4375 L 19.875 32.4375 L 19.875 31.253906 L 21.054688 31.253906 L 21.054688 30.074219 L 23.417969 30.074219 L 23.417969 28.890625 L 22.238281 28.890625 Z M 26.960938 26.527344 L 26.960938 31.253906 L 25.78125 31.253906 L 25.78125 32.4375 L 24.601562 32.4375 L 24.601562 33.617188 L 23.417969 33.617188 L 23.417969 34.800781 L 21.054688 34.800781 L 21.054688 33.617188 L 22.238281 33.617188 L 22.238281 32.4375 L 23.417969 32.4375 L 23.417969 31.253906 L 24.601562 31.253906 L 24.601562 30.074219 L 25.78125 30.074219 L 25.78125 27.710938 L 24.601562 27.710938 L 24.601562 28.890625 L 23.417969 28.890625 L 23.417969 26.527344 L 24.601562 26.527344 L 24.601562 25.347656 L 25.78125 25.347656 L 25.78125 26.527344 L 26.960938 26.527344 " fill-opacity="1" fill-rule="nonzero"/></g></svg>