<svg xmlns="http://www.w3.org/2000/svg" xmlns:xlink="http://www.w3.org/1999/xlink" zoomAndPan="magnify" preserveAspectRatio="xMidYMid meet" version="1.0" viewBox="45 46.04 60 57.75"><defs><clipPath id="6b5c0e1580"><path d="M 45 48 L 103 48 L 103 103.785156 L 45 103.785156 Z M 45 48 " clip-rule="nonzero"/></clipPath><clipPath id="5efdae5e39"><path d="M 47 46.035156 L 105 46.035156 L 105 102 L 47 102 Z M 47 46.035156 " clip-rule="nonzero"/></clipPath><clipPath id="8bc170b48c"><path d="M 47 46.035156 L 105 46.035156 L 105 102 L 47 102 Z M 47 46.035156 " clip-rule="nonzero"/></clipPath></defs><g clip-path="url(#6b5c0e1580)"><path fill="#000000" d="M 100.859375 54.285156 L 100.859375 52.222656 L 98.789062 52.222656 L 98.789062 50.160156 L 96.71875 50.160156 L 96.71875 48.097656 L 51.210938 48.097656 L 51.210938 50.160156 L 49.140625 50.160156 L 49.140625 52.222656 L 47.074219 52.222656 L 47.074219 54.285156 L 45.003906 54.285156 L 45.003906 87.28125 L 47.074219 87.28125 L 47.074219 89.34375 L 49.140625 89.34375 L 49.140625 91.40625 L 51.210938 91.40625 L 51.210938 93.46875 L 57.417969 93.46875 L 57.417969 95.53125 L 59.484375 95.53125 L 59.484375 97.59375 L 61.554688 97.59375 L 61.554688 99.65625 L 63.621094 99.65625 L 63.621094 101.71875 L 65.691406 101.71875 L 65.691406 103.78125 L 67.761719 103.78125 L 67.761719 93.46875 L 96.71875 93.46875 L 96.71875 91.40625 L 98.789062 91.40625 L 98.789062 89.34375 L 100.859375 89.34375 L 100.859375 87.28125 L 102.925781 87.28125 L 102.925781 54.285156 Z M 100.859375 54.285156 " fill-opacity="0.3" fill-rule="nonzero"/></g><g clip-path="url(#5efdae5e39)"><path fill="#000000" d="M 102.925781 52.222656 L 102.925781 50.160156 L 100.859375 50.160156 L 100.859375 48.097656 L 98.789062 48.097656 L 98.789062 46.035156 L 53.28125 46.035156 L 53.28125 48.097656 L 51.210938 48.097656 L 51.210938 50.160156 L 49.140625 50.160156 L 49.140625 52.222656 L 47.074219 52.222656 L 47.074219 85.21875 L 49.140625 85.21875 L 49.140625 87.28125 L 51.210938 87.28125 L 51.210938 89.34375 L 53.28125 89.34375 L 53.28125 91.40625 L 59.484375 91.40625 L 59.484375 93.46875 L 61.554688 93.46875 L 61.554688 95.53125 L 63.621094 95.53125 L 63.621094 97.59375 L 65.691406 97.59375 L 65.691406 99.65625 L 67.761719 99.65625 L 67.761719 101.71875 L 69.828125 101.71875 L 69.828125 91.40625 L 98.789062 91.40625 L 98.789062 89.34375 L 100.859375 89.34375 L 100.859375 87.28125 L 102.925781 87.28125 L 102.925781 85.21875 L 104.996094 85.21875 L 104.996094 52.222656 Z M 102.925781 52.222656 " fill-opacity="1" fill-rule="nonzero"/></g><path fill="#00c2c2" d="M 100.859375 52.222656 L 100.859375 50.160156 L 98.789062 50.160156 L 98.789062 48.097656 L 53.28125 48.097656 L 53.28125 50.160156 L 51.210938 50.160156 L 51.210938 52.222656 L 49.140625 52.222656 L 49.140625 85.21875 L 51.210938 85.21875 L 51.210938 87.28125 L 53.28125 87.28125 L 53.28125 89.34375 L 59.484375 89.34375 L 59.484375 91.40625 L 61.554688 91.40625 L 61.554688 93.46875 L 63.621094 93.46875 L 63.621094 95.53125 L 65.691406 95.53125 L 65.691406 97.59375 L 67.761719 97.59375 L 67.761719 89.34375 L 98.789062 89.34375 L 98.789062 87.28125 L 100.859375 87.28125 L 100.859375 85.21875 L 102.925781 85.21875 L 102.925781 52.222656 Z M 100.859375 52.222656 " fill-opacity="1" fill-rule="nonzero"/><path fill="#1ca4ff" d="M 76.035156 66.660156 L 78.101562 66.660156 L 78.101562 70.785156 L 73.964844 70.785156 L 73.964844 66.660156 Z M 59.484375 66.660156 L 59.484375 70.785156 L 63.621094 70.785156 L 63.621094 66.660156 Z M 90.515625 66.660156 L 88.445312 66.660156 L 88.445312 70.785156 L 92.582031 70.785156 L 92.582031 66.660156 Z M 90.515625 66.660156 " fill-opacity="1" fill-rule="nonzero"/><path fill="#ffffff" d="M 55.347656 48.097656 L 55.347656 50.160156 L 57.417969 50.160156 L 57.417969 48.097656 Z M 53.28125 50.160156 L 53.28125 52.222656 L 55.347656 52.222656 L 55.347656 50.160156 Z M 57.417969 50.160156 L 57.417969 52.222656 L 59.484375 52.222656 L 59.484375 50.160156 Z M 59.484375 48.097656 L 59.484375 50.160156 L 61.554688 50.160156 L 61.554688 48.097656 Z M 61.554688 50.160156 L 61.554688 52.222656 L 63.621094 52.222656 L 63.621094 50.160156 Z M 63.621094 48.097656 L 63.621094 50.160156 L 65.691406 50.160156 L 65.691406 48.097656 Z M 65.691406 50.160156 L 65.691406 52.222656 L 67.761719 52.222656 L 67.761719 50.160156 Z M 67.761719 48.097656 L 67.761719 50.160156 L 69.828125 50.160156 L 69.828125 48.097656 Z M 69.828125 50.160156 L 69.828125 52.222656 L 71.898438 52.222656 L 71.898438 50.160156 Z M 55.347656 52.222656 L 55.347656 54.285156 L 57.417969 54.285156 L 57.417969 52.222656 Z M 53.28125 54.285156 L 53.28125 56.347656 L 55.347656 56.347656 L 55.347656 54.285156 Z M 51.210938 52.222656 L 51.210938 54.285156 L 53.28125 54.285156 L 53.28125 52.222656 Z M 57.417969 54.285156 L 57.417969 56.347656 L 59.484375 56.347656 L 59.484375 54.285156 Z M 59.484375 52.222656 L 59.484375 54.285156 L 61.554688 54.285156 L 61.554688 52.222656 Z M 61.554688 54.285156 L 61.554688 56.347656 L 63.621094 56.347656 L 63.621094 54.285156 Z M 63.621094 52.222656 L 63.621094 54.285156 L 65.691406 54.285156 L 65.691406 52.222656 Z M 65.691406 54.285156 L 65.691406 56.347656 L 67.761719 56.347656 L 67.761719 54.285156 Z M 67.761719 52.222656 L 67.761719 54.285156 L 69.828125 54.285156 L 69.828125 52.222656 Z M 69.828125 54.285156 L 69.828125 56.347656 L 71.898438 56.347656 L 71.898438 54.285156 Z M 49.140625 54.285156 L 49.140625 56.347656 L 51.210938 56.347656 L 51.210938 54.285156 Z M 55.347656 56.347656 L 55.347656 58.410156 L 57.417969 58.410156 L 57.417969 56.347656 Z M 53.28125 58.410156 L 53.28125 60.472656 L 55.347656 60.472656 L 55.347656 58.410156 Z M 51.210938 56.347656 L 51.210938 58.410156 L 53.28125 58.410156 L 53.28125 56.347656 Z M 57.417969 58.410156 L 57.417969 60.472656 L 59.484375 60.472656 L 59.484375 58.410156 Z M 59.484375 56.347656 L 59.484375 58.410156 L 61.554688 58.410156 L 61.554688 56.347656 Z M 61.554688 58.410156 L 61.554688 60.472656 L 63.621094 60.472656 L 63.621094 58.410156 Z M 63.621094 56.347656 L 63.621094 58.410156 L 65.691406 58.410156 L 65.691406 56.347656 Z M 65.691406 58.410156 L 65.691406 60.472656 L 67.761719 60.472656 L 67.761719 58.410156 Z M 67.761719 56.347656 L 67.761719 58.410156 L 69.828125 58.410156 L 69.828125 56.347656 Z M 69.828125 58.410156 L 69.828125 60.472656 L 71.898438 60.472656 L 71.898438 58.410156 Z M 49.140625 58.410156 L 49.140625 60.472656 L 51.210938 60.472656 L 51.210938 58.410156 Z M 55.347656 60.472656 L 55.347656 62.535156 L 57.417969 62.535156 L 57.417969 60.472656 Z M 53.28125 62.535156 L 53.28125 64.597656 L 55.347656 64.597656 L 55.347656 62.535156 Z M 51.210938 60.472656 L 51.210938 62.535156 L 53.28125 62.535156 L 53.28125 60.472656 Z M 57.417969 62.535156 L 57.417969 64.597656 L 59.484375 64.597656 L 59.484375 62.535156 Z M 59.484375 60.472656 L 59.484375 62.535156 L 61.554688 62.535156 L 61.554688 60.472656 Z M 61.554688 62.535156 L 61.554688 64.597656 L 63.621094 64.597656 L 63.621094 62.535156 Z M 63.621094 60.472656 L 63.621094 62.535156 L 65.691406 62.535156 L 65.691406 60.472656 Z M 65.691406 62.535156 L 65.691406 64.597656 L 67.761719 64.597656 L 67.761719 62.535156 Z M 67.761719 60.472656 L 67.761719 62.535156 L 69.828125 62.535156 L 69.828125 60.472656 Z M 69.828125 62.535156 L 69.828125 64.597656 L 71.898438 64.597656 L 71.898438 62.535156 Z M 49.140625 62.535156 L 49.140625 64.597656 L 51.210938 64.597656 L 51.210938 62.535156 Z M 55.347656 64.597656 L 55.347656 66.660156 L 57.417969 66.660156 L 57.417969 64.597656 Z M 53.28125 66.660156 L 53.28125 68.722656 L 55.347656 68.722656 L 55.347656 66.660156 Z M 51.210938 64.597656 L 51.210938 66.660156 L 53.28125 66.660156 L 53.28125 64.597656 Z M 57.417969 66.660156 L 57.417969 68.722656 L 59.484375 68.722656 L 59.484375 66.660156 Z M 59.484375 64.597656 L 59.484375 66.660156 L 61.554688 66.660156 L 61.554688 64.597656 Z M 61.554688 66.660156 L 61.554688 68.722656 L 63.621094 68.722656 L 63.621094 66.660156 Z M 63.621094 64.597656 L 63.621094 66.660156 L 65.691406 66.660156 L 65.691406 64.597656 Z M 65.691406 66.660156 L 65.691406 68.722656 L 67.761719 68.722656 L 67.761719 66.660156 Z M 67.761719 64.597656 L 67.761719 66.660156 L 69.828125 66.660156 L 69.828125 64.597656 Z M 69.828125 66.660156 L 69.828125 68.722656 L 71.898438 68.722656 L 71.898438 66.660156 Z M 49.140625 66.660156 L 49.140625 68.722656 L 51.210938 68.722656 L 51.210938 66.660156 Z M 55.347656 68.722656 L 55.347656 70.785156 L 57.417969 70.785156 L 57.417969 68.722656 Z M 53.28125 70.785156 L 53.28125 72.847656 L 55.347656 72.847656 L 55.347656 70.785156 Z M 51.210938 68.722656 L 51.210938 70.785156 L 53.28125 70.785156 L 53.28125 68.722656 Z M 57.417969 70.785156 L 57.417969 72.847656 L 59.484375 72.847656 L 59.484375 70.785156 Z M 59.484375 68.722656 L 59.484375 70.785156 L 61.554688 70.785156 L 61.554688 68.722656 Z M 61.554688 70.785156 L 61.554688 72.847656 L 63.621094 72.847656 L 63.621094 70.785156 Z M 63.621094 68.722656 L 63.621094 70.785156 L 65.691406 70.785156 L 65.691406 68.722656 Z M 65.691406 70.785156 L 65.691406 72.847656 L 67.761719 72.847656 L 67.761719 70.785156 Z M 67.761719 68.722656 L 67.761719 70.785156 L 69.828125 70.785156 L 69.828125 68.722656 Z M 69.828125 70.785156 L 69.828125 72.847656 L 71.898438 72.847656 L 71.898438 70.785156 Z M 49.140625 70.785156 L 49.140625 72.847656 L 51.210938 72.847656 L 51.210938 70.785156 Z M 55.347656 72.847656 L 55.347656 74.910156 L 57.417969 74.910156 L 57.417969 72.847656 Z M 53.28125 74.910156 L 53.28125 76.972656 L 55.347656 76.972656 L 55.347656 74.910156 Z M 51.210938 72.847656 L 51.210938 74.910156 L 53.28125 74.910156 L 53.28125 72.847656 Z M 57.417969 74.910156 L 57.417969 76.972656 L 59.484375 76.972656 L 59.484375 74.910156 Z M 59.484375 72.847656 L 59.484375 74.910156 L 61.554688 74.910156 L 61.554688 72.847656 Z M 61.554688 74.910156 L 61.554688 76.972656 L 63.621094 76.972656 L 63.621094 74.910156 Z M 63.621094 72.847656 L 63.621094 74.910156 L 65.691406 74.910156 L 65.691406 72.847656 Z M 65.691406 74.910156 L 65.691406 76.972656 L 67.761719 76.972656 L 67.761719 74.910156 Z M 67.761719 72.847656 L 67.761719 74.910156 L 69.828125 74.910156 L 69.828125 72.847656 Z M 69.828125 74.910156 L 69.828125 76.972656 L 71.898438 76.972656 L 71.898438 74.910156 Z M 49.140625 74.910156 L 49.140625 76.972656 L 51.210938 76.972656 L 51.210938 74.910156 Z M 55.347656 76.972656 L 55.347656 79.035156 L 57.417969 79.035156 L 57.417969 76.972656 Z M 53.28125 79.035156 L 53.28125 81.097656 L 55.347656 81.097656 L 55.347656 79.035156 Z M 51.210938 76.972656 L 51.210938 79.035156 L 53.28125 79.035156 L 53.28125 76.972656 Z M 57.417969 79.035156 L 57.417969 81.097656 L 59.484375 81.097656 L 59.484375 79.035156 Z M 59.484375 76.972656 L 59.484375 79.035156 L 61.554688 79.035156 L 61.554688 76.972656 Z M 61.554688 79.035156 L 61.554688 81.097656 L 63.621094 81.097656 L 63.621094 79.035156 Z M 63.621094 76.972656 L 63.621094 79.035156 L 65.691406 79.035156 L 65.691406 76.972656 Z M 65.691406 79.035156 L 65.691406 81.097656 L 67.761719 81.097656 L 67.761719 79.035156 Z M 67.761719 76.972656 L 67.761719 79.035156 L 69.828125 79.035156 L 69.828125 76.972656 Z M 69.828125 79.035156 L 69.828125 81.097656 L 71.898438 81.097656 L 71.898438 79.035156 Z M 49.140625 79.035156 L 49.140625 81.097656 L 51.210938 81.097656 L 51.210938 79.035156 Z M 55.347656 81.097656 L 55.347656 83.15625 L 57.417969 83.15625 L 57.417969 81.097656 Z M 53.28125 83.15625 L 53.28125 85.21875 L 55.347656 85.21875 L 55.347656 83.15625 Z M 51.210938 81.097656 L 51.210938 83.15625 L 53.28125 83.15625 L 53.28125 81.097656 Z M 57.417969 83.15625 L 57.417969 85.21875 L 59.484375 85.21875 L 59.484375 83.15625 Z M 59.484375 81.097656 L 59.484375 83.15625 L 61.554688 83.15625 L 61.554688 81.097656 Z M 61.554688 83.15625 L 61.554688 85.21875 L 63.621094 85.21875 L 63.621094 83.15625 Z M 63.621094 81.097656 L 63.621094 83.15625 L 65.691406 83.15625 L 65.691406 81.097656 Z M 65.691406 83.15625 L 65.691406 85.21875 L 67.761719 85.21875 L 67.761719 83.15625 Z M 67.761719 81.097656 L 67.761719 83.15625 L 69.828125 83.15625 L 69.828125 81.097656 Z M 69.828125 83.15625 L 69.828125 85.21875 L 71.898438 85.21875 L 71.898438 83.15625 Z M 49.140625 83.15625 L 49.140625 85.21875 L 51.210938 85.21875 L 51.210938 83.15625 Z M 55.347656 85.21875 L 55.347656 87.28125 L 57.417969 87.28125 L 57.417969 85.21875 Z M 53.28125 87.28125 L 53.28125 89.34375 L 55.347656 89.34375 L 55.347656 87.28125 Z M 51.210938 85.21875 L 51.210938 87.28125 L 53.28125 87.28125 L 53.28125 85.21875 Z M 57.417969 87.28125 L 57.417969 89.34375 L 59.484375 89.34375 L 59.484375 87.28125 Z M 59.484375 85.21875 L 59.484375 87.28125 L 61.554688 87.28125 L 61.554688 85.21875 Z M 61.554688 87.28125 L 61.554688 89.34375 L 63.621094 89.34375 L 63.621094 87.28125 Z M 63.621094 85.21875 L 63.621094 87.28125 L 65.691406 87.28125 L 65.691406 85.21875 Z M 65.691406 87.28125 L 65.691406 89.34375 L 67.761719 89.34375 L 67.761719 87.28125 Z M 59.484375 89.34375 L 59.484375 91.40625 L 61.554688 91.40625 L 61.554688 89.34375 Z M 61.554688 91.40625 L 61.554688 93.46875 L 63.621094 93.46875 L 63.621094 91.40625 Z M 63.621094 89.34375 L 63.621094 91.40625 L 65.691406 91.40625 L 65.691406 89.34375 Z M 65.691406 91.40625 L 65.691406 93.46875 L 67.761719 93.46875 L 67.761719 91.40625 Z M 63.621094 93.46875 L 63.621094 95.53125 L 65.691406 95.53125 L 65.691406 93.46875 Z M 65.691406 95.53125 L 65.691406 97.59375 L 67.761719 97.59375 L 67.761719 95.53125 Z M 67.761719 85.21875 L 67.761719 87.28125 L 69.828125 87.28125 L 69.828125 85.21875 Z M 69.828125 87.28125 L 69.828125 89.34375 L 71.898438 89.34375 L 71.898438 87.28125 Z M 71.898438 48.097656 L 71.898438 50.160156 L 73.964844 50.160156 L 73.964844 48.097656 Z M 73.964844 50.160156 L 73.964844 52.222656 L 76.035156 52.222656 L 76.035156 50.160156 Z M 71.898438 52.222656 L 71.898438 54.285156 L 73.964844 54.285156 L 73.964844 52.222656 Z M 73.964844 54.285156 L 73.964844 56.347656 L 76.035156 56.347656 L 76.035156 54.285156 Z M 71.898438 56.347656 L 71.898438 58.410156 L 73.964844 58.410156 L 73.964844 56.347656 Z M 73.964844 58.410156 L 73.964844 60.472656 L 76.035156 60.472656 L 76.035156 58.410156 Z M 71.898438 60.472656 L 71.898438 62.535156 L 73.964844 62.535156 L 73.964844 60.472656 Z M 73.964844 62.535156 L 73.964844 64.597656 L 76.035156 64.597656 L 76.035156 62.535156 Z M 71.898438 64.597656 L 71.898438 66.660156 L 73.964844 66.660156 L 73.964844 64.597656 Z M 73.964844 66.660156 L 73.964844 68.722656 L 76.035156 68.722656 L 76.035156 66.660156 Z M 71.898438 68.722656 L 71.898438 70.785156 L 73.964844 70.785156 L 73.964844 68.722656 Z M 73.964844 70.785156 L 73.964844 72.847656 L 76.035156 72.847656 L 76.035156 70.785156 Z M 71.898438 72.847656 L 71.898438 74.910156 L 73.964844 74.910156 L 73.964844 72.847656 Z M 73.964844 74.910156 L 73.964844 76.972656 L 76.035156 76.972656 L 76.035156 74.910156 Z M 71.898438 76.972656 L 71.898438 79.035156 L 73.964844 79.035156 L 73.964844 76.972656 Z M 73.964844 79.035156 L 73.964844 81.097656 L 76.035156 81.097656 L 76.035156 79.035156 Z M 71.898438 81.097656 L 71.898438 83.15625 L 73.964844 83.15625 L 73.964844 81.097656 Z M 73.964844 83.15625 L 73.964844 85.21875 L 76.035156 85.21875 L 76.035156 83.15625 Z M 71.898438 85.21875 L 71.898438 87.28125 L 73.964844 87.28125 L 73.964844 85.21875 Z M 73.964844 87.28125 L 73.964844 89.34375 L 76.035156 89.34375 L 76.035156 87.28125 Z M 76.035156 48.097656 L 76.035156 50.160156 L 78.101562 50.160156 L 78.101562 48.097656 Z M 78.101562 50.160156 L 78.101562 52.222656 L 80.171875 52.222656 L 80.171875 50.160156 Z M 76.035156 52.222656 L 76.035156 54.285156 L 78.101562 54.285156 L 78.101562 52.222656 Z M 78.101562 54.285156 L 78.101562 56.347656 L 80.171875 56.347656 L 80.171875 54.285156 Z M 76.035156 56.347656 L 76.035156 58.410156 L 78.101562 58.410156 L 78.101562 56.347656 Z M 78.101562 58.410156 L 78.101562 60.472656 L 80.171875 60.472656 L 80.171875 58.410156 Z M 76.035156 60.472656 L 76.035156 62.535156 L 78.101562 62.535156 L 78.101562 60.472656 Z M 78.101562 62.535156 L 78.101562 64.597656 L 80.171875 64.597656 L 80.171875 62.535156 Z M 76.035156 64.597656 L 76.035156 66.660156 L 78.101562 66.660156 L 78.101562 64.597656 Z M 78.101562 66.660156 L 78.101562 68.722656 L 80.171875 68.722656 L 80.171875 66.660156 Z M 76.035156 68.722656 L 76.035156 70.785156 L 78.101562 70.785156 L 78.101562 68.722656 Z M 78.101562 70.785156 L 78.101562 72.847656 L 80.171875 72.847656 L 80.171875 70.785156 Z M 76.035156 72.847656 L 76.035156 74.910156 L 78.101562 74.910156 L 78.101562 72.847656 Z M 78.101562 74.910156 L 78.101562 76.972656 L 80.171875 76.972656 L 80.171875 74.910156 Z M 76.035156 76.972656 L 76.035156 79.035156 L 78.101562 79.035156 L 78.101562 76.972656 Z M 78.101562 79.035156 L 78.101562 81.097656 L 80.171875 81.097656 L 80.171875 79.035156 Z M 76.035156 81.097656 L 76.035156 83.15625 L 78.101562 83.15625 L 78.101562 81.097656 Z M 78.101562 83.15625 L 78.101562 85.21875 L 80.171875 85.21875 L 80.171875 83.15625 Z M 76.035156 85.21875 L 76.035156 87.28125 L 78.101562 87.28125 L 78.101562 85.21875 Z M 78.101562 87.28125 L 78.101562 89.34375 L 80.171875 89.34375 L 80.171875 87.28125 Z M 80.171875 48.097656 L 80.171875 50.160156 L 82.238281 50.160156 L 82.238281 48.097656 Z M 82.238281 50.160156 L 82.238281 52.222656 L 84.308594 52.222656 L 84.308594 50.160156 Z M 80.171875 52.222656 L 80.171875 54.285156 L 82.238281 54.285156 L 82.238281 52.222656 Z M 82.238281 54.285156 L 82.238281 56.347656 L 84.308594 56.347656 L 84.308594 54.285156 Z M 80.171875 56.347656 L 80.171875 58.410156 L 82.238281 58.410156 L 82.238281 56.347656 Z M 82.238281 58.410156 L 82.238281 60.472656 L 84.308594 60.472656 L 84.308594 58.410156 Z M 80.171875 60.472656 L 80.171875 62.535156 L 82.238281 62.535156 L 82.238281 60.472656 Z M 82.238281 62.535156 L 82.238281 64.597656 L 84.308594 64.597656 L 84.308594 62.535156 Z M 80.171875 64.597656 L 80.171875 66.660156 L 82.238281 66.660156 L 82.238281 64.597656 Z M 82.238281 66.660156 L 82.238281 68.722656 L 84.308594 68.722656 L 84.308594 66.660156 Z M 80.171875 68.722656 L 80.171875 70.785156 L 82.238281 70.785156 L 82.238281 68.722656 Z M 82.238281 70.785156 L 82.238281 72.847656 L 84.308594 72.847656 L 84.308594 70.785156 Z M 80.171875 72.847656 L 80.171875 74.910156 L 82.238281 74.910156 L 82.238281 72.847656 Z M 82.238281 74.910156 L 82.238281 76.972656 L 84.308594 76.972656 L 84.308594 74.910156 Z M 80.171875 76.972656 L 80.171875 79.035156 L 82.238281 79.035156 L 82.238281 76.972656 Z M 82.238281 79.035156 L 82.238281 81.097656 L 84.308594 81.097656 L 84.308594 79.035156 Z M 80.171875 81.097656 L 80.171875 83.15625 L 82.238281 83.15625 L 82.238281 81.097656 Z M 82.238281 83.15625 L 82.238281 85.21875 L 84.308594 85.21875 L 84.308594 83.15625 Z M 80.171875 85.21875 L 80.171875 87.28125 L 82.238281 87.28125 L 82.238281 85.21875 Z M 82.238281 87.28125 L 82.238281 89.34375 L 84.308594 89.34375 L 84.308594 87.28125 Z M 84.308594 48.097656 L 84.308594 50.160156 L 86.378906 50.160156 L 86.378906 48.097656 Z M 86.378906 50.160156 L 86.378906 52.222656 L 88.445312 52.222656 L 88.445312 50.160156 Z M 84.308594 52.222656 L 84.308594 54.285156 L 86.378906 54.285156 L 86.378906 52.222656 Z M 86.378906 54.285156 L 86.378906 56.347656 L 88.445312 56.347656 L 88.445312 54.285156 Z M 84.308594 56.347656 L 84.308594 58.410156 L 86.378906 58.410156 L 86.378906 56.347656 Z M 86.378906 58.410156 L 86.378906 60.472656 L 88.445312 60.472656 L 88.445312 58.410156 Z M 84.308594 60.472656 L 84.308594 62.535156 L 86.378906 62.535156 L 86.378906 60.472656 Z M 86.378906 62.535156 L 86.378906 64.597656 L 88.445312 64.597656 L 88.445312 62.535156 Z M 84.308594 64.597656 L 84.308594 66.660156 L 86.378906 66.660156 L 86.378906 64.597656 Z M 86.378906 66.660156 L 86.378906 68.722656 L 88.445312 68.722656 L 88.445312 66.660156 Z M 84.308594 68.722656 L 84.308594 70.785156 L 86.378906 70.785156 L 86.378906 68.722656 Z M 86.378906 70.785156 L 86.378906 72.847656 L 88.445312 72.847656 L 88.445312 70.785156 Z M 84.308594 72.847656 L 84.308594 74.910156 L 86.378906 74.910156 L 86.378906 72.847656 Z M 86.378906 74.910156 L 86.378906 76.972656 L 88.445312 76.972656 L 88.445312 74.910156 Z M 84.308594 76.972656 L 84.308594 79.035156 L 86.378906 79.035156 L 86.378906 76.972656 Z M 86.378906 79.035156 L 86.378906 81.097656 L 88.445312 81.097656 L 88.445312 79.035156 Z M 84.308594 81.097656 L 84.308594 83.15625 L 86.378906 83.15625 L 86.378906 81.097656 Z M 86.378906 83.15625 L 86.378906 85.21875 L 88.445312 85.21875 L 88.445312 83.15625 Z M 84.308594 85.21875 L 84.308594 87.28125 L 86.378906 87.28125 L 86.378906 85.21875 Z M 86.378906 87.28125 L 86.378906 89.34375 L 88.445312 89.34375 L 88.445312 87.28125 Z M 88.445312 48.097656 L 88.445312 50.160156 L 90.515625 50.160156 L 90.515625 48.097656 Z M 90.515625 50.160156 L 90.515625 52.222656 L 92.582031 52.222656 L 92.582031 50.160156 Z M 88.445312 52.222656 L 88.445312 54.285156 L 90.515625 54.285156 L 90.515625 52.222656 Z M 90.515625 54.285156 L 90.515625 56.347656 L 92.582031 56.347656 L 92.582031 54.285156 Z M 88.445312 56.347656 L 88.445312 58.410156 L 90.515625 58.410156 L 90.515625 56.347656 Z M 90.515625 58.410156 L 90.515625 60.472656 L 92.582031 60.472656 L 92.582031 58.410156 Z M 88.445312 60.472656 L 88.445312 62.535156 L 90.515625 62.535156 L 90.515625 60.472656 Z M 90.515625 62.535156 L 90.515625 64.597656 L 92.582031 64.597656 L 92.582031 62.535156 Z M 88.445312 64.597656 L 88.445312 66.660156 L 90.515625 66.660156 L 90.515625 64.597656 Z M 90.515625 66.660156 L 90.515625 68.722656 L 92.582031 68.722656 L 92.582031 66.660156 Z M 88.445312 68.722656 L 88.445312 70.785156 L 90.515625 70.785156 L 90.515625 68.722656 Z M 90.515625 70.785156 L 90.515625 72.847656 L 92.582031 72.847656 L 92.582031 70.785156 Z M 88.445312 72.847656 L 88.445312 74.910156 L 90.515625 74.910156 L 90.515625 72.847656 Z M 90.515625 74.910156 L 90.515625 76.972656 L 92.582031 76.972656 L 92.582031 74.910156 Z M 88.445312 76.972656 L 88.445312 79.035156 L 90.515625 79.035156 L 90.515625 76.972656 Z M 90.515625 79.035156 L 90.515625 81.097656 L 92.582031 81.097656 L 92.582031 79.035156 Z M 88.445312 81.097656 L 88.445312 83.15625 L 90.515625 83.15625 L 90.515625 81.097656 Z M 90.515625 83.15625 L 90.515625 85.21875 L 92.582031 85.21875 L 92.582031 83.15625 Z M 88.445312 85.21875 L 88.445312 87.28125 L 90.515625 87.28125 L 90.515625 85.21875 Z M 90.515625 87.28125 L 90.515625 89.34375 L 92.582031 89.34375 L 92.582031 87.28125 Z M 92.582031 48.097656 L 92.582031 50.160156 L 94.652344 50.160156 L 94.652344 48.097656 Z M 94.652344 50.160156 L 94.652344 52.222656 L 96.71875 52.222656 L 96.71875 50.160156 Z M 92.582031 52.222656 L 92.582031 54.285156 L 94.652344 54.285156 L 94.652344 52.222656 Z M 94.652344 54.285156 L 94.652344 56.347656 L 96.71875 56.347656 L 96.71875 54.285156 Z M 92.582031 56.347656 L 92.582031 58.410156 L 94.652344 58.410156 L 94.652344 56.347656 Z M 94.652344 58.410156 L 94.652344 60.472656 L 96.71875 60.472656 L 96.71875 58.410156 Z M 92.582031 60.472656 L 92.582031 62.535156 L 94.652344 62.535156 L 94.652344 60.472656 Z M 94.652344 62.535156 L 94.652344 64.597656 L 96.71875 64.597656 L 96.71875 62.535156 Z M 92.582031 64.597656 L 92.582031 66.660156 L 94.652344 66.660156 L 94.652344 64.597656 Z M 94.652344 66.660156 L 94.652344 68.722656 L 96.71875 68.722656 L 96.71875 66.660156 Z M 92.582031 68.722656 L 92.582031 70.785156 L 94.652344 70.785156 L 94.652344 68.722656 Z M 94.652344 70.785156 L 94.652344 72.847656 L 96.71875 72.847656 L 96.71875 70.785156 Z M 92.582031 72.847656 L 92.582031 74.910156 L 94.652344 74.910156 L 94.652344 72.847656 Z M 94.652344 74.910156 L 94.652344 76.972656 L 96.71875 76.972656 L 96.71875 74.910156 Z M 92.582031 76.972656 L 92.582031 79.035156 L 94.652344 79.035156 L 94.652344 76.972656 Z M 94.652344 79.035156 L 94.652344 81.097656 L 96.71875 81.097656 L 96.71875 79.035156 Z M 92.582031 81.097656 L 92.582031 83.15625 L 94.652344 83.15625 L 94.652344 81.097656 Z M 94.652344 83.15625 L 94.652344 85.21875 L 96.71875 85.21875 L 96.71875 83.15625 Z M 92.582031 85.21875 L 92.582031 87.28125 L 94.652344 87.28125 L 94.652344 85.21875 Z M 94.652344 87.28125 L 94.652344 89.34375 L 96.71875 89.34375 L 96.71875 87.28125 Z M 96.71875 48.097656 L 96.71875 50.160156 L 98.789062 50.160156 L 98.789062 48.097656 Z M 98.789062 50.160156 L 98.789062 52.222656 L 100.859375 52.222656 L 100.859375 50.160156 Z M 96.71875 52.222656 L 96.71875 54.285156 L 98.789062 54.285156 L 98.789062 52.222656 Z M 98.789062 54.285156 L 98.789062 56.347656 L 100.859375 56.347656 L 100.859375 54.285156 Z M 96.71875 56.347656 L 96.71875 58.410156 L 98.789062 58.410156 L 98.789062 56.347656 Z M 98.789062 58.410156 L 98.789062 60.472656 L 100.859375 60.472656 L 100.859375 58.410156 Z M 96.71875 60.472656 L 96.71875 62.535156 L 98.789062 62.535156 L 98.789062 60.472656 Z M 98.789062 62.535156 L 98.789062 64.597656 L 100.859375 64.597656 L 100.859375 62.535156 Z M 96.71875 64.597656 L 96.71875 66.660156 L 98.789062 66.660156 L 98.789062 64.597656 Z M 98.789062 66.660156 L 98.789062 68.722656 L 100.859375 68.722656 L 100.859375 66.660156 Z M 96.71875 68.722656 L 96.71875 70.785156 L 98.789062 70.785156 L 98.789062 68.722656 Z M 98.789062 70.785156 L 98.789062 72.847656 L 100.859375 72.847656 L 100.859375 70.785156 Z M 96.71875 72.847656 L 96.71875 74.910156 L 98.789062 74.910156 L 98.789062 72.847656 Z M 98.789062 74.910156 L 98.789062 76.972656 L 100.859375 76.972656 L 100.859375 74.910156 Z M 96.71875 76.972656 L 96.71875 79.035156 L 98.789062 79.035156 L 98.789062 76.972656 Z M 98.789062 79.035156 L 98.789062 81.097656 L 100.859375 81.097656 L 100.859375 79.035156 Z M 96.71875 81.097656 L 96.71875 83.15625 L 98.789062 83.15625 L 98.789062 81.097656 Z M 98.789062 83.15625 L 98.789062 85.21875 L 100.859375 85.21875 L 100.859375 83.15625 Z M 96.71875 85.21875 L 96.71875 87.28125 L 98.789062 87.28125 L 98.789062 85.21875 Z M 100.859375 52.222656 L 100.859375 54.285156 L 102.925781 54.285156 L 102.925781 52.222656 Z M 100.859375 56.347656 L 100.859375 58.410156 L 102.925781 58.410156 L 102.925781 56.347656 Z M 100.859375 60.472656 L 100.859375 62.535156 L 102.925781 62.535156 L 102.925781 60.472656 Z M 100.859375 64.597656 L 100.859375 66.660156 L 102.925781 66.660156 L 102.925781 64.597656 Z M 100.859375 68.722656 L 100.859375 70.785156 L 102.925781 70.785156 L 102.925781 68.722656 Z M 100.859375 72.847656 L 100.859375 74.910156 L 102.925781 74.910156 L 102.925781 72.847656 Z M 100.859375 76.972656 L 100.859375 79.035156 L 102.925781 79.035156 L 102.925781 76.972656 Z M 100.859375 81.097656 L 100.859375 83.15625 L 102.925781 83.15625 L 102.925781 81.097656 Z M 100.859375 81.097656 " fill-opacity="0.2" fill-rule="nonzero"/><g clip-path="url(#8bc170b48c)"><path fill="#000000" d="M 104.996094 52.222656 L 104.996094 85.21875 L 102.925781 85.21875 L 102.925781 52.222656 Z M 100.859375 87.28125 L 102.925781 87.28125 L 102.925781 85.21875 L 100.859375 85.21875 Z M 102.925781 52.222656 L 102.925781 50.160156 L 100.859375 50.160156 L 100.859375 52.222656 Z M 98.789062 89.34375 L 100.859375 89.34375 L 100.859375 87.28125 L 98.789062 87.28125 Z M 100.859375 50.160156 L 100.859375 48.097656 L 98.789062 48.097656 L 98.789062 50.160156 Z M 94.652344 89.34375 L 67.761719 89.34375 L 67.761719 97.59375 L 65.691406 97.59375 L 65.691406 99.65625 L 67.761719 99.65625 L 67.761719 101.71875 L 69.828125 101.71875 L 69.828125 91.40625 L 98.789062 91.40625 L 98.789062 89.34375 Z M 92.582031 64.597656 L 94.652344 64.597656 L 94.652344 72.847656 L 86.378906 72.847656 L 86.378906 64.597656 Z M 92.582031 66.660156 L 88.445312 66.660156 L 88.445312 70.785156 L 92.582031 70.785156 Z M 78.101562 64.597656 L 80.171875 64.597656 L 80.171875 72.847656 L 71.898438 72.847656 L 71.898438 64.597656 Z M 78.101562 66.660156 L 73.964844 66.660156 L 73.964844 70.785156 L 78.101562 70.785156 Z M 63.621094 95.53125 L 63.621094 97.59375 L 65.691406 97.59375 L 65.691406 95.53125 Z M 61.554688 93.46875 L 61.554688 95.53125 L 63.621094 95.53125 L 63.621094 93.46875 Z M 63.621094 64.597656 L 65.691406 64.597656 L 65.691406 72.847656 L 57.417969 72.847656 L 57.417969 64.597656 Z M 63.621094 66.660156 L 59.484375 66.660156 L 59.484375 70.785156 L 63.621094 70.785156 Z M 59.484375 91.40625 L 59.484375 93.46875 L 61.554688 93.46875 L 61.554688 91.40625 Z M 57.417969 89.34375 L 53.28125 89.34375 L 53.28125 91.40625 L 59.484375 91.40625 L 59.484375 89.34375 Z M 57.417969 48.097656 L 98.789062 48.097656 L 98.789062 46.035156 L 53.28125 46.035156 L 53.28125 48.097656 Z M 51.210938 87.28125 L 51.210938 89.34375 L 53.28125 89.34375 L 53.28125 87.28125 Z M 53.28125 48.097656 L 51.210938 48.097656 L 51.210938 50.160156 L 53.28125 50.160156 Z M 49.140625 85.21875 L 49.140625 87.28125 L 51.210938 87.28125 L 51.210938 85.21875 Z M 51.210938 50.160156 L 49.140625 50.160156 L 49.140625 52.222656 L 51.210938 52.222656 Z M 49.140625 81.097656 L 49.140625 52.222656 L 47.074219 52.222656 L 47.074219 85.21875 L 49.140625 85.21875 Z M 49.140625 81.097656 " fill-opacity="1" fill-rule="nonzero"/></g><path fill="#000000" d="M 96.71875 87.28125 L 96.71875 89.34375 L 67.761719 89.34375 L 67.761719 87.28125 Z M 88.445312 74.910156 L 92.582031 74.910156 L 92.582031 72.847656 L 86.378906 72.847656 L 86.378906 66.660156 L 84.308594 66.660156 L 84.308594 74.910156 Z M 73.964844 74.910156 L 78.101562 74.910156 L 78.101562 72.847656 L 71.898438 72.847656 L 71.898438 66.660156 L 69.828125 66.660156 L 69.828125 74.910156 Z M 65.691406 97.59375 L 67.761719 97.59375 L 67.761719 95.53125 L 65.691406 95.53125 Z M 63.621094 93.46875 L 63.621094 95.53125 L 65.691406 95.53125 L 65.691406 93.46875 Z M 61.554688 91.40625 L 61.554688 93.46875 L 63.621094 93.46875 L 63.621094 91.40625 Z M 59.484375 89.34375 L 59.484375 91.40625 L 61.554688 91.40625 L 61.554688 89.34375 Z M 57.417969 87.28125 L 53.28125 87.28125 L 53.28125 89.34375 L 59.484375 89.34375 L 59.484375 87.28125 Z M 57.417969 68.722656 L 57.417969 66.660156 L 55.347656 66.660156 L 55.347656 74.910156 L 63.621094 74.910156 L 63.621094 72.847656 L 57.417969 72.847656 Z M 55.347656 48.097656 L 53.28125 48.097656 L 53.28125 50.160156 L 55.347656 50.160156 Z M 51.210938 85.21875 L 51.210938 87.28125 L 53.28125 87.28125 L 53.28125 85.21875 Z M 53.28125 50.160156 L 51.210938 50.160156 L 51.210938 52.222656 L 53.28125 52.222656 Z M 51.210938 81.097656 L 51.210938 52.222656 L 49.140625 52.222656 L 49.140625 85.21875 L 51.210938 85.21875 Z M 51.210938 81.097656 " fill-opacity="0.3" fill-rule="nonzero"/><path fill="#ffffff" d="M 102.925781 52.222656 L 102.925781 85.21875 L 100.859375 85.21875 L 100.859375 52.222656 Z M 98.789062 87.28125 L 100.859375 87.28125 L 100.859375 85.21875 L 98.789062 85.21875 Z M 98.789062 50.160156 L 98.789062 52.222656 L 100.859375 52.222656 L 100.859375 50.160156 Z M 96.71875 89.34375 L 98.789062 89.34375 L 98.789062 87.28125 L 96.71875 87.28125 Z M 96.71875 48.097656 L 55.347656 48.097656 L 55.347656 50.160156 L 98.789062 50.160156 L 98.789062 48.097656 Z M 65.691406 89.34375 L 65.691406 95.53125 L 67.761719 95.53125 L 67.761719 87.28125 L 65.691406 87.28125 Z M 65.691406 89.34375 " fill-opacity="0.5" fill-rule="nonzero"/><path fill="#ffffff" d="M 92.582031 66.660156 L 92.582031 68.722656 L 90.515625 68.722656 L 90.515625 66.660156 Z M 76.035156 68.722656 L 78.101562 68.722656 L 78.101562 66.660156 L 76.035156 66.660156 Z M 61.554688 68.722656 L 63.621094 68.722656 L 63.621094 66.660156 L 61.554688 66.660156 Z M 61.554688 68.722656 " fill-opacity="0.7" fill-rule="nonzero"/></svg>