<svg xmlns="http://www.w3.org/2000/svg" xmlns:xlink="http://www.w3.org/1999/xlink" zoomAndPan="magnify" preserveAspectRatio="xMidYMid meet" version="1.0" viewBox="19.4 56.24 338.25 261"><defs><clipPath id="c4adbd64ea"><path d="M 119 291 L 258 291 L 258 317.242188 L 119 317.242188 Z M 119 291 " clip-rule="nonzero"/></clipPath><clipPath id="df869fa085"><path d="M 26 56.242188 L 357.648438 56.242188 L 357.648438 273 L 26 273 Z M 26 56.242188 " clip-rule="nonzero"/></clipPath><clipPath id="42d9ab67b5"><path d="M 19.398438 56.242188 L 35 56.242188 L 35 273 L 19.398438 273 Z M 19.398438 56.242188 " clip-rule="nonzero"/></clipPath><clipPath id="3888870ab5"><path d="M 133 294 L 272 294 L 272 317.242188 L 133 317.242188 Z M 133 294 " clip-rule="nonzero"/></clipPath></defs><g clip-path="url(#c4adbd64ea)"><path fill="#000000" d="M 188.539062 317.234375 L 119.652344 317.234375 C 119.652344 303.257812 150.492188 291.921875 188.539062 291.921875 C 226.582031 291.921875 257.421875 303.257812 257.421875 317.234375 L 188.539062 317.234375 " fill-opacity="1" fill-rule="evenodd"/></g><path fill="#000000" d="M 168.628906 304.367188 L 215.71875 304.367188 L 215.71875 241.234375 L 168.628906 241.234375 L 168.628906 304.367188 " fill-opacity="1" fill-rule="evenodd"/><path fill="#1a1a1a" d="M 178.765625 304.367188 L 225.855469 304.367188 L 225.855469 241.234375 L 178.765625 241.234375 L 178.765625 304.367188 " fill-opacity="1" fill-rule="evenodd"/><g clip-path="url(#df869fa085)"><path fill="#333333" d="M 26.90625 272.804688 L 357.441406 272.804688 L 357.441406 56.246094 L 26.90625 56.246094 L 26.90625 272.804688 " fill-opacity="1" fill-rule="evenodd"/></g><g clip-path="url(#42d9ab67b5)"><path fill="#000000" d="M 19.5625 272.804688 L 34.246094 272.804688 L 34.246094 56.246094 L 19.5625 56.246094 L 19.5625 272.804688 " fill-opacity="1" fill-rule="evenodd"/></g><path fill="#f1ede4" d="M 44.703125 264.144531 L 348.554688 264.144531 L 348.554688 64.902344 L 44.703125 64.902344 L 44.703125 264.144531 " fill-opacity="1" fill-rule="evenodd"/><g clip-path="url(#3888870ab5)"><path fill="#333333" d="M 202.308594 317.234375 L 133.421875 317.234375 C 133.421875 304.414062 164.265625 294.023438 202.308594 294.023438 C 240.355469 294.023438 271.195312 304.414062 271.195312 317.234375 L 202.308594 317.234375 " fill-opacity="1" fill-rule="evenodd"/></g><path fill="#f9a197" d="M 265.550781 221.730469 C 271.726562 221.730469 276.761719 216.683594 276.761719 210.496094 C 276.761719 204.308594 271.726562 199.261719 265.550781 199.261719 C 259.375 199.261719 254.339844 204.308594 254.339844 210.496094 C 254.339844 216.683594 259.375 221.730469 265.550781 221.730469 " fill-opacity="1" fill-rule="evenodd"/><path fill="#f9a197" d="M 131.09375 221.730469 C 137.265625 221.730469 142.300781 216.683594 142.300781 210.496094 C 142.300781 204.308594 137.265625 199.261719 131.09375 199.261719 C 124.921875 199.261719 119.882812 204.308594 119.882812 210.496094 C 119.882812 216.683594 124.921875 221.730469 131.09375 221.730469 " fill-opacity="1" fill-rule="evenodd"/><path fill="#000000" d="M 240.101562 217.566406 C 240.101562 219.753906 238.332031 221.523438 236.152344 221.523438 C 233.96875 221.523438 232.199219 219.753906 232.199219 217.566406 C 232.175781 208.410156 228.386719 200.074219 222.316406 194.023438 C 216.242188 187.96875 207.894531 184.21875 198.746094 184.246094 C 189.609375 184.269531 181.289062 188.066406 175.25 194.148438 C 169.210938 200.234375 165.46875 208.601562 165.496094 217.769531 C 165.496094 219.957031 163.726562 221.730469 161.542969 221.730469 C 159.363281 221.730469 157.59375 219.957031 157.59375 217.769531 C 157.5625 206.421875 162.183594 196.074219 169.640625 188.558594 C 177.097656 181.046875 187.40625 176.355469 198.746094 176.324219 C 210.070312 176.296875 220.394531 180.925781 227.894531 188.398438 C 235.390625 195.875 240.070312 206.203125 240.101562 217.566406 " fill-opacity="1" fill-rule="evenodd"/><path fill="#000000" d="M 143.203125 122.816406 C 143.1875 120.761719 141.511719 119.109375 139.460938 119.125 C 137.410156 119.140625 135.761719 120.820312 135.777344 122.875 L 135.90625 136.863281 C 135.957031 142.6875 138.375 147.957031 142.230469 151.75 C 146.082031 155.539062 151.371094 157.867188 157.167969 157.824219 L 157.167969 157.839844 C 157.308594 157.839844 157.445312 157.832031 157.578125 157.816406 C 163.238281 157.664062 168.351562 155.261719 172.054688 151.484375 C 175.835938 147.625 178.160156 142.324219 178.117188 136.515625 L 178.128906 136.515625 L 178.113281 136.148438 L 177.988281 122.5 C 177.972656 120.445312 176.296875 118.792969 174.246094 118.808594 C 172.195312 118.824219 170.546875 120.503906 170.5625 122.558594 L 170.6875 136.21875 L 170.675781 136.515625 L 170.691406 136.515625 L 170.691406 136.542969 C 170.726562 140.308594 169.214844 143.75 166.753906 146.261719 C 164.355469 148.710938 161.0625 150.269531 157.425781 150.378906 L 157.171875 150.367188 L 157.167969 150.382812 L 157.140625 150.382812 C 153.382812 150.417969 149.949219 148.902344 147.445312 146.441406 C 144.9375 143.972656 143.363281 140.558594 143.328125 136.804688 L 143.203125 122.816406 " fill-opacity="1" fill-rule="evenodd"/><path fill="#000000" d="M 219.425781 123.734375 C 219.410156 121.679688 217.734375 120.027344 215.683594 120.042969 C 213.636719 120.058594 211.984375 121.738281 212 123.792969 L 212.128906 137.777344 C 212.179688 143.605469 214.601562 148.875 218.457031 152.667969 C 222.3125 156.464844 227.613281 158.792969 233.421875 158.742188 L 233.523438 158.738281 C 239.296875 158.660156 244.515625 156.242188 248.277344 152.398438 C 252.066406 148.535156 254.394531 143.222656 254.339844 137.402344 L 254.214844 123.414062 C 254.199219 121.359375 252.523438 119.710938 250.472656 119.726562 C 248.421875 119.742188 246.773438 121.417969 246.789062 123.472656 L 246.917969 137.460938 C 246.949219 141.226562 245.4375 144.667969 242.980469 147.175781 C 240.582031 149.625 237.285156 151.183594 233.648438 151.292969 L 233.394531 151.285156 L 233.066406 151.300781 C 229.425781 151.253906 226.105469 149.753906 223.667969 147.355469 C 221.160156 144.890625 219.585938 141.476562 219.554688 137.71875 L 219.425781 123.734375 " fill-opacity="1" fill-rule="evenodd"/></svg>