<svg xmlns="http://www.w3.org/2000/svg" xmlns:xlink="http://www.w3.org/1999/xlink" width="40" zoomAndPan="magnify" viewBox="0 0 30 30.000001" height="40" preserveAspectRatio="xMidYMid meet" version="1.0"><defs><clipPath id="3176abda98"><path d="M 0.484375 0 L 29 0 L 29 28.996094 L 0.484375 28.996094 Z M 0.484375 0 " clip-rule="nonzero"/></clipPath><clipPath id="47d062d21b"><path d="M 1 0 L 29.480469 0 L 29.480469 28.996094 L 1 28.996094 Z M 1 0 " clip-rule="nonzero"/></clipPath><clipPath id="45d3e035a2"><path d="M 1 0 L 29.480469 0 L 29.480469 28.996094 L 1 28.996094 Z M 1 0 " clip-rule="nonzero"/></clipPath></defs><g clip-path="url(#3176abda98)"><path fill="#000000" d="M 27.992188 13.363281 L 27.992188 12.617188 L 27.246094 12.617188 L 27.246094 11.875 L 23.523438 11.875 L 23.523438 10.386719 L 22.78125 10.386719 L 22.78125 9.640625 L 23.523438 9.640625 L 23.523438 8.898438 L 24.269531 8.898438 L 24.269531 8.152344 L 25.011719 8.152344 L 25.011719 5.917969 L 24.269531 5.917969 L 24.269531 5.175781 L 23.523438 5.175781 L 23.523438 4.429688 L 21.292969 4.429688 L 21.292969 5.175781 L 20.546875 5.175781 L 20.546875 5.917969 L 19.800781 5.917969 L 19.800781 6.664062 L 19.058594 6.664062 L 19.058594 5.917969 L 17.570312 5.917969 L 17.570312 2.195312 L 16.824219 2.195312 L 16.824219 1.453125 L 16.082031 1.453125 L 16.082031 0.707031 L 13.101562 0.707031 L 13.101562 1.453125 L 12.359375 1.453125 L 12.359375 2.195312 L 11.613281 2.195312 L 11.613281 5.917969 L 10.125 5.917969 L 10.125 6.664062 L 9.378906 6.664062 L 9.378906 5.917969 L 8.636719 5.917969 L 8.636719 5.175781 L 7.890625 5.175781 L 7.890625 4.429688 L 5.660156 4.429688 L 5.660156 5.175781 L 4.914062 5.175781 L 4.914062 5.917969 L 4.167969 5.917969 L 4.167969 8.152344 L 4.914062 8.152344 L 4.914062 8.898438 L 5.660156 8.898438 L 5.660156 9.640625 L 6.402344 9.640625 L 6.402344 10.386719 L 5.660156 10.386719 L 5.660156 11.875 L 1.9375 11.875 L 1.9375 12.617188 L 1.191406 12.617188 L 1.191406 13.363281 L 0.449219 13.363281 L 0.449219 16.339844 L 1.191406 16.339844 L 1.191406 17.085938 L 1.9375 17.085938 L 1.9375 17.828125 L 5.660156 17.828125 L 5.660156 19.320312 L 6.402344 19.320312 L 6.402344 20.0625 L 5.660156 20.0625 L 5.660156 20.808594 L 4.914062 20.808594 L 4.914062 21.550781 L 4.167969 21.550781 L 4.167969 23.785156 L 4.914062 23.785156 L 4.914062 24.53125 L 5.660156 24.53125 L 5.660156 25.273438 L 7.890625 25.273438 L 7.890625 24.53125 L 8.636719 24.53125 L 8.636719 23.785156 L 9.378906 23.785156 L 9.378906 23.039062 L 10.125 23.039062 L 10.125 23.785156 L 11.613281 23.785156 L 11.613281 27.507812 L 12.359375 27.507812 L 12.359375 28.25 L 13.101562 28.25 L 13.101562 28.996094 L 16.082031 28.996094 L 16.082031 28.25 L 16.824219 28.25 L 16.824219 27.507812 L 17.570312 27.507812 L 17.570312 23.785156 L 19.058594 23.785156 L 19.058594 23.039062 L 19.800781 23.039062 L 19.800781 23.785156 L 20.546875 23.785156 L 20.546875 24.53125 L 21.292969 24.53125 L 21.292969 25.273438 L 22.035156 25.273438 L 22.035156 26.019531 L 24.269531 26.019531 L 24.269531 25.273438 L 25.011719 25.273438 L 25.011719 24.53125 L 25.757812 24.53125 L 25.757812 22.296875 L 25.011719 22.296875 L 25.011719 21.550781 L 24.269531 21.550781 L 24.269531 20.808594 L 23.523438 20.808594 L 23.523438 20.0625 L 22.78125 20.0625 L 22.78125 19.320312 L 23.523438 19.320312 L 23.523438 17.828125 L 27.246094 17.828125 L 27.246094 17.085938 L 27.992188 17.085938 L 27.992188 16.339844 L 28.734375 16.339844 L 28.734375 13.363281 Z M 27.992188 13.363281 " fill-opacity="0.3" fill-rule="nonzero"/></g><g clip-path="url(#47d062d21b)"><path fill="#000000" d="M 28.734375 12.617188 L 28.734375 11.875 L 27.992188 11.875 L 27.992188 11.128906 L 24.269531 11.128906 L 24.269531 9.640625 L 23.523438 9.640625 L 23.523438 8.898438 L 24.269531 8.898438 L 24.269531 8.152344 L 25.011719 8.152344 L 25.011719 7.40625 L 25.757812 7.40625 L 25.757812 5.175781 L 25.011719 5.175781 L 25.011719 4.429688 L 24.269531 4.429688 L 24.269531 3.6875 L 22.035156 3.6875 L 22.035156 4.429688 L 21.292969 4.429688 L 21.292969 5.175781 L 20.546875 5.175781 L 20.546875 5.917969 L 19.800781 5.917969 L 19.800781 5.175781 L 18.3125 5.175781 L 18.3125 1.453125 L 17.570312 1.453125 L 17.570312 0.707031 L 16.824219 0.707031 L 16.824219 -0.0351562 L 13.847656 -0.0351562 L 13.847656 0.707031 L 13.101562 0.707031 L 13.101562 1.453125 L 12.359375 1.453125 L 12.359375 5.175781 L 10.871094 5.175781 L 10.871094 5.917969 L 10.125 5.917969 L 10.125 5.175781 L 9.378906 5.175781 L 9.378906 4.429688 L 8.636719 4.429688 L 8.636719 3.6875 L 6.402344 3.6875 L 6.402344 4.429688 L 5.660156 4.429688 L 5.660156 5.175781 L 4.914062 5.175781 L 4.914062 7.40625 L 5.660156 7.40625 L 5.660156 8.152344 L 6.402344 8.152344 L 6.402344 8.898438 L 7.148438 8.898438 L 7.148438 9.640625 L 6.402344 9.640625 L 6.402344 11.128906 L 2.679688 11.128906 L 2.679688 11.875 L 1.9375 11.875 L 1.9375 12.617188 L 1.191406 12.617188 L 1.191406 15.597656 L 1.9375 15.597656 L 1.9375 16.339844 L 2.679688 16.339844 L 2.679688 17.085938 L 6.402344 17.085938 L 6.402344 18.574219 L 7.148438 18.574219 L 7.148438 19.320312 L 6.402344 19.320312 L 6.402344 20.0625 L 5.660156 20.0625 L 5.660156 20.808594 L 4.914062 20.808594 L 4.914062 23.039062 L 5.660156 23.039062 L 5.660156 23.785156 L 6.402344 23.785156 L 6.402344 24.53125 L 8.636719 24.53125 L 8.636719 23.785156 L 9.378906 23.785156 L 9.378906 23.039062 L 10.125 23.039062 L 10.125 22.296875 L 10.871094 22.296875 L 10.871094 23.039062 L 12.359375 23.039062 L 12.359375 26.761719 L 13.101562 26.761719 L 13.101562 27.507812 L 13.847656 27.507812 L 13.847656 28.25 L 16.824219 28.25 L 16.824219 27.507812 L 17.570312 27.507812 L 17.570312 26.761719 L 18.3125 26.761719 L 18.3125 23.039062 L 19.800781 23.039062 L 19.800781 22.296875 L 20.546875 22.296875 L 20.546875 23.039062 L 21.292969 23.039062 L 21.292969 23.785156 L 22.035156 23.785156 L 22.035156 24.53125 L 22.78125 24.53125 L 22.78125 25.273438 L 25.011719 25.273438 L 25.011719 24.53125 L 25.757812 24.53125 L 25.757812 23.785156 L 26.503906 23.785156 L 26.503906 21.550781 L 25.757812 21.550781 L 25.757812 20.808594 L 25.011719 20.808594 L 25.011719 20.0625 L 24.269531 20.0625 L 24.269531 19.320312 L 23.523438 19.320312 L 23.523438 18.574219 L 24.269531 18.574219 L 24.269531 17.085938 L 27.992188 17.085938 L 27.992188 16.339844 L 28.734375 16.339844 L 28.734375 15.597656 L 29.480469 15.597656 L 29.480469 12.617188 Z M 28.734375 12.617188 " fill-opacity="1" fill-rule="nonzero"/></g><path fill="#efefef" d="M 25.011719 21.550781 L 25.011719 20.808594 L 24.269531 20.808594 L 24.269531 20.0625 L 23.523438 20.0625 L 23.523438 19.320312 L 22.78125 19.320312 L 22.78125 18.574219 L 22.035156 18.574219 L 22.035156 17.828125 L 21.292969 17.828125 L 21.292969 17.085938 L 20.546875 17.085938 L 20.546875 16.339844 L 19.800781 16.339844 L 19.800781 11.875 L 19.058594 11.875 L 19.058594 11.128906 L 18.3125 11.128906 L 18.3125 10.386719 L 16.824219 10.386719 L 16.824219 9.640625 L 13.847656 9.640625 L 13.847656 11.128906 L 14.589844 11.128906 L 14.589844 11.875 L 15.335938 11.875 L 15.335938 12.617188 L 16.082031 12.617188 L 16.082031 13.363281 L 16.824219 13.363281 L 16.824219 14.109375 L 16.082031 14.109375 L 16.082031 14.851562 L 15.335938 14.851562 L 15.335938 15.597656 L 14.589844 15.597656 L 14.589844 14.851562 L 13.847656 14.851562 L 13.847656 14.109375 L 13.101562 14.109375 L 13.101562 13.363281 L 12.359375 13.363281 L 12.359375 12.617188 L 11.613281 12.617188 L 11.613281 11.875 L 10.871094 11.875 L 10.871094 16.339844 L 11.613281 16.339844 L 11.613281 17.085938 L 12.359375 17.085938 L 12.359375 17.828125 L 13.847656 17.828125 L 13.847656 18.574219 L 17.570312 18.574219 L 17.570312 19.320312 L 18.3125 19.320312 L 18.3125 20.0625 L 19.058594 20.0625 L 19.058594 20.808594 L 19.800781 20.808594 L 19.800781 21.550781 L 20.546875 21.550781 L 20.546875 22.296875 L 21.292969 22.296875 L 21.292969 23.039062 L 22.035156 23.039062 L 22.035156 23.785156 L 22.78125 23.785156 L 22.78125 24.53125 L 25.011719 24.53125 L 25.011719 23.785156 L 25.757812 23.785156 L 25.757812 21.550781 Z M 25.011719 21.550781 " fill-opacity="1" fill-rule="nonzero"/><path fill="#d1d3d4" d="M 16.082031 13.363281 L 16.082031 14.109375 L 15.335938 14.109375 L 15.335938 14.851562 L 14.589844 14.851562 L 14.589844 14.109375 L 13.847656 14.109375 L 13.847656 13.363281 L 13.101562 13.363281 L 13.101562 12.617188 L 12.359375 12.617188 L 12.359375 11.875 L 11.613281 11.875 L 11.613281 11.128906 L 12.359375 11.128906 L 12.359375 10.386719 L 13.101562 10.386719 L 13.101562 11.128906 L 13.847656 11.128906 L 13.847656 11.875 L 14.589844 11.875 L 14.589844 12.617188 L 15.335938 12.617188 L 15.335938 13.363281 Z M 16.082031 13.363281 " fill-opacity="1" fill-rule="nonzero"/><path fill="#d1d3d4" d="M 27.992188 12.617188 L 27.992188 11.875 L 24.269531 11.875 L 24.269531 11.128906 L 23.523438 11.128906 L 23.523438 9.640625 L 22.78125 9.640625 L 22.78125 8.898438 L 23.523438 8.898438 L 23.523438 8.152344 L 24.269531 8.152344 L 24.269531 7.40625 L 25.011719 7.40625 L 25.011719 5.175781 L 24.269531 5.175781 L 24.269531 4.429688 L 22.035156 4.429688 L 22.035156 5.175781 L 21.292969 5.175781 L 21.292969 5.917969 L 20.546875 5.917969 L 20.546875 6.664062 L 19.800781 6.664062 L 19.800781 5.917969 L 18.3125 5.917969 L 18.3125 5.175781 L 17.570312 5.175781 L 17.570312 1.453125 L 16.824219 1.453125 L 16.824219 0.707031 L 13.847656 0.707031 L 13.847656 1.453125 L 13.101562 1.453125 L 13.101562 5.175781 L 12.359375 5.175781 L 12.359375 5.917969 L 10.871094 5.917969 L 10.871094 6.664062 L 10.125 6.664062 L 10.125 5.917969 L 9.378906 5.917969 L 9.378906 5.175781 L 8.636719 5.175781 L 8.636719 4.429688 L 6.402344 4.429688 L 6.402344 5.175781 L 5.660156 5.175781 L 5.660156 7.40625 L 6.402344 7.40625 L 6.402344 8.152344 L 7.148438 8.152344 L 7.148438 8.898438 L 7.890625 8.898438 L 7.890625 9.640625 L 7.148438 9.640625 L 7.148438 11.128906 L 6.402344 11.128906 L 6.402344 11.875 L 2.679688 11.875 L 2.679688 12.617188 L 1.9375 12.617188 L 1.9375 15.597656 L 2.679688 15.597656 L 2.679688 16.339844 L 6.402344 16.339844 L 6.402344 17.085938 L 7.148438 17.085938 L 7.148438 18.574219 L 7.890625 18.574219 L 7.890625 19.320312 L 7.148438 19.320312 L 7.148438 20.0625 L 6.402344 20.0625 L 6.402344 20.808594 L 5.660156 20.808594 L 5.660156 23.039062 L 6.402344 23.039062 L 6.402344 23.785156 L 8.636719 23.785156 L 8.636719 23.039062 L 9.378906 23.039062 L 9.378906 22.296875 L 10.125 22.296875 L 10.125 21.550781 L 10.871094 21.550781 L 10.871094 22.296875 L 12.359375 22.296875 L 12.359375 23.039062 L 13.101562 23.039062 L 13.101562 26.761719 L 13.847656 26.761719 L 13.847656 27.507812 L 16.824219 27.507812 L 16.824219 26.761719 L 17.570312 26.761719 L 17.570312 23.039062 L 18.3125 23.039062 L 18.3125 22.296875 L 19.800781 22.296875 L 19.800781 21.550781 L 19.058594 21.550781 L 19.058594 20.808594 L 18.3125 20.808594 L 18.3125 20.0625 L 17.570312 20.0625 L 17.570312 19.320312 L 13.847656 19.320312 L 13.847656 18.574219 L 12.359375 18.574219 L 12.359375 17.828125 L 11.613281 17.828125 L 11.613281 17.085938 L 10.871094 17.085938 L 10.871094 16.339844 L 10.125 16.339844 L 10.125 11.875 L 10.871094 11.875 L 10.871094 11.128906 L 11.613281 11.128906 L 11.613281 10.386719 L 12.359375 10.386719 L 12.359375 9.640625 L 13.847656 9.640625 L 13.847656 8.898438 L 16.824219 8.898438 L 16.824219 9.640625 L 18.3125 9.640625 L 18.3125 10.386719 L 19.058594 10.386719 L 19.058594 11.128906 L 19.800781 11.128906 L 19.800781 11.875 L 20.546875 11.875 L 20.546875 16.339844 L 21.292969 16.339844 L 21.292969 17.085938 L 22.035156 17.085938 L 22.035156 17.828125 L 22.78125 17.828125 L 22.78125 18.574219 L 23.523438 18.574219 L 23.523438 17.085938 L 24.269531 17.085938 L 24.269531 16.339844 L 27.992188 16.339844 L 27.992188 15.597656 L 28.734375 15.597656 L 28.734375 12.617188 Z M 27.992188 12.617188 " fill-opacity="1" fill-rule="nonzero"/><path fill="#929394" d="M 22.78125 11.875 L 22.78125 16.339844 L 22.035156 16.339844 L 22.035156 11.875 Z M 21.292969 17.085938 L 22.035156 17.085938 L 22.035156 16.339844 L 21.292969 16.339844 Z M 22.035156 10.386719 L 21.292969 10.386719 L 21.292969 11.875 L 22.035156 11.875 Z M 20.546875 9.640625 L 20.546875 10.386719 L 21.292969 10.386719 L 21.292969 9.640625 Z M 19.800781 8.898438 L 19.800781 9.640625 L 20.546875 9.640625 L 20.546875 8.898438 Z M 19.058594 8.152344 L 19.058594 8.898438 L 19.800781 8.898438 L 19.800781 8.152344 Z M 18.3125 7.40625 L 17.570312 7.40625 L 17.570312 8.152344 L 19.058594 8.152344 L 19.058594 7.40625 Z M 18.3125 20.0625 L 17.570312 20.0625 L 17.570312 20.808594 L 18.3125 20.808594 Z M 16.824219 6.664062 L 13.101562 6.664062 L 13.101562 7.40625 L 17.570312 7.40625 L 17.570312 6.664062 Z M 13.847656 21.550781 L 17.570312 21.550781 L 17.570312 20.808594 L 13.101562 20.808594 L 13.101562 21.550781 Z M 12.359375 20.808594 L 13.101562 20.808594 L 13.101562 20.0625 L 11.613281 20.0625 L 11.613281 20.808594 Z M 11.613281 7.40625 L 11.613281 8.152344 L 13.101562 8.152344 L 13.101562 7.40625 Z M 11.613281 20.0625 L 11.613281 19.320312 L 10.871094 19.320312 L 10.871094 20.0625 Z M 10.871094 8.898438 L 11.613281 8.898438 L 11.613281 8.152344 L 10.871094 8.152344 Z M 10.871094 19.320312 L 10.871094 18.574219 L 10.125 18.574219 L 10.125 19.320312 Z M 10.125 9.640625 L 10.871094 9.640625 L 10.871094 8.898438 L 10.125 8.898438 Z M 10.125 18.574219 L 10.125 17.828125 L 9.378906 17.828125 L 9.378906 18.574219 Z M 9.378906 10.386719 L 10.125 10.386719 L 10.125 9.640625 L 9.378906 9.640625 Z M 8.636719 17.828125 L 9.378906 17.828125 L 9.378906 16.339844 L 8.636719 16.339844 Z M 8.636719 11.128906 L 8.636719 11.875 L 9.378906 11.875 L 9.378906 10.386719 L 8.636719 10.386719 Z M 7.890625 12.617188 L 7.890625 16.339844 L 8.636719 16.339844 L 8.636719 11.875 L 7.890625 11.875 Z M 7.890625 12.617188 " fill-opacity="1" fill-rule="nonzero"/><g clip-path="url(#45d3e035a2)"><path fill="#000000" d="M 29.480469 12.617188 L 29.480469 15.597656 L 28.734375 15.597656 L 28.734375 12.617188 Z M 25.757812 21.550781 L 25.757812 20.808594 L 25.011719 20.808594 L 25.011719 21.550781 Z M 25.011719 20.808594 L 25.011719 20.0625 L 24.269531 20.0625 L 24.269531 20.808594 Z M 25.011719 11.875 L 27.992188 11.875 L 27.992188 11.128906 L 24.269531 11.128906 L 24.269531 11.875 Z M 24.269531 8.152344 L 25.011719 8.152344 L 25.011719 7.40625 L 24.269531 7.40625 Z M 25.011719 5.175781 L 25.011719 4.429688 L 24.269531 4.429688 L 24.269531 5.175781 Z M 24.269531 20.0625 L 24.269531 19.320312 L 23.523438 19.320312 L 23.523438 20.0625 Z M 23.523438 17.828125 L 23.523438 18.574219 L 24.269531 18.574219 L 24.269531 17.085938 L 23.523438 17.085938 Z M 23.523438 11.128906 L 24.269531 11.128906 L 24.269531 9.640625 L 23.523438 9.640625 Z M 23.523438 8.898438 L 24.269531 8.898438 L 24.269531 8.152344 L 23.523438 8.152344 Z M 22.78125 19.320312 L 23.523438 19.320312 L 23.523438 18.574219 L 22.78125 18.574219 Z M 22.78125 9.640625 L 23.523438 9.640625 L 23.523438 8.898438 L 22.78125 8.898438 Z M 22.035156 23.785156 L 22.035156 24.53125 L 22.78125 24.53125 L 22.78125 23.785156 Z M 21.292969 23.039062 L 21.292969 23.785156 L 22.035156 23.785156 L 22.035156 23.039062 Z M 22.035156 4.429688 L 21.292969 4.429688 L 21.292969 5.175781 L 22.035156 5.175781 Z M 20.546875 22.296875 L 20.546875 23.039062 L 21.292969 23.039062 L 21.292969 22.296875 Z M 21.292969 5.175781 L 20.546875 5.175781 L 20.546875 5.917969 L 21.292969 5.917969 Z M 19.800781 21.550781 L 19.800781 22.296875 L 20.546875 22.296875 L 20.546875 21.550781 Z M 19.800781 13.363281 L 19.800781 16.339844 L 20.546875 16.339844 L 20.546875 11.875 L 19.800781 11.875 Z M 19.800781 11.875 L 19.800781 11.128906 L 19.058594 11.128906 L 19.058594 11.875 Z M 18.3125 22.296875 L 18.3125 23.039062 L 19.800781 23.039062 L 19.800781 22.296875 Z M 19.058594 11.128906 L 19.058594 10.386719 L 18.3125 10.386719 L 18.3125 11.128906 Z M 17.570312 23.785156 L 17.570312 26.761719 L 18.3125 26.761719 L 18.3125 23.039062 L 17.570312 23.039062 Z M 17.570312 2.941406 L 17.570312 5.175781 L 18.3125 5.175781 L 18.3125 1.453125 L 17.570312 1.453125 Z M 17.570312 10.386719 L 18.3125 10.386719 L 18.3125 9.640625 L 16.824219 9.640625 L 16.824219 10.386719 Z M 15.335938 27.507812 L 13.847656 27.507812 L 13.847656 28.25 L 16.824219 28.25 L 16.824219 27.507812 Z M 15.335938 9.640625 L 16.824219 9.640625 L 16.824219 8.898438 L 13.847656 8.898438 L 13.847656 9.640625 Z M 13.101562 17.828125 L 12.359375 17.828125 L 12.359375 18.574219 L 13.847656 18.574219 L 13.847656 17.828125 Z M 13.101562 25.273438 L 13.101562 23.039062 L 12.359375 23.039062 L 12.359375 26.761719 L 13.101562 26.761719 Z M 13.101562 4.429688 L 13.101562 1.453125 L 12.359375 1.453125 L 12.359375 5.175781 L 13.101562 5.175781 Z M 11.613281 22.296875 L 10.871094 22.296875 L 10.871094 23.039062 L 12.359375 23.039062 L 12.359375 22.296875 Z M 11.613281 17.085938 L 11.613281 17.828125 L 12.359375 17.828125 L 12.359375 17.085938 Z M 12.359375 10.386719 L 11.613281 10.386719 L 11.613281 11.128906 L 12.359375 11.128906 Z M 10.871094 16.339844 L 10.871094 17.085938 L 11.613281 17.085938 L 11.613281 16.339844 Z M 11.613281 11.128906 L 10.871094 11.128906 L 10.871094 11.875 L 11.613281 11.875 Z M 10.125 21.550781 L 10.125 22.296875 L 10.871094 22.296875 L 10.871094 21.550781 Z M 10.871094 14.851562 L 10.871094 11.875 L 10.125 11.875 L 10.125 16.339844 L 10.871094 16.339844 Z M 9.378906 23.039062 L 10.125 23.039062 L 10.125 22.296875 L 9.378906 22.296875 Z M 10.125 5.917969 L 10.125 5.175781 L 9.378906 5.175781 L 9.378906 5.917969 Z M 8.636719 23.785156 L 9.378906 23.785156 L 9.378906 23.039062 L 8.636719 23.039062 Z M 9.378906 5.175781 L 9.378906 4.429688 L 8.636719 4.429688 L 8.636719 5.175781 Z M 7.890625 18.574219 L 7.148438 18.574219 L 7.148438 19.320312 L 7.890625 19.320312 Z M 7.890625 8.898438 L 7.148438 8.898438 L 7.148438 9.640625 L 7.890625 9.640625 Z M 7.148438 19.320312 L 6.402344 19.320312 L 6.402344 20.0625 L 7.148438 20.0625 Z M 7.148438 17.085938 L 6.402344 17.085938 L 6.402344 18.574219 L 7.148438 18.574219 Z M 7.148438 10.386719 L 7.148438 9.640625 L 6.402344 9.640625 L 6.402344 11.128906 L 7.148438 11.128906 Z M 6.402344 8.152344 L 6.402344 8.898438 L 7.148438 8.898438 L 7.148438 8.152344 Z M 5.660156 23.039062 L 5.660156 23.785156 L 6.402344 23.785156 L 6.402344 23.039062 Z M 6.402344 20.0625 L 5.660156 20.0625 L 5.660156 20.808594 L 6.402344 20.808594 Z M 5.660156 16.339844 L 2.679688 16.339844 L 2.679688 17.085938 L 6.402344 17.085938 L 6.402344 16.339844 Z M 5.660156 7.40625 L 5.660156 8.152344 L 6.402344 8.152344 L 6.402344 7.40625 Z M 6.402344 4.429688 L 5.660156 4.429688 L 5.660156 5.175781 L 6.402344 5.175781 Z M 4.167969 11.875 L 6.402344 11.875 L 6.402344 11.128906 L 2.679688 11.128906 L 2.679688 11.875 Z M 5.660156 5.917969 L 5.660156 5.175781 L 4.914062 5.175781 L 4.914062 7.40625 L 5.660156 7.40625 Z M 7.890625 4.429688 L 8.636719 4.429688 L 8.636719 3.6875 L 6.402344 3.6875 L 6.402344 4.429688 Z M 10.871094 6.664062 L 10.871094 5.917969 L 10.125 5.917969 L 10.125 6.664062 Z M 17.570312 1.453125 L 17.570312 0.707031 L 16.824219 0.707031 L 16.824219 1.453125 Z M 19.058594 5.917969 L 19.800781 5.917969 L 19.800781 5.175781 L 18.3125 5.175781 L 18.3125 5.917969 Z M 15.335938 0.707031 L 16.824219 0.707031 L 16.824219 -0.0351562 L 13.847656 -0.0351562 L 13.847656 0.707031 Z M 13.847656 0.707031 L 13.101562 0.707031 L 13.101562 1.453125 L 13.847656 1.453125 Z M 12.359375 5.917969 L 12.359375 5.175781 L 10.871094 5.175781 L 10.871094 5.917969 Z M 25.011719 6.664062 L 25.011719 7.40625 L 25.757812 7.40625 L 25.757812 5.175781 L 25.011719 5.175781 Z M 28.734375 12.617188 L 28.734375 11.875 L 27.992188 11.875 L 27.992188 12.617188 Z M 23.523438 4.429688 L 24.269531 4.429688 L 24.269531 3.6875 L 22.035156 3.6875 L 22.035156 4.429688 Z M 20.546875 6.664062 L 20.546875 5.917969 L 19.800781 5.917969 L 19.800781 6.664062 Z M 14.589844 15.597656 L 15.335938 15.597656 L 15.335938 14.851562 L 14.589844 14.851562 Z M 15.335938 14.851562 L 16.082031 14.851562 L 16.082031 14.109375 L 15.335938 14.109375 Z M 13.101562 11.128906 L 13.847656 11.128906 L 13.847656 9.640625 L 12.359375 9.640625 L 12.359375 10.386719 L 13.101562 10.386719 Z M 17.570312 19.320312 L 17.570312 20.0625 L 18.3125 20.0625 L 18.3125 19.320312 Z M 15.335938 12.617188 L 15.335938 11.875 L 14.589844 11.875 L 14.589844 12.617188 Z M 14.589844 11.875 L 14.589844 11.128906 L 13.847656 11.128906 L 13.847656 11.875 Z M 16.082031 13.363281 L 16.082031 12.617188 L 15.335938 12.617188 L 15.335938 13.363281 Z M 18.3125 20.0625 L 18.3125 20.808594 L 19.058594 20.808594 L 19.058594 20.0625 Z M 16.824219 18.574219 L 13.847656 18.574219 L 13.847656 19.320312 L 17.570312 19.320312 L 17.570312 18.574219 Z M 25.757812 23.039062 L 25.757812 23.785156 L 26.503906 23.785156 L 26.503906 21.550781 L 25.757812 21.550781 Z M 26.503906 16.339844 L 24.269531 16.339844 L 24.269531 17.085938 L 27.992188 17.085938 L 27.992188 16.339844 Z M 19.058594 20.808594 L 19.058594 21.550781 L 19.800781 21.550781 L 19.800781 20.808594 Z M 27.992188 16.339844 L 28.734375 16.339844 L 28.734375 15.597656 L 27.992188 15.597656 Z M 23.523438 24.53125 L 22.78125 24.53125 L 22.78125 25.273438 L 25.011719 25.273438 L 25.011719 24.53125 Z M 25.011719 24.53125 L 25.757812 24.53125 L 25.757812 23.785156 L 25.011719 23.785156 Z M 21.292969 17.085938 L 21.292969 16.339844 L 20.546875 16.339844 L 20.546875 17.085938 Z M 7.148438 23.785156 L 6.402344 23.785156 L 6.402344 24.53125 L 8.636719 24.53125 L 8.636719 23.785156 Z M 13.847656 14.109375 L 13.847656 14.851562 L 14.589844 14.851562 L 14.589844 14.109375 Z M 16.824219 27.507812 L 17.570312 27.507812 L 17.570312 26.761719 L 16.824219 26.761719 Z M 13.101562 26.761719 L 13.101562 27.507812 L 13.847656 27.507812 L 13.847656 26.761719 Z M 1.9375 15.597656 L 1.9375 16.339844 L 2.679688 16.339844 L 2.679688 15.597656 Z M 5.660156 21.550781 L 5.660156 20.808594 L 4.914062 20.808594 L 4.914062 23.039062 L 5.660156 23.039062 Z M 22.78125 18.574219 L 22.78125 17.828125 L 22.035156 17.828125 L 22.035156 18.574219 Z M 11.613281 11.875 L 11.613281 12.617188 L 12.359375 12.617188 L 12.359375 11.875 Z M 12.359375 12.617188 L 12.359375 13.363281 L 13.101562 13.363281 L 13.101562 12.617188 Z M 13.101562 13.363281 L 13.101562 14.109375 L 13.847656 14.109375 L 13.847656 13.363281 Z M 16.824219 14.109375 L 16.824219 13.363281 L 16.082031 13.363281 L 16.082031 14.109375 Z M 22.035156 17.828125 L 22.035156 17.085938 L 21.292969 17.085938 L 21.292969 17.828125 Z M 2.679688 11.875 L 1.9375 11.875 L 1.9375 12.617188 L 2.679688 12.617188 Z M 1.9375 14.109375 L 1.9375 12.617188 L 1.191406 12.617188 L 1.191406 15.597656 L 1.9375 15.597656 Z M 1.9375 14.109375 " fill-opacity="1" fill-rule="nonzero"/></g><path fill="#000000" d="M 24.269531 23.785156 L 25.011719 23.785156 L 25.011719 24.53125 L 22.78125 24.53125 L 22.78125 23.785156 Z M 22.035156 23.039062 L 22.035156 23.785156 L 22.78125 23.785156 L 22.78125 23.039062 Z M 21.292969 22.296875 L 21.292969 23.039062 L 22.035156 23.039062 L 22.035156 22.296875 Z M 20.546875 21.550781 L 20.546875 22.296875 L 21.292969 22.296875 L 21.292969 21.550781 Z M 19.800781 20.808594 L 19.800781 21.550781 L 20.546875 21.550781 L 20.546875 20.808594 Z M 19.800781 20.808594 L 19.800781 20.0625 L 19.058594 20.0625 L 19.058594 20.808594 Z M 19.058594 20.0625 L 19.058594 19.320312 L 18.3125 19.320312 L 18.3125 20.0625 Z M 18.3125 19.320312 L 18.3125 18.574219 L 17.570312 18.574219 L 17.570312 19.320312 Z M 16.824219 13.363281 L 16.824219 12.617188 L 16.082031 12.617188 L 16.082031 13.363281 Z M 16.082031 12.617188 L 16.082031 11.875 L 15.335938 11.875 L 15.335938 12.617188 Z M 14.589844 11.128906 L 14.589844 11.875 L 15.335938 11.875 L 15.335938 11.128906 Z M 14.589844 18.574219 L 17.570312 18.574219 L 17.570312 17.828125 L 13.847656 17.828125 L 13.847656 18.574219 Z M 13.847656 10.386719 L 13.847656 11.128906 L 14.589844 11.128906 L 14.589844 10.386719 Z M 13.101562 17.828125 L 13.847656 17.828125 L 13.847656 17.085938 L 12.359375 17.085938 L 12.359375 17.828125 Z M 12.359375 17.085938 L 12.359375 16.339844 L 11.613281 16.339844 L 11.613281 17.085938 Z M 11.613281 15.597656 L 11.613281 11.875 L 10.871094 11.875 L 10.871094 16.339844 L 11.613281 16.339844 Z M 27.246094 15.597656 L 24.269531 15.597656 L 24.269531 16.339844 L 27.992188 16.339844 L 27.992188 15.597656 Z M 25.011719 6.664062 L 24.269531 6.664062 L 24.269531 7.40625 L 25.011719 7.40625 Z M 23.523438 17.085938 L 24.269531 17.085938 L 24.269531 16.339844 L 23.523438 16.339844 Z M 24.269531 7.40625 L 23.523438 7.40625 L 23.523438 8.152344 L 24.269531 8.152344 Z M 22.78125 17.828125 L 22.78125 18.574219 L 23.523438 18.574219 L 23.523438 17.085938 L 22.78125 17.085938 Z M 23.523438 8.152344 L 22.78125 8.152344 L 22.78125 8.898438 L 23.523438 8.898438 Z M 22.78125 8.898438 L 22.035156 8.898438 L 22.035156 9.640625 L 22.78125 9.640625 Z M 22.035156 16.339844 L 21.292969 16.339844 L 21.292969 17.085938 L 22.035156 17.085938 Z M 19.058594 20.808594 L 18.3125 20.808594 L 18.3125 22.296875 L 19.800781 22.296875 L 19.800781 21.550781 L 19.058594 21.550781 Z M 17.570312 23.039062 L 18.3125 23.039062 L 18.3125 22.296875 L 17.570312 22.296875 Z M 17.570312 20.0625 L 17.570312 20.808594 L 18.3125 20.808594 L 18.3125 20.0625 Z M 16.824219 19.320312 L 13.847656 19.320312 L 13.847656 18.574219 L 12.359375 18.574219 L 12.359375 19.320312 L 13.101562 19.320312 L 13.101562 20.0625 L 17.570312 20.0625 L 17.570312 19.320312 Z M 14.589844 0.707031 L 13.847656 0.707031 L 13.847656 1.453125 L 14.589844 1.453125 Z M 13.101562 23.785156 L 13.101562 26.761719 L 13.847656 26.761719 L 13.847656 23.039062 L 13.101562 23.039062 Z M 13.847656 4.429688 L 13.847656 1.453125 L 13.101562 1.453125 L 13.101562 5.175781 L 13.847656 5.175781 Z M 13.101562 5.175781 L 12.359375 5.175781 L 12.359375 5.917969 L 13.101562 5.917969 Z M 11.613281 17.828125 L 11.613281 18.574219 L 12.359375 18.574219 L 12.359375 17.828125 Z M 10.871094 17.085938 L 10.871094 17.828125 L 11.613281 17.828125 L 11.613281 17.085938 Z M 10.125 16.339844 L 10.125 17.085938 L 10.871094 17.085938 L 10.871094 16.339844 Z M 9.378906 22.296875 L 10.125 22.296875 L 10.125 21.550781 L 9.378906 21.550781 Z M 10.125 14.851562 L 10.125 12.617188 L 9.378906 12.617188 L 9.378906 16.339844 L 10.125 16.339844 Z M 8.636719 23.039062 L 9.378906 23.039062 L 9.378906 22.296875 L 8.636719 22.296875 Z M 7.148438 23.039062 L 6.402344 23.039062 L 6.402344 23.785156 L 8.636719 23.785156 L 8.636719 23.039062 Z M 7.890625 8.898438 L 7.890625 8.152344 L 7.148438 8.152344 L 7.148438 8.898438 Z M 7.148438 8.152344 L 7.148438 7.40625 L 6.402344 7.40625 L 6.402344 8.152344 Z M 6.402344 15.597656 L 2.679688 15.597656 L 2.679688 16.339844 L 6.402344 16.339844 Z M 6.402344 6.664062 L 6.402344 5.175781 L 5.660156 5.175781 L 5.660156 7.40625 L 6.402344 7.40625 Z M 6.402344 6.664062 " fill-opacity="0.3" fill-rule="nonzero"/><path fill="#ffffff" d="M 28.734375 12.617188 L 28.734375 15.597656 L 27.992188 15.597656 L 27.992188 12.617188 Z M 27.246094 11.875 L 24.269531 11.875 L 24.269531 12.617188 L 27.992188 12.617188 L 27.992188 11.875 Z M 25.011719 22.296875 L 25.011719 23.785156 L 25.757812 23.785156 L 25.757812 21.550781 L 25.011719 21.550781 Z M 24.269531 20.808594 L 24.269531 21.550781 L 25.011719 21.550781 L 25.011719 20.808594 Z M 23.523438 20.0625 L 23.523438 20.808594 L 24.269531 20.808594 L 24.269531 20.0625 Z M 23.523438 11.128906 L 23.523438 11.875 L 24.269531 11.875 L 24.269531 11.128906 Z M 22.78125 19.320312 L 22.78125 20.0625 L 23.523438 20.0625 L 23.523438 19.320312 Z M 23.523438 9.640625 L 22.78125 9.640625 L 22.78125 11.128906 L 23.523438 11.128906 Z M 23.523438 5.175781 L 23.523438 5.917969 L 24.269531 5.917969 L 24.269531 6.664062 L 25.011719 6.664062 L 25.011719 5.175781 L 24.269531 5.175781 L 24.269531 4.429688 L 22.035156 4.429688 L 22.035156 5.175781 Z M 22.035156 18.574219 L 22.035156 19.320312 L 22.78125 19.320312 L 22.78125 18.574219 Z M 21.292969 17.828125 L 21.292969 18.574219 L 22.035156 18.574219 L 22.035156 17.828125 Z M 20.546875 17.085938 L 20.546875 17.828125 L 21.292969 17.828125 L 21.292969 17.085938 Z M 19.800781 16.339844 L 19.800781 17.085938 L 20.546875 17.085938 L 20.546875 16.339844 Z M 19.800781 14.851562 L 19.800781 11.875 L 19.058594 11.875 L 19.058594 16.339844 L 19.800781 16.339844 Z M 18.3125 11.128906 L 18.3125 11.875 L 19.058594 11.875 L 19.058594 11.128906 Z M 17.570312 10.386719 L 16.824219 10.386719 L 16.824219 11.128906 L 18.3125 11.128906 L 18.3125 10.386719 Z M 16.824219 23.785156 L 16.824219 26.761719 L 17.570312 26.761719 L 17.570312 23.039062 L 16.824219 23.039062 Z M 16.082031 9.640625 L 13.847656 9.640625 L 13.847656 10.386719 L 16.824219 10.386719 L 16.824219 9.640625 Z M 15.335938 26.761719 L 13.847656 26.761719 L 13.847656 27.507812 L 16.824219 27.507812 L 16.824219 26.761719 Z M 16.082031 1.453125 L 16.082031 2.195312 L 16.824219 2.195312 L 16.824219 5.917969 L 17.570312 5.917969 L 17.570312 6.664062 L 19.800781 6.664062 L 19.800781 5.917969 L 18.3125 5.917969 L 18.3125 5.175781 L 17.570312 5.175781 L 17.570312 1.453125 L 16.824219 1.453125 L 16.824219 0.707031 L 14.589844 0.707031 L 14.589844 1.453125 Z M 14.589844 15.597656 L 14.589844 14.851562 L 13.847656 14.851562 L 13.847656 15.597656 Z M 13.847656 14.851562 L 13.847656 14.109375 L 13.101562 14.109375 L 13.101562 14.851562 Z M 13.847656 5.175781 L 13.101562 5.175781 L 13.101562 5.917969 L 13.847656 5.917969 Z M 12.359375 23.039062 L 13.101562 23.039062 L 13.101562 22.296875 L 12.359375 22.296875 Z M 12.359375 13.363281 L 12.359375 14.109375 L 13.101562 14.109375 L 13.101562 13.363281 Z M 11.613281 21.550781 L 10.871094 21.550781 L 10.871094 22.296875 L 12.359375 22.296875 L 12.359375 21.550781 Z M 11.613281 12.617188 L 11.613281 13.363281 L 12.359375 13.363281 L 12.359375 12.617188 Z M 12.359375 6.664062 L 13.101562 6.664062 L 13.101562 5.917969 L 10.871094 5.917969 L 10.871094 6.664062 Z M 10.871094 7.40625 L 10.871094 6.664062 L 10.125 6.664062 L 10.125 7.40625 Z M 9.378906 5.917969 L 9.378906 6.664062 L 10.125 6.664062 L 10.125 5.917969 Z M 8.636719 5.175781 L 8.636719 5.917969 L 9.378906 5.917969 L 9.378906 5.175781 Z M 7.890625 9.640625 L 8.636719 9.640625 L 8.636719 8.898438 L 7.890625 8.898438 Z M 7.890625 4.429688 L 6.402344 4.429688 L 6.402344 5.175781 L 8.636719 5.175781 L 8.636719 4.429688 Z M 7.148438 20.0625 L 7.890625 20.0625 L 7.890625 19.320312 L 7.148438 19.320312 Z M 7.148438 17.828125 L 7.148438 18.574219 L 7.890625 18.574219 L 7.890625 17.085938 L 7.148438 17.085938 Z M 7.148438 10.386719 L 7.148438 11.128906 L 7.890625 11.128906 L 7.890625 9.640625 L 7.148438 9.640625 Z M 6.402344 20.808594 L 7.148438 20.808594 L 7.148438 20.0625 L 6.402344 20.0625 Z M 7.148438 15.597656 L 6.402344 15.597656 L 6.402344 17.085938 L 7.148438 17.085938 Z M 6.402344 11.875 L 7.148438 11.875 L 7.148438 11.128906 L 6.402344 11.128906 Z M 5.660156 21.550781 L 5.660156 23.039062 L 6.402344 23.039062 L 6.402344 20.808594 L 5.660156 20.808594 Z M 4.914062 11.875 L 2.679688 11.875 L 2.679688 12.617188 L 6.402344 12.617188 L 6.402344 11.875 Z M 1.9375 13.363281 L 1.9375 15.597656 L 2.679688 15.597656 L 2.679688 12.617188 L 1.9375 12.617188 Z M 1.9375 13.363281 " fill-opacity="1" fill-rule="nonzero"/><path fill="#000000" d="M 16.082031 13.363281 L 16.082031 14.109375 L 15.335938 14.109375 L 15.335938 14.851562 L 14.589844 14.851562 L 14.589844 14.109375 L 13.847656 14.109375 L 13.847656 13.363281 L 13.101562 13.363281 L 13.101562 12.617188 L 12.359375 12.617188 L 12.359375 11.875 L 11.613281 11.875 L 11.613281 11.128906 L 12.359375 11.128906 L 12.359375 10.386719 L 13.101562 10.386719 L 13.101562 11.128906 L 13.847656 11.128906 L 13.847656 11.875 L 14.589844 11.875 L 14.589844 12.617188 L 15.335938 12.617188 L 15.335938 13.363281 Z M 16.082031 13.363281 " fill-opacity="0.6" fill-rule="nonzero"/></svg>