<svg xmlns="http://www.w3.org/2000/svg" xmlns:xlink="http://www.w3.org/1999/xlink" zoomAndPan="magnify" preserveAspectRatio="xMidYMid meet" version="1.0" viewBox="45.01 46.35 60 57"><defs><clipPath id="3242f5082a"><path d="M 90 98 L 96 98 L 96 103.351562 L 90 103.351562 Z M 90 98 " clip-rule="nonzero"/></clipPath><clipPath id="89370f24b6"><path d="M 57 101 L 60 101 L 60 103.351562 L 57 103.351562 Z M 57 101 " clip-rule="nonzero"/></clipPath><clipPath id="e84c0273c7"><path d="M 54 101 L 58 101 L 58 103.351562 L 54 103.351562 Z M 54 101 " clip-rule="nonzero"/></clipPath><clipPath id="85cb515963"><path d="M 95 66 L 105 66 L 105 72 L 95 72 Z M 95 66 " clip-rule="nonzero"/></clipPath><clipPath id="f47e2bd46e"><path d="M 73 46.351562 L 77 46.351562 L 77 49 L 73 49 Z M 73 46.351562 " clip-rule="nonzero"/></clipPath></defs><path fill="#e5831c" d="M 78.609375 91.949219 L 76.207031 91.949219 L 76.207031 94.230469 L 81.007812 94.230469 L 81.007812 91.949219 L 78.609375 91.949219 " fill-opacity="1" fill-rule="nonzero"/><path fill="#dc7e1d" d="M 90.609375 98.792969 L 90.609375 101.070312 L 93.007812 101.070312 L 93.007812 98.792969 L 90.609375 98.792969 " fill-opacity="1" fill-rule="nonzero"/><path fill="#dc7e1d" d="M 90.609375 94.230469 L 90.609375 87.390625 L 88.207031 87.390625 L 88.207031 94.230469 L 81.007812 94.230469 L 81.007812 96.511719 L 85.808594 96.511719 L 85.808594 98.792969 L 90.609375 98.792969 L 90.609375 94.230469 " fill-opacity="1" fill-rule="nonzero"/><path fill="#f68c1c" d="M 61.808594 98.792969 L 64.207031 98.792969 L 64.207031 96.511719 L 61.808594 96.511719 L 61.808594 98.792969 " fill-opacity="1" fill-rule="nonzero"/><path fill="#f68c1c" d="M 85.808594 82.828125 L 85.808594 87.390625 L 83.410156 87.390625 L 83.410156 89.671875 L 71.410156 89.671875 L 71.410156 91.949219 L 66.609375 91.949219 L 66.609375 94.230469 L 64.207031 94.230469 L 64.207031 96.511719 L 69.007812 96.511719 L 69.007812 94.230469 L 73.808594 94.230469 L 73.808594 91.949219 L 81.007812 91.949219 L 81.007812 94.230469 L 88.207031 94.230469 L 88.207031 82.828125 L 85.808594 82.828125 " fill-opacity="1" fill-rule="nonzero"/><path fill="#dc7e1d" d="M 88.207031 82.828125 L 90.609375 82.828125 L 90.609375 80.550781 L 88.207031 80.550781 L 88.207031 82.828125 " fill-opacity="1" fill-rule="nonzero"/><path fill="#dc7e1d" d="M 90.609375 80.550781 L 93.007812 80.550781 L 93.007812 78.269531 L 90.609375 78.269531 L 90.609375 80.550781 " fill-opacity="1" fill-rule="nonzero"/><path fill="#f68c1c" d="M 88.207031 80.550781 L 90.609375 80.550781 L 90.609375 78.269531 L 88.207031 78.269531 L 88.207031 80.550781 " fill-opacity="1" fill-rule="nonzero"/><path fill="#dc7e1d" d="M 93.007812 78.269531 L 95.410156 78.269531 L 95.410156 75.988281 L 93.007812 75.988281 L 93.007812 78.269531 " fill-opacity="1" fill-rule="nonzero"/><path fill="#f68c1c" d="M 90.609375 78.269531 L 93.007812 78.269531 L 93.007812 75.988281 L 90.609375 75.988281 L 90.609375 78.269531 " fill-opacity="1" fill-rule="nonzero"/><path fill="#f68c1c" d="M 95.410156 75.988281 L 97.808594 75.988281 L 97.808594 73.710938 L 95.410156 73.710938 L 95.410156 75.988281 " fill-opacity="1" fill-rule="nonzero"/><path fill="#f68c1c" d="M 93.007812 75.988281 L 95.410156 75.988281 L 95.410156 73.710938 L 93.007812 73.710938 L 93.007812 75.988281 " fill-opacity="1" fill-rule="nonzero"/><path fill="#f68c1c" d="M 97.808594 73.710938 L 100.207031 73.710938 L 100.207031 71.429688 L 97.808594 71.429688 L 97.808594 73.710938 " fill-opacity="1" fill-rule="nonzero"/><path fill="#f68c1c" d="M 95.410156 73.710938 L 97.808594 73.710938 L 97.808594 71.429688 L 95.410156 71.429688 L 95.410156 73.710938 " fill-opacity="1" fill-rule="nonzero"/><path fill="#ffffff" d="M 81.007812 73.710938 L 83.410156 73.710938 L 83.410156 71.429688 L 81.007812 71.429688 L 81.007812 73.710938 " fill-opacity="1" fill-rule="nonzero"/><path fill="#ffffff" d="M 66.609375 73.710938 L 69.007812 73.710938 L 69.007812 71.429688 L 66.609375 71.429688 L 66.609375 73.710938 " fill-opacity="1" fill-rule="nonzero"/><path fill="#f68c1c" d="M 100.207031 71.429688 L 102.609375 71.429688 L 102.609375 69.148438 L 100.207031 69.148438 L 100.207031 71.429688 " fill-opacity="1" fill-rule="nonzero"/><path fill="#facf1a" d="M 57.007812 101.070312 L 59.410156 101.070312 L 59.410156 98.792969 L 57.007812 98.792969 L 57.007812 101.070312 " fill-opacity="1" fill-rule="nonzero"/><path fill="#facf1a" d="M 49.808594 71.429688 L 49.808594 73.710938 L 52.210938 73.710938 L 52.210938 71.429688 L 49.808594 71.429688 " fill-opacity="1" fill-rule="nonzero"/><path fill="#facf1a" d="M 81.007812 82.828125 L 78.609375 82.828125 L 78.609375 85.109375 L 73.808594 85.109375 L 73.808594 82.828125 L 71.410156 82.828125 L 71.410156 80.550781 L 73.808594 80.550781 L 73.808594 82.828125 L 78.609375 82.828125 L 78.609375 80.550781 L 81.007812 80.550781 Z M 85.808594 75.988281 L 81.007812 75.988281 L 81.007812 71.429688 L 85.808594 71.429688 Z M 97.808594 69.148438 L 95.410156 69.148438 L 95.410156 66.871094 L 83.410156 66.871094 L 83.410156 62.308594 L 81.007812 62.308594 L 81.007812 57.75 L 78.609375 57.75 L 78.609375 53.191406 L 76.207031 53.191406 L 76.207031 62.308594 L 73.808594 62.308594 L 73.808594 66.871094 L 71.410156 66.871094 L 71.410156 69.148438 L 66.609375 69.148438 L 66.609375 71.429688 L 71.410156 71.429688 L 71.410156 75.988281 L 66.609375 75.988281 L 66.609375 71.429688 L 57.007812 71.429688 L 57.007812 73.710938 L 52.210938 73.710938 L 52.210938 75.988281 L 54.609375 75.988281 L 54.609375 78.269531 L 57.007812 78.269531 L 57.007812 80.550781 L 59.410156 80.550781 L 59.410156 82.828125 L 61.808594 82.828125 L 61.808594 87.390625 L 59.410156 87.390625 L 59.410156 98.792969 L 61.808594 98.792969 L 61.808594 96.511719 L 64.207031 96.511719 L 64.207031 94.230469 L 66.609375 94.230469 L 66.609375 91.949219 L 71.410156 91.949219 L 71.410156 89.671875 L 83.410156 89.671875 L 83.410156 87.390625 L 85.808594 87.390625 L 85.808594 82.828125 L 88.207031 82.828125 L 88.207031 78.269531 L 90.609375 78.269531 L 90.609375 75.988281 L 93.007812 75.988281 L 93.007812 73.710938 L 95.410156 73.710938 L 95.410156 71.429688 L 100.207031 71.429688 L 100.207031 69.148438 L 97.808594 69.148438 " fill-opacity="1" fill-rule="nonzero"/><path fill="#f3f02c" d="M 73.808594 48.628906 L 73.808594 53.191406 L 71.410156 53.191406 L 71.410156 57.75 L 69.007812 57.75 L 69.007812 64.589844 L 66.609375 64.589844 L 66.609375 66.871094 L 54.609375 66.871094 L 54.609375 69.148438 L 47.410156 69.148438 L 47.410156 71.429688 L 52.210938 71.429688 L 52.210938 73.710938 L 57.007812 73.710938 L 57.007812 71.429688 L 66.609375 71.429688 L 66.609375 69.148438 L 71.410156 69.148438 L 71.410156 66.871094 L 73.808594 66.871094 L 73.808594 62.308594 L 76.207031 62.308594 L 76.207031 48.628906 L 73.808594 48.628906 " fill-opacity="1" fill-rule="nonzero"/><g clip-path="url(#3242f5082a)"><path fill="#040606" d="M 90.609375 101.070312 L 90.609375 103.351562 L 95.410156 103.351562 L 95.410156 98.792969 L 93.007812 98.792969 L 93.007812 101.070312 L 90.609375 101.070312 " fill-opacity="1" fill-rule="nonzero"/></g><g clip-path="url(#89370f24b6)"><path fill="#040606" d="M 57.007812 103.351562 L 59.410156 103.351562 L 59.410156 101.070312 L 57.007812 101.070312 L 57.007812 103.351562 " fill-opacity="1" fill-rule="nonzero"/></g><path fill="#040606" d="M 88.207031 98.792969 L 85.808594 98.792969 L 85.808594 101.070312 L 90.609375 101.070312 L 90.609375 98.792969 L 88.207031 98.792969 " fill-opacity="1" fill-rule="nonzero"/><path fill="#040606" d="M 59.410156 98.792969 L 59.410156 101.070312 L 64.207031 101.070312 L 64.207031 98.792969 L 59.410156 98.792969 " fill-opacity="1" fill-rule="nonzero"/><g clip-path="url(#e84c0273c7)"><path fill="#040606" d="M 54.609375 103.351562 L 57.007812 103.351562 L 57.007812 101.070312 L 54.609375 101.070312 L 54.609375 103.351562 " fill-opacity="1" fill-rule="nonzero"/></g><path fill="#040606" d="M 83.410156 96.511719 L 81.007812 96.511719 L 81.007812 98.792969 L 85.808594 98.792969 L 85.808594 96.511719 L 83.410156 96.511719 " fill-opacity="1" fill-rule="nonzero"/><path fill="#040606" d="M 64.207031 96.511719 L 64.207031 98.792969 L 69.007812 98.792969 L 69.007812 96.511719 L 64.207031 96.511719 " fill-opacity="1" fill-rule="nonzero"/><path fill="#040606" d="M 78.609375 94.230469 L 76.207031 94.230469 L 76.207031 96.511719 L 81.007812 96.511719 L 81.007812 94.230469 L 78.609375 94.230469 " fill-opacity="1" fill-rule="nonzero"/><path fill="#040606" d="M 69.007812 94.230469 L 69.007812 96.511719 L 73.808594 96.511719 L 73.808594 94.230469 L 69.007812 94.230469 " fill-opacity="1" fill-rule="nonzero"/><path fill="#040606" d="M 59.410156 94.230469 L 59.410156 87.390625 L 57.007812 87.390625 L 57.007812 98.792969 L 59.410156 98.792969 L 59.410156 94.230469 " fill-opacity="1" fill-rule="nonzero"/><path fill="#040606" d="M 73.808594 91.949219 L 73.808594 94.230469 L 76.207031 94.230469 L 76.207031 91.949219 L 73.808594 91.949219 " fill-opacity="1" fill-rule="nonzero"/><path fill="#040606" d="M 61.808594 85.109375 L 61.808594 82.828125 L 59.410156 82.828125 L 59.410156 87.390625 L 61.808594 87.390625 L 61.808594 85.109375 " fill-opacity="1" fill-rule="nonzero"/><path fill="#040606" d="M 88.207031 85.109375 L 88.207031 87.390625 L 90.609375 87.390625 L 90.609375 98.792969 L 93.007812 98.792969 L 93.007812 85.109375 L 90.609375 85.109375 L 90.609375 82.828125 L 88.207031 82.828125 L 88.207031 85.109375 " fill-opacity="1" fill-rule="nonzero"/><path fill="#040606" d="M 73.808594 82.828125 L 73.808594 85.109375 L 78.609375 85.109375 L 78.609375 82.828125 L 73.808594 82.828125 " fill-opacity="1" fill-rule="nonzero"/><path fill="#040606" d="M 90.609375 82.828125 L 93.007812 82.828125 L 93.007812 80.550781 L 90.609375 80.550781 L 90.609375 82.828125 " fill-opacity="1" fill-rule="nonzero"/><path fill="#040606" d="M 78.609375 82.828125 L 81.007812 82.828125 L 81.007812 80.550781 L 78.609375 80.550781 L 78.609375 82.828125 " fill-opacity="1" fill-rule="nonzero"/><path fill="#040606" d="M 71.410156 80.550781 L 71.410156 82.828125 L 73.808594 82.828125 L 73.808594 80.550781 L 71.410156 80.550781 " fill-opacity="1" fill-rule="nonzero"/><path fill="#040606" d="M 57.007812 80.550781 L 57.007812 82.828125 L 59.410156 82.828125 L 59.410156 80.550781 L 57.007812 80.550781 " fill-opacity="1" fill-rule="nonzero"/><path fill="#040606" d="M 93.007812 80.550781 L 95.410156 80.550781 L 95.410156 78.269531 L 93.007812 78.269531 L 93.007812 80.550781 " fill-opacity="1" fill-rule="nonzero"/><path fill="#040606" d="M 54.609375 78.269531 L 54.609375 80.550781 L 57.007812 80.550781 L 57.007812 78.269531 L 54.609375 78.269531 " fill-opacity="1" fill-rule="nonzero"/><path fill="#040606" d="M 95.410156 78.269531 L 97.808594 78.269531 L 97.808594 75.988281 L 95.410156 75.988281 L 95.410156 78.269531 " fill-opacity="1" fill-rule="nonzero"/><path fill="#040606" d="M 52.210938 75.988281 L 52.210938 78.269531 L 54.609375 78.269531 L 54.609375 75.988281 L 52.210938 75.988281 " fill-opacity="1" fill-rule="nonzero"/><path fill="#040606" d="M 97.808594 75.988281 L 100.207031 75.988281 L 100.207031 73.710938 L 97.808594 73.710938 L 97.808594 75.988281 " fill-opacity="1" fill-rule="nonzero"/><path fill="#040606" d="M 71.410156 73.710938 L 71.410156 71.429688 L 69.007812 71.429688 L 69.007812 73.710938 L 66.609375 73.710938 L 66.609375 75.988281 L 71.410156 75.988281 L 71.410156 73.710938 " fill-opacity="1" fill-rule="nonzero"/><path fill="#040606" d="M 49.808594 73.710938 L 49.808594 75.988281 L 52.210938 75.988281 L 52.210938 73.710938 L 49.808594 73.710938 " fill-opacity="1" fill-rule="nonzero"/><path fill="#040606" d="M 100.207031 73.710938 L 102.609375 73.710938 L 102.609375 71.429688 L 100.207031 71.429688 L 100.207031 73.710938 " fill-opacity="1" fill-rule="nonzero"/><path fill="#040606" d="M 83.410156 73.710938 L 81.007812 73.710938 L 81.007812 75.988281 L 85.808594 75.988281 L 85.808594 71.429688 L 83.410156 71.429688 L 83.410156 73.710938 " fill-opacity="1" fill-rule="nonzero"/><path fill="#040606" d="M 47.410156 71.429688 L 47.410156 73.710938 L 49.808594 73.710938 L 49.808594 71.429688 L 47.410156 71.429688 " fill-opacity="1" fill-rule="nonzero"/><g clip-path="url(#85cb515963)"><path fill="#040606" d="M 102.609375 66.871094 L 95.410156 66.871094 L 95.410156 69.148438 L 102.609375 69.148438 L 102.609375 71.429688 L 105.007812 71.429688 L 105.007812 66.871094 L 102.609375 66.871094 " fill-opacity="1" fill-rule="nonzero"/></g><path fill="#040606" d="M 49.808594 69.148438 L 54.609375 69.148438 L 54.609375 66.871094 L 45.007812 66.871094 L 45.007812 71.429688 L 47.410156 71.429688 L 47.410156 69.148438 L 49.808594 69.148438 " fill-opacity="1" fill-rule="nonzero"/><path fill="#040606" d="M 83.410156 66.871094 L 95.410156 66.871094 L 95.410156 64.589844 L 85.808594 64.589844 L 85.808594 62.308594 L 83.410156 62.308594 L 83.410156 66.871094 " fill-opacity="1" fill-rule="nonzero"/><path fill="#040606" d="M 59.410156 66.871094 L 66.609375 66.871094 L 66.609375 64.589844 L 69.007812 64.589844 L 69.007812 57.75 L 66.609375 57.75 L 66.609375 62.308594 L 64.207031 62.308594 L 64.207031 64.589844 L 54.609375 64.589844 L 54.609375 66.871094 L 59.410156 66.871094 " fill-opacity="1" fill-rule="nonzero"/><path fill="#040606" d="M 81.007812 62.308594 L 83.410156 62.308594 L 83.410156 57.75 L 81.007812 57.75 L 81.007812 62.308594 " fill-opacity="1" fill-rule="nonzero"/><path fill="#040606" d="M 78.609375 57.75 L 81.007812 57.75 L 81.007812 53.191406 L 78.609375 53.191406 L 78.609375 57.75 " fill-opacity="1" fill-rule="nonzero"/><path fill="#040606" d="M 71.410156 55.46875 L 71.410156 53.191406 L 69.007812 53.191406 L 69.007812 57.75 L 71.410156 57.75 L 71.410156 55.46875 " fill-opacity="1" fill-rule="nonzero"/><path fill="#040606" d="M 76.207031 53.191406 L 78.609375 53.191406 L 78.609375 48.628906 L 76.207031 48.628906 L 76.207031 53.191406 " fill-opacity="1" fill-rule="nonzero"/><path fill="#040606" d="M 73.808594 50.910156 L 73.808594 48.628906 L 71.410156 48.628906 L 71.410156 53.191406 L 73.808594 53.191406 L 73.808594 50.910156 " fill-opacity="1" fill-rule="nonzero"/><g clip-path="url(#f47e2bd46e)"><path fill="#040606" d="M 76.207031 46.347656 L 73.808594 46.347656 L 73.808594 48.628906 L 76.207031 48.628906 L 76.207031 46.347656 " fill-opacity="1" fill-rule="nonzero"/></g></svg>