<svg xmlns="http://www.w3.org/2000/svg" xmlns:xlink="http://www.w3.org/1999/xlink" width="40" zoomAndPan="magnify" viewBox="0 0 30 30.000001" height="40" preserveAspectRatio="xMidYMid meet" version="1.0"><defs><clipPath id="2c56ca68b8"><path d="M 1.46875 0 L 28 0 L 28 29.03125 L 1.46875 29.03125 Z M 1.46875 0 " clip-rule="nonzero"/></clipPath><clipPath id="802eda8d92"><path d="M 2 0 L 28.324219 0 L 28.324219 29 L 2 29 Z M 2 0 " clip-rule="nonzero"/></clipPath><clipPath id="b87012c9c3"><path d="M 2 0 L 28.324219 0 L 28.324219 29 L 2 29 Z M 2 0 " clip-rule="nonzero"/></clipPath></defs><g clip-path="url(#2c56ca68b8)"><path fill="#000000" d="M 26.472656 5.160156 L 26.472656 4.230469 L 25.546875 4.230469 L 25.546875 3.300781 L 21.84375 3.300781 L 21.84375 1.441406 L 20.917969 1.441406 L 20.917969 0.511719 L 19.0625 0.511719 L 19.0625 1.441406 L 18.136719 1.441406 L 18.136719 3.300781 L 10.730469 3.300781 L 10.730469 1.441406 L 9.804688 1.441406 L 9.804688 0.511719 L 7.953125 0.511719 L 7.953125 1.441406 L 7.023438 1.441406 L 7.023438 3.300781 L 3.320312 3.300781 L 3.320312 4.230469 L 2.394531 4.230469 L 2.394531 5.160156 L 1.46875 5.160156 L 1.46875 27.460938 L 2.394531 27.460938 L 2.394531 28.390625 L 3.320312 28.390625 L 3.320312 29.320312 L 25.546875 29.320312 L 25.546875 28.390625 L 26.472656 28.390625 L 26.472656 27.460938 L 27.398438 27.460938 L 27.398438 5.160156 Z M 26.472656 5.160156 " fill-opacity="0.3" fill-rule="nonzero"/></g><g clip-path="url(#802eda8d92)"><path fill="#000000" d="M 27.398438 4.230469 L 27.398438 3.300781 L 26.472656 3.300781 L 26.472656 2.371094 L 22.769531 2.371094 L 22.769531 0.511719 L 21.84375 0.511719 L 21.84375 -0.417969 L 19.992188 -0.417969 L 19.992188 0.511719 L 19.0625 0.511719 L 19.0625 2.371094 L 11.65625 2.371094 L 11.65625 0.511719 L 10.730469 0.511719 L 10.730469 -0.417969 L 8.878906 -0.417969 L 8.878906 0.511719 L 7.953125 0.511719 L 7.953125 2.371094 L 4.246094 2.371094 L 4.246094 3.300781 L 3.320312 3.300781 L 3.320312 4.230469 L 2.394531 4.230469 L 2.394531 26.53125 L 3.320312 26.53125 L 3.320312 27.460938 L 4.246094 27.460938 L 4.246094 28.390625 L 26.472656 28.390625 L 26.472656 27.460938 L 27.398438 27.460938 L 27.398438 26.53125 L 28.324219 26.53125 L 28.324219 4.230469 Z M 27.398438 4.230469 " fill-opacity="1" fill-rule="nonzero"/></g><path fill="#ffffff" d="M 8.878906 20.957031 L 4.246094 20.957031 L 4.246094 21.886719 L 5.171875 21.886719 L 5.171875 22.8125 L 6.097656 22.8125 L 6.097656 23.742188 L 7.023438 23.742188 L 7.023438 24.671875 L 7.953125 24.671875 L 7.953125 25.601562 L 8.878906 25.601562 L 8.878906 26.53125 L 9.804688 26.53125 L 9.804688 21.886719 L 8.878906 21.886719 Z M 8.878906 20.957031 " fill-opacity="1" fill-rule="nonzero"/><path fill="#9f9fa0" d="M 7.953125 26.53125 L 8.878906 26.53125 L 8.878906 27.460938 L 4.246094 27.460938 L 4.246094 26.53125 L 3.320312 26.53125 L 3.320312 21.886719 L 4.246094 21.886719 L 4.246094 22.8125 L 5.171875 22.8125 L 5.171875 23.742188 L 6.097656 23.742188 L 6.097656 24.671875 L 7.023438 24.671875 L 7.023438 25.601562 L 7.953125 25.601562 Z M 7.953125 26.53125 " fill-opacity="1" fill-rule="nonzero"/><path fill="#000000" d="M 8.878906 20.957031 L 4.246094 20.957031 L 4.246094 21.886719 L 5.171875 21.886719 L 5.171875 22.8125 L 6.097656 22.8125 L 6.097656 23.742188 L 7.023438 23.742188 L 7.023438 24.671875 L 7.953125 24.671875 L 7.953125 25.601562 L 8.878906 25.601562 L 8.878906 26.53125 L 9.804688 26.53125 L 9.804688 21.886719 L 8.878906 21.886719 Z M 8.878906 20.957031 " fill-opacity="0.2" fill-rule="nonzero"/><path fill="#ffffff" d="M 26.472656 10.734375 L 3.320312 10.734375 L 3.320312 20.027344 L 9.804688 20.027344 L 9.804688 20.957031 L 10.730469 20.957031 L 10.730469 27.460938 L 26.472656 27.460938 L 26.472656 26.53125 L 27.398438 26.53125 L 27.398438 10.734375 Z M 26.472656 10.734375 " fill-opacity="1" fill-rule="nonzero"/><path fill="#000000" d="M 26.472656 10.734375 L 3.320312 10.734375 L 3.320312 20.027344 L 9.804688 20.027344 L 9.804688 20.957031 L 10.730469 20.957031 L 10.730469 27.460938 L 26.472656 27.460938 L 26.472656 26.53125 L 27.398438 26.53125 L 27.398438 10.734375 Z M 26.472656 10.734375 " fill-opacity="0.1" fill-rule="nonzero"/><path fill="#e5ff00" d="M 9.804688 0.511719 L 10.730469 0.511719 L 10.730469 5.160156 L 8.878906 5.160156 L 8.878906 0.511719 Z M 20.917969 0.511719 L 19.992188 0.511719 L 19.992188 5.160156 L 21.84375 5.160156 L 21.84375 0.511719 Z M 20.917969 0.511719 " fill-opacity="1" fill-rule="nonzero"/><path fill="#000000" d="M 16.285156 12.59375 L 12.582031 12.59375 L 12.582031 18.167969 L 18.136719 18.167969 L 18.136719 12.59375 Z M 24.621094 12.59375 L 19.992188 12.59375 L 19.992188 18.167969 L 25.546875 18.167969 L 25.546875 12.59375 Z M 23.695312 20.027344 L 19.992188 20.027344 L 19.992188 25.601562 L 25.546875 25.601562 L 25.546875 20.027344 Z M 16.285156 20.027344 L 12.582031 20.027344 L 12.582031 25.601562 L 18.136719 25.601562 L 18.136719 20.027344 Z M 8.878906 20.027344 L 8.878906 20.957031 L 9.804688 20.957031 L 9.804688 21.886719 L 10.730469 21.886719 L 10.730469 20.957031 L 9.804688 20.957031 L 9.804688 20.027344 Z M 8.878906 12.59375 L 5.171875 12.59375 L 5.171875 18.167969 L 10.730469 18.167969 L 10.730469 12.59375 Z M 8.878906 12.59375 " fill-opacity="0.15" fill-rule="nonzero"/><path fill="#000000" d="M 6.097656 16.308594 L 6.097656 17.238281 L 5.171875 17.238281 L 5.171875 16.308594 Z M 5.171875 14.449219 L 5.171875 15.378906 L 6.097656 15.378906 L 6.097656 14.449219 Z M 5.171875 12.59375 L 5.171875 13.523438 L 6.097656 13.523438 L 6.097656 12.59375 Z M 6.097656 17.238281 L 6.097656 18.167969 L 7.023438 18.167969 L 7.023438 17.238281 Z M 6.097656 15.378906 L 6.097656 16.308594 L 7.023438 16.308594 L 7.023438 15.378906 Z M 6.097656 13.523438 L 6.097656 14.449219 L 7.023438 14.449219 L 7.023438 13.523438 Z M 7.023438 16.308594 L 7.023438 17.238281 L 7.953125 17.238281 L 7.953125 16.308594 Z M 7.023438 14.449219 L 7.023438 15.378906 L 7.953125 15.378906 L 7.953125 14.449219 Z M 7.023438 12.59375 L 7.023438 13.523438 L 7.953125 13.523438 L 7.953125 12.59375 Z M 7.953125 17.238281 L 7.953125 18.167969 L 8.878906 18.167969 L 8.878906 17.238281 Z M 7.953125 15.378906 L 7.953125 16.308594 L 8.878906 16.308594 L 8.878906 15.378906 Z M 7.953125 13.523438 L 7.953125 14.449219 L 8.878906 14.449219 L 8.878906 13.523438 Z M 8.878906 20.027344 L 8.878906 20.957031 L 9.804688 20.957031 L 9.804688 20.027344 Z M 8.878906 16.308594 L 8.878906 17.238281 L 9.804688 17.238281 L 9.804688 16.308594 Z M 8.878906 14.449219 L 8.878906 15.378906 L 9.804688 15.378906 L 9.804688 14.449219 Z M 8.878906 12.59375 L 8.878906 13.523438 L 9.804688 13.523438 L 9.804688 12.59375 Z M 9.804688 20.957031 L 9.804688 21.886719 L 10.730469 21.886719 L 10.730469 20.957031 Z M 9.804688 17.238281 L 9.804688 18.167969 L 10.730469 18.167969 L 10.730469 17.238281 Z M 9.804688 15.378906 L 9.804688 16.308594 L 10.730469 16.308594 L 10.730469 15.378906 Z M 9.804688 13.523438 L 9.804688 14.449219 L 10.730469 14.449219 L 10.730469 13.523438 Z M 12.582031 23.742188 L 12.582031 24.671875 L 13.507812 24.671875 L 13.507812 23.742188 Z M 12.582031 21.886719 L 12.582031 22.8125 L 13.507812 22.8125 L 13.507812 21.886719 Z M 12.582031 20.027344 L 12.582031 20.957031 L 13.507812 20.957031 L 13.507812 20.027344 Z M 12.582031 17.238281 L 12.582031 18.167969 L 13.507812 18.167969 L 13.507812 17.238281 Z M 12.582031 15.378906 L 12.582031 16.308594 L 13.507812 16.308594 L 13.507812 15.378906 Z M 12.582031 13.523438 L 12.582031 14.449219 L 13.507812 14.449219 L 13.507812 13.523438 Z M 13.507812 24.671875 L 13.507812 25.601562 L 14.433594 25.601562 L 14.433594 24.671875 Z M 13.507812 22.8125 L 13.507812 23.742188 L 14.433594 23.742188 L 14.433594 22.8125 Z M 13.507812 20.957031 L 13.507812 21.886719 L 14.433594 21.886719 L 14.433594 20.957031 Z M 13.507812 16.308594 L 13.507812 17.238281 L 14.433594 17.238281 L 14.433594 16.308594 Z M 13.507812 14.449219 L 13.507812 15.378906 L 14.433594 15.378906 L 14.433594 14.449219 Z M 13.507812 12.59375 L 13.507812 13.523438 L 14.433594 13.523438 L 14.433594 12.59375 Z M 14.433594 23.742188 L 14.433594 24.671875 L 15.359375 24.671875 L 15.359375 23.742188 Z M 14.433594 21.886719 L 14.433594 22.8125 L 15.359375 22.8125 L 15.359375 21.886719 Z M 14.433594 20.027344 L 14.433594 20.957031 L 15.359375 20.957031 L 15.359375 20.027344 Z M 14.433594 17.238281 L 14.433594 18.167969 L 15.359375 18.167969 L 15.359375 17.238281 Z M 14.433594 15.378906 L 14.433594 16.308594 L 15.359375 16.308594 L 15.359375 15.378906 Z M 14.433594 13.523438 L 14.433594 14.449219 L 15.359375 14.449219 L 15.359375 13.523438 Z M 15.359375 24.671875 L 15.359375 25.601562 L 16.285156 25.601562 L 16.285156 24.671875 Z M 15.359375 22.8125 L 15.359375 23.742188 L 16.285156 23.742188 L 16.285156 22.8125 Z M 15.359375 20.957031 L 15.359375 21.886719 L 16.285156 21.886719 L 16.285156 20.957031 Z M 15.359375 16.308594 L 15.359375 17.238281 L 16.285156 17.238281 L 16.285156 16.308594 Z M 15.359375 14.449219 L 15.359375 15.378906 L 16.285156 15.378906 L 16.285156 14.449219 Z M 15.359375 12.59375 L 15.359375 13.523438 L 16.285156 13.523438 L 16.285156 12.59375 Z M 16.285156 23.742188 L 16.285156 24.671875 L 17.210938 24.671875 L 17.210938 23.742188 Z M 16.285156 21.886719 L 16.285156 22.8125 L 17.210938 22.8125 L 17.210938 21.886719 Z M 16.285156 20.027344 L 16.285156 20.957031 L 17.210938 20.957031 L 17.210938 20.027344 Z M 16.285156 17.238281 L 16.285156 18.167969 L 17.210938 18.167969 L 17.210938 17.238281 Z M 16.285156 15.378906 L 16.285156 16.308594 L 17.210938 16.308594 L 17.210938 15.378906 Z M 16.285156 13.523438 L 16.285156 14.449219 L 17.210938 14.449219 L 17.210938 13.523438 Z M 17.210938 24.671875 L 17.210938 25.601562 L 18.136719 25.601562 L 18.136719 24.671875 Z M 17.210938 22.8125 L 17.210938 23.742188 L 18.136719 23.742188 L 18.136719 22.8125 Z M 17.210938 20.957031 L 17.210938 21.886719 L 18.136719 21.886719 L 18.136719 20.957031 Z M 17.210938 16.308594 L 17.210938 17.238281 L 18.136719 17.238281 L 18.136719 16.308594 Z M 17.210938 14.449219 L 17.210938 15.378906 L 18.136719 15.378906 L 18.136719 14.449219 Z M 17.210938 12.59375 L 17.210938 13.523438 L 18.136719 13.523438 L 18.136719 12.59375 Z M 19.992188 23.742188 L 19.992188 24.671875 L 20.917969 24.671875 L 20.917969 23.742188 Z M 19.992188 21.886719 L 19.992188 22.8125 L 20.917969 22.8125 L 20.917969 21.886719 Z M 19.992188 20.027344 L 19.992188 20.957031 L 20.917969 20.957031 L 20.917969 20.027344 Z M 19.992188 17.238281 L 19.992188 18.167969 L 20.917969 18.167969 L 20.917969 17.238281 Z M 19.992188 15.378906 L 19.992188 16.308594 L 20.917969 16.308594 L 20.917969 15.378906 Z M 19.992188 13.523438 L 19.992188 14.449219 L 20.917969 14.449219 L 20.917969 13.523438 Z M 20.917969 24.671875 L 20.917969 25.601562 L 21.84375 25.601562 L 21.84375 24.671875 Z M 20.917969 22.8125 L 20.917969 23.742188 L 21.84375 23.742188 L 21.84375 22.8125 Z M 20.917969 20.957031 L 20.917969 21.886719 L 21.84375 21.886719 L 21.84375 20.957031 Z M 20.917969 16.308594 L 20.917969 17.238281 L 21.84375 17.238281 L 21.84375 16.308594 Z M 20.917969 14.449219 L 20.917969 15.378906 L 21.84375 15.378906 L 21.84375 14.449219 Z M 20.917969 12.59375 L 20.917969 13.523438 L 21.84375 13.523438 L 21.84375 12.59375 Z M 21.84375 23.742188 L 21.84375 24.671875 L 22.769531 24.671875 L 22.769531 23.742188 Z M 21.84375 21.886719 L 21.84375 22.8125 L 22.769531 22.8125 L 22.769531 21.886719 Z M 21.84375 20.027344 L 21.84375 20.957031 L 22.769531 20.957031 L 22.769531 20.027344 Z M 21.84375 17.238281 L 21.84375 18.167969 L 22.769531 18.167969 L 22.769531 17.238281 Z M 21.84375 15.378906 L 21.84375 16.308594 L 22.769531 16.308594 L 22.769531 15.378906 Z M 21.84375 13.523438 L 21.84375 14.449219 L 22.769531 14.449219 L 22.769531 13.523438 Z M 22.769531 24.671875 L 22.769531 25.601562 L 23.695312 25.601562 L 23.695312 24.671875 Z M 22.769531 22.8125 L 22.769531 23.742188 L 23.695312 23.742188 L 23.695312 22.8125 Z M 22.769531 20.957031 L 22.769531 21.886719 L 23.695312 21.886719 L 23.695312 20.957031 Z M 22.769531 16.308594 L 22.769531 17.238281 L 23.695312 17.238281 L 23.695312 16.308594 Z M 22.769531 14.449219 L 22.769531 15.378906 L 23.695312 15.378906 L 23.695312 14.449219 Z M 22.769531 12.59375 L 22.769531 13.523438 L 23.695312 13.523438 L 23.695312 12.59375 Z M 23.695312 23.742188 L 23.695312 24.671875 L 24.621094 24.671875 L 24.621094 23.742188 Z M 23.695312 21.886719 L 23.695312 22.8125 L 24.621094 22.8125 L 24.621094 21.886719 Z M 23.695312 20.027344 L 23.695312 20.957031 L 24.621094 20.957031 L 24.621094 20.027344 Z M 23.695312 17.238281 L 23.695312 18.167969 L 24.621094 18.167969 L 24.621094 17.238281 Z M 23.695312 15.378906 L 23.695312 16.308594 L 24.621094 16.308594 L 24.621094 15.378906 Z M 23.695312 13.523438 L 23.695312 14.449219 L 24.621094 14.449219 L 24.621094 13.523438 Z M 24.621094 24.671875 L 24.621094 25.601562 L 25.546875 25.601562 L 25.546875 24.671875 Z M 24.621094 22.8125 L 24.621094 23.742188 L 25.546875 23.742188 L 25.546875 22.8125 Z M 24.621094 20.957031 L 24.621094 21.886719 L 25.546875 21.886719 L 25.546875 20.957031 Z M 24.621094 16.308594 L 24.621094 17.238281 L 25.546875 17.238281 L 25.546875 16.308594 Z M 24.621094 14.449219 L 24.621094 15.378906 L 25.546875 15.378906 L 25.546875 14.449219 Z M 24.621094 12.59375 L 24.621094 13.523438 L 25.546875 13.523438 L 25.546875 12.59375 Z M 24.621094 12.59375 " fill-opacity="0.15" fill-rule="nonzero"/><path fill="#fb0800" d="M 27.398438 4.230469 L 27.398438 9.804688 L 3.320312 9.804688 L 3.320312 4.230469 L 4.246094 4.230469 L 4.246094 3.300781 L 7.953125 3.300781 L 7.953125 5.160156 L 8.878906 5.160156 L 8.878906 6.089844 L 10.730469 6.089844 L 10.730469 5.160156 L 11.65625 5.160156 L 11.65625 3.300781 L 19.0625 3.300781 L 19.0625 5.160156 L 19.992188 5.160156 L 19.992188 6.089844 L 21.84375 6.089844 L 21.84375 5.160156 L 22.769531 5.160156 L 22.769531 3.300781 L 26.472656 3.300781 L 26.472656 4.230469 Z M 27.398438 4.230469 " fill-opacity="1" fill-rule="nonzero"/><g clip-path="url(#b87012c9c3)"><path fill="#000000" d="M 4.246094 26.53125 L 4.246094 27.460938 L 3.320312 27.460938 L 3.320312 26.53125 Z M 4.246094 3.300781 L 3.320312 3.300781 L 3.320312 4.230469 L 4.246094 4.230469 Z M 5.171875 22.8125 L 5.171875 21.886719 L 4.246094 21.886719 L 4.246094 22.8125 Z M 5.171875 22.8125 L 5.171875 23.742188 L 6.097656 23.742188 L 6.097656 22.8125 Z M 6.097656 3.300781 L 7.953125 3.300781 L 7.953125 5.160156 L 8.878906 5.160156 L 8.878906 0.511719 L 7.953125 0.511719 L 7.953125 2.371094 L 4.246094 2.371094 L 4.246094 3.300781 Z M 6.097656 23.742188 L 6.097656 24.671875 L 7.023438 24.671875 L 7.023438 23.742188 Z M 7.023438 24.671875 L 7.023438 25.601562 L 7.953125 25.601562 L 7.953125 24.671875 Z M 7.953125 25.601562 L 7.953125 26.53125 L 8.878906 26.53125 L 8.878906 25.601562 Z M 9.804688 21.886719 L 9.804688 20.957031 L 8.878906 20.957031 L 8.878906 21.886719 Z M 8.878906 5.160156 L 8.878906 6.089844 L 10.730469 6.089844 L 10.730469 5.160156 Z M 10.730469 0.511719 L 10.730469 -0.417969 L 8.878906 -0.417969 L 8.878906 0.511719 Z M 10.730469 2.371094 L 10.730469 5.160156 L 11.65625 5.160156 L 11.65625 3.300781 L 19.0625 3.300781 L 19.0625 5.160156 L 19.992188 5.160156 L 19.992188 0.511719 L 19.0625 0.511719 L 19.0625 2.371094 L 11.65625 2.371094 L 11.65625 0.511719 L 10.730469 0.511719 Z M 19.992188 5.160156 L 19.992188 6.089844 L 21.84375 6.089844 L 21.84375 5.160156 Z M 21.84375 0.511719 L 21.84375 -0.417969 L 19.992188 -0.417969 L 19.992188 0.511719 Z M 21.84375 2.371094 L 21.84375 5.160156 L 22.769531 5.160156 L 22.769531 3.300781 L 26.472656 3.300781 L 26.472656 2.371094 L 22.769531 2.371094 L 22.769531 0.511719 L 21.84375 0.511719 Z M 24.621094 27.460938 L 10.730469 27.460938 L 10.730469 21.886719 L 9.804688 21.886719 L 9.804688 26.53125 L 8.878906 26.53125 L 8.878906 27.460938 L 4.246094 27.460938 L 4.246094 28.390625 L 26.472656 28.390625 L 26.472656 27.460938 Z M 26.472656 27.460938 L 27.398438 27.460938 L 27.398438 26.53125 L 26.472656 26.53125 Z M 27.398438 4.230469 L 27.398438 3.300781 L 26.472656 3.300781 L 26.472656 4.230469 Z M 27.398438 4.230469 L 27.398438 9.804688 L 3.320312 9.804688 L 3.320312 4.230469 L 2.394531 4.230469 L 2.394531 26.53125 L 3.320312 26.53125 L 3.320312 21.886719 L 4.246094 21.886719 L 4.246094 20.957031 L 8.878906 20.957031 L 8.878906 20.027344 L 3.320312 20.027344 L 3.320312 10.734375 L 27.398438 10.734375 L 27.398438 26.53125 L 28.324219 26.53125 L 28.324219 4.230469 Z M 27.398438 4.230469 " fill-opacity="1" fill-rule="nonzero"/></g><path fill="#000000" d="M 4.246094 8.875 L 4.246094 4.230469 L 3.320312 4.230469 L 3.320312 9.804688 L 4.246094 9.804688 Z M 19.0625 7.015625 L 20.917969 7.015625 L 20.917969 6.089844 L 19.992188 6.089844 L 19.992188 5.160156 L 19.0625 5.160156 L 19.0625 3.300781 L 18.136719 3.300781 L 18.136719 6.089844 L 19.0625 6.089844 Z M 8.878906 5.160156 L 7.953125 5.160156 L 7.953125 3.300781 L 7.023438 3.300781 L 7.023438 6.089844 L 7.953125 6.089844 L 7.953125 7.015625 L 9.804688 7.015625 L 9.804688 6.089844 L 8.878906 6.089844 Z M 8.878906 5.160156 " fill-opacity="0.3" fill-rule="nonzero"/><path fill="#000000" d="M 4.246094 19.097656 L 4.246094 10.734375 L 3.320312 10.734375 L 3.320312 20.027344 L 4.246094 20.027344 Z M 25.546875 26.53125 L 10.730469 26.53125 L 10.730469 27.460938 L 26.472656 27.460938 L 26.472656 26.53125 Z M 25.546875 26.53125 " fill-opacity="0.3" fill-rule="nonzero"/><path fill="#000000" d="M 7.953125 26.53125 L 8.878906 26.53125 L 8.878906 27.460938 L 7.953125 27.460938 Z M 3.320312 21.886719 L 3.320312 22.8125 L 4.246094 22.8125 L 4.246094 21.886719 Z M 4.246094 22.8125 L 4.246094 23.742188 L 5.171875 23.742188 L 5.171875 22.8125 Z M 7.023438 25.601562 L 7.023438 26.53125 L 7.953125 26.53125 L 7.953125 25.601562 Z M 6.097656 24.671875 L 6.097656 25.601562 L 7.023438 25.601562 L 7.023438 24.671875 Z M 5.171875 23.742188 L 5.171875 24.671875 L 6.097656 24.671875 L 6.097656 23.742188 Z M 5.171875 23.742188 " fill-opacity="0.3" fill-rule="nonzero"/><path fill="#ffffff" d="M 8.878906 0.511719 L 8.878906 1.441406 L 9.804688 1.441406 L 9.804688 5.160156 L 10.730469 5.160156 L 10.730469 0.511719 Z M 19.992188 0.511719 L 19.992188 1.441406 L 20.917969 1.441406 L 20.917969 5.160156 L 21.84375 5.160156 L 21.84375 0.511719 Z M 19.992188 0.511719 " fill-opacity="0.9" fill-rule="nonzero"/><path fill="#ffffff" d="M 6.097656 3.300781 L 7.023438 3.300781 L 7.023438 4.230469 L 4.246094 4.230469 L 4.246094 3.300781 Z M 16.285156 3.300781 L 11.65625 3.300781 L 11.65625 4.230469 L 18.136719 4.230469 L 18.136719 3.300781 Z M 26.472656 4.230469 L 26.472656 3.300781 L 22.769531 3.300781 L 22.769531 4.230469 L 25.546875 4.230469 L 25.546875 5.160156 L 26.472656 5.160156 L 26.472656 9.804688 L 27.398438 9.804688 L 27.398438 4.230469 Z M 26.472656 4.230469 " fill-opacity="0.5" fill-rule="nonzero"/><path fill="#ffffff" d="M 8.878906 21.886719 L 9.804688 21.886719 L 9.804688 26.53125 L 8.878906 26.53125 L 8.878906 22.8125 L 7.953125 22.8125 L 7.953125 20.957031 L 8.878906 20.957031 Z M 26.472656 11.664062 L 26.472656 26.53125 L 27.398438 26.53125 L 27.398438 10.734375 L 26.472656 10.734375 Z M 26.472656 11.664062 " fill-opacity="1" fill-rule="nonzero"/></svg>