<svg xmlns="http://www.w3.org/2000/svg" xmlns:xlink="http://www.w3.org/1999/xlink" zoomAndPan="magnify" preserveAspectRatio="xMidYMid meet" version="1.0" viewBox="45 45.7 60 58.46"><defs><clipPath id="c67ebe06a5"><path d="M 50.578125 90.214844 L 99.421875 90.214844 L 99.421875 104.160156 L 50.578125 104.160156 Z M 50.578125 90.214844 " clip-rule="nonzero"/></clipPath><clipPath id="372751a7a8"><path d="M 49.089844 86.011719 L 99.421875 86.011719 L 99.421875 104.160156 L 49.089844 104.160156 Z M 49.089844 86.011719 " clip-rule="nonzero"/></clipPath><clipPath id="43205d4336"><path d="M 46.363281 77.601562 L 102.273438 77.601562 L 102.273438 104.160156 L 46.363281 104.160156 Z M 46.363281 77.601562 " clip-rule="nonzero"/></clipPath><clipPath id="ba715c26ad"><path d="M 45 45.695312 L 105 45.695312 L 105 104.160156 L 45 104.160156 Z M 45 45.695312 " clip-rule="nonzero"/></clipPath></defs><g clip-path="url(#c67ebe06a5)"><path fill="#fcf7db" d="M 85.464844 93.023438 L 85.464844 94.414062 L 86.859375 94.414062 L 86.859375 93.023438 Z M 99.417969 98.589844 L 99.417969 99.984375 L 98.023438 99.984375 L 98.023438 101.375 L 96.628906 101.375 L 96.628906 104.160156 L 51.976562 104.160156 L 51.976562 102.765625 L 50.582031 102.765625 L 50.582031 93.023438 L 51.976562 93.023438 L 51.976562 97.199219 L 53.371094 97.199219 L 53.371094 101.375 L 56.164062 101.375 L 56.164062 102.765625 L 60.347656 102.765625 L 60.347656 98.589844 L 61.746094 98.589844 L 61.746094 95.808594 L 63.140625 95.808594 L 63.140625 90.238281 L 64.535156 90.238281 L 64.535156 93.023438 L 65.929688 93.023438 L 65.929688 98.589844 L 67.324219 98.589844 L 67.324219 101.375 L 70.117188 101.375 L 70.117188 97.199219 L 71.511719 97.199219 L 71.511719 95.808594 L 72.90625 95.808594 L 72.90625 94.414062 L 74.300781 94.414062 L 74.300781 93.023438 L 75.699219 93.023438 L 75.699219 90.238281 L 77.09375 90.238281 L 77.09375 91.632812 L 78.488281 91.632812 L 78.488281 95.808594 L 79.882812 95.808594 L 79.882812 98.589844 L 78.488281 98.589844 L 78.488281 101.375 L 77.09375 101.375 L 77.09375 102.765625 L 78.488281 102.765625 L 78.488281 101.375 L 82.675781 101.375 L 82.675781 99.984375 L 84.070312 99.984375 L 84.070312 98.589844 L 85.464844 98.589844 L 85.464844 97.199219 L 86.859375 97.199219 L 86.859375 94.414062 L 88.257812 94.414062 L 88.257812 97.199219 L 89.652344 97.199219 L 89.652344 99.984375 L 92.441406 99.984375 L 92.441406 102.765625 L 93.835938 102.765625 L 93.835938 101.375 L 95.234375 101.375 L 95.234375 99.984375 L 96.628906 99.984375 L 96.628906 98.589844 L 99.417969 98.589844 " fill-opacity="1" fill-rule="nonzero"/></g><g clip-path="url(#372751a7a8)"><path fill="#f0c82f" d="M 49.1875 94.414062 L 49.1875 102.765625 L 50.582031 102.765625 L 50.582031 93.023438 L 49.1875 93.023438 Z M 61.746094 86.0625 L 61.746094 87.457031 L 63.140625 87.457031 L 63.140625 86.0625 Z M 65.929688 90.238281 L 65.929688 88.847656 L 64.535156 88.847656 L 64.535156 87.457031 L 63.140625 87.457031 L 63.140625 88.847656 L 61.746094 88.847656 L 61.746094 94.414062 L 60.347656 94.414062 L 60.347656 97.199219 L 58.953125 97.199219 L 58.953125 101.375 L 57.558594 101.375 L 57.558594 99.984375 L 54.765625 99.984375 L 54.765625 95.808594 L 53.371094 95.808594 L 53.371094 91.632812 L 51.976562 91.632812 L 51.976562 90.238281 L 50.582031 90.238281 L 50.582031 93.023438 L 51.976562 93.023438 L 51.976562 97.199219 L 53.371094 97.199219 L 53.371094 101.375 L 56.164062 101.375 L 56.164062 102.765625 L 60.347656 102.765625 L 60.347656 98.589844 L 61.746094 98.589844 L 61.746094 95.808594 L 63.140625 95.808594 L 63.140625 90.238281 L 64.535156 90.238281 L 64.535156 93.023438 L 65.929688 93.023438 Z M 77.09375 102.765625 L 78.488281 102.765625 L 78.488281 101.375 L 77.09375 101.375 Z M 81.277344 98.589844 L 81.277344 94.414062 L 79.882812 94.414062 L 79.882812 90.238281 L 78.488281 90.238281 L 78.488281 87.457031 L 77.09375 87.457031 L 77.09375 86.0625 L 75.699219 86.0625 L 75.699219 88.847656 L 74.300781 88.847656 L 74.300781 91.632812 L 71.511719 91.632812 L 71.511719 93.023438 L 70.117188 93.023438 L 70.117188 95.808594 L 68.722656 95.808594 L 68.722656 97.199219 L 67.324219 97.199219 L 67.324219 93.023438 L 65.929688 93.023438 L 65.929688 98.589844 L 67.324219 98.589844 L 67.324219 101.375 L 70.117188 101.375 L 70.117188 97.199219 L 71.511719 97.199219 L 71.511719 95.808594 L 72.90625 95.808594 L 72.90625 94.414062 L 74.300781 94.414062 L 74.300781 93.023438 L 75.699219 93.023438 L 75.699219 90.238281 L 77.09375 90.238281 L 77.09375 91.632812 L 78.488281 91.632812 L 78.488281 95.808594 L 79.882812 95.808594 L 79.882812 98.589844 L 78.488281 98.589844 L 78.488281 101.375 L 82.675781 101.375 L 82.675781 99.984375 L 84.070312 99.984375 L 84.070312 98.589844 Z M 84.070312 98.589844 L 85.464844 98.589844 L 85.464844 97.199219 L 84.070312 97.199219 Z M 88.257812 88.847656 L 86.859375 88.847656 L 86.859375 90.238281 L 88.257812 90.238281 Z M 89.652344 94.414062 L 89.652344 93.023438 L 88.257812 93.023438 L 88.257812 91.632812 L 86.859375 91.632812 L 86.859375 90.238281 L 85.464844 90.238281 L 85.464844 91.632812 L 84.070312 91.632812 L 84.070312 95.808594 L 85.464844 95.808594 L 85.464844 97.199219 L 86.859375 97.199219 L 86.859375 94.414062 L 85.464844 94.414062 L 85.464844 93.023438 L 86.859375 93.023438 L 86.859375 94.414062 L 88.257812 94.414062 L 88.257812 97.199219 L 89.652344 97.199219 Z M 89.652344 98.589844 L 89.652344 99.984375 L 91.046875 99.984375 L 91.046875 97.199219 L 89.652344 97.199219 Z M 92.441406 99.984375 L 92.441406 102.765625 L 93.835938 102.765625 L 93.835938 101.375 L 95.234375 101.375 L 95.234375 99.984375 Z M 95.234375 99.984375 L 96.628906 99.984375 L 96.628906 98.589844 L 95.234375 98.589844 Z M 96.628906 102.765625 L 96.628906 104.160156 L 98.023438 104.160156 L 98.023438 101.375 L 96.628906 101.375 Z M 98.023438 97.199219 L 96.628906 97.199219 L 96.628906 98.589844 L 99.417969 98.589844 L 99.417969 97.199219 Z M 98.023438 99.984375 L 99.417969 99.984375 L 99.417969 101.375 L 98.023438 101.375 L 98.023438 99.984375 " fill-opacity="1" fill-rule="nonzero"/></g><g clip-path="url(#43205d4336)"><path fill="#e2902a" d="M 49.1875 102.765625 L 49.1875 104.160156 L 51.976562 104.160156 L 51.976562 102.765625 Z M 50.582031 87.457031 L 50.582031 88.847656 L 49.1875 88.847656 L 49.1875 91.632812 L 47.789062 91.632812 L 47.789062 95.808594 L 46.394531 95.808594 L 46.394531 98.589844 L 47.789062 98.589844 L 47.789062 99.984375 L 49.1875 99.984375 L 49.1875 93.023438 L 50.582031 93.023438 L 50.582031 90.238281 L 51.976562 90.238281 L 51.976562 86.0625 L 50.582031 86.0625 Z M 57.558594 94.414062 L 57.558594 95.808594 L 56.164062 95.808594 L 56.164062 98.589844 L 54.765625 98.589844 L 54.765625 99.984375 L 57.558594 99.984375 L 57.558594 101.375 L 58.953125 101.375 L 58.953125 97.199219 L 60.347656 97.199219 L 60.347656 94.414062 Z M 60.347656 87.457031 L 60.347656 94.414062 L 61.746094 94.414062 L 61.746094 88.847656 L 63.140625 88.847656 L 63.140625 87.457031 Z M 64.535156 84.671875 L 63.140625 84.671875 L 63.140625 83.277344 L 61.746094 83.277344 L 61.746094 80.496094 L 60.347656 80.496094 L 60.347656 79.101562 L 58.953125 79.101562 L 58.953125 81.886719 L 60.347656 81.886719 L 60.347656 84.671875 L 61.746094 84.671875 L 61.746094 86.0625 L 63.140625 86.0625 L 63.140625 87.457031 L 64.535156 87.457031 Z M 74.300781 84.671875 L 74.300781 83.277344 L 72.90625 83.277344 L 72.90625 84.671875 L 71.511719 84.671875 L 71.511719 86.0625 L 70.117188 86.0625 L 70.117188 90.238281 L 67.324219 90.238281 L 67.324219 87.457031 L 64.535156 87.457031 L 64.535156 88.847656 L 65.929688 88.847656 L 65.929688 93.023438 L 67.324219 93.023438 L 67.324219 97.199219 L 68.722656 97.199219 L 68.722656 95.808594 L 70.117188 95.808594 L 70.117188 93.023438 L 71.511719 93.023438 L 71.511719 91.632812 L 74.300781 91.632812 L 74.300781 88.847656 L 75.699219 88.847656 L 75.699219 86.0625 L 74.300781 86.0625 Z M 82.675781 93.023438 L 81.277344 93.023438 L 81.277344 88.847656 L 79.882812 88.847656 L 79.882812 86.0625 L 78.488281 86.0625 L 78.488281 81.886719 L 77.09375 81.886719 L 77.09375 79.101562 L 75.699219 79.101562 L 75.699219 77.710938 L 74.300781 77.710938 L 74.300781 80.496094 L 75.699219 80.496094 L 75.699219 86.0625 L 77.09375 86.0625 L 77.09375 87.457031 L 78.488281 87.457031 L 78.488281 90.238281 L 79.882812 90.238281 L 79.882812 94.414062 L 81.277344 94.414062 L 81.277344 98.589844 L 84.070312 98.589844 L 84.070312 97.199219 L 85.464844 97.199219 L 85.464844 95.808594 L 84.070312 95.808594 L 84.070312 91.632812 L 82.675781 91.632812 Z M 95.234375 95.808594 L 91.046875 95.808594 L 91.046875 87.457031 L 89.652344 87.457031 L 89.652344 86.0625 L 91.046875 86.0625 L 91.046875 83.277344 L 89.652344 83.277344 L 89.652344 84.671875 L 88.257812 84.671875 L 88.257812 86.0625 L 86.859375 86.0625 L 86.859375 87.457031 L 85.464844 87.457031 L 85.464844 88.847656 L 84.070312 88.847656 L 84.070312 91.632812 L 85.464844 91.632812 L 85.464844 90.238281 L 86.859375 90.238281 L 86.859375 88.847656 L 88.257812 88.847656 L 88.257812 90.238281 L 86.859375 90.238281 L 86.859375 91.632812 L 88.257812 91.632812 L 88.257812 93.023438 L 89.652344 93.023438 L 89.652344 97.199219 L 91.046875 97.199219 L 91.046875 99.984375 L 95.234375 99.984375 L 95.234375 98.589844 L 96.628906 98.589844 L 96.628906 97.199219 L 95.234375 97.199219 Z M 102.210938 95.808594 L 102.210938 98.589844 L 100.8125 98.589844 L 100.8125 102.765625 L 99.417969 102.765625 L 99.417969 104.160156 L 98.023438 104.160156 L 98.023438 101.375 L 99.417969 101.375 L 99.417969 97.199219 L 100.8125 97.199219 L 100.8125 95.808594 L 102.210938 95.808594 " fill-opacity="1" fill-rule="nonzero"/></g><g clip-path="url(#ba715c26ad)"><path fill="#d75623" d="M 46.394531 74.925781 L 47.789062 74.925781 L 47.789062 72.144531 L 46.394531 72.144531 L 46.394531 70.75 L 45 70.75 L 45 73.535156 L 46.394531 73.535156 Z M 46.394531 93.023438 L 46.394531 94.414062 L 45 94.414062 L 45 99.984375 L 46.394531 99.984375 L 46.394531 101.375 L 47.789062 101.375 L 47.789062 104.160156 L 49.1875 104.160156 L 49.1875 99.984375 L 47.789062 99.984375 L 47.789062 98.589844 L 46.394531 98.589844 L 46.394531 95.808594 L 47.789062 95.808594 L 47.789062 91.632812 L 46.394531 91.632812 Z M 47.789062 90.238281 L 47.789062 91.632812 L 49.1875 91.632812 L 49.1875 88.847656 L 47.789062 88.847656 Z M 63.140625 62.398438 L 61.746094 62.398438 L 61.746094 63.792969 L 63.140625 63.792969 Z M 68.722656 45.695312 L 67.324219 45.695312 L 67.324219 47.085938 L 68.722656 47.085938 Z M 68.722656 48.480469 L 68.722656 51.261719 L 70.117188 51.261719 L 70.117188 52.65625 L 71.511719 52.65625 L 71.511719 49.871094 L 70.117188 49.871094 L 70.117188 48.480469 Z M 71.511719 56.832031 L 71.511719 58.222656 L 72.90625 58.222656 L 72.90625 56.832031 Z M 85.464844 70.75 L 86.859375 70.75 L 86.859375 67.96875 L 85.464844 67.96875 L 85.464844 66.574219 L 84.070312 66.574219 L 84.070312 69.359375 L 85.464844 69.359375 Z M 93.835938 94.414062 L 93.835938 91.632812 L 95.234375 91.632812 L 95.234375 90.238281 L 96.628906 90.238281 L 96.628906 88.847656 L 95.234375 88.847656 L 95.234375 86.0625 L 93.835938 86.0625 L 93.835938 79.101562 L 92.441406 79.101562 L 92.441406 76.320312 L 91.046875 76.320312 L 91.046875 74.925781 L 89.652344 74.925781 L 89.652344 72.144531 L 86.859375 72.144531 L 86.859375 74.925781 L 88.257812 74.925781 L 88.257812 81.886719 L 86.859375 81.886719 L 86.859375 83.277344 L 85.464844 83.277344 L 85.464844 84.671875 L 84.070312 84.671875 L 84.070312 83.277344 L 82.675781 83.277344 L 82.675781 81.886719 L 81.277344 81.886719 L 81.277344 70.75 L 79.882812 70.75 L 79.882812 65.183594 L 78.488281 65.183594 L 78.488281 62.398438 L 77.09375 62.398438 L 77.09375 59.617188 L 75.699219 59.617188 L 75.699219 58.222656 L 72.90625 58.222656 L 72.90625 61.007812 L 74.300781 61.007812 L 74.300781 63.792969 L 75.699219 63.792969 L 75.699219 70.75 L 74.300781 70.75 L 74.300781 74.925781 L 72.90625 74.925781 L 72.90625 77.710938 L 71.511719 77.710938 L 71.511719 79.101562 L 70.117188 79.101562 L 70.117188 80.496094 L 68.722656 80.496094 L 68.722656 84.671875 L 67.324219 84.671875 L 67.324219 83.277344 L 65.929688 83.277344 L 65.929688 80.496094 L 64.535156 80.496094 L 64.535156 79.101562 L 63.140625 79.101562 L 63.140625 76.320312 L 61.746094 76.320312 L 61.746094 73.535156 L 60.347656 73.535156 L 60.347656 67.96875 L 61.746094 67.96875 L 61.746094 65.183594 L 60.347656 65.183594 L 60.347656 66.574219 L 58.953125 66.574219 L 58.953125 67.96875 L 57.558594 67.96875 L 57.558594 72.144531 L 56.164062 72.144531 L 56.164062 76.320312 L 54.765625 76.320312 L 54.765625 79.101562 L 56.164062 79.101562 L 56.164062 81.886719 L 57.558594 81.886719 L 57.558594 93.023438 L 56.164062 93.023438 L 56.164062 94.414062 L 54.765625 94.414062 L 54.765625 88.847656 L 53.371094 88.847656 L 53.371094 83.277344 L 51.976562 83.277344 L 51.976562 80.496094 L 50.582031 80.496094 L 50.582031 77.710938 L 49.1875 77.710938 L 49.1875 76.320312 L 47.789062 76.320312 L 47.789062 79.101562 L 49.1875 79.101562 L 49.1875 88.847656 L 50.582031 88.847656 L 50.582031 86.0625 L 51.976562 86.0625 L 51.976562 91.632812 L 53.371094 91.632812 L 53.371094 95.808594 L 54.765625 95.808594 L 54.765625 98.589844 L 56.164062 98.589844 L 56.164062 95.808594 L 57.558594 95.808594 L 57.558594 94.414062 L 60.347656 94.414062 L 60.347656 87.457031 L 61.746094 87.457031 L 61.746094 84.671875 L 60.347656 84.671875 L 60.347656 81.886719 L 58.953125 81.886719 L 58.953125 79.101562 L 60.347656 79.101562 L 60.347656 80.496094 L 61.746094 80.496094 L 61.746094 83.277344 L 63.140625 83.277344 L 63.140625 84.671875 L 64.535156 84.671875 L 64.535156 87.457031 L 67.324219 87.457031 L 67.324219 90.238281 L 70.117188 90.238281 L 70.117188 86.0625 L 71.511719 86.0625 L 71.511719 84.671875 L 72.90625 84.671875 L 72.90625 83.277344 L 74.300781 83.277344 L 74.300781 86.0625 L 75.699219 86.0625 L 75.699219 80.496094 L 74.300781 80.496094 L 74.300781 77.710938 L 75.699219 77.710938 L 75.699219 79.101562 L 77.09375 79.101562 L 77.09375 81.886719 L 78.488281 81.886719 L 78.488281 86.0625 L 79.882812 86.0625 L 79.882812 88.847656 L 81.277344 88.847656 L 81.277344 93.023438 L 82.675781 93.023438 L 82.675781 91.632812 L 84.070312 91.632812 L 84.070312 88.847656 L 85.464844 88.847656 L 85.464844 87.457031 L 86.859375 87.457031 L 86.859375 86.0625 L 88.257812 86.0625 L 88.257812 84.671875 L 89.652344 84.671875 L 89.652344 83.277344 L 91.046875 83.277344 L 91.046875 86.0625 L 89.652344 86.0625 L 89.652344 87.457031 L 91.046875 87.457031 L 91.046875 95.808594 L 95.234375 95.808594 L 95.234375 94.414062 Z M 99.417969 83.277344 L 99.417969 80.496094 L 100.8125 80.496094 L 100.8125 77.710938 L 99.417969 77.710938 L 99.417969 79.101562 L 98.023438 79.101562 L 98.023438 81.886719 L 96.628906 81.886719 L 96.628906 83.277344 Z M 105 94.414062 L 105 98.589844 L 103.605469 98.589844 L 103.605469 101.375 L 102.210938 101.375 L 102.210938 104.160156 L 99.417969 104.160156 L 99.417969 102.765625 L 100.8125 102.765625 L 100.8125 98.589844 L 102.210938 98.589844 L 102.210938 95.808594 L 100.8125 95.808594 L 100.8125 97.199219 L 95.234375 97.199219 L 95.234375 95.808594 L 96.628906 95.808594 L 96.628906 94.414062 L 98.023438 94.414062 L 98.023438 93.023438 L 99.417969 93.023438 L 99.417969 88.847656 L 98.023438 88.847656 L 98.023438 87.457031 L 96.628906 87.457031 L 96.628906 84.671875 L 98.023438 84.671875 L 98.023438 86.0625 L 99.417969 86.0625 L 99.417969 87.457031 L 100.8125 87.457031 L 100.8125 88.847656 L 102.210938 88.847656 L 102.210938 90.238281 L 103.605469 90.238281 L 103.605469 94.414062 L 105 94.414062 " fill-opacity="1" fill-rule="nonzero"/></g></svg>