<svg xmlns="http://www.w3.org/2000/svg" xmlns:xlink="http://www.w3.org/1999/xlink" zoomAndPan="magnify" preserveAspectRatio="xMidYMid meet" version="1.0" viewBox="45.02 47.63 59.97 54.75"><defs><clipPath id="e92c2245b2"><path d="M 45.015625 47.625 L 104.984375 47.625 L 104.984375 102.375 L 45.015625 102.375 Z M 45.015625 47.625 " clip-rule="nonzero"/></clipPath></defs><g clip-path="url(#e92c2245b2)"><path fill="#000000" d="M 45.015625 71.09375 L 45.015625 73.699219 L 47.621094 73.699219 L 47.621094 71.09375 Z M 47.621094 73.699219 L 47.621094 76.308594 L 50.230469 76.308594 L 50.230469 73.699219 Z M 52.835938 71.09375 L 63.265625 71.09375 L 63.265625 68.484375 L 47.621094 68.484375 L 47.621094 71.09375 Z M 50.230469 76.308594 L 50.230469 78.914062 L 52.835938 78.914062 L 52.835938 76.308594 Z M 50.230469 97.164062 L 50.230469 99.773438 L 52.835938 99.773438 L 52.835938 97.164062 Z M 52.835938 78.914062 L 52.835938 81.519531 L 55.445312 81.519531 L 55.445312 78.914062 Z M 55.445312 94.558594 L 55.445312 91.949219 L 52.835938 91.949219 L 52.835938 97.164062 L 55.445312 97.164062 Z M 52.835938 99.773438 L 52.835938 102.378906 L 58.050781 102.378906 L 58.050781 99.773438 Z M 55.445312 81.519531 L 55.445312 84.128906 L 58.050781 84.128906 L 58.050781 81.519531 Z M 58.050781 89.34375 L 58.050781 86.734375 L 55.445312 86.734375 L 55.445312 91.949219 L 58.050781 91.949219 Z M 60.660156 84.128906 L 58.050781 84.128906 L 58.050781 86.734375 L 60.660156 86.734375 Z M 58.050781 97.164062 L 58.050781 99.773438 L 63.265625 99.773438 L 63.265625 97.164062 Z M 65.875 65.875 L 63.265625 65.875 L 63.265625 68.484375 L 65.875 68.484375 Z M 63.265625 94.558594 L 63.265625 97.164062 L 68.480469 97.164062 L 68.480469 94.558594 Z M 68.480469 63.269531 L 68.480469 60.664062 L 65.875 60.664062 L 65.875 65.875 L 68.480469 65.875 Z M 71.085938 58.054688 L 71.085938 55.449219 L 68.480469 55.449219 L 68.480469 60.664062 L 71.085938 60.664062 Z M 68.480469 91.949219 L 68.480469 94.558594 L 73.695312 94.558594 L 73.695312 91.949219 Z M 73.695312 52.839844 L 73.695312 50.234375 L 71.085938 50.234375 L 71.085938 55.449219 L 73.695312 55.449219 Z M 76.300781 47.625 L 73.695312 47.625 L 73.695312 50.234375 L 76.300781 50.234375 Z M 73.695312 89.34375 L 73.695312 91.949219 L 76.300781 91.949219 L 76.300781 89.34375 Z M 76.300781 55.449219 L 78.910156 55.449219 L 78.910156 50.234375 L 76.300781 50.234375 Z M 78.910156 60.664062 L 81.515625 60.664062 L 81.515625 55.449219 L 78.910156 55.449219 Z M 78.910156 91.949219 L 76.300781 91.949219 L 76.300781 94.558594 L 81.515625 94.558594 L 81.515625 91.949219 Z M 81.515625 65.875 L 84.125 65.875 L 84.125 60.664062 L 81.515625 60.664062 Z M 86.730469 68.484375 L 86.730469 65.875 L 84.125 65.875 L 84.125 68.484375 Z M 84.125 94.558594 L 81.515625 94.558594 L 81.515625 97.164062 L 86.730469 97.164062 L 86.730469 94.558594 Z M 89.339844 71.09375 L 102.375 71.09375 L 102.375 68.484375 L 86.730469 68.484375 L 86.730469 71.09375 Z M 89.339844 86.734375 L 91.945312 86.734375 L 91.945312 84.128906 L 89.339844 84.128906 Z M 89.339844 97.164062 L 86.730469 97.164062 L 86.730469 99.773438 L 91.945312 99.773438 L 91.945312 97.164062 Z M 91.945312 84.128906 L 94.554688 84.128906 L 94.554688 81.519531 L 91.945312 81.519531 Z M 91.945312 91.949219 L 94.554688 91.949219 L 94.554688 86.734375 L 91.945312 86.734375 Z M 91.945312 99.773438 L 91.945312 102.378906 L 97.160156 102.378906 L 97.160156 99.773438 Z M 94.554688 81.519531 L 97.160156 81.519531 L 97.160156 78.914062 L 94.554688 78.914062 Z M 94.554688 97.164062 L 97.160156 97.164062 L 97.160156 91.949219 L 94.554688 91.949219 Z M 97.160156 78.914062 L 99.769531 78.914062 L 99.769531 76.308594 L 97.160156 76.308594 Z M 99.769531 99.773438 L 99.769531 97.164062 L 97.160156 97.164062 L 97.160156 99.773438 Z M 99.769531 76.308594 L 102.375 76.308594 L 102.375 73.699219 L 99.769531 73.699219 Z M 104.984375 71.09375 L 104.984375 73.699219 L 102.375 73.699219 L 102.375 71.09375 L 104.984375 71.09375 " fill-opacity="1" fill-rule="nonzero"/></g><path fill="#ffffff" d="M 63.265625 73.699219 L 58.050781 73.699219 L 58.050781 76.308594 L 68.480469 76.308594 L 68.480469 73.699219 Z M 68.480469 73.699219 L 71.085938 73.699219 L 71.085938 71.09375 L 68.480469 71.09375 Z M 73.695312 65.875 L 73.695312 71.09375 L 71.085938 71.09375 L 71.085938 65.875 L 73.695312 65.875 " fill-opacity="1" fill-rule="nonzero"/><path fill="#ffbb00" d="M 68.480469 89.34375 L 65.875 89.34375 L 65.875 91.949219 L 60.660156 91.949219 L 60.660156 94.558594 L 55.445312 94.558594 L 55.445312 97.164062 L 52.835938 97.164062 L 52.835938 99.773438 L 58.050781 99.773438 L 58.050781 97.164062 L 63.265625 97.164062 L 63.265625 94.558594 L 68.480469 94.558594 L 68.480469 91.949219 L 73.695312 91.949219 L 73.695312 89.34375 Z M 102.375 71.09375 L 102.375 73.699219 L 99.769531 73.699219 L 99.769531 76.308594 L 97.160156 76.308594 L 97.160156 78.914062 L 94.554688 78.914062 L 94.554688 81.519531 L 91.945312 81.519531 L 91.945312 84.128906 L 89.339844 84.128906 L 89.339844 86.734375 L 91.945312 86.734375 L 91.945312 91.949219 L 94.554688 91.949219 L 94.554688 97.164062 L 97.160156 97.164062 L 97.160156 99.773438 L 91.945312 99.773438 L 91.945312 94.558594 L 89.339844 94.558594 L 89.339844 89.34375 L 86.730469 89.34375 L 86.730469 86.734375 L 84.125 86.734375 L 84.125 84.128906 L 86.730469 84.128906 L 86.730469 81.519531 L 89.339844 81.519531 L 89.339844 78.914062 L 91.945312 78.914062 L 91.945312 76.308594 L 94.554688 76.308594 L 94.554688 73.699219 L 84.125 73.699219 L 84.125 71.09375 L 81.515625 71.09375 L 81.515625 68.484375 L 78.910156 68.484375 L 78.910156 63.269531 L 76.300781 63.269531 L 76.300781 55.449219 L 78.910156 55.449219 L 78.910156 60.664062 L 81.515625 60.664062 L 81.515625 65.875 L 84.125 65.875 L 84.125 68.484375 L 86.730469 68.484375 L 86.730469 71.09375 L 102.375 71.09375 " fill-opacity="1" fill-rule="nonzero"/><path fill="#fcf100" d="M 60.660156 73.699219 L 68.480469 73.699219 L 68.480469 71.09375 L 71.085938 71.09375 L 71.085938 65.875 L 73.695312 65.875 L 73.695312 71.09375 L 71.085938 71.09375 L 71.085938 73.699219 L 68.480469 73.699219 L 68.480469 76.308594 L 58.050781 76.308594 L 58.050781 73.699219 Z M 91.945312 73.699219 L 84.125 73.699219 L 84.125 71.09375 L 81.515625 71.09375 L 81.515625 68.484375 L 78.910156 68.484375 L 78.910156 63.269531 L 76.300781 63.269531 L 76.300781 50.234375 L 73.695312 50.234375 L 73.695312 55.449219 L 71.085938 55.449219 L 71.085938 60.664062 L 68.480469 60.664062 L 68.480469 65.875 L 65.875 65.875 L 65.875 68.484375 L 63.265625 68.484375 L 63.265625 71.09375 L 47.621094 71.09375 L 47.621094 73.699219 L 50.230469 73.699219 L 50.230469 76.308594 L 52.835938 76.308594 L 52.835938 78.914062 L 55.445312 78.914062 L 55.445312 81.519531 L 58.050781 81.519531 L 58.050781 84.128906 L 60.660156 84.128906 L 60.660156 86.734375 L 58.050781 86.734375 L 58.050781 91.949219 L 55.445312 91.949219 L 55.445312 94.558594 L 60.660156 94.558594 L 60.660156 91.949219 L 65.875 91.949219 L 65.875 89.34375 L 76.300781 89.34375 L 76.300781 91.949219 L 81.515625 91.949219 L 81.515625 94.558594 L 86.730469 94.558594 L 86.730469 97.164062 L 91.945312 97.164062 L 91.945312 94.558594 L 89.339844 94.558594 L 89.339844 89.34375 L 86.730469 89.34375 L 86.730469 86.734375 L 84.125 86.734375 L 84.125 84.128906 L 86.730469 84.128906 L 86.730469 81.519531 L 89.339844 81.519531 L 89.339844 78.914062 L 91.945312 78.914062 L 91.945312 76.308594 L 94.554688 76.308594 L 94.554688 73.699219 L 91.945312 73.699219 " fill-opacity="1" fill-rule="nonzero"/></svg>