<svg xmlns="http://www.w3.org/2000/svg" xmlns:xlink="http://www.w3.org/1999/xlink" zoomAndPan="magnify" preserveAspectRatio="xMidYMid meet" version="1.0" viewBox="48.75 45 52.43 60"><defs><clipPath id="6230c6b84c"><path d="M 48.746094 45 L 101.179688 45 L 101.179688 105 L 48.746094 105 Z M 48.746094 45 " clip-rule="nonzero"/></clipPath></defs><g clip-path="url(#6230c6b84c)"><path fill="#000000" d="M 51.242188 57.5 L 48.746094 57.5 L 48.746094 62.5 L 51.242188 62.5 Z M 53.738281 62.5 L 51.242188 62.5 L 51.242188 67.5 L 53.738281 67.5 Z M 56.238281 57.5 L 58.734375 57.5 L 58.734375 62.5 L 61.230469 62.5 L 61.230469 52.5 L 58.734375 52.5 L 58.734375 55 L 51.242188 55 L 51.242188 57.5 Z M 53.738281 67.5 L 53.738281 70.003906 L 56.238281 70.003906 L 56.238281 67.5 Z M 58.734375 47.5 L 56.238281 47.5 L 56.238281 52.5 L 58.734375 52.5 Z M 56.238281 70.003906 L 56.238281 72.503906 L 58.734375 72.503906 L 58.734375 70.003906 Z M 58.734375 72.503906 L 58.734375 75.003906 L 61.230469 75.003906 L 61.230469 72.503906 Z M 63.726562 47.5 L 91.191406 47.5 L 91.191406 45 L 58.734375 45 L 58.734375 47.5 Z M 61.230469 67.5 L 63.726562 67.5 L 63.726562 62.5 L 61.230469 62.5 Z M 61.230469 75.003906 L 61.230469 77.503906 L 63.726562 77.503906 L 63.726562 75.003906 Z M 63.726562 72.503906 L 66.222656 72.503906 L 66.222656 67.5 L 63.726562 67.5 Z M 68.71875 75.003906 L 68.71875 72.503906 L 66.222656 72.503906 L 66.222656 77.503906 L 63.726562 77.503906 L 63.726562 80.003906 L 68.71875 80.003906 Z M 68.71875 80.003906 L 68.71875 82.503906 L 71.21875 82.503906 L 71.21875 80.003906 Z M 71.21875 97.503906 L 71.21875 95.003906 L 68.71875 95.003906 L 68.71875 100.003906 L 71.21875 100.003906 Z M 73.714844 92.503906 L 73.714844 82.503906 L 71.21875 82.503906 L 71.21875 95.003906 L 73.714844 95.003906 Z M 76.210938 85.003906 L 76.210938 95.003906 L 78.707031 95.003906 L 78.707031 82.503906 L 76.210938 82.503906 Z M 78.707031 82.503906 L 81.203125 82.503906 L 81.203125 80.003906 L 78.707031 80.003906 Z M 78.707031 100.003906 L 81.203125 100.003906 L 81.203125 95.003906 L 78.707031 95.003906 Z M 78.707031 102.503906 L 68.71875 102.503906 L 68.71875 100.003906 L 66.222656 100.003906 L 66.222656 105.003906 L 83.699219 105.003906 L 83.699219 100.003906 L 81.203125 100.003906 L 81.203125 102.503906 Z M 83.699219 75.003906 L 83.699219 72.503906 L 81.203125 72.503906 L 81.203125 80.003906 L 86.199219 80.003906 L 86.199219 77.503906 L 83.699219 77.503906 Z M 83.699219 70.003906 L 83.699219 72.503906 L 86.199219 72.503906 L 86.199219 67.5 L 83.699219 67.5 Z M 86.199219 65 L 86.199219 67.5 L 88.695312 67.5 L 88.695312 62.5 L 86.199219 62.5 Z M 86.199219 77.503906 L 88.695312 77.503906 L 88.695312 75.003906 L 86.199219 75.003906 Z M 88.695312 55 L 88.695312 62.5 L 91.191406 62.5 L 91.191406 57.5 L 98.683594 57.5 L 98.683594 55 L 91.191406 55 L 91.191406 52.5 L 88.695312 52.5 Z M 88.695312 75.003906 L 91.191406 75.003906 L 91.191406 72.503906 L 88.695312 72.503906 Z M 91.191406 52.5 L 93.6875 52.5 L 93.6875 47.5 L 91.191406 47.5 Z M 91.191406 72.503906 L 93.6875 72.503906 L 93.6875 70.003906 L 91.191406 70.003906 Z M 93.6875 70.003906 L 96.183594 70.003906 L 96.183594 67.5 L 93.6875 67.5 Z M 96.183594 67.5 L 98.683594 67.5 L 98.683594 65 L 96.183594 65 Z M 101.179688 57.5 L 101.179688 65 L 98.683594 65 L 98.683594 57.5 L 101.179688 57.5 " fill-opacity="1" fill-rule="nonzero"/></g><path fill="#ffffff" d="M 66.222656 55 L 66.222656 52.5 L 63.726562 52.5 L 63.726562 60 L 66.222656 60 Z M 68.71875 60 L 68.71875 65 L 66.222656 65 L 66.222656 60 L 68.71875 60 " fill-opacity="1" fill-rule="nonzero"/><path fill="#ff9600" d="M 78.707031 95.003906 L 76.210938 95.003906 L 76.210938 100.003906 L 78.707031 100.003906 Z M 78.707031 102.503906 L 81.203125 102.503906 L 81.203125 100.003906 L 78.707031 100.003906 Z M 91.191406 47.5 L 91.191406 52.5 L 88.695312 52.5 L 88.695312 62.5 L 86.199219 62.5 L 86.199219 67.5 L 83.699219 67.5 L 83.699219 72.503906 L 81.203125 72.503906 L 81.203125 80.003906 L 78.707031 80.003906 L 78.707031 82.503906 L 76.210938 82.503906 L 76.210938 72.503906 L 78.707031 72.503906 L 78.707031 67.5 L 81.203125 67.5 L 81.203125 62.5 L 83.699219 62.5 L 83.699219 52.5 L 86.199219 52.5 L 86.199219 47.5 L 91.191406 47.5 " fill-opacity="1" fill-rule="nonzero"/><path fill="#ffbb00" d="M 66.222656 62.5 L 66.222656 60 L 63.726562 60 L 63.726562 52.5 L 66.222656 52.5 L 66.222656 60 L 68.71875 60 L 68.71875 65 L 66.222656 65 Z M 83.699219 47.5 L 58.734375 47.5 L 58.734375 52.5 L 61.230469 52.5 L 61.230469 62.5 L 63.726562 62.5 L 63.726562 67.5 L 66.222656 67.5 L 66.222656 72.503906 L 68.71875 72.503906 L 68.71875 80.003906 L 71.21875 80.003906 L 71.21875 82.503906 L 73.714844 82.503906 L 73.714844 95.003906 L 71.21875 95.003906 L 71.21875 100.003906 L 68.71875 100.003906 L 68.71875 102.503906 L 78.707031 102.503906 L 78.707031 100.003906 L 76.210938 100.003906 L 76.210938 72.503906 L 78.707031 72.503906 L 78.707031 67.5 L 81.203125 67.5 L 81.203125 62.5 L 83.699219 62.5 L 83.699219 52.5 L 86.199219 52.5 L 86.199219 47.5 L 83.699219 47.5 " fill-opacity="1" fill-rule="nonzero"/></svg>