<svg xmlns="http://www.w3.org/2000/svg" xmlns:xlink="http://www.w3.org/1999/xlink" zoomAndPan="magnify" preserveAspectRatio="xMidYMid meet" version="1.0" viewBox="51.38 45 47.25 60"><defs><clipPath id="c90f3bb41d"><path d="M 51.382812 45 L 98.632812 45 L 98.632812 105 L 51.382812 105 Z M 51.382812 45 " clip-rule="nonzero"/></clipPath><clipPath id="b8fa8791f0"><path d="M 51.382812 46 L 98 46 L 98 104 L 51.382812 104 Z M 51.382812 46 " clip-rule="nonzero"/></clipPath><clipPath id="c705dc5648"><path d="M 55 46 L 98.632812 46 L 98.632812 105 L 55 105 Z M 55 46 " clip-rule="nonzero"/></clipPath></defs><g clip-path="url(#c90f3bb41d)"><path fill="#7e7e7e" d="M 98.632812 79.46875 L 98.632812 90.953125 L 97.355469 90.953125 L 97.355469 92.230469 L 94.800781 92.230469 L 94.800781 93.507812 L 93.523438 93.507812 L 93.523438 94.785156 L 90.96875 94.785156 L 90.96875 96.058594 L 89.691406 96.058594 L 89.691406 97.335938 L 87.136719 97.335938 L 87.136719 98.613281 L 85.863281 98.613281 L 85.863281 99.890625 L 83.308594 99.890625 L 83.308594 101.167969 L 82.03125 101.167969 L 82.03125 102.441406 L 79.476562 102.441406 L 79.476562 103.71875 L 78.199219 103.71875 L 78.199219 104.996094 L 73.089844 104.996094 L 73.089844 103.71875 L 71.8125 103.71875 L 71.8125 102.441406 L 69.261719 102.441406 L 69.261719 101.167969 L 67.984375 101.167969 L 67.984375 99.890625 L 65.429688 99.890625 L 65.429688 98.613281 L 64.152344 98.613281 L 64.152344 97.335938 L 61.597656 97.335938 L 61.597656 96.058594 L 60.320312 96.058594 L 60.320312 94.785156 L 57.765625 94.785156 L 57.765625 93.507812 L 56.488281 93.507812 L 56.488281 92.230469 L 53.9375 92.230469 L 53.9375 90.953125 L 52.660156 90.953125 L 52.660156 89.679688 L 51.382812 89.679688 L 51.382812 80.742188 L 52.660156 80.742188 L 52.660156 79.46875 L 53.9375 79.46875 L 53.9375 78.191406 L 55.214844 78.191406 L 55.214844 76.914062 L 56.488281 76.914062 L 56.488281 75.636719 L 55.214844 75.636719 L 55.214844 74.363281 L 53.9375 74.363281 L 53.9375 51.386719 L 55.214844 51.386719 L 55.214844 50.109375 L 56.488281 50.109375 L 56.488281 48.832031 L 59.042969 48.832031 L 59.042969 47.558594 L 60.320312 47.558594 L 60.320312 46.28125 L 62.875 46.28125 L 62.875 45.003906 L 65.429688 45.003906 L 65.429688 46.28125 L 67.984375 46.28125 L 67.984375 47.558594 L 70.539062 47.558594 L 70.539062 48.832031 L 73.089844 48.832031 L 73.089844 47.558594 L 75.644531 47.558594 L 75.644531 46.28125 L 78.199219 46.28125 L 78.199219 47.558594 L 79.476562 47.558594 L 79.476562 48.832031 L 82.03125 48.832031 L 82.03125 50.109375 L 83.308594 50.109375 L 83.308594 51.386719 L 85.863281 51.386719 L 85.863281 52.664062 L 87.136719 52.664062 L 87.136719 53.941406 L 88.414062 53.941406 L 88.414062 55.214844 L 89.691406 55.214844 L 89.691406 56.492188 L 90.96875 56.492188 L 90.96875 70.53125 L 89.691406 70.53125 L 89.691406 71.808594 L 88.414062 71.808594 L 88.414062 73.085938 L 89.691406 73.085938 L 89.691406 74.363281 L 90.96875 74.363281 L 90.96875 75.636719 L 93.523438 75.636719 L 93.523438 76.914062 L 94.800781 76.914062 L 94.800781 78.191406 L 97.355469 78.191406 L 97.355469 79.46875 Z M 98.632812 79.46875 " fill-opacity="1" fill-rule="nonzero"/></g><path fill="#c0c0c0" d="M 56.488281 75.636719 L 59.042969 75.636719 L 59.042969 76.914062 L 60.320312 76.914062 L 60.320312 78.191406 L 62.875 78.191406 L 62.875 79.46875 L 64.152344 79.46875 L 64.152344 80.742188 L 66.707031 80.742188 L 66.707031 82.019531 L 67.984375 82.019531 L 67.984375 83.296875 L 70.539062 83.296875 L 70.539062 84.574219 L 74.367188 84.574219 L 74.367188 61.597656 L 71.8125 61.597656 L 71.8125 60.320312 L 70.539062 60.320312 L 70.539062 59.046875 L 67.984375 59.046875 L 67.984375 57.769531 L 66.707031 57.769531 L 66.707031 56.492188 L 64.152344 56.492188 L 64.152344 55.214844 L 62.875 55.214844 L 62.875 53.941406 L 60.320312 53.941406 L 60.320312 52.664062 L 59.042969 52.664062 L 59.042969 51.386719 L 56.488281 51.386719 L 56.488281 50.109375 L 55.214844 50.109375 L 55.214844 74.363281 L 56.488281 74.363281 Z M 57.765625 56.492188 L 57.765625 55.214844 L 60.320312 55.214844 L 60.320312 56.492188 L 61.597656 56.492188 L 61.597656 57.769531 L 64.152344 57.769531 L 64.152344 59.046875 L 65.429688 59.046875 L 65.429688 60.320312 L 67.984375 60.320312 L 67.984375 61.597656 L 69.261719 61.597656 L 69.261719 62.875 L 71.8125 62.875 L 71.8125 64.152344 L 73.089844 64.152344 L 73.089844 79.46875 L 71.8125 79.46875 L 71.8125 80.742188 L 69.261719 80.742188 L 69.261719 79.46875 L 67.984375 79.46875 L 67.984375 78.191406 L 65.429688 78.191406 L 65.429688 76.914062 L 64.152344 76.914062 L 64.152344 75.636719 L 61.597656 75.636719 L 61.597656 74.363281 L 60.320312 74.363281 L 60.320312 73.085938 L 57.765625 73.085938 L 57.765625 71.808594 L 56.488281 71.808594 L 56.488281 56.492188 Z M 73.089844 93.507812 L 71.8125 93.507812 L 71.8125 92.230469 L 69.261719 92.230469 L 69.261719 90.953125 L 67.984375 90.953125 L 67.984375 89.679688 L 65.429688 89.679688 L 65.429688 88.402344 L 64.152344 88.402344 L 64.152344 87.125 L 61.597656 87.125 L 61.597656 85.847656 L 60.320312 85.847656 L 60.320312 84.574219 L 57.765625 84.574219 L 57.765625 83.296875 L 56.488281 83.296875 L 56.488281 82.019531 L 53.9375 82.019531 L 53.9375 79.46875 L 52.660156 79.46875 L 52.660156 89.679688 L 53.9375 89.679688 L 53.9375 90.953125 L 56.488281 90.953125 L 56.488281 92.230469 L 57.765625 92.230469 L 57.765625 93.507812 L 60.320312 93.507812 L 60.320312 94.785156 L 61.597656 94.785156 L 61.597656 96.058594 L 64.152344 96.058594 L 64.152344 97.335938 L 65.429688 97.335938 L 65.429688 98.613281 L 67.984375 98.613281 L 67.984375 99.890625 L 69.261719 99.890625 L 69.261719 101.167969 L 71.8125 101.167969 L 71.8125 102.441406 L 73.089844 102.441406 L 73.089844 103.71875 L 75.644531 103.71875 L 75.644531 94.785156 L 73.089844 94.785156 Z M 96.078125 82.019531 L 96.078125 83.296875 L 93.523438 83.296875 L 93.523438 84.574219 L 90.96875 84.574219 L 90.96875 85.847656 L 89.691406 85.847656 L 89.691406 87.125 L 87.136719 87.125 L 87.136719 88.402344 L 85.863281 88.402344 L 85.863281 89.679688 L 83.308594 89.679688 L 83.308594 90.953125 L 82.03125 90.953125 L 82.03125 92.230469 L 79.476562 92.230469 L 79.476562 93.507812 L 78.199219 93.507812 L 78.199219 94.785156 L 76.921875 94.785156 L 76.921875 103.71875 L 78.199219 103.71875 L 78.199219 102.441406 L 79.476562 102.441406 L 79.476562 101.167969 L 82.03125 101.167969 L 82.03125 99.890625 L 83.308594 99.890625 L 83.308594 98.613281 L 85.863281 98.613281 L 85.863281 97.335938 L 87.136719 97.335938 L 87.136719 96.058594 L 89.691406 96.058594 L 89.691406 94.785156 L 90.96875 94.785156 L 90.96875 93.507812 L 93.523438 93.507812 L 93.523438 92.230469 L 94.800781 92.230469 L 94.800781 90.953125 L 97.355469 90.953125 L 97.355469 82.019531 Z M 59.042969 48.832031 L 56.488281 48.832031 L 56.488281 50.109375 L 59.042969 50.109375 Z M 60.320312 47.558594 L 59.042969 47.558594 L 59.042969 48.832031 L 60.320312 48.832031 Z M 62.875 46.28125 L 60.320312 46.28125 L 60.320312 47.558594 L 62.875 47.558594 Z M 65.429688 45.003906 L 62.875 45.003906 L 62.875 46.28125 L 65.429688 46.28125 Z M 55.214844 78.191406 L 53.9375 78.191406 L 53.9375 79.46875 L 55.214844 79.46875 Z M 56.488281 76.914062 L 55.214844 76.914062 L 55.214844 78.191406 L 56.488281 78.191406 Z M 87.136719 59.046875 L 84.585938 59.046875 L 84.585938 60.320312 L 87.136719 60.320312 Z M 89.691406 57.769531 L 87.136719 57.769531 L 87.136719 59.046875 L 89.691406 59.046875 Z M 89.691406 57.769531 " fill-opacity="1" fill-rule="nonzero"/><g clip-path="url(#b8fa8791f0)"><path fill="#7e7e7e" d="M 79.476562 82.019531 L 79.476562 80.742188 L 82.03125 80.742188 L 82.03125 79.46875 L 83.308594 79.46875 L 83.308594 76.914062 L 84.585938 76.914062 L 84.585938 74.363281 L 83.308594 74.363281 L 83.308594 57.769531 L 82.03125 57.769531 L 82.03125 59.046875 L 80.753906 59.046875 L 80.753906 57.769531 L 82.03125 57.769531 L 82.03125 56.492188 L 80.753906 56.492188 L 80.753906 55.214844 L 78.199219 55.214844 L 78.199219 53.941406 L 76.921875 53.941406 L 76.921875 52.664062 L 74.367188 52.664062 L 74.367188 51.386719 L 73.089844 51.386719 L 73.089844 50.109375 L 70.539062 50.109375 L 70.539062 48.832031 L 67.984375 48.832031 L 67.984375 47.558594 L 65.429688 47.558594 L 65.429688 46.28125 L 62.875 46.28125 L 62.875 47.558594 L 60.320312 47.558594 L 60.320312 48.832031 L 59.042969 48.832031 L 59.042969 50.109375 L 56.488281 50.109375 L 56.488281 51.386719 L 59.042969 51.386719 L 59.042969 52.664062 L 60.320312 52.664062 L 60.320312 53.941406 L 62.875 53.941406 L 62.875 55.214844 L 64.152344 55.214844 L 64.152344 56.492188 L 66.707031 56.492188 L 66.707031 57.769531 L 67.984375 57.769531 L 67.984375 59.046875 L 70.539062 59.046875 L 70.539062 60.320312 L 71.8125 60.320312 L 71.8125 61.597656 L 74.367188 61.597656 L 74.367188 83.617188 L 75.644531 83.617188 L 75.644531 83.296875 L 76.921875 83.296875 L 76.921875 82.019531 Z M 78.199219 59.046875 L 79.476562 59.046875 L 79.476562 60.320312 L 78.199219 60.320312 Z M 75.644531 61.597656 L 75.644531 60.320312 L 76.921875 60.320312 L 76.921875 61.597656 Z M 96.078125 82.019531 L 96.078125 80.742188 L 97.355469 80.742188 L 97.355469 79.46875 L 94.800781 79.46875 L 94.800781 78.191406 L 93.523438 78.191406 L 93.523438 76.914062 L 90.96875 76.914062 L 90.96875 75.636719 L 89.691406 75.636719 L 89.691406 74.363281 L 85.863281 74.363281 L 85.863281 76.914062 L 84.585938 76.914062 L 84.585938 79.46875 L 83.308594 79.46875 L 83.308594 80.742188 L 82.03125 80.742188 L 82.03125 82.019531 L 79.476562 82.019531 L 79.476562 83.296875 L 76.921875 83.296875 L 76.921875 84.574219 L 74.367188 84.574219 L 74.367188 85.847656 L 70.539062 85.847656 L 70.539062 84.574219 L 67.984375 84.574219 L 67.984375 83.296875 L 66.707031 83.296875 L 66.707031 82.019531 L 64.152344 82.019531 L 64.152344 80.742188 L 62.875 80.742188 L 62.875 79.46875 L 60.320312 79.46875 L 60.320312 78.191406 L 59.042969 78.191406 L 59.042969 76.914062 L 56.488281 76.914062 L 56.488281 78.191406 L 55.214844 78.191406 L 55.214844 79.46875 L 53.9375 79.46875 L 53.9375 82.019531 L 56.488281 82.019531 L 56.488281 83.296875 L 57.765625 83.296875 L 57.765625 84.574219 L 60.320312 84.574219 L 60.320312 85.847656 L 61.597656 85.847656 L 61.597656 87.125 L 64.152344 87.125 L 64.152344 88.402344 L 65.429688 88.402344 L 65.429688 89.679688 L 67.984375 89.679688 L 67.984375 90.953125 L 69.261719 90.953125 L 69.261719 92.230469 L 71.8125 92.230469 L 71.8125 93.507812 L 73.089844 93.507812 L 73.089844 94.785156 L 75.644531 94.785156 L 75.644531 103.71875 L 78.199219 103.71875 L 78.199219 102.441406 L 76.921875 102.441406 L 76.921875 101.167969 L 78.199219 101.167969 L 78.199219 99.890625 L 76.921875 99.890625 L 76.921875 98.613281 L 78.199219 98.613281 L 78.199219 97.335938 L 76.921875 97.335938 L 76.921875 96.058594 L 78.199219 96.058594 L 78.199219 94.785156 L 76.921875 94.785156 L 76.921875 93.507812 L 78.199219 93.507812 L 78.199219 92.230469 L 79.476562 92.230469 L 79.476562 90.953125 L 82.03125 90.953125 L 82.03125 89.679688 L 83.308594 89.679688 L 83.308594 88.402344 L 85.863281 88.402344 L 85.863281 87.125 L 87.136719 87.125 L 87.136719 85.847656 L 89.691406 85.847656 L 89.691406 84.574219 L 90.96875 84.574219 L 90.96875 83.296875 L 93.523438 83.296875 L 93.523438 82.019531 Z M 71.8125 103.71875 L 73.089844 103.71875 L 73.089844 102.441406 L 71.8125 102.441406 Z M 69.261719 101.167969 L 69.261719 102.441406 L 71.8125 102.441406 L 71.8125 101.167969 Z M 67.984375 99.890625 L 67.984375 101.167969 L 69.261719 101.167969 L 69.261719 99.890625 Z M 65.429688 98.613281 L 65.429688 99.890625 L 67.984375 99.890625 L 67.984375 98.613281 Z M 64.152344 97.335938 L 64.152344 98.613281 L 65.429688 98.613281 L 65.429688 97.335938 Z M 61.597656 96.058594 L 61.597656 97.335938 L 64.152344 97.335938 L 64.152344 96.058594 Z M 60.320312 94.785156 L 60.320312 96.058594 L 61.597656 96.058594 L 61.597656 94.785156 Z M 57.765625 93.507812 L 57.765625 94.785156 L 60.320312 94.785156 L 60.320312 93.507812 Z M 56.488281 92.230469 L 56.488281 93.507812 L 57.765625 93.507812 L 57.765625 92.230469 Z M 53.9375 90.953125 L 53.9375 92.230469 L 56.488281 92.230469 L 56.488281 90.953125 Z M 52.660156 89.679688 L 52.660156 90.953125 L 53.9375 90.953125 L 53.9375 89.679688 Z M 51.382812 80.742188 L 51.382812 89.679688 L 52.660156 89.679688 L 52.660156 80.742188 Z M 74.367188 51.386719 L 76.921875 51.386719 L 76.921875 52.664062 L 78.199219 52.664062 L 78.199219 53.941406 L 80.753906 53.941406 L 80.753906 55.214844 L 82.03125 55.214844 L 82.03125 56.492188 L 83.308594 56.492188 L 83.308594 57.769531 L 84.585938 57.769531 L 84.585938 59.046875 L 87.136719 59.046875 L 87.136719 57.769531 L 89.691406 57.769531 L 89.691406 56.492188 L 88.414062 56.492188 L 88.414062 55.214844 L 87.136719 55.214844 L 87.136719 53.941406 L 85.863281 53.941406 L 85.863281 52.664062 L 83.308594 52.664062 L 83.308594 51.386719 L 82.03125 51.386719 L 82.03125 50.109375 L 79.476562 50.109375 L 79.476562 48.832031 L 78.199219 48.832031 L 78.199219 47.558594 L 75.644531 47.558594 L 75.644531 48.832031 L 73.089844 48.832031 L 73.089844 50.109375 L 74.367188 50.109375 Z M 84.585938 60.320312 L 84.585938 74.363281 L 85.863281 74.363281 L 85.863281 73.085938 L 87.136719 73.085938 L 87.136719 71.808594 L 88.414062 71.808594 L 88.414062 70.53125 L 89.691406 70.53125 L 89.691406 59.046875 L 87.136719 59.046875 L 87.136719 60.320312 Z M 71.8125 64.152344 L 71.8125 62.875 L 69.261719 62.875 L 69.261719 64.152344 Z M 69.261719 62.875 L 69.261719 61.597656 L 67.984375 61.597656 L 67.984375 62.875 Z M 67.984375 61.597656 L 67.984375 60.320312 L 65.429688 60.320312 L 65.429688 61.597656 Z M 65.429688 60.320312 L 65.429688 59.046875 L 64.152344 59.046875 L 64.152344 60.320312 Z M 64.152344 59.046875 L 64.152344 57.769531 L 61.597656 57.769531 L 61.597656 59.046875 Z M 61.597656 57.769531 L 61.597656 56.492188 L 60.320312 56.492188 L 60.320312 57.769531 Z M 60.320312 55.214844 L 57.765625 55.214844 L 57.765625 56.492188 L 60.320312 56.492188 Z M 57.765625 56.492188 L 56.488281 56.492188 L 56.488281 71.808594 L 57.765625 71.808594 Z M 55.214844 51.386719 L 53.9375 51.386719 L 53.9375 74.363281 L 55.214844 74.363281 Z M 97.355469 83.296875 L 96.078125 83.296875 L 96.078125 84.574219 L 97.355469 84.574219 Z M 97.355469 87.125 L 97.355469 85.847656 L 96.078125 85.847656 L 96.078125 87.125 Z M 97.355469 89.679688 L 97.355469 88.402344 L 96.078125 88.402344 L 96.078125 89.679688 Z M 96.078125 85.847656 L 96.078125 84.574219 L 94.800781 84.574219 L 94.800781 85.847656 Z M 94.800781 88.402344 L 96.078125 88.402344 L 96.078125 87.125 L 94.800781 87.125 Z M 94.800781 90.953125 L 96.078125 90.953125 L 96.078125 89.679688 L 94.800781 89.679688 Z M 94.800781 84.574219 L 94.800781 83.296875 L 93.523438 83.296875 L 93.523438 84.574219 Z M 94.800781 87.125 L 94.800781 85.847656 L 93.523438 85.847656 L 93.523438 87.125 Z M 93.523438 89.679688 L 94.800781 89.679688 L 94.800781 88.402344 L 93.523438 88.402344 Z M 93.523438 84.574219 L 92.246094 84.574219 L 92.246094 85.847656 L 93.523438 85.847656 Z M 93.523438 87.125 L 92.246094 87.125 L 92.246094 88.402344 L 93.523438 88.402344 Z M 92.246094 90.953125 L 93.523438 90.953125 L 93.523438 89.679688 L 92.246094 89.679688 Z M 92.246094 85.847656 L 90.96875 85.847656 L 90.96875 87.125 L 92.246094 87.125 Z M 92.246094 88.402344 L 90.96875 88.402344 L 90.96875 89.679688 L 92.246094 89.679688 Z M 90.96875 87.125 L 89.691406 87.125 L 89.691406 88.402344 L 90.96875 88.402344 Z M 89.691406 89.679688 L 89.691406 90.953125 L 90.96875 90.953125 L 90.96875 89.679688 Z M 90.96875 90.953125 L 90.96875 92.230469 L 92.246094 92.230469 L 92.246094 90.953125 Z M 89.691406 93.507812 L 90.96875 93.507812 L 90.96875 92.230469 L 89.691406 92.230469 Z M 89.691406 89.679688 L 89.691406 88.402344 L 88.414062 88.402344 L 88.414062 89.679688 Z M 88.414062 88.402344 L 88.414062 87.125 L 87.136719 87.125 L 87.136719 88.402344 Z M 88.414062 90.953125 L 88.414062 89.679688 L 87.136719 89.679688 L 87.136719 90.953125 Z M 88.414062 92.230469 L 89.691406 92.230469 L 89.691406 90.953125 L 88.414062 90.953125 Z M 87.136719 93.507812 L 88.414062 93.507812 L 88.414062 92.230469 L 87.136719 92.230469 Z M 88.414062 94.785156 L 89.691406 94.785156 L 89.691406 93.507812 L 88.414062 93.507812 Z M 87.136719 96.058594 L 88.414062 96.058594 L 88.414062 94.785156 L 87.136719 94.785156 Z M 85.863281 89.679688 L 84.585938 89.679688 L 84.585938 90.953125 L 85.863281 90.953125 Z M 85.863281 92.230469 L 87.136719 92.230469 L 87.136719 90.953125 L 85.863281 90.953125 Z M 84.585938 93.507812 L 85.863281 93.507812 L 85.863281 92.230469 L 84.585938 92.230469 Z M 85.863281 94.785156 L 87.136719 94.785156 L 87.136719 93.507812 L 85.863281 93.507812 Z M 84.585938 96.058594 L 85.863281 96.058594 L 85.863281 94.785156 L 84.585938 94.785156 Z M 87.136719 89.679688 L 87.136719 88.402344 L 85.863281 88.402344 L 85.863281 89.679688 Z M 83.308594 92.230469 L 82.03125 92.230469 L 82.03125 93.507812 L 83.308594 93.507812 Z M 83.308594 94.785156 L 84.585938 94.785156 L 84.585938 93.507812 L 83.308594 93.507812 Z M 82.03125 94.785156 L 82.03125 96.058594 L 83.308594 96.058594 L 83.308594 94.785156 Z M 83.308594 96.058594 L 83.308594 97.335938 L 84.585938 97.335938 L 84.585938 96.058594 Z M 82.03125 98.613281 L 83.308594 98.613281 L 83.308594 97.335938 L 82.03125 97.335938 Z M 84.585938 90.953125 L 83.308594 90.953125 L 83.308594 92.230469 L 84.585938 92.230469 Z M 80.753906 94.785156 L 79.476562 94.785156 L 79.476562 96.058594 L 80.753906 96.058594 Z M 80.753906 97.335938 L 82.03125 97.335938 L 82.03125 96.058594 L 80.753906 96.058594 Z M 79.476562 98.613281 L 80.753906 98.613281 L 80.753906 97.335938 L 79.476562 97.335938 Z M 80.753906 99.890625 L 82.03125 99.890625 L 82.03125 98.613281 L 80.753906 98.613281 Z M 79.476562 101.167969 L 80.753906 101.167969 L 80.753906 99.890625 L 79.476562 99.890625 Z M 82.03125 94.785156 L 82.03125 93.507812 L 80.753906 93.507812 L 80.753906 94.785156 Z M 80.753906 93.507812 L 80.753906 92.230469 L 79.476562 92.230469 L 79.476562 93.507812 Z M 79.476562 93.507812 L 78.199219 93.507812 L 78.199219 94.785156 L 79.476562 94.785156 Z M 79.476562 96.058594 L 78.199219 96.058594 L 78.199219 97.335938 L 79.476562 97.335938 Z M 79.476562 98.613281 L 78.199219 98.613281 L 78.199219 99.890625 L 79.476562 99.890625 Z M 93.523438 92.230469 L 94.800781 92.230469 L 94.800781 90.953125 L 93.523438 90.953125 Z M 92.246094 93.507812 L 93.523438 93.507812 L 93.523438 92.230469 L 92.246094 92.230469 Z M 85.863281 97.335938 L 87.136719 97.335938 L 87.136719 96.058594 L 85.863281 96.058594 Z M 84.585938 98.613281 L 85.863281 98.613281 L 85.863281 97.335938 L 84.585938 97.335938 Z M 78.199219 102.441406 L 79.476562 102.441406 L 79.476562 101.167969 L 78.199219 101.167969 Z M 78.199219 102.441406 " fill-opacity="1" fill-rule="nonzero"/></g><path fill="#fefefe" d="M 69.261719 64.152344 L 71.8125 64.152344 L 71.8125 79.46875 L 69.261719 79.46875 L 69.261719 78.191406 L 67.984375 78.191406 L 67.984375 76.914062 L 65.429688 76.914062 L 65.429688 75.636719 L 64.152344 75.636719 L 64.152344 74.363281 L 61.597656 74.363281 L 61.597656 73.085938 L 60.320312 73.085938 L 60.320312 71.808594 L 57.765625 71.808594 L 57.765625 56.492188 L 60.320312 56.492188 L 60.320312 57.769531 L 61.597656 57.769531 L 61.597656 59.046875 L 64.152344 59.046875 L 64.152344 60.320312 L 65.429688 60.320312 L 65.429688 61.597656 L 67.984375 61.597656 L 67.984375 62.875 L 69.261719 62.875 Z M 59.042969 51.386719 L 55.214844 51.386719 L 55.214844 55.214844 L 56.488281 55.214844 L 56.488281 52.664062 L 59.042969 52.664062 Z M 52.660156 80.742188 L 52.660156 89.679688 L 53.9375 89.679688 L 53.9375 80.742188 Z M 53.9375 90.953125 L 55.214844 90.953125 L 55.214844 89.679688 L 53.9375 89.679688 Z M 74.367188 94.785156 L 74.367188 103.71875 L 75.644531 103.71875 L 75.644531 94.785156 Z M 74.367188 94.785156 " fill-opacity="1" fill-rule="nonzero"/><path fill="#649fe3" d="M 62.875 65.425781 L 62.875 66.703125 L 61.597656 66.703125 L 61.597656 70.53125 L 60.320312 70.53125 L 60.320312 61.597656 L 61.597656 61.597656 L 61.597656 65.425781 Z M 64.152344 66.703125 L 62.875 66.703125 L 62.875 67.980469 L 64.152344 67.980469 L 64.152344 73.085938 L 65.429688 73.085938 L 65.429688 64.152344 L 64.152344 64.152344 Z M 66.707031 75.636719 L 67.984375 75.636719 L 67.984375 69.257812 L 66.707031 69.257812 Z M 66.707031 66.703125 L 66.707031 67.980469 L 67.984375 67.980469 L 67.984375 66.703125 Z M 66.707031 66.703125 " fill-opacity="1" fill-rule="nonzero"/><g clip-path="url(#c705dc5648)"><path fill="#000000" d="M 73.089844 79.46875 L 71.8125 79.46875 L 71.8125 64.152344 L 73.089844 64.152344 Z M 71.8125 80.742188 L 71.8125 79.46875 L 69.261719 79.46875 L 69.261719 80.742188 Z M 69.261719 79.46875 L 69.261719 78.191406 L 67.984375 78.191406 L 67.984375 79.46875 Z M 67.984375 78.191406 L 67.984375 76.914062 L 65.429688 76.914062 L 65.429688 78.191406 Z M 65.429688 76.914062 L 65.429688 75.636719 L 64.152344 75.636719 L 64.152344 76.914062 Z M 64.152344 75.636719 L 64.152344 74.363281 L 61.597656 74.363281 L 61.597656 75.636719 Z M 61.597656 74.363281 L 61.597656 73.085938 L 60.320312 73.085938 L 60.320312 74.363281 Z M 60.320312 71.808594 L 57.765625 71.808594 L 57.765625 73.085938 L 60.320312 73.085938 Z M 73.089844 50.109375 L 73.089844 51.386719 L 74.367188 51.386719 L 74.367188 50.109375 Z M 74.367188 51.386719 L 74.367188 52.664062 L 76.921875 52.664062 L 76.921875 51.386719 Z M 76.921875 52.664062 L 76.921875 53.941406 L 78.199219 53.941406 L 78.199219 52.664062 Z M 78.199219 53.941406 L 78.199219 55.214844 L 80.753906 55.214844 L 80.753906 53.941406 Z M 80.753906 55.214844 L 80.753906 56.492188 L 82.03125 56.492188 L 82.03125 55.214844 Z M 82.03125 56.492188 L 82.03125 57.769531 L 83.308594 57.769531 L 83.308594 56.492188 Z M 83.308594 57.769531 L 83.308594 74.363281 L 84.585938 74.363281 L 84.585938 57.769531 Z M 65.429688 46.28125 L 65.429688 47.558594 L 67.984375 47.558594 L 67.984375 46.28125 Z M 67.984375 47.558594 L 67.984375 48.832031 L 70.539062 48.832031 L 70.539062 47.558594 Z M 70.539062 48.832031 L 70.539062 50.109375 L 73.089844 50.109375 L 73.089844 48.832031 Z M 75.644531 47.558594 L 73.089844 47.558594 L 73.089844 48.832031 L 75.644531 48.832031 Z M 78.199219 46.28125 L 75.644531 46.28125 L 75.644531 47.558594 L 78.199219 47.558594 Z M 79.476562 48.832031 L 79.476562 47.558594 L 78.199219 47.558594 L 78.199219 48.832031 Z M 82.03125 50.109375 L 82.03125 48.832031 L 79.476562 48.832031 L 79.476562 50.109375 Z M 83.308594 51.386719 L 83.308594 50.109375 L 82.03125 50.109375 L 82.03125 51.386719 Z M 85.863281 52.664062 L 85.863281 51.386719 L 83.308594 51.386719 L 83.308594 52.664062 Z M 88.414062 55.214844 L 88.414062 53.941406 L 87.136719 53.941406 L 87.136719 55.214844 Z M 89.691406 56.492188 L 89.691406 55.214844 L 88.414062 55.214844 L 88.414062 56.492188 Z M 87.136719 53.941406 L 87.136719 52.664062 L 85.863281 52.664062 L 85.863281 53.941406 Z M 90.96875 70.53125 L 90.96875 56.492188 L 89.691406 56.492188 L 89.691406 70.53125 Z M 88.414062 71.808594 L 89.691406 71.808594 L 89.691406 70.53125 L 88.414062 70.53125 Z M 97.355469 79.46875 L 97.355469 80.742188 L 96.078125 80.742188 L 96.078125 82.019531 L 97.355469 82.019531 L 97.355469 90.953125 L 98.632812 90.953125 L 98.632812 79.46875 Z M 94.800781 92.230469 L 97.355469 92.230469 L 97.355469 90.953125 L 94.800781 90.953125 Z M 93.523438 93.507812 L 94.800781 93.507812 L 94.800781 92.230469 L 93.523438 92.230469 Z M 90.96875 94.785156 L 93.523438 94.785156 L 93.523438 93.507812 L 90.96875 93.507812 Z M 89.691406 96.058594 L 90.96875 96.058594 L 90.96875 94.785156 L 89.691406 94.785156 Z M 87.136719 97.335938 L 89.691406 97.335938 L 89.691406 96.058594 L 87.136719 96.058594 Z M 85.863281 98.613281 L 87.136719 98.613281 L 87.136719 97.335938 L 85.863281 97.335938 Z M 83.308594 99.890625 L 85.863281 99.890625 L 85.863281 98.613281 L 83.308594 98.613281 Z M 82.03125 101.167969 L 83.308594 101.167969 L 83.308594 99.890625 L 82.03125 99.890625 Z M 79.476562 102.441406 L 82.03125 102.441406 L 82.03125 101.167969 L 79.476562 101.167969 Z M 78.199219 103.71875 L 79.476562 103.71875 L 79.476562 102.441406 L 78.199219 102.441406 Z M 73.089844 104.996094 L 78.199219 104.996094 L 78.199219 103.71875 L 73.089844 103.71875 Z M 55.214844 74.363281 L 55.214844 75.636719 L 56.488281 75.636719 L 56.488281 74.363281 Z M 56.488281 75.636719 L 56.488281 76.914062 L 59.042969 76.914062 L 59.042969 75.636719 Z M 59.042969 76.914062 L 59.042969 78.191406 L 60.320312 78.191406 L 60.320312 76.914062 Z M 60.320312 78.191406 L 60.320312 79.46875 L 62.875 79.46875 L 62.875 78.191406 Z M 62.875 79.46875 L 62.875 80.742188 L 64.152344 80.742188 L 64.152344 79.46875 Z M 64.152344 80.742188 L 64.152344 82.019531 L 66.707031 82.019531 L 66.707031 80.742188 Z M 66.707031 82.019531 L 66.707031 83.296875 L 67.984375 83.296875 L 67.984375 82.019531 Z M 67.984375 83.296875 L 67.984375 84.574219 L 70.539062 84.574219 L 70.539062 83.296875 Z M 70.539062 85.847656 L 74.367188 85.847656 L 74.367188 84.574219 L 70.539062 84.574219 Z M 74.367188 84.574219 L 76.921875 84.574219 L 76.921875 83.296875 L 74.367188 83.296875 Z M 76.921875 83.296875 L 79.476562 83.296875 L 79.476562 82.019531 L 76.921875 82.019531 Z M 79.476562 82.019531 L 82.03125 82.019531 L 82.03125 80.742188 L 79.476562 80.742188 Z M 82.03125 80.742188 L 83.308594 80.742188 L 83.308594 79.46875 L 82.03125 79.46875 Z M 83.308594 79.46875 L 84.585938 79.46875 L 84.585938 76.914062 L 83.308594 76.914062 Z M 84.585938 76.914062 L 85.863281 76.914062 L 85.863281 74.363281 L 84.585938 74.363281 Z M 94.800781 78.191406 L 94.800781 79.46875 L 97.355469 79.46875 L 97.355469 78.191406 Z M 93.523438 76.914062 L 93.523438 78.191406 L 94.800781 78.191406 L 94.800781 76.914062 Z M 90.96875 75.636719 L 90.96875 76.914062 L 93.523438 76.914062 L 93.523438 75.636719 Z M 89.691406 74.363281 L 89.691406 75.636719 L 90.96875 75.636719 L 90.96875 74.363281 Z M 88.414062 73.085938 L 88.414062 71.808594 L 87.136719 71.808594 L 87.136719 73.085938 L 85.863281 73.085938 L 85.863281 74.363281 L 89.691406 74.363281 L 89.691406 73.085938 Z M 93.523438 83.296875 L 96.078125 83.296875 L 96.078125 82.019531 L 93.523438 82.019531 Z M 90.96875 84.574219 L 93.523438 84.574219 L 93.523438 83.296875 L 90.96875 83.296875 Z M 89.691406 85.847656 L 90.96875 85.847656 L 90.96875 84.574219 L 89.691406 84.574219 Z M 87.136719 87.125 L 89.691406 87.125 L 89.691406 85.847656 L 87.136719 85.847656 Z M 85.863281 88.402344 L 87.136719 88.402344 L 87.136719 87.125 L 85.863281 87.125 Z M 83.308594 89.679688 L 85.863281 89.679688 L 85.863281 88.402344 L 83.308594 88.402344 Z M 82.03125 90.953125 L 83.308594 90.953125 L 83.308594 89.679688 L 82.03125 89.679688 Z M 79.476562 92.230469 L 82.03125 92.230469 L 82.03125 90.953125 L 79.476562 90.953125 Z M 78.199219 93.507812 L 79.476562 93.507812 L 79.476562 92.230469 L 78.199219 92.230469 Z M 76.921875 94.785156 L 78.199219 94.785156 L 78.199219 93.507812 L 76.921875 93.507812 Z M 73.089844 98.613281 L 73.089844 97.335938 L 70.539062 97.335938 L 70.539062 98.613281 Z M 69.261719 96.058594 L 69.261719 97.335938 L 70.539062 97.335938 L 70.539062 96.058594 Z M 66.707031 94.785156 L 66.707031 96.058594 L 69.261719 96.058594 L 69.261719 94.785156 Z M 66.707031 94.785156 " fill-opacity="1" fill-rule="nonzero"/></g><path fill="#c0c0c0" d="M 82.03125 57.769531 L 82.03125 59.046875 L 79.476562 59.046875 L 79.476562 57.769531 Z M 76.921875 59.046875 L 76.921875 60.320312 L 79.476562 60.320312 L 79.476562 59.046875 Z M 74.367188 60.320312 L 74.367188 61.597656 L 76.921875 61.597656 L 76.921875 60.320312 Z M 74.367188 60.320312 " fill-opacity="1" fill-rule="nonzero"/></svg>