<svg xmlns="http://www.w3.org/2000/svg" xmlns:xlink="http://www.w3.org/1999/xlink" zoomAndPan="magnify" preserveAspectRatio="xMidYMid meet" version="1.0" viewBox="45 52.91 60 44.25"><defs><clipPath id="273ab27bc3"><path d="M 45 54 L 104 54 L 104 97.160156 L 45 97.160156 Z M 45 54 " clip-rule="nonzero"/></clipPath><clipPath id="333642678d"><path d="M 46 52.910156 L 105 52.910156 L 105 96 L 46 96 Z M 46 52.910156 " clip-rule="nonzero"/></clipPath><clipPath id="dfd2e15c39"><path d="M 46 52.910156 L 105 52.910156 L 105 96 L 46 96 Z M 46 52.910156 " clip-rule="nonzero"/></clipPath></defs><g clip-path="url(#273ab27bc3)"><path fill="#000000" d="M 101.46875 67.082031 L 101.46875 65.316406 L 99.707031 65.316406 L 99.707031 63.546875 L 97.941406 63.546875 L 97.941406 61.78125 L 96.175781 61.78125 L 96.175781 60.011719 L 94.410156 60.011719 L 94.410156 58.246094 L 92.648438 58.246094 L 92.648438 56.476562 L 90.882812 56.476562 L 90.882812 54.710938 L 57.351562 54.710938 L 57.351562 56.476562 L 55.589844 56.476562 L 55.589844 58.246094 L 53.824219 58.246094 L 53.824219 60.011719 L 52.058594 60.011719 L 52.058594 61.78125 L 50.292969 61.78125 L 50.292969 63.546875 L 48.53125 63.546875 L 48.53125 65.316406 L 46.765625 65.316406 L 46.765625 67.082031 L 45 67.082031 L 45 68.851562 L 46.765625 68.851562 L 46.765625 70.617188 L 48.53125 70.617188 L 48.53125 72.386719 L 50.292969 72.386719 L 50.292969 74.152344 L 52.058594 74.152344 L 52.058594 75.921875 L 53.824219 75.921875 L 53.824219 77.6875 L 55.589844 77.6875 L 55.589844 79.457031 L 57.351562 79.457031 L 57.351562 81.222656 L 59.117188 81.222656 L 59.117188 82.992188 L 60.882812 82.992188 L 60.882812 84.757812 L 62.648438 84.757812 L 62.648438 86.527344 L 64.410156 86.527344 L 64.410156 88.292969 L 66.175781 88.292969 L 66.175781 90.0625 L 67.941406 90.0625 L 67.941406 91.828125 L 69.707031 91.828125 L 69.707031 93.597656 L 71.46875 93.597656 L 71.46875 95.363281 L 73.234375 95.363281 L 73.234375 97.128906 L 75 97.128906 L 75 95.363281 L 76.765625 95.363281 L 76.765625 93.597656 L 78.53125 93.597656 L 78.53125 91.828125 L 80.292969 91.828125 L 80.292969 90.0625 L 82.058594 90.0625 L 82.058594 88.292969 L 83.824219 88.292969 L 83.824219 86.527344 L 85.589844 86.527344 L 85.589844 84.757812 L 87.351562 84.757812 L 87.351562 82.992188 L 89.117188 82.992188 L 89.117188 81.222656 L 90.882812 81.222656 L 90.882812 79.457031 L 92.648438 79.457031 L 92.648438 77.6875 L 94.410156 77.6875 L 94.410156 75.921875 L 96.175781 75.921875 L 96.175781 74.152344 L 97.941406 74.152344 L 97.941406 72.386719 L 99.707031 72.386719 L 99.707031 70.617188 L 101.46875 70.617188 L 101.46875 68.851562 L 103.234375 68.851562 L 103.234375 67.082031 Z M 101.46875 67.082031 " fill-opacity="0.3" fill-rule="nonzero"/></g><g clip-path="url(#333642678d)"><path fill="#000000" d="M 103.234375 65.316406 L 103.234375 63.546875 L 101.46875 63.546875 L 101.46875 61.78125 L 99.707031 61.78125 L 99.707031 60.011719 L 97.941406 60.011719 L 97.941406 58.246094 L 96.175781 58.246094 L 96.175781 56.476562 L 94.410156 56.476562 L 94.410156 54.710938 L 92.648438 54.710938 L 92.648438 52.941406 L 59.117188 52.941406 L 59.117188 54.710938 L 57.351562 54.710938 L 57.351562 56.476562 L 55.589844 56.476562 L 55.589844 58.246094 L 53.824219 58.246094 L 53.824219 60.011719 L 52.058594 60.011719 L 52.058594 61.78125 L 50.292969 61.78125 L 50.292969 63.546875 L 48.53125 63.546875 L 48.53125 65.316406 L 46.765625 65.316406 L 46.765625 67.082031 L 48.53125 67.082031 L 48.53125 68.851562 L 50.292969 68.851562 L 50.292969 70.617188 L 52.058594 70.617188 L 52.058594 72.386719 L 53.824219 72.386719 L 53.824219 74.152344 L 55.589844 74.152344 L 55.589844 75.921875 L 57.351562 75.921875 L 57.351562 77.6875 L 59.117188 77.6875 L 59.117188 79.457031 L 60.882812 79.457031 L 60.882812 81.222656 L 62.648438 81.222656 L 62.648438 82.992188 L 64.410156 82.992188 L 64.410156 84.757812 L 66.175781 84.757812 L 66.175781 86.527344 L 67.941406 86.527344 L 67.941406 88.292969 L 69.707031 88.292969 L 69.707031 90.0625 L 71.46875 90.0625 L 71.46875 91.828125 L 73.234375 91.828125 L 73.234375 93.597656 L 75 93.597656 L 75 95.363281 L 76.765625 95.363281 L 76.765625 93.597656 L 78.53125 93.597656 L 78.53125 91.828125 L 80.292969 91.828125 L 80.292969 90.0625 L 82.058594 90.0625 L 82.058594 88.292969 L 83.824219 88.292969 L 83.824219 86.527344 L 85.589844 86.527344 L 85.589844 84.757812 L 87.351562 84.757812 L 87.351562 82.992188 L 89.117188 82.992188 L 89.117188 81.222656 L 90.882812 81.222656 L 90.882812 79.457031 L 92.648438 79.457031 L 92.648438 77.6875 L 94.410156 77.6875 L 94.410156 75.921875 L 96.175781 75.921875 L 96.175781 74.152344 L 97.941406 74.152344 L 97.941406 72.386719 L 99.707031 72.386719 L 99.707031 70.617188 L 101.46875 70.617188 L 101.46875 68.851562 L 103.234375 68.851562 L 103.234375 67.082031 L 105 67.082031 L 105 65.316406 Z M 103.234375 65.316406 " fill-opacity="1" fill-rule="nonzero"/></g><path fill="#d7f7ff" d="M 87.351562 63.546875 L 87.351562 65.316406 L 64.410156 65.316406 L 64.410156 63.546875 L 66.175781 63.546875 L 66.175781 61.78125 L 67.941406 61.78125 L 67.941406 60.011719 L 69.707031 60.011719 L 69.707031 58.246094 L 71.46875 58.246094 L 71.46875 56.476562 L 73.234375 56.476562 L 73.234375 54.710938 L 78.53125 54.710938 L 78.53125 56.476562 L 80.292969 56.476562 L 80.292969 58.246094 L 82.058594 58.246094 L 82.058594 60.011719 L 83.824219 60.011719 L 83.824219 61.78125 L 85.589844 61.78125 L 85.589844 63.546875 Z M 87.351562 63.546875 " fill-opacity="1" fill-rule="nonzero"/><path fill="#1ca4ff" d="M 101.46875 67.082031 L 101.46875 68.851562 L 99.707031 68.851562 L 99.707031 70.617188 L 97.941406 70.617188 L 97.941406 72.386719 L 96.175781 72.386719 L 96.175781 74.152344 L 94.410156 74.152344 L 94.410156 75.921875 L 92.648438 75.921875 L 92.648438 77.6875 L 90.882812 77.6875 L 90.882812 79.457031 L 89.117188 79.457031 L 89.117188 81.222656 L 87.351562 81.222656 L 87.351562 82.992188 L 85.589844 82.992188 L 85.589844 84.757812 L 83.824219 84.757812 L 83.824219 86.527344 L 82.058594 86.527344 L 82.058594 88.292969 L 80.292969 88.292969 L 80.292969 90.0625 L 78.53125 90.0625 L 78.53125 86.527344 L 80.292969 86.527344 L 80.292969 82.992188 L 82.058594 82.992188 L 82.058594 81.222656 L 83.824219 81.222656 L 83.824219 77.6875 L 85.589844 77.6875 L 85.589844 74.152344 L 87.351562 74.152344 L 87.351562 70.617188 L 89.117188 70.617188 L 89.117188 67.082031 Z M 76.765625 91.828125 L 78.53125 91.828125 L 78.53125 90.0625 L 76.765625 90.0625 Z M 73.234375 91.828125 L 75 91.828125 L 75 90.0625 L 73.234375 90.0625 Z M 73.234375 86.527344 L 71.46875 86.527344 L 71.46875 82.992188 L 69.707031 82.992188 L 69.707031 81.222656 L 67.941406 81.222656 L 67.941406 77.6875 L 66.175781 77.6875 L 66.175781 74.152344 L 64.410156 74.152344 L 64.410156 70.617188 L 62.648438 70.617188 L 62.648438 67.082031 L 50.292969 67.082031 L 50.292969 68.851562 L 52.058594 68.851562 L 52.058594 70.617188 L 53.824219 70.617188 L 53.824219 72.386719 L 55.589844 72.386719 L 55.589844 74.152344 L 57.351562 74.152344 L 57.351562 75.921875 L 59.117188 75.921875 L 59.117188 77.6875 L 60.882812 77.6875 L 60.882812 79.457031 L 62.648438 79.457031 L 62.648438 81.222656 L 64.410156 81.222656 L 64.410156 82.992188 L 66.175781 82.992188 L 66.175781 84.757812 L 67.941406 84.757812 L 67.941406 86.527344 L 69.707031 86.527344 L 69.707031 88.292969 L 71.46875 88.292969 L 71.46875 90.0625 L 73.234375 90.0625 Z M 73.234375 86.527344 " fill-opacity="1" fill-rule="nonzero"/><path fill="#92deff" d="M 101.46875 63.546875 L 101.46875 65.316406 L 89.117188 65.316406 L 89.117188 63.546875 L 87.351562 63.546875 L 87.351562 61.78125 L 85.589844 61.78125 L 85.589844 60.011719 L 83.824219 60.011719 L 83.824219 58.246094 L 82.058594 58.246094 L 82.058594 56.476562 L 80.292969 56.476562 L 80.292969 54.710938 L 92.648438 54.710938 L 92.648438 56.476562 L 94.410156 56.476562 L 94.410156 58.246094 L 96.175781 58.246094 L 96.175781 60.011719 L 97.941406 60.011719 L 97.941406 61.78125 L 99.707031 61.78125 L 99.707031 63.546875 Z M 83.824219 67.082031 L 64.410156 67.082031 L 64.410156 70.617188 L 66.175781 70.617188 L 66.175781 74.152344 L 67.941406 74.152344 L 67.941406 77.6875 L 69.707031 77.6875 L 69.707031 81.222656 L 71.46875 81.222656 L 71.46875 82.992188 L 73.234375 82.992188 L 73.234375 86.527344 L 75 86.527344 L 75 90.0625 L 76.765625 90.0625 L 76.765625 86.527344 L 78.53125 86.527344 L 78.53125 82.992188 L 80.292969 82.992188 L 80.292969 81.222656 L 82.058594 81.222656 L 82.058594 77.6875 L 83.824219 77.6875 L 83.824219 74.152344 L 85.589844 74.152344 L 85.589844 70.617188 L 87.351562 70.617188 L 87.351562 67.082031 Z M 64.410156 61.78125 L 66.175781 61.78125 L 66.175781 60.011719 L 67.941406 60.011719 L 67.941406 58.246094 L 69.707031 58.246094 L 69.707031 56.476562 L 71.46875 56.476562 L 71.46875 54.710938 L 59.117188 54.710938 L 59.117188 56.476562 L 57.351562 56.476562 L 57.351562 58.246094 L 55.589844 58.246094 L 55.589844 60.011719 L 53.824219 60.011719 L 53.824219 61.78125 L 52.058594 61.78125 L 52.058594 63.546875 L 50.292969 63.546875 L 50.292969 65.316406 L 62.648438 65.316406 L 62.648438 63.546875 L 64.410156 63.546875 Z M 64.410156 61.78125 " fill-opacity="1" fill-rule="nonzero"/><path fill="#ffffff" d="M 53.824219 61.78125 L 53.824219 63.546875 L 55.589844 63.546875 L 55.589844 61.78125 Z M 52.058594 63.546875 L 52.058594 65.316406 L 53.824219 65.316406 L 53.824219 63.546875 Z M 55.589844 63.546875 L 55.589844 65.316406 L 57.351562 65.316406 L 57.351562 63.546875 Z M 57.351562 61.78125 L 57.351562 63.546875 L 59.117188 63.546875 L 59.117188 61.78125 Z M 59.117188 63.546875 L 59.117188 65.316406 L 60.882812 65.316406 L 60.882812 63.546875 Z M 60.882812 61.78125 L 60.882812 63.546875 L 62.648438 63.546875 L 62.648438 61.78125 Z M 62.648438 63.546875 L 62.648438 65.316406 L 64.410156 65.316406 L 64.410156 63.546875 Z M 64.410156 61.78125 L 64.410156 63.546875 L 66.175781 63.546875 L 66.175781 61.78125 Z M 66.175781 63.546875 L 66.175781 65.316406 L 67.941406 65.316406 L 67.941406 63.546875 Z M 53.824219 65.316406 L 53.824219 67.082031 L 55.589844 67.082031 L 55.589844 65.316406 Z M 52.058594 67.082031 L 52.058594 68.851562 L 53.824219 68.851562 L 53.824219 67.082031 Z M 50.292969 65.316406 L 50.292969 67.082031 L 52.058594 67.082031 L 52.058594 65.316406 Z M 55.589844 67.082031 L 55.589844 68.851562 L 57.351562 68.851562 L 57.351562 67.082031 Z M 57.351562 65.316406 L 57.351562 67.082031 L 59.117188 67.082031 L 59.117188 65.316406 Z M 59.117188 67.082031 L 59.117188 68.851562 L 60.882812 68.851562 L 60.882812 67.082031 Z M 60.882812 65.316406 L 60.882812 67.082031 L 62.648438 67.082031 L 62.648438 65.316406 Z M 62.648438 67.082031 L 62.648438 68.851562 L 64.410156 68.851562 L 64.410156 67.082031 Z M 64.410156 65.316406 L 64.410156 67.082031 L 66.175781 67.082031 L 66.175781 65.316406 Z M 66.175781 67.082031 L 66.175781 68.851562 L 67.941406 68.851562 L 67.941406 67.082031 Z M 53.824219 68.851562 L 53.824219 70.617188 L 55.589844 70.617188 L 55.589844 68.851562 Z M 55.589844 70.617188 L 55.589844 72.386719 L 57.351562 72.386719 L 57.351562 70.617188 Z M 57.351562 68.851562 L 57.351562 70.617188 L 59.117188 70.617188 L 59.117188 68.851562 Z M 59.117188 70.617188 L 59.117188 72.386719 L 60.882812 72.386719 L 60.882812 70.617188 Z M 60.882812 68.851562 L 60.882812 70.617188 L 62.648438 70.617188 L 62.648438 68.851562 Z M 62.648438 70.617188 L 62.648438 72.386719 L 64.410156 72.386719 L 64.410156 70.617188 Z M 64.410156 68.851562 L 64.410156 70.617188 L 66.175781 70.617188 L 66.175781 68.851562 Z M 57.351562 72.386719 L 57.351562 74.152344 L 59.117188 74.152344 L 59.117188 72.386719 Z M 59.117188 74.152344 L 59.117188 75.921875 L 60.882812 75.921875 L 60.882812 74.152344 Z M 60.882812 72.386719 L 60.882812 74.152344 L 62.648438 74.152344 L 62.648438 72.386719 Z M 62.648438 74.152344 L 62.648438 75.921875 L 64.410156 75.921875 L 64.410156 74.152344 Z M 60.882812 75.921875 L 60.882812 77.6875 L 62.648438 77.6875 L 62.648438 75.921875 Z M 62.648438 77.6875 L 62.648438 79.457031 L 64.410156 79.457031 L 64.410156 77.6875 Z M 64.410156 79.457031 L 64.410156 81.222656 L 66.175781 81.222656 L 66.175781 79.457031 Z M 66.175781 81.222656 L 66.175781 82.992188 L 67.941406 82.992188 L 67.941406 81.222656 Z M 67.941406 61.78125 L 67.941406 63.546875 L 69.707031 63.546875 L 69.707031 61.78125 Z M 69.707031 63.546875 L 69.707031 65.316406 L 71.46875 65.316406 L 71.46875 63.546875 Z M 67.941406 65.316406 L 67.941406 67.082031 L 69.707031 67.082031 L 69.707031 65.316406 Z M 69.707031 67.082031 L 69.707031 68.851562 L 71.46875 68.851562 L 71.46875 67.082031 Z M 71.46875 61.78125 L 71.46875 63.546875 L 73.234375 63.546875 L 73.234375 61.78125 Z M 73.234375 63.546875 L 73.234375 65.316406 L 75 65.316406 L 75 63.546875 Z M 71.46875 65.316406 L 71.46875 67.082031 L 73.234375 67.082031 L 73.234375 65.316406 Z M 67.941406 68.851562 L 67.941406 70.617188 L 69.707031 70.617188 L 69.707031 68.851562 Z M 71.46875 68.851562 L 71.46875 70.617188 L 73.234375 70.617188 L 73.234375 68.851562 Z M 73.234375 67.082031 L 73.234375 68.851562 L 75 68.851562 L 75 67.082031 Z M 66.175781 70.617188 L 66.175781 72.386719 L 67.941406 72.386719 L 67.941406 70.617188 Z M 69.707031 70.617188 L 69.707031 72.386719 L 71.46875 72.386719 L 71.46875 70.617188 Z M 73.234375 70.617188 L 73.234375 72.386719 L 75 72.386719 L 75 70.617188 Z M 66.175781 74.152344 L 66.175781 75.921875 L 67.941406 75.921875 L 67.941406 74.152344 Z M 69.707031 74.152344 L 69.707031 75.921875 L 71.46875 75.921875 L 71.46875 74.152344 Z M 73.234375 74.152344 L 73.234375 75.921875 L 75 75.921875 L 75 74.152344 Z M 66.175781 77.6875 L 66.175781 79.457031 L 67.941406 79.457031 L 67.941406 77.6875 Z M 69.707031 77.6875 L 69.707031 79.457031 L 71.46875 79.457031 L 71.46875 77.6875 Z M 69.707031 81.222656 L 69.707031 82.992188 L 71.46875 82.992188 L 71.46875 81.222656 Z M 69.707031 84.757812 L 69.707031 86.527344 L 71.46875 86.527344 L 71.46875 84.757812 Z M 73.234375 77.6875 L 73.234375 79.457031 L 75 79.457031 L 75 77.6875 Z M 73.234375 81.222656 L 73.234375 82.992188 L 75 82.992188 L 75 81.222656 Z M 73.234375 84.757812 L 73.234375 86.527344 L 75 86.527344 L 75 84.757812 Z M 73.234375 88.292969 L 73.234375 90.0625 L 75 90.0625 L 75 88.292969 Z M 75 61.78125 L 75 63.546875 L 76.765625 63.546875 L 76.765625 61.78125 Z M 76.765625 63.546875 L 76.765625 65.316406 L 78.53125 65.316406 L 78.53125 63.546875 Z M 75 65.316406 L 75 67.082031 L 76.765625 67.082031 L 76.765625 65.316406 Z M 76.765625 67.082031 L 76.765625 68.851562 L 78.53125 68.851562 L 78.53125 67.082031 Z M 75 68.851562 L 75 70.617188 L 76.765625 70.617188 L 76.765625 68.851562 Z M 64.410156 72.386719 L 64.410156 74.152344 L 66.175781 74.152344 L 66.175781 72.386719 Z M 67.941406 72.386719 L 67.941406 74.152344 L 69.707031 74.152344 L 69.707031 72.386719 Z M 71.46875 72.386719 L 71.46875 74.152344 L 73.234375 74.152344 L 73.234375 72.386719 Z M 75 72.386719 L 75 74.152344 L 76.765625 74.152344 L 76.765625 72.386719 Z M 64.410156 75.921875 L 64.410156 77.6875 L 66.175781 77.6875 L 66.175781 75.921875 Z M 67.941406 75.921875 L 67.941406 77.6875 L 69.707031 77.6875 L 69.707031 75.921875 Z M 71.46875 75.921875 L 71.46875 77.6875 L 73.234375 77.6875 L 73.234375 75.921875 Z M 67.941406 79.457031 L 67.941406 81.222656 L 69.707031 81.222656 L 69.707031 79.457031 Z M 71.46875 79.457031 L 71.46875 81.222656 L 73.234375 81.222656 L 73.234375 79.457031 Z M 67.941406 82.992188 L 67.941406 84.757812 L 69.707031 84.757812 L 69.707031 82.992188 Z M 71.46875 82.992188 L 71.46875 84.757812 L 73.234375 84.757812 L 73.234375 82.992188 Z M 71.46875 86.527344 L 71.46875 88.292969 L 73.234375 88.292969 L 73.234375 86.527344 Z M 75 75.921875 L 75 77.6875 L 76.765625 77.6875 L 76.765625 75.921875 Z M 76.765625 70.617188 L 76.765625 72.386719 L 78.53125 72.386719 L 78.53125 70.617188 Z M 76.765625 74.152344 L 76.765625 75.921875 L 78.53125 75.921875 L 78.53125 74.152344 Z M 76.765625 77.6875 L 76.765625 79.457031 L 78.53125 79.457031 L 78.53125 77.6875 Z M 75 79.457031 L 75 81.222656 L 76.765625 81.222656 L 76.765625 79.457031 Z M 76.765625 81.222656 L 76.765625 82.992188 L 78.53125 82.992188 L 78.53125 81.222656 Z M 75 82.992188 L 75 84.757812 L 76.765625 84.757812 L 76.765625 82.992188 Z M 76.765625 84.757812 L 76.765625 86.527344 L 78.53125 86.527344 L 78.53125 84.757812 Z M 75 86.527344 L 75 88.292969 L 76.765625 88.292969 L 76.765625 86.527344 Z M 76.765625 88.292969 L 76.765625 90.0625 L 78.53125 90.0625 L 78.53125 88.292969 Z M 75 90.0625 L 75 91.828125 L 76.765625 91.828125 L 76.765625 90.0625 Z M 78.53125 61.78125 L 78.53125 63.546875 L 80.292969 63.546875 L 80.292969 61.78125 Z M 80.292969 63.546875 L 80.292969 65.316406 L 82.058594 65.316406 L 82.058594 63.546875 Z M 78.53125 65.316406 L 78.53125 67.082031 L 80.292969 67.082031 L 80.292969 65.316406 Z M 80.292969 67.082031 L 80.292969 68.851562 L 82.058594 68.851562 L 82.058594 67.082031 Z M 78.53125 68.851562 L 78.53125 70.617188 L 80.292969 70.617188 L 80.292969 68.851562 Z M 80.292969 70.617188 L 80.292969 72.386719 L 82.058594 72.386719 L 82.058594 70.617188 Z M 78.53125 72.386719 L 78.53125 74.152344 L 80.292969 74.152344 L 80.292969 72.386719 Z M 80.292969 74.152344 L 80.292969 75.921875 L 82.058594 75.921875 L 82.058594 74.152344 Z M 78.53125 75.921875 L 78.53125 77.6875 L 80.292969 77.6875 L 80.292969 75.921875 Z M 80.292969 77.6875 L 80.292969 79.457031 L 82.058594 79.457031 L 82.058594 77.6875 Z M 78.53125 79.457031 L 78.53125 81.222656 L 80.292969 81.222656 L 80.292969 79.457031 Z M 80.292969 81.222656 L 80.292969 82.992188 L 82.058594 82.992188 L 82.058594 81.222656 Z M 78.53125 82.992188 L 78.53125 84.757812 L 80.292969 84.757812 L 80.292969 82.992188 Z M 80.292969 84.757812 L 80.292969 86.527344 L 82.058594 86.527344 L 82.058594 84.757812 Z M 78.53125 86.527344 L 78.53125 88.292969 L 80.292969 88.292969 L 80.292969 86.527344 Z M 82.058594 61.78125 L 82.058594 63.546875 L 83.824219 63.546875 L 83.824219 61.78125 Z M 83.824219 63.546875 L 83.824219 65.316406 L 85.589844 65.316406 L 85.589844 63.546875 Z M 82.058594 65.316406 L 82.058594 67.082031 L 83.824219 67.082031 L 83.824219 65.316406 Z M 83.824219 67.082031 L 83.824219 68.851562 L 85.589844 68.851562 L 85.589844 67.082031 Z M 82.058594 68.851562 L 82.058594 70.617188 L 83.824219 70.617188 L 83.824219 68.851562 Z M 83.824219 70.617188 L 83.824219 72.386719 L 85.589844 72.386719 L 85.589844 70.617188 Z M 82.058594 72.386719 L 82.058594 74.152344 L 83.824219 74.152344 L 83.824219 72.386719 Z M 83.824219 74.152344 L 83.824219 75.921875 L 85.589844 75.921875 L 85.589844 74.152344 Z M 82.058594 75.921875 L 82.058594 77.6875 L 83.824219 77.6875 L 83.824219 75.921875 Z M 83.824219 77.6875 L 83.824219 79.457031 L 85.589844 79.457031 L 85.589844 77.6875 Z M 82.058594 79.457031 L 82.058594 81.222656 L 83.824219 81.222656 L 83.824219 79.457031 Z M 83.824219 81.222656 L 83.824219 82.992188 L 85.589844 82.992188 L 85.589844 81.222656 Z M 82.058594 82.992188 L 82.058594 84.757812 L 83.824219 84.757812 L 83.824219 82.992188 Z M 85.589844 61.78125 L 85.589844 63.546875 L 87.351562 63.546875 L 87.351562 61.78125 Z M 87.351562 63.546875 L 87.351562 65.316406 L 89.117188 65.316406 L 89.117188 63.546875 Z M 85.589844 65.316406 L 85.589844 67.082031 L 87.351562 67.082031 L 87.351562 65.316406 Z M 87.351562 67.082031 L 87.351562 68.851562 L 89.117188 68.851562 L 89.117188 67.082031 Z M 85.589844 68.851562 L 85.589844 70.617188 L 87.351562 70.617188 L 87.351562 68.851562 Z M 87.351562 70.617188 L 87.351562 72.386719 L 89.117188 72.386719 L 89.117188 70.617188 Z M 85.589844 72.386719 L 85.589844 74.152344 L 87.351562 74.152344 L 87.351562 72.386719 Z M 87.351562 74.152344 L 87.351562 75.921875 L 89.117188 75.921875 L 89.117188 74.152344 Z M 85.589844 75.921875 L 85.589844 77.6875 L 87.351562 77.6875 L 87.351562 75.921875 Z M 87.351562 77.6875 L 87.351562 79.457031 L 89.117188 79.457031 L 89.117188 77.6875 Z M 85.589844 79.457031 L 85.589844 81.222656 L 87.351562 81.222656 L 87.351562 79.457031 Z M 89.117188 65.316406 L 89.117188 67.082031 L 90.882812 67.082031 L 90.882812 65.316406 Z M 89.117188 61.78125 L 89.117188 63.546875 L 90.882812 63.546875 L 90.882812 61.78125 Z M 90.882812 63.546875 L 90.882812 65.316406 L 92.648438 65.316406 L 92.648438 63.546875 Z M 55.589844 60.011719 L 55.589844 61.78125 L 57.351562 61.78125 L 57.351562 60.011719 Z M 57.351562 58.246094 L 57.351562 60.011719 L 59.117188 60.011719 L 59.117188 58.246094 Z M 59.117188 60.011719 L 59.117188 61.78125 L 60.882812 61.78125 L 60.882812 60.011719 Z M 60.882812 58.246094 L 60.882812 60.011719 L 62.648438 60.011719 L 62.648438 58.246094 Z M 62.648438 60.011719 L 62.648438 61.78125 L 64.410156 61.78125 L 64.410156 60.011719 Z M 64.410156 58.246094 L 64.410156 60.011719 L 66.175781 60.011719 L 66.175781 58.246094 Z M 66.175781 60.011719 L 66.175781 61.78125 L 67.941406 61.78125 L 67.941406 60.011719 Z M 67.941406 58.246094 L 67.941406 60.011719 L 69.707031 60.011719 L 69.707031 58.246094 Z M 69.707031 60.011719 L 69.707031 61.78125 L 71.46875 61.78125 L 71.46875 60.011719 Z M 71.46875 58.246094 L 71.46875 60.011719 L 73.234375 60.011719 L 73.234375 58.246094 Z M 73.234375 60.011719 L 73.234375 61.78125 L 75 61.78125 L 75 60.011719 Z M 75 58.246094 L 75 60.011719 L 76.765625 60.011719 L 76.765625 58.246094 Z M 76.765625 60.011719 L 76.765625 61.78125 L 78.53125 61.78125 L 78.53125 60.011719 Z M 78.53125 58.246094 L 78.53125 60.011719 L 80.292969 60.011719 L 80.292969 58.246094 Z M 80.292969 60.011719 L 80.292969 61.78125 L 82.058594 61.78125 L 82.058594 60.011719 Z M 82.058594 58.246094 L 82.058594 60.011719 L 83.824219 60.011719 L 83.824219 58.246094 Z M 83.824219 60.011719 L 83.824219 61.78125 L 85.589844 61.78125 L 85.589844 60.011719 Z M 85.589844 58.246094 L 85.589844 60.011719 L 87.351562 60.011719 L 87.351562 58.246094 Z M 87.351562 60.011719 L 87.351562 61.78125 L 89.117188 61.78125 L 89.117188 60.011719 Z M 89.117188 58.246094 L 89.117188 60.011719 L 90.882812 60.011719 L 90.882812 58.246094 Z M 90.882812 60.011719 L 90.882812 61.78125 L 92.648438 61.78125 L 92.648438 60.011719 Z M 59.117188 56.476562 L 59.117188 58.246094 L 60.882812 58.246094 L 60.882812 56.476562 Z M 60.882812 54.710938 L 60.882812 56.476562 L 62.648438 56.476562 L 62.648438 54.710938 Z M 62.648438 56.476562 L 62.648438 58.246094 L 64.410156 58.246094 L 64.410156 56.476562 Z M 64.410156 54.710938 L 64.410156 56.476562 L 66.175781 56.476562 L 66.175781 54.710938 Z M 66.175781 56.476562 L 66.175781 58.246094 L 67.941406 58.246094 L 67.941406 56.476562 Z M 67.941406 54.710938 L 67.941406 56.476562 L 69.707031 56.476562 L 69.707031 54.710938 Z M 69.707031 56.476562 L 69.707031 58.246094 L 71.46875 58.246094 L 71.46875 56.476562 Z M 71.46875 54.710938 L 71.46875 56.476562 L 73.234375 56.476562 L 73.234375 54.710938 Z M 73.234375 56.476562 L 73.234375 58.246094 L 75 58.246094 L 75 56.476562 Z M 75 54.710938 L 75 56.476562 L 76.765625 56.476562 L 76.765625 54.710938 Z M 76.765625 56.476562 L 76.765625 58.246094 L 78.53125 58.246094 L 78.53125 56.476562 Z M 78.53125 54.710938 L 78.53125 56.476562 L 80.292969 56.476562 L 80.292969 54.710938 Z M 80.292969 56.476562 L 80.292969 58.246094 L 82.058594 58.246094 L 82.058594 56.476562 Z M 82.058594 54.710938 L 82.058594 56.476562 L 83.824219 56.476562 L 83.824219 54.710938 Z M 83.824219 56.476562 L 83.824219 58.246094 L 85.589844 58.246094 L 85.589844 56.476562 Z M 85.589844 54.710938 L 85.589844 56.476562 L 87.351562 56.476562 L 87.351562 54.710938 Z M 87.351562 56.476562 L 87.351562 58.246094 L 89.117188 58.246094 L 89.117188 56.476562 Z M 89.117188 54.710938 L 89.117188 56.476562 L 90.882812 56.476562 L 90.882812 54.710938 Z M 90.882812 56.476562 L 90.882812 58.246094 L 92.648438 58.246094 L 92.648438 56.476562 Z M 90.882812 67.082031 L 90.882812 68.851562 L 92.648438 68.851562 L 92.648438 67.082031 Z M 89.117188 68.851562 L 89.117188 70.617188 L 90.882812 70.617188 L 90.882812 68.851562 Z M 90.882812 70.617188 L 90.882812 72.386719 L 92.648438 72.386719 L 92.648438 70.617188 Z M 89.117188 72.386719 L 89.117188 74.152344 L 90.882812 74.152344 L 90.882812 72.386719 Z M 90.882812 74.152344 L 90.882812 75.921875 L 92.648438 75.921875 L 92.648438 74.152344 Z M 89.117188 75.921875 L 89.117188 77.6875 L 90.882812 77.6875 L 90.882812 75.921875 Z M 92.648438 65.316406 L 92.648438 67.082031 L 94.410156 67.082031 L 94.410156 65.316406 Z M 92.648438 61.78125 L 92.648438 63.546875 L 94.410156 63.546875 L 94.410156 61.78125 Z M 94.410156 63.546875 L 94.410156 65.316406 L 96.175781 65.316406 L 96.175781 63.546875 Z M 92.648438 58.246094 L 92.648438 60.011719 L 94.410156 60.011719 L 94.410156 58.246094 Z M 94.410156 60.011719 L 94.410156 61.78125 L 96.175781 61.78125 L 96.175781 60.011719 Z M 94.410156 67.082031 L 94.410156 68.851562 L 96.175781 68.851562 L 96.175781 67.082031 Z M 92.648438 68.851562 L 92.648438 70.617188 L 94.410156 70.617188 L 94.410156 68.851562 Z M 94.410156 70.617188 L 94.410156 72.386719 L 96.175781 72.386719 L 96.175781 70.617188 Z M 92.648438 72.386719 L 92.648438 74.152344 L 94.410156 74.152344 L 94.410156 72.386719 Z M 96.175781 65.316406 L 96.175781 67.082031 L 97.941406 67.082031 L 97.941406 65.316406 Z M 96.175781 61.78125 L 96.175781 63.546875 L 97.941406 63.546875 L 97.941406 61.78125 Z M 97.941406 63.546875 L 97.941406 65.316406 L 99.707031 65.316406 L 99.707031 63.546875 Z M 97.941406 67.082031 L 97.941406 68.851562 L 99.707031 68.851562 L 99.707031 67.082031 Z M 96.175781 68.851562 L 96.175781 70.617188 L 97.941406 70.617188 L 97.941406 68.851562 Z M 99.707031 65.316406 L 99.707031 67.082031 L 101.46875 67.082031 L 101.46875 65.316406 Z M 99.707031 65.316406 " fill-opacity="0.2" fill-rule="nonzero"/><g clip-path="url(#dfd2e15c39)"><path fill="#000000" d="M 105 65.316406 L 105 67.082031 L 103.234375 67.082031 L 103.234375 68.851562 L 101.46875 68.851562 L 101.46875 67.082031 L 89.117188 67.082031 L 89.117188 70.617188 L 87.351562 70.617188 L 87.351562 67.082031 L 64.410156 67.082031 L 64.410156 70.617188 L 62.648438 70.617188 L 62.648438 67.082031 L 50.292969 67.082031 L 50.292969 68.851562 L 48.53125 68.851562 L 48.53125 67.082031 L 46.765625 67.082031 L 46.765625 65.316406 L 48.53125 65.316406 L 48.53125 63.546875 L 50.292969 63.546875 L 50.292969 65.316406 L 62.648438 65.316406 L 62.648438 63.546875 L 64.410156 63.546875 L 64.410156 65.316406 L 87.351562 65.316406 L 87.351562 63.546875 L 89.117188 63.546875 L 89.117188 65.316406 L 101.46875 65.316406 L 101.46875 63.546875 L 103.234375 63.546875 L 103.234375 65.316406 Z M 99.707031 70.617188 L 101.46875 70.617188 L 101.46875 68.851562 L 99.707031 68.851562 Z M 101.46875 63.546875 L 101.46875 61.78125 L 99.707031 61.78125 L 99.707031 63.546875 Z M 97.941406 72.386719 L 99.707031 72.386719 L 99.707031 70.617188 L 97.941406 70.617188 Z M 99.707031 61.78125 L 99.707031 60.011719 L 97.941406 60.011719 L 97.941406 61.78125 Z M 96.175781 74.152344 L 97.941406 74.152344 L 97.941406 72.386719 L 96.175781 72.386719 Z M 97.941406 60.011719 L 97.941406 58.246094 L 96.175781 58.246094 L 96.175781 60.011719 Z M 94.410156 75.921875 L 96.175781 75.921875 L 96.175781 74.152344 L 94.410156 74.152344 Z M 96.175781 58.246094 L 96.175781 56.476562 L 94.410156 56.476562 L 94.410156 58.246094 Z M 92.648438 77.6875 L 94.410156 77.6875 L 94.410156 75.921875 L 92.648438 75.921875 Z M 94.410156 56.476562 L 94.410156 54.710938 L 92.648438 54.710938 L 92.648438 56.476562 Z M 90.882812 79.457031 L 92.648438 79.457031 L 92.648438 77.6875 L 90.882812 77.6875 Z M 89.117188 81.222656 L 90.882812 81.222656 L 90.882812 79.457031 L 89.117188 79.457031 Z M 87.351562 82.992188 L 89.117188 82.992188 L 89.117188 81.222656 L 87.351562 81.222656 Z M 85.589844 84.757812 L 87.351562 84.757812 L 87.351562 82.992188 L 85.589844 82.992188 Z M 85.589844 72.386719 L 85.589844 74.152344 L 87.351562 74.152344 L 87.351562 70.617188 L 85.589844 70.617188 Z M 85.589844 61.78125 L 85.589844 63.546875 L 87.351562 63.546875 L 87.351562 61.78125 Z M 83.824219 86.527344 L 85.589844 86.527344 L 85.589844 84.757812 L 83.824219 84.757812 Z M 83.824219 75.921875 L 83.824219 77.6875 L 85.589844 77.6875 L 85.589844 74.152344 L 83.824219 74.152344 Z M 85.589844 61.78125 L 85.589844 60.011719 L 83.824219 60.011719 L 83.824219 61.78125 Z M 82.058594 88.292969 L 83.824219 88.292969 L 83.824219 86.527344 L 82.058594 86.527344 Z M 82.058594 79.457031 L 82.058594 81.222656 L 83.824219 81.222656 L 83.824219 77.6875 L 82.058594 77.6875 Z M 83.824219 60.011719 L 83.824219 58.246094 L 82.058594 58.246094 L 82.058594 60.011719 Z M 80.292969 90.0625 L 82.058594 90.0625 L 82.058594 88.292969 L 80.292969 88.292969 Z M 80.292969 82.992188 L 82.058594 82.992188 L 82.058594 81.222656 L 80.292969 81.222656 Z M 82.058594 58.246094 L 82.058594 56.476562 L 80.292969 56.476562 L 80.292969 58.246094 Z M 78.53125 91.828125 L 80.292969 91.828125 L 80.292969 90.0625 L 78.53125 90.0625 Z M 78.53125 84.757812 L 78.53125 86.527344 L 80.292969 86.527344 L 80.292969 82.992188 L 78.53125 82.992188 Z M 76.765625 88.292969 L 76.765625 90.0625 L 78.53125 90.0625 L 78.53125 86.527344 L 76.765625 86.527344 Z M 76.765625 90.0625 L 75 90.0625 L 75 91.828125 L 73.234375 91.828125 L 73.234375 93.597656 L 75 93.597656 L 75 95.363281 L 76.765625 95.363281 L 76.765625 93.597656 L 78.53125 93.597656 L 78.53125 91.828125 L 76.765625 91.828125 Z M 75 86.527344 L 73.234375 86.527344 L 73.234375 90.0625 L 75 90.0625 Z M 71.46875 90.0625 L 71.46875 91.828125 L 73.234375 91.828125 L 73.234375 90.0625 Z M 73.234375 82.992188 L 71.46875 82.992188 L 71.46875 86.527344 L 73.234375 86.527344 Z M 69.707031 88.292969 L 69.707031 90.0625 L 71.46875 90.0625 L 71.46875 88.292969 Z M 69.707031 81.222656 L 69.707031 82.992188 L 71.46875 82.992188 L 71.46875 81.222656 Z M 71.46875 56.476562 L 69.707031 56.476562 L 69.707031 58.246094 L 71.46875 58.246094 Z M 67.941406 86.527344 L 67.941406 88.292969 L 69.707031 88.292969 L 69.707031 86.527344 Z M 69.707031 77.6875 L 67.941406 77.6875 L 67.941406 81.222656 L 69.707031 81.222656 Z M 69.707031 58.246094 L 67.941406 58.246094 L 67.941406 60.011719 L 69.707031 60.011719 Z M 66.175781 84.757812 L 66.175781 86.527344 L 67.941406 86.527344 L 67.941406 84.757812 Z M 67.941406 74.152344 L 66.175781 74.152344 L 66.175781 77.6875 L 67.941406 77.6875 Z M 67.941406 60.011719 L 66.175781 60.011719 L 66.175781 61.78125 L 67.941406 61.78125 Z M 64.410156 82.992188 L 64.410156 84.757812 L 66.175781 84.757812 L 66.175781 82.992188 Z M 64.410156 74.152344 L 66.175781 74.152344 L 66.175781 70.617188 L 64.410156 70.617188 Z M 66.175781 61.78125 L 64.410156 61.78125 L 64.410156 63.546875 L 66.175781 63.546875 Z M 62.648438 81.222656 L 62.648438 82.992188 L 64.410156 82.992188 L 64.410156 81.222656 Z M 60.882812 79.457031 L 60.882812 81.222656 L 62.648438 81.222656 L 62.648438 79.457031 Z M 62.648438 54.710938 L 71.46875 54.710938 L 71.46875 56.476562 L 73.234375 56.476562 L 73.234375 54.710938 L 78.53125 54.710938 L 78.53125 56.476562 L 80.292969 56.476562 L 80.292969 54.710938 L 92.648438 54.710938 L 92.648438 52.941406 L 59.117188 52.941406 L 59.117188 54.710938 Z M 59.117188 77.6875 L 59.117188 79.457031 L 60.882812 79.457031 L 60.882812 77.6875 Z M 57.351562 75.921875 L 57.351562 77.6875 L 59.117188 77.6875 L 59.117188 75.921875 Z M 59.117188 54.710938 L 57.351562 54.710938 L 57.351562 56.476562 L 59.117188 56.476562 Z M 55.589844 74.152344 L 55.589844 75.921875 L 57.351562 75.921875 L 57.351562 74.152344 Z M 57.351562 56.476562 L 55.589844 56.476562 L 55.589844 58.246094 L 57.351562 58.246094 Z M 53.824219 72.386719 L 53.824219 74.152344 L 55.589844 74.152344 L 55.589844 72.386719 Z M 55.589844 58.246094 L 53.824219 58.246094 L 53.824219 60.011719 L 55.589844 60.011719 Z M 52.058594 70.617188 L 52.058594 72.386719 L 53.824219 72.386719 L 53.824219 70.617188 Z M 53.824219 60.011719 L 52.058594 60.011719 L 52.058594 61.78125 L 53.824219 61.78125 Z M 50.292969 68.851562 L 50.292969 70.617188 L 52.058594 70.617188 L 52.058594 68.851562 Z M 52.058594 61.78125 L 50.292969 61.78125 L 50.292969 63.546875 L 52.058594 63.546875 Z M 52.058594 61.78125 " fill-opacity="1" fill-rule="nonzero"/></g><path fill="#000000" d="M 75 90.0625 L 75 91.828125 L 73.234375 91.828125 L 73.234375 90.0625 Z M 71.46875 88.292969 L 71.46875 90.0625 L 73.234375 90.0625 L 73.234375 88.292969 Z M 69.707031 86.527344 L 69.707031 88.292969 L 71.46875 88.292969 L 71.46875 86.527344 Z M 67.941406 84.757812 L 67.941406 86.527344 L 69.707031 86.527344 L 69.707031 84.757812 Z M 66.175781 82.992188 L 66.175781 84.757812 L 67.941406 84.757812 L 67.941406 82.992188 Z M 64.410156 81.222656 L 64.410156 82.992188 L 66.175781 82.992188 L 66.175781 81.222656 Z M 62.648438 79.457031 L 62.648438 81.222656 L 64.410156 81.222656 L 64.410156 79.457031 Z M 60.882812 77.6875 L 60.882812 79.457031 L 62.648438 79.457031 L 62.648438 77.6875 Z M 59.117188 75.921875 L 59.117188 77.6875 L 60.882812 77.6875 L 60.882812 75.921875 Z M 60.882812 54.710938 L 59.117188 54.710938 L 59.117188 56.476562 L 60.882812 56.476562 Z M 57.351562 74.152344 L 57.351562 75.921875 L 59.117188 75.921875 L 59.117188 74.152344 Z M 59.117188 56.476562 L 57.351562 56.476562 L 57.351562 58.246094 L 59.117188 58.246094 Z M 55.589844 72.386719 L 55.589844 74.152344 L 57.351562 74.152344 L 57.351562 72.386719 Z M 57.351562 58.246094 L 55.589844 58.246094 L 55.589844 60.011719 L 57.351562 60.011719 Z M 53.824219 70.617188 L 53.824219 72.386719 L 55.589844 72.386719 L 55.589844 70.617188 Z M 55.589844 60.011719 L 53.824219 60.011719 L 53.824219 61.78125 L 55.589844 61.78125 Z M 52.058594 68.851562 L 52.058594 70.617188 L 53.824219 70.617188 L 53.824219 68.851562 Z M 53.824219 61.78125 L 52.058594 61.78125 L 52.058594 63.546875 L 53.824219 63.546875 Z M 50.292969 67.082031 L 50.292969 68.851562 L 52.058594 68.851562 L 52.058594 67.082031 Z M 52.058594 63.546875 L 50.292969 63.546875 L 50.292969 65.316406 L 52.058594 65.316406 Z M 52.058594 63.546875 " fill-opacity="0.3" fill-rule="nonzero"/><path fill="#000000" d="M 71.46875 58.246094 L 71.46875 60.011719 L 69.707031 60.011719 L 69.707031 58.246094 Z M 71.46875 56.476562 L 71.46875 58.246094 L 73.234375 58.246094 L 73.234375 56.476562 Z M 67.941406 60.011719 L 67.941406 61.78125 L 69.707031 61.78125 L 69.707031 60.011719 Z M 67.941406 63.546875 L 67.941406 61.78125 L 66.175781 61.78125 L 66.175781 63.546875 " fill-opacity="0.3" fill-rule="nonzero"/><path fill="#d7f7ff" d="M 75 68.851562 L 73.234375 68.851562 L 73.234375 67.082031 L 71.46875 67.082031 L 71.46875 68.851562 L 69.707031 68.851562 L 69.707031 70.617188 L 71.46875 70.617188 L 71.46875 72.386719 L 73.234375 72.386719 L 73.234375 70.617188 L 75 70.617188 Z M 75 68.851562 " fill-opacity="1" fill-rule="nonzero"/><path fill="#d7f7ff" d="M 62.648438 60.011719 L 60.882812 60.011719 L 60.882812 58.246094 L 59.117188 58.246094 L 59.117188 60.011719 L 57.351562 60.011719 L 57.351562 61.78125 L 59.117188 61.78125 L 59.117188 63.546875 L 60.882812 63.546875 L 60.882812 61.78125 L 62.648438 61.78125 Z M 62.648438 60.011719 " fill-opacity="1" fill-rule="nonzero"/><path fill="#92deff" d="M 94.410156 70.617188 L 92.648438 70.617188 L 92.648438 68.851562 L 90.882812 68.851562 L 90.882812 70.617188 L 89.117188 70.617188 L 89.117188 72.386719 L 90.882812 72.386719 L 90.882812 74.152344 L 92.648438 74.152344 L 92.648438 72.386719 L 94.410156 72.386719 Z M 94.410156 70.617188 " fill-opacity="1" fill-rule="nonzero"/><path fill="#ffffff" d="M 60.882812 63.546875 L 62.648438 63.546875 L 62.648438 65.316406 L 52.058594 65.316406 L 52.058594 63.546875 Z M 99.707031 63.546875 L 99.707031 61.78125 L 97.941406 61.78125 L 97.941406 63.546875 L 89.117188 63.546875 L 89.117188 65.316406 L 101.46875 65.316406 L 101.46875 63.546875 Z M 96.175781 60.011719 L 96.175781 61.78125 L 97.941406 61.78125 L 97.941406 60.011719 Z M 94.410156 58.246094 L 94.410156 60.011719 L 96.175781 60.011719 L 96.175781 58.246094 Z M 92.648438 56.476562 L 92.648438 58.246094 L 94.410156 58.246094 L 94.410156 56.476562 Z M 90.882812 54.710938 L 80.292969 54.710938 L 80.292969 56.476562 L 92.648438 56.476562 L 92.648438 54.710938 Z M 67.941406 54.710938 L 60.882812 54.710938 L 60.882812 56.476562 L 71.46875 56.476562 L 71.46875 54.710938 Z M 67.941406 54.710938 " fill-opacity="0.7" fill-rule="nonzero"/><path fill="#ffffff" d="M 82.058594 58.246094 L 82.058594 60.011719 L 80.292969 60.011719 L 80.292969 58.246094 Z M 78.53125 56.476562 L 78.53125 58.246094 L 80.292969 58.246094 L 80.292969 56.476562 Z M 73.234375 54.710938 L 73.234375 56.476562 L 78.53125 56.476562 L 78.53125 54.710938 Z M 82.058594 60.011719 L 82.058594 61.78125 L 83.824219 61.78125 L 83.824219 60.011719 Z M 85.589844 63.546875 L 85.589844 61.78125 L 83.824219 61.78125 L 83.824219 63.546875 L 64.410156 63.546875 L 64.410156 65.316406 L 87.351562 65.316406 L 87.351562 63.546875 Z M 85.589844 63.546875 " fill-opacity="1" fill-rule="nonzero"/><path fill="#ffffff" d="M 75 86.527344 L 76.765625 86.527344 L 76.765625 90.0625 L 75 90.0625 Z M 76.765625 84.757812 L 76.765625 86.527344 L 78.53125 86.527344 L 78.53125 82.992188 L 76.765625 82.992188 Z M 78.53125 82.992188 L 80.292969 82.992188 L 80.292969 81.222656 L 78.53125 81.222656 Z M 83.824219 72.386719 L 83.824219 74.152344 L 85.589844 74.152344 L 85.589844 70.617188 L 83.824219 70.617188 Z M 80.292969 79.457031 L 80.292969 81.222656 L 82.058594 81.222656 L 82.058594 77.6875 L 80.292969 77.6875 Z M 85.589844 67.082031 L 85.589844 70.617188 L 87.351562 70.617188 L 87.351562 67.082031 Z M 82.058594 75.921875 L 82.058594 77.6875 L 83.824219 77.6875 L 83.824219 74.152344 L 82.058594 74.152344 Z M 82.058594 75.921875 " fill-opacity="1" fill-rule="nonzero"/><path fill="#ffffff" d="M 101.46875 67.082031 L 101.46875 68.851562 L 99.707031 68.851562 L 99.707031 67.082031 Z M 97.941406 68.851562 L 97.941406 70.617188 L 99.707031 70.617188 L 99.707031 68.851562 Z M 96.175781 70.617188 L 96.175781 72.386719 L 97.941406 72.386719 L 97.941406 70.617188 Z M 94.410156 72.386719 L 94.410156 74.152344 L 96.175781 74.152344 L 96.175781 72.386719 Z M 92.648438 74.152344 L 92.648438 75.921875 L 94.410156 75.921875 L 94.410156 74.152344 Z M 90.882812 75.921875 L 90.882812 77.6875 L 92.648438 77.6875 L 92.648438 75.921875 Z M 89.117188 77.6875 L 89.117188 79.457031 L 90.882812 79.457031 L 90.882812 77.6875 Z M 87.351562 79.457031 L 87.351562 81.222656 L 89.117188 81.222656 L 89.117188 79.457031 Z M 85.589844 81.222656 L 85.589844 82.992188 L 87.351562 82.992188 L 87.351562 81.222656 Z M 83.824219 82.992188 L 83.824219 84.757812 L 85.589844 84.757812 L 85.589844 82.992188 Z M 82.058594 84.757812 L 82.058594 86.527344 L 83.824219 86.527344 L 83.824219 84.757812 Z M 80.292969 86.527344 L 80.292969 88.292969 L 82.058594 88.292969 L 82.058594 86.527344 Z M 78.53125 88.292969 L 78.53125 90.0625 L 80.292969 90.0625 L 80.292969 88.292969 Z M 76.765625 90.0625 L 76.765625 91.828125 L 78.53125 91.828125 L 78.53125 90.0625 Z M 76.765625 90.0625 " fill-opacity="0.6" fill-rule="nonzero"/></svg>