<svg xmlns="http://www.w3.org/2000/svg" xmlns:xlink="http://www.w3.org/1999/xlink" width="40" zoomAndPan="magnify" viewBox="0 0 30 30.000001" height="40" preserveAspectRatio="xMidYMid meet" version="1.0"><defs><clipPath id="9053988bdf"><path d="M 5.414062 1 L 24 1 L 24 28.648438 L 5.414062 28.648438 Z M 5.414062 1 " clip-rule="nonzero"/></clipPath><clipPath id="7a1ba2d741"><path d="M 6 0.339844 L 24.285156 0.339844 L 24.285156 28 L 6 28 Z M 6 0.339844 " clip-rule="nonzero"/></clipPath><clipPath id="5a9cb73afd"><path d="M 6 0.339844 L 24.285156 0.339844 L 24.285156 28 L 6 28 Z M 6 0.339844 " clip-rule="nonzero"/></clipPath></defs><g clip-path="url(#9053988bdf)"><path fill="#000000" d="M 20.183594 20.320312 L 21.003906 20.320312 L 21.003906 21.152344 L 20.183594 21.152344 L 20.183594 21.984375 L 19.363281 21.984375 L 19.363281 22.816406 L 17.722656 22.816406 L 17.722656 23.652344 L 16.078125 23.652344 L 16.078125 25.316406 L 18.542969 25.316406 L 18.542969 26.148438 L 19.363281 26.148438 L 19.363281 26.980469 L 20.183594 26.980469 L 20.183594 28.644531 L 8.695312 28.644531 L 8.695312 26.980469 L 9.515625 26.980469 L 9.515625 26.148438 L 10.335938 26.148438 L 10.335938 25.316406 L 12.796875 25.316406 L 12.796875 23.652344 L 11.15625 23.652344 L 11.15625 22.816406 L 17.722656 22.816406 L 17.722656 21.984375 L 19.363281 21.984375 L 19.363281 21.152344 L 20.183594 21.152344 Z M 8.695312 21.152344 L 8.695312 21.984375 L 9.515625 21.984375 L 9.515625 21.152344 Z M 7.875 20.320312 L 7.875 18.65625 L 7.054688 18.65625 L 7.054688 20.320312 L 7.875 20.320312 L 7.875 21.152344 L 8.695312 21.152344 L 8.695312 20.320312 Z M 10.335938 21.984375 L 9.515625 21.984375 L 9.515625 22.816406 L 11.15625 22.816406 L 11.15625 21.984375 Z M 22.644531 11.996094 L 21.003906 11.996094 L 21.003906 5.339844 L 20.183594 5.339844 L 20.183594 3.671875 L 19.363281 3.671875 L 19.363281 2.839844 L 18.542969 2.839844 L 18.542969 2.007812 L 16.898438 2.007812 L 16.898438 1.175781 L 11.976562 1.175781 L 11.976562 2.007812 L 10.335938 2.007812 L 10.335938 2.839844 L 9.515625 2.839844 L 9.515625 3.671875 L 8.695312 3.671875 L 8.695312 5.339844 L 7.875 5.339844 L 7.875 11.996094 L 5.414062 11.996094 L 5.414062 12.828125 L 6.234375 12.828125 L 6.234375 18.65625 L 7.054688 18.65625 L 7.054688 12.828125 L 7.875 12.828125 L 7.875 17.824219 L 8.695312 17.824219 L 8.695312 19.488281 L 9.515625 19.488281 L 9.515625 20.320312 L 10.335938 20.320312 L 10.335938 21.152344 L 11.976562 21.152344 L 11.976562 21.984375 L 16.898438 21.984375 L 16.898438 21.152344 L 18.542969 21.152344 L 18.542969 20.320312 L 19.363281 20.320312 L 19.363281 19.488281 L 20.183594 19.488281 L 20.183594 17.824219 L 21.003906 17.824219 L 21.003906 12.828125 L 21.824219 12.828125 L 21.824219 18.65625 L 21.003906 18.65625 L 21.003906 20.320312 L 21.824219 20.320312 L 21.824219 18.65625 L 22.644531 18.65625 L 22.644531 12.828125 L 23.464844 12.828125 L 23.464844 11.996094 Z M 22.644531 11.996094 " fill-opacity="0.3" fill-rule="nonzero"/></g><g clip-path="url(#7a1ba2d741)"><path fill="#000000" d="M 10.335938 20.320312 L 10.335938 21.152344 L 9.515625 21.152344 L 9.515625 20.320312 Z M 16.898438 21.984375 L 11.976562 21.984375 L 11.976562 22.816406 L 13.617188 22.816406 L 13.617188 24.484375 L 11.15625 24.484375 L 11.15625 25.316406 L 10.335938 25.316406 L 10.335938 26.148438 L 9.515625 26.148438 L 9.515625 27.8125 L 21.003906 27.8125 L 21.003906 26.148438 L 20.183594 26.148438 L 20.183594 25.316406 L 19.363281 25.316406 L 19.363281 24.484375 L 16.898438 24.484375 L 16.898438 22.816406 L 18.542969 22.816406 L 18.542969 21.984375 Z M 8.695312 19.488281 L 8.695312 20.320312 L 9.515625 20.320312 L 9.515625 19.488281 Z M 8.695312 17.824219 L 7.875 17.824219 L 7.875 19.488281 L 8.695312 19.488281 Z M 11.15625 21.152344 L 10.335938 21.152344 L 10.335938 21.984375 L 11.976562 21.984375 L 11.976562 21.152344 Z M 18.542969 21.152344 L 18.542969 21.984375 L 20.183594 21.984375 L 20.183594 21.152344 Z M 23.464844 11.164062 L 21.824219 11.164062 L 21.824219 4.503906 L 21.003906 4.503906 L 21.003906 2.839844 L 20.183594 2.839844 L 20.183594 2.007812 L 19.363281 2.007812 L 19.363281 1.175781 L 17.722656 1.175781 L 17.722656 0.34375 L 12.796875 0.34375 L 12.796875 1.175781 L 11.15625 1.175781 L 11.15625 2.007812 L 10.335938 2.007812 L 10.335938 2.839844 L 9.515625 2.839844 L 9.515625 4.503906 L 8.695312 4.503906 L 8.695312 11.164062 L 6.234375 11.164062 L 6.234375 11.996094 L 7.054688 11.996094 L 7.054688 17.824219 L 7.875 17.824219 L 7.875 11.996094 L 8.695312 11.996094 L 8.695312 16.992188 L 9.515625 16.992188 L 9.515625 18.65625 L 10.335938 18.65625 L 10.335938 19.488281 L 11.15625 19.488281 L 11.15625 20.320312 L 12.796875 20.320312 L 12.796875 21.152344 L 17.722656 21.152344 L 17.722656 20.320312 L 19.363281 20.320312 L 19.363281 19.488281 L 20.183594 19.488281 L 20.183594 18.65625 L 21.003906 18.65625 L 21.003906 16.992188 L 21.824219 16.992188 L 21.824219 11.996094 L 22.644531 11.996094 L 22.644531 17.824219 L 23.464844 17.824219 L 23.464844 11.996094 L 24.285156 11.996094 L 24.285156 11.164062 Z M 21.824219 18.65625 L 21.824219 19.488281 L 22.644531 19.488281 L 22.644531 17.824219 L 21.824219 17.824219 Z M 21.003906 20.320312 L 21.824219 20.320312 L 21.824219 19.488281 L 21.003906 19.488281 Z M 20.183594 21.152344 L 21.003906 21.152344 L 21.003906 20.320312 L 20.183594 20.320312 Z M 20.183594 21.152344 " fill-opacity="1" fill-rule="nonzero"/></g><path fill="#d1d3d4" d="M 20.183594 13.660156 L 21.003906 13.660156 L 21.003906 16.992188 L 20.183594 16.992188 L 20.183594 18.65625 L 19.363281 18.65625 L 19.363281 19.488281 L 17.722656 19.488281 L 17.722656 20.320312 L 12.796875 20.320312 L 12.796875 19.488281 L 11.15625 19.488281 L 11.15625 18.65625 L 10.335938 18.65625 L 10.335938 16.992188 L 9.515625 16.992188 L 9.515625 13.660156 Z M 19.363281 25.316406 L 11.15625 25.316406 L 11.15625 26.148438 L 10.335938 26.148438 L 10.335938 26.980469 L 20.183594 26.980469 L 20.183594 26.148438 L 19.363281 26.148438 Z M 16.078125 24.484375 L 16.078125 22.816406 L 14.4375 22.816406 L 14.4375 24.484375 Z M 19.363281 11.164062 L 9.515625 11.164062 L 9.515625 12.828125 L 21.003906 12.828125 L 21.003906 11.164062 Z M 19.363281 11.164062 " fill-opacity="1" fill-rule="nonzero"/><path fill="#606060" d="M 20.183594 4.503906 L 20.183594 2.839844 L 19.363281 2.839844 L 19.363281 2.007812 L 17.722656 2.007812 L 17.722656 1.175781 L 12.796875 1.175781 L 12.796875 2.007812 L 11.15625 2.007812 L 11.15625 2.839844 L 10.335938 2.839844 L 10.335938 4.503906 L 9.515625 4.503906 L 9.515625 10.332031 L 21.003906 10.332031 L 21.003906 4.503906 Z M 20.183594 4.503906 " fill-opacity="1" fill-rule="nonzero"/><path fill="#000000" d="M 19.363281 9.5 L 19.363281 8.667969 L 20.183594 8.667969 L 20.183594 9.5 Z M 20.183594 7.835938 L 20.183594 7.003906 L 19.363281 7.003906 L 19.363281 7.835938 Z M 20.183594 6.171875 L 20.183594 5.339844 L 19.363281 5.339844 L 19.363281 6.171875 Z M 21.003906 5.339844 L 21.003906 4.503906 L 20.183594 4.503906 L 20.183594 5.339844 Z M 21.003906 7.003906 L 21.003906 6.171875 L 20.183594 6.171875 L 20.183594 7.003906 Z M 21.003906 8.667969 L 21.003906 7.835938 L 20.183594 7.835938 L 20.183594 8.667969 Z M 21.003906 10.332031 L 21.003906 9.5 L 20.183594 9.5 L 20.183594 10.332031 Z M 18.542969 10.332031 L 19.363281 10.332031 L 19.363281 9.5 L 18.542969 9.5 Z M 18.542969 8.667969 L 19.363281 8.667969 L 19.363281 7.835938 L 18.542969 7.835938 Z M 18.542969 6.171875 L 18.542969 7.003906 L 19.363281 7.003906 L 19.363281 6.171875 Z M 19.363281 5.339844 L 19.363281 4.503906 L 18.542969 4.503906 L 18.542969 5.339844 Z M 19.363281 2.839844 L 18.542969 2.839844 L 18.542969 3.671875 L 19.363281 3.671875 Z M 17.722656 8.667969 L 17.722656 9.5 L 18.542969 9.5 L 18.542969 8.667969 Z M 17.722656 7.835938 L 18.542969 7.835938 L 18.542969 7.003906 L 17.722656 7.003906 Z M 17.722656 5.339844 L 17.722656 6.171875 L 18.542969 6.171875 L 18.542969 5.339844 Z M 18.542969 4.503906 L 18.542969 3.671875 L 17.722656 3.671875 L 17.722656 4.503906 Z M 16.898438 10.332031 L 17.722656 10.332031 L 17.722656 9.5 L 16.898438 9.5 Z M 16.898438 7.835938 L 16.898438 8.667969 L 17.722656 8.667969 L 17.722656 7.835938 Z M 16.898438 7.003906 L 17.722656 7.003906 L 17.722656 6.171875 L 16.898438 6.171875 Z M 17.722656 5.339844 L 17.722656 4.503906 L 16.898438 4.503906 L 16.898438 5.339844 Z M 17.722656 3.671875 L 17.722656 2.839844 L 16.898438 2.839844 L 16.898438 3.671875 Z M 18.542969 2.839844 L 18.542969 2.007812 L 17.722656 2.007812 L 17.722656 2.839844 Z M 17.722656 2.007812 L 17.722656 1.175781 L 16.898438 1.175781 L 16.898438 2.007812 Z M 20.183594 4.503906 L 20.183594 3.671875 L 19.363281 3.671875 L 19.363281 4.503906 Z M 16.078125 8.667969 L 16.078125 9.5 L 16.898438 9.5 L 16.898438 8.667969 Z M 16.078125 7.003906 L 16.078125 7.835938 L 16.898438 7.835938 L 16.898438 7.003906 Z M 16.898438 6.171875 L 16.898438 5.339844 L 16.078125 5.339844 L 16.078125 6.171875 Z M 16.898438 4.503906 L 16.898438 3.671875 L 16.078125 3.671875 L 16.078125 4.503906 Z M 16.898438 2.839844 L 16.898438 2.007812 L 16.078125 2.007812 L 16.078125 2.839844 Z M 15.257812 10.332031 L 16.078125 10.332031 L 16.078125 9.5 L 15.257812 9.5 Z M 15.257812 7.835938 L 15.257812 8.667969 L 16.078125 8.667969 L 16.078125 7.835938 Z M 15.257812 6.171875 L 15.257812 7.003906 L 16.078125 7.003906 L 16.078125 6.171875 Z M 16.078125 5.339844 L 16.078125 4.503906 L 15.257812 4.503906 L 15.257812 5.339844 Z M 16.078125 3.671875 L 16.078125 2.839844 L 15.257812 2.839844 L 15.257812 3.671875 Z M 16.078125 1.175781 L 15.257812 1.175781 L 15.257812 2.007812 L 16.078125 2.007812 Z M 14.4375 8.667969 L 14.4375 9.5 L 15.257812 9.5 L 15.257812 8.667969 Z M 14.4375 7.003906 L 14.4375 7.835938 L 15.257812 7.835938 L 15.257812 7.003906 Z M 15.257812 6.171875 L 15.257812 5.339844 L 14.4375 5.339844 L 14.4375 6.171875 Z M 15.257812 3.671875 L 14.4375 3.671875 L 14.4375 4.503906 L 15.257812 4.503906 Z M 15.257812 2.839844 L 15.257812 2.007812 L 14.4375 2.007812 L 14.4375 2.839844 Z M 13.617188 10.332031 L 14.4375 10.332031 L 14.4375 9.5 L 13.617188 9.5 Z M 13.617188 7.835938 L 13.617188 8.667969 L 14.4375 8.667969 L 14.4375 7.835938 Z M 13.617188 6.171875 L 13.617188 7.003906 L 14.4375 7.003906 L 14.4375 6.171875 Z M 14.4375 5.339844 L 14.4375 4.503906 L 13.617188 4.503906 L 13.617188 5.339844 Z M 14.4375 2.839844 L 13.617188 2.839844 L 13.617188 3.671875 L 14.4375 3.671875 Z M 14.4375 1.175781 L 13.617188 1.175781 L 13.617188 2.007812 L 14.4375 2.007812 Z M 12.796875 8.667969 L 12.796875 9.5 L 13.617188 9.5 L 13.617188 8.667969 Z M 12.796875 7.003906 L 12.796875 7.835938 L 13.617188 7.835938 L 13.617188 7.003906 Z M 13.617188 5.339844 L 12.796875 5.339844 L 12.796875 6.171875 L 13.617188 6.171875 Z M 13.617188 4.503906 L 13.617188 3.671875 L 12.796875 3.671875 L 12.796875 4.503906 Z M 13.617188 2.007812 L 12.796875 2.007812 L 12.796875 2.839844 L 13.617188 2.839844 Z M 11.976562 10.332031 L 12.796875 10.332031 L 12.796875 9.5 L 11.976562 9.5 Z M 11.976562 7.835938 L 11.976562 8.667969 L 12.796875 8.667969 L 12.796875 7.835938 Z M 12.796875 6.171875 L 11.976562 6.171875 L 11.976562 7.003906 L 12.796875 7.003906 Z M 12.796875 4.503906 L 11.976562 4.503906 L 11.976562 5.339844 L 12.796875 5.339844 Z M 12.796875 3.671875 L 12.796875 2.839844 L 11.976562 2.839844 L 11.976562 3.671875 Z M 11.15625 8.667969 L 11.15625 9.5 L 11.976562 9.5 L 11.976562 8.667969 Z M 11.976562 7.003906 L 11.15625 7.003906 L 11.15625 7.835938 L 11.976562 7.835938 Z M 11.976562 5.339844 L 11.15625 5.339844 L 11.15625 6.171875 L 11.976562 6.171875 Z M 11.976562 3.671875 L 11.15625 3.671875 L 11.15625 4.503906 L 11.976562 4.503906 Z M 11.976562 2.007812 L 11.15625 2.007812 L 11.15625 2.839844 L 11.976562 2.839844 Z M 10.335938 10.332031 L 11.15625 10.332031 L 11.15625 9.5 L 10.335938 9.5 Z M 11.15625 7.835938 L 10.335938 7.835938 L 10.335938 8.667969 L 11.15625 8.667969 Z M 11.15625 6.171875 L 10.335938 6.171875 L 10.335938 7.003906 L 11.15625 7.003906 Z M 11.15625 4.503906 L 10.335938 4.503906 L 10.335938 5.339844 L 11.15625 5.339844 Z M 10.335938 2.839844 L 10.335938 3.671875 L 11.15625 3.671875 L 11.15625 2.839844 Z M 9.515625 8.667969 L 9.515625 9.5 L 10.335938 9.5 L 10.335938 8.667969 Z M 9.515625 7.003906 L 9.515625 7.835938 L 10.335938 7.835938 L 10.335938 7.003906 Z M 9.515625 5.339844 L 9.515625 6.171875 L 10.335938 6.171875 L 10.335938 5.339844 Z M 9.515625 5.339844 " fill-opacity="0.5" fill-rule="nonzero"/><g clip-path="url(#5a9cb73afd)"><path fill="#000000" d="M 23.464844 11.164062 L 21.824219 11.164062 L 21.824219 4.503906 L 21.003906 4.503906 L 21.003906 10.332031 L 9.515625 10.332031 L 9.515625 4.503906 L 8.695312 4.503906 L 8.695312 11.164062 L 6.234375 11.164062 L 6.234375 11.996094 L 7.054688 11.996094 L 7.054688 17.824219 L 7.875 17.824219 L 7.875 11.996094 L 8.695312 11.996094 L 8.695312 16.992188 L 9.515625 16.992188 L 9.515625 13.660156 L 21.003906 13.660156 L 21.003906 16.992188 L 21.824219 16.992188 L 21.824219 11.996094 L 22.644531 11.996094 L 22.644531 17.824219 L 23.464844 17.824219 L 23.464844 11.996094 L 24.285156 11.996094 L 24.285156 11.164062 Z M 21.003906 12.828125 L 9.515625 12.828125 L 9.515625 11.164062 L 21.003906 11.164062 Z M 21.824219 17.824219 L 22.644531 17.824219 L 22.644531 19.488281 L 21.824219 19.488281 Z M 21.003906 19.488281 L 21.824219 19.488281 L 21.824219 20.320312 L 21.003906 20.320312 Z M 20.183594 20.320312 L 21.003906 20.320312 L 21.003906 21.152344 L 20.183594 21.152344 Z M 20.183594 16.992188 L 21.003906 16.992188 L 21.003906 18.65625 L 20.183594 18.65625 Z M 20.183594 3.671875 L 20.183594 2.839844 L 21.003906 2.839844 L 21.003906 4.503906 L 20.183594 4.503906 Z M 20.183594 26.980469 L 20.183594 26.148438 L 21.003906 26.148438 L 21.003906 27.8125 L 9.515625 27.8125 L 9.515625 26.148438 L 10.335938 26.148438 L 10.335938 26.980469 Z M 19.363281 26.148438 L 19.363281 25.316406 L 20.183594 25.316406 L 20.183594 26.148438 Z M 19.363281 18.65625 L 20.183594 18.65625 L 20.183594 19.488281 L 19.363281 19.488281 Z M 19.363281 2.839844 L 19.363281 2.007812 L 20.183594 2.007812 L 20.183594 2.839844 Z M 19.363281 21.152344 L 20.183594 21.152344 L 20.183594 21.984375 L 18.542969 21.984375 L 18.542969 21.152344 Z M 18.542969 19.488281 L 19.363281 19.488281 L 19.363281 20.320312 L 17.722656 20.320312 L 17.722656 19.488281 Z M 17.722656 2.007812 L 17.722656 1.175781 L 19.363281 1.175781 L 19.363281 2.007812 Z M 16.898438 21.984375 L 11.976562 21.984375 L 11.976562 22.816406 L 13.617188 22.816406 L 13.617188 24.484375 L 11.15625 24.484375 L 11.15625 25.316406 L 19.363281 25.316406 L 19.363281 24.484375 L 16.898438 24.484375 L 16.898438 22.816406 L 18.542969 22.816406 L 18.542969 21.984375 Z M 16.078125 23.652344 L 16.078125 24.484375 L 14.4375 24.484375 L 14.4375 22.816406 L 16.078125 22.816406 Z M 16.898438 20.320312 L 17.722656 20.320312 L 17.722656 21.152344 L 12.796875 21.152344 L 12.796875 20.320312 Z M 13.617188 1.175781 L 12.796875 1.175781 L 12.796875 0.34375 L 17.722656 0.34375 L 17.722656 1.175781 Z M 12.796875 19.488281 L 12.796875 20.320312 L 11.15625 20.320312 L 11.15625 19.488281 Z M 11.976562 2.007812 L 11.15625 2.007812 L 11.15625 1.175781 L 12.796875 1.175781 L 12.796875 2.007812 Z M 11.976562 21.152344 L 11.976562 21.984375 L 10.335938 21.984375 L 10.335938 21.152344 Z M 11.15625 26.148438 L 10.335938 26.148438 L 10.335938 25.316406 L 11.15625 25.316406 Z M 11.15625 18.65625 L 11.15625 19.488281 L 10.335938 19.488281 L 10.335938 18.65625 Z M 11.15625 2.839844 L 10.335938 2.839844 L 10.335938 2.007812 L 11.15625 2.007812 Z M 10.335938 20.320312 L 10.335938 21.152344 L 9.515625 21.152344 L 9.515625 20.320312 Z M 9.515625 17.824219 L 9.515625 16.992188 L 10.335938 16.992188 L 10.335938 18.65625 L 9.515625 18.65625 Z M 10.335938 4.503906 L 9.515625 4.503906 L 9.515625 2.839844 L 10.335938 2.839844 Z M 9.515625 19.488281 L 9.515625 20.320312 L 8.695312 20.320312 L 8.695312 19.488281 Z M 8.695312 18.65625 L 8.695312 19.488281 L 7.875 19.488281 L 7.875 17.824219 L 8.695312 17.824219 Z M 8.695312 18.65625 " fill-opacity="1" fill-rule="nonzero"/></g><path fill="#000000" d="M 11.15625 25.316406 L 11.976562 25.316406 L 11.976562 26.148438 L 11.15625 26.148438 Z M 14.4375 22.816406 L 14.4375 23.652344 L 16.078125 23.652344 L 16.078125 22.816406 Z M 10.335938 26.980469 L 11.15625 26.980469 L 11.15625 26.148438 L 10.335938 26.148438 Z M 10.335938 11.996094 L 10.335938 11.164062 L 9.515625 11.164062 L 9.515625 12.828125 L 10.335938 12.828125 Z M 11.976562 18.65625 L 11.15625 18.65625 L 11.15625 19.488281 L 12.796875 19.488281 L 12.796875 18.65625 Z M 16.078125 19.488281 L 12.796875 19.488281 L 12.796875 20.320312 L 16.898438 20.320312 L 16.898438 19.488281 Z M 11.15625 16.992188 L 10.335938 16.992188 L 10.335938 18.65625 L 11.15625 18.65625 Z M 10.335938 15.328125 L 10.335938 13.660156 L 9.515625 13.660156 L 9.515625 16.992188 L 10.335938 16.992188 Z M 10.335938 15.328125 " fill-opacity="0.3" fill-rule="nonzero"/><path fill="#000000" d="M 13.617188 2.007812 L 12.796875 2.007812 L 12.796875 1.175781 L 13.617188 1.175781 Z M 12.796875 2.839844 L 12.796875 2.007812 L 11.15625 2.007812 L 11.15625 2.839844 Z M 11.15625 3.671875 L 11.15625 2.839844 L 10.335938 2.839844 L 10.335938 4.503906 L 11.15625 4.503906 Z M 19.363281 9.5 L 10.335938 9.5 L 10.335938 4.503906 L 9.515625 4.503906 L 9.515625 10.332031 L 20.183594 10.332031 L 20.183594 9.5 Z M 19.363281 9.5 " fill-opacity="0.3" fill-rule="nonzero"/><path fill="#ffffff" d="M 20.183594 4.503906 L 20.183594 10.332031 L 21.003906 10.332031 L 21.003906 4.503906 Z M 20.183594 2.839844 L 19.363281 2.839844 L 19.363281 4.503906 L 20.183594 4.503906 Z M 18.542969 2.007812 L 17.722656 2.007812 L 17.722656 2.839844 L 19.363281 2.839844 L 19.363281 2.007812 Z M 16.898438 1.175781 L 16.898438 2.007812 L 17.722656 2.007812 L 17.722656 1.175781 Z M 16.898438 1.175781 " fill-opacity="0.3" fill-rule="nonzero"/><path fill="#ffffff" d="M 20.183594 13.660156 L 21.003906 13.660156 L 21.003906 16.992188 L 20.183594 16.992188 Z M 20.183594 11.996094 L 20.183594 12.828125 L 21.003906 12.828125 L 21.003906 11.164062 L 20.183594 11.164062 Z M 19.363281 17.824219 L 19.363281 18.65625 L 20.183594 18.65625 L 20.183594 16.992188 L 19.363281 16.992188 Z M 17.722656 18.65625 L 17.722656 19.488281 L 19.363281 19.488281 L 19.363281 18.65625 Z M 16.898438 20.320312 L 17.722656 20.320312 L 17.722656 19.488281 L 16.898438 19.488281 Z M 19.363281 26.980469 L 20.183594 26.980469 L 20.183594 26.148438 L 19.363281 26.148438 Z M 18.542969 25.316406 L 18.542969 26.148438 L 19.363281 26.148438 L 19.363281 25.316406 Z M 15.257812 24.484375 L 16.078125 24.484375 L 16.078125 23.652344 L 15.257812 23.652344 Z M 15.257812 24.484375 " fill-opacity="1" fill-rule="nonzero"/></svg>