<svg xmlns="http://www.w3.org/2000/svg" xmlns:xlink="http://www.w3.org/1999/xlink" zoomAndPan="magnify" preserveAspectRatio="xMidYMid meet" version="1.0" viewBox="52.31 45 45.75 60"><defs><clipPath id="93482dcd99"><path d="M 52.308594 46 L 97 46 L 97 105 L 52.308594 105 Z M 52.308594 46 " clip-rule="nonzero"/></clipPath><clipPath id="e3ba825cf0"><path d="M 53 45 L 98.058594 45 L 98.058594 104 L 53 104 Z M 53 45 " clip-rule="nonzero"/></clipPath><clipPath id="d88249205c"><path d="M 53 45 L 98.058594 45 L 98.058594 104 L 53 104 Z M 53 45 " clip-rule="nonzero"/></clipPath></defs><g clip-path="url(#93482dcd99)"><path fill="#000000" d="M 55.578125 82.292969 L 55.578125 83.914062 L 53.941406 83.914062 L 53.941406 82.292969 Z M 57.210938 85.53125 L 57.210938 87.152344 L 58.84375 87.152344 L 58.84375 85.53125 Z M 58.84375 87.152344 L 58.84375 88.773438 L 62.113281 88.773438 L 62.113281 87.152344 Z M 67.011719 69.328125 L 67.011719 67.707031 L 63.746094 67.707031 L 63.746094 69.328125 Z M 55.578125 83.914062 L 55.578125 85.53125 L 57.210938 85.53125 L 57.210938 83.914062 Z M 53.941406 79.050781 L 53.941406 69.328125 L 52.308594 69.328125 L 52.308594 82.292969 L 53.941406 82.292969 Z M 58.84375 64.46875 L 57.210938 64.46875 L 57.210938 66.085938 L 58.84375 66.085938 Z M 62.113281 64.46875 L 62.113281 62.847656 L 58.84375 62.847656 L 58.84375 64.46875 Z M 57.210938 66.085938 L 55.578125 66.085938 L 55.578125 67.707031 L 57.210938 67.707031 Z M 55.578125 67.707031 L 53.941406 67.707031 L 53.941406 69.328125 L 55.578125 69.328125 Z M 63.746094 69.328125 L 62.113281 69.328125 L 62.113281 70.949219 L 63.746094 70.949219 Z M 71.914062 72.570312 L 71.914062 70.949219 L 68.648438 70.949219 L 68.648438 72.570312 Z M 68.648438 72.570312 L 67.011719 72.570312 L 67.011719 74.191406 L 68.648438 74.191406 Z M 94.789062 53.125 L 94.789062 51.503906 L 93.15625 51.503906 L 93.15625 49.882812 L 91.519531 49.882812 L 91.519531 48.261719 L 89.886719 48.261719 L 89.886719 46.640625 L 67.011719 46.640625 L 67.011719 48.261719 L 65.378906 48.261719 L 65.378906 49.882812 L 63.746094 49.882812 L 63.746094 62.847656 L 65.378906 62.847656 L 65.378906 64.46875 L 67.011719 64.46875 L 67.011719 66.085938 L 81.71875 66.085938 L 81.71875 85.53125 L 67.011719 85.53125 L 67.011719 87.152344 L 65.378906 87.152344 L 65.378906 88.773438 L 63.746094 88.773438 L 63.746094 101.738281 L 65.378906 101.738281 L 65.378906 103.359375 L 67.011719 103.359375 L 67.011719 104.976562 L 89.886719 104.976562 L 89.886719 103.359375 L 91.519531 103.359375 L 91.519531 101.738281 L 93.15625 101.738281 L 93.15625 100.117188 L 94.789062 100.117188 L 94.789062 98.496094 L 96.421875 98.496094 L 96.421875 53.125 Z M 67.011719 74.191406 L 65.378906 74.191406 L 65.378906 77.429688 L 67.011719 77.429688 Z M 68.648438 79.050781 L 68.648438 77.429688 L 67.011719 77.429688 L 67.011719 79.050781 Z M 62.113281 70.949219 L 60.476562 70.949219 L 60.476562 72.570312 L 62.113281 72.570312 Z M 60.476562 79.050781 L 60.476562 80.671875 L 62.113281 80.671875 L 62.113281 79.050781 Z M 70.28125 80.671875 L 71.914062 80.671875 L 71.914062 79.050781 L 68.648438 79.050781 L 68.648438 80.671875 Z M 60.476562 75.808594 L 60.476562 72.570312 L 58.84375 72.570312 L 58.84375 79.050781 L 60.476562 79.050781 Z M 63.746094 82.292969 L 63.746094 80.671875 L 62.113281 80.671875 L 62.113281 82.292969 Z M 65.378906 83.914062 L 67.011719 83.914062 L 67.011719 82.292969 L 63.746094 82.292969 L 63.746094 83.914062 Z M 65.378906 83.914062 " fill-opacity="0.3" fill-rule="nonzero"/></g><g clip-path="url(#e3ba825cf0)"><path fill="#000000" d="M 57.210938 80.671875 L 57.210938 82.292969 L 55.578125 82.292969 L 55.578125 80.671875 Z M 58.84375 83.914062 L 58.84375 85.53125 L 60.476562 85.53125 L 60.476562 83.914062 Z M 60.476562 85.53125 L 60.476562 87.152344 L 63.746094 87.152344 L 63.746094 85.53125 Z M 68.648438 67.707031 L 68.648438 66.085938 L 65.378906 66.085938 L 65.378906 67.707031 Z M 57.210938 82.292969 L 57.210938 83.914062 L 58.84375 83.914062 L 58.84375 82.292969 Z M 55.578125 77.429688 L 55.578125 67.707031 L 53.941406 67.707031 L 53.941406 80.671875 L 55.578125 80.671875 Z M 60.476562 62.847656 L 58.84375 62.847656 L 58.84375 64.46875 L 60.476562 64.46875 Z M 63.746094 62.847656 L 63.746094 61.226562 L 60.476562 61.226562 L 60.476562 62.847656 Z M 58.84375 64.46875 L 57.210938 64.46875 L 57.210938 66.085938 L 58.84375 66.085938 Z M 57.210938 66.085938 L 55.578125 66.085938 L 55.578125 67.707031 L 57.210938 67.707031 Z M 65.378906 67.707031 L 63.746094 67.707031 L 63.746094 69.328125 L 65.378906 69.328125 Z M 73.550781 70.949219 L 73.550781 69.328125 L 70.28125 69.328125 L 70.28125 70.949219 Z M 70.28125 70.949219 L 68.648438 70.949219 L 68.648438 72.570312 L 70.28125 72.570312 Z M 96.421875 51.503906 L 96.421875 49.882812 L 94.789062 49.882812 L 94.789062 48.261719 L 93.15625 48.261719 L 93.15625 46.640625 L 91.519531 46.640625 L 91.519531 45.023438 L 68.648438 45.023438 L 68.648438 46.640625 L 67.011719 46.640625 L 67.011719 48.261719 L 65.378906 48.261719 L 65.378906 61.226562 L 67.011719 61.226562 L 67.011719 62.847656 L 68.648438 62.847656 L 68.648438 64.46875 L 83.351562 64.46875 L 83.351562 83.914062 L 68.648438 83.914062 L 68.648438 85.53125 L 67.011719 85.53125 L 67.011719 87.152344 L 65.378906 87.152344 L 65.378906 100.117188 L 67.011719 100.117188 L 67.011719 101.738281 L 68.648438 101.738281 L 68.648438 103.359375 L 91.519531 103.359375 L 91.519531 101.738281 L 93.15625 101.738281 L 93.15625 100.117188 L 94.789062 100.117188 L 94.789062 98.496094 L 96.421875 98.496094 L 96.421875 96.875 L 98.054688 96.875 L 98.054688 51.503906 Z M 68.648438 72.570312 L 67.011719 72.570312 L 67.011719 75.808594 L 68.648438 75.808594 Z M 70.28125 77.429688 L 70.28125 75.808594 L 68.648438 75.808594 L 68.648438 77.429688 Z M 63.746094 69.328125 L 62.113281 69.328125 L 62.113281 70.949219 L 63.746094 70.949219 Z M 62.113281 77.429688 L 62.113281 79.050781 L 63.746094 79.050781 L 63.746094 77.429688 Z M 71.914062 79.050781 L 73.550781 79.050781 L 73.550781 77.429688 L 70.28125 77.429688 L 70.28125 79.050781 Z M 62.113281 74.191406 L 62.113281 70.949219 L 60.476562 70.949219 L 60.476562 77.429688 L 62.113281 77.429688 Z M 65.378906 80.671875 L 65.378906 79.050781 L 63.746094 79.050781 L 63.746094 80.671875 Z M 67.011719 82.292969 L 68.648438 82.292969 L 68.648438 80.671875 L 65.378906 80.671875 L 65.378906 82.292969 Z M 67.011719 82.292969 " fill-opacity="1" fill-rule="nonzero"/></g><path fill="#3c00ff" d="M 96.421875 51.503906 L 96.421875 96.875 L 94.789062 96.875 L 94.789062 98.496094 L 93.15625 98.496094 L 93.15625 100.117188 L 91.519531 100.117188 L 91.519531 101.738281 L 81.71875 101.738281 L 81.71875 100.117188 L 83.351562 100.117188 L 83.351562 88.773438 L 88.253906 88.773438 L 88.253906 87.152344 L 89.886719 87.152344 L 89.886719 85.53125 L 91.519531 85.53125 L 91.519531 62.847656 L 89.886719 62.847656 L 89.886719 61.226562 L 88.253906 61.226562 L 88.253906 59.605469 L 83.351562 59.605469 L 83.351562 48.261719 L 81.71875 48.261719 L 81.71875 46.640625 L 91.519531 46.640625 L 91.519531 48.261719 L 93.15625 48.261719 L 93.15625 49.882812 L 94.789062 49.882812 L 94.789062 51.503906 Z M 96.421875 51.503906 " fill-opacity="1" fill-rule="nonzero"/><path fill="#1ca4ff" d="M 88.253906 62.847656 L 88.253906 61.226562 L 83.351562 61.226562 L 83.351562 62.847656 L 84.984375 62.847656 L 84.984375 85.53125 L 83.351562 85.53125 L 83.351562 87.152344 L 88.253906 87.152344 L 88.253906 85.53125 L 89.886719 85.53125 L 89.886719 62.847656 Z M 88.253906 62.847656 " fill-opacity="1" fill-rule="nonzero"/><path fill="#1ca4ff" d="M 80.085938 85.53125 L 68.648438 85.53125 L 68.648438 87.152344 L 67.011719 87.152344 L 67.011719 100.117188 L 68.648438 100.117188 L 68.648438 101.738281 L 80.085938 101.738281 L 80.085938 100.117188 L 81.71875 100.117188 L 81.71875 87.152344 L 80.085938 87.152344 Z M 80.085938 85.53125 " fill-opacity="1" fill-rule="nonzero"/><path fill="#1ca4ff" d="M 80.085938 46.640625 L 68.648438 46.640625 L 68.648438 48.261719 L 67.011719 48.261719 L 67.011719 61.226562 L 68.648438 61.226562 L 68.648438 62.847656 L 80.085938 62.847656 L 80.085938 61.226562 L 81.71875 61.226562 L 81.71875 48.261719 L 80.085938 48.261719 Z M 80.085938 46.640625 " fill-opacity="1" fill-rule="nonzero"/><g clip-path="url(#d88249205c)"><path fill="#000000" d="M 98.054688 51.503906 L 98.054688 96.875 L 96.421875 96.875 L 96.421875 51.503906 Z M 94.789062 98.496094 L 96.421875 98.496094 L 96.421875 96.875 L 94.789062 96.875 Z M 96.421875 51.503906 L 96.421875 49.882812 L 94.789062 49.882812 L 94.789062 51.503906 Z M 93.15625 100.117188 L 94.789062 100.117188 L 94.789062 98.496094 L 93.15625 98.496094 Z M 94.789062 49.882812 L 94.789062 48.261719 L 93.15625 48.261719 L 93.15625 49.882812 Z M 91.519531 101.738281 L 93.15625 101.738281 L 93.15625 100.117188 L 91.519531 100.117188 Z M 93.15625 48.261719 L 93.15625 46.640625 L 91.519531 46.640625 L 91.519531 48.261719 Z M 89.886719 66.085938 L 89.886719 85.53125 L 91.519531 85.53125 L 91.519531 62.847656 L 89.886719 62.847656 Z M 88.253906 101.738281 L 81.71875 101.738281 L 81.71875 100.117188 L 80.085938 100.117188 L 80.085938 101.738281 L 68.648438 101.738281 L 68.648438 103.359375 L 91.519531 103.359375 L 91.519531 101.738281 Z M 88.253906 87.152344 L 89.886719 87.152344 L 89.886719 85.53125 L 88.253906 85.53125 Z M 89.886719 62.847656 L 89.886719 61.226562 L 88.253906 61.226562 L 88.253906 62.847656 Z M 77.632812 94.445312 L 76 94.445312 L 76 96.066406 L 77.632812 96.066406 Z M 77.632812 91.203125 L 76 91.203125 L 76 92.824219 L 77.632812 92.824219 Z M 77.632812 55.554688 L 76 55.554688 L 76 57.175781 L 77.632812 57.175781 Z M 77.632812 52.3125 L 76 52.3125 L 76 53.933594 L 77.632812 53.933594 Z M 74.367188 96.066406 L 72.730469 96.066406 L 72.730469 97.6875 L 74.367188 97.6875 Z M 74.367188 92.824219 L 72.730469 92.824219 L 72.730469 94.445312 L 74.367188 94.445312 Z M 74.367188 89.585938 L 72.730469 89.585938 L 72.730469 91.203125 L 74.367188 91.203125 Z M 74.367188 57.175781 L 72.730469 57.175781 L 72.730469 58.796875 L 74.367188 58.796875 Z M 74.367188 53.933594 L 72.730469 53.933594 L 72.730469 55.554688 L 74.367188 55.554688 Z M 74.367188 50.695312 L 72.730469 50.695312 L 72.730469 52.3125 L 74.367188 52.3125 Z M 73.550781 70.949219 L 73.550781 69.328125 L 70.28125 69.328125 L 70.28125 70.949219 Z M 71.097656 94.445312 L 69.464844 94.445312 L 69.464844 96.066406 L 71.097656 96.066406 Z M 71.097656 91.203125 L 69.464844 91.203125 L 69.464844 92.824219 L 71.097656 92.824219 Z M 71.914062 85.53125 L 80.085938 85.53125 L 80.085938 87.152344 L 81.71875 87.152344 L 81.71875 100.117188 L 83.351562 100.117188 L 83.351562 88.773438 L 88.253906 88.773438 L 88.253906 87.152344 L 83.351562 87.152344 L 83.351562 85.53125 L 84.984375 85.53125 L 84.984375 62.847656 L 83.351562 62.847656 L 83.351562 61.226562 L 88.253906 61.226562 L 88.253906 59.605469 L 83.351562 59.605469 L 83.351562 48.261719 L 81.71875 48.261719 L 81.71875 61.226562 L 80.085938 61.226562 L 80.085938 62.847656 L 68.648438 62.847656 L 68.648438 64.46875 L 83.351562 64.46875 L 83.351562 83.914062 L 68.648438 83.914062 L 68.648438 85.53125 Z M 71.914062 79.050781 L 73.550781 79.050781 L 73.550781 77.429688 L 70.28125 77.429688 L 70.28125 79.050781 Z M 71.097656 55.554688 L 69.464844 55.554688 L 69.464844 57.175781 L 71.097656 57.175781 Z M 71.097656 52.3125 L 69.464844 52.3125 L 69.464844 53.933594 L 71.097656 53.933594 Z M 71.914062 46.640625 L 80.085938 46.640625 L 80.085938 48.261719 L 81.71875 48.261719 L 81.71875 46.640625 L 91.519531 46.640625 L 91.519531 45.023438 L 68.648438 45.023438 L 68.648438 46.640625 Z M 70.28125 77.429688 L 70.28125 75.808594 L 68.648438 75.808594 L 68.648438 77.429688 Z M 70.28125 70.949219 L 68.648438 70.949219 L 68.648438 72.570312 L 70.28125 72.570312 Z M 67.011719 100.117188 L 67.011719 101.738281 L 68.648438 101.738281 L 68.648438 100.117188 Z M 68.648438 85.53125 L 67.011719 85.53125 L 67.011719 87.152344 L 68.648438 87.152344 Z M 68.648438 72.570312 L 67.011719 72.570312 L 67.011719 75.808594 L 68.648438 75.808594 Z M 68.648438 67.707031 L 68.648438 66.085938 L 65.378906 66.085938 L 65.378906 67.707031 Z M 67.011719 61.226562 L 67.011719 62.847656 L 68.648438 62.847656 L 68.648438 61.226562 Z M 68.648438 46.640625 L 67.011719 46.640625 L 67.011719 48.261719 L 68.648438 48.261719 Z M 67.011719 96.875 L 67.011719 87.152344 L 65.378906 87.152344 L 65.378906 100.117188 L 67.011719 100.117188 Z M 67.011719 82.292969 L 68.648438 82.292969 L 68.648438 80.671875 L 65.378906 80.671875 L 65.378906 82.292969 Z M 67.011719 57.984375 L 67.011719 48.261719 L 65.378906 48.261719 L 65.378906 61.226562 L 67.011719 61.226562 Z M 65.378906 80.671875 L 65.378906 79.050781 L 63.746094 79.050781 L 63.746094 80.671875 Z M 65.378906 67.707031 L 63.746094 67.707031 L 63.746094 69.328125 L 65.378906 69.328125 Z M 62.113281 77.429688 L 62.113281 79.050781 L 63.746094 79.050781 L 63.746094 77.429688 Z M 63.746094 69.328125 L 62.113281 69.328125 L 62.113281 70.949219 L 63.746094 70.949219 Z M 63.746094 62.847656 L 63.746094 61.226562 L 60.476562 61.226562 L 60.476562 62.847656 Z M 60.476562 85.53125 L 60.476562 87.152344 L 63.746094 87.152344 L 63.746094 85.53125 Z M 62.113281 74.191406 L 62.113281 70.949219 L 60.476562 70.949219 L 60.476562 77.429688 L 62.113281 77.429688 Z M 58.84375 83.914062 L 58.84375 85.53125 L 60.476562 85.53125 L 60.476562 83.914062 Z M 60.476562 62.847656 L 58.84375 62.847656 L 58.84375 64.46875 L 60.476562 64.46875 Z M 57.210938 82.292969 L 57.210938 83.914062 L 58.84375 83.914062 L 58.84375 82.292969 Z M 58.84375 64.46875 L 57.210938 64.46875 L 57.210938 66.085938 L 58.84375 66.085938 Z M 55.578125 80.671875 L 55.578125 82.292969 L 57.210938 82.292969 L 57.210938 80.671875 Z M 57.210938 66.085938 L 55.578125 66.085938 L 55.578125 67.707031 L 57.210938 67.707031 Z M 55.578125 77.429688 L 55.578125 67.707031 L 53.941406 67.707031 L 53.941406 80.671875 L 55.578125 80.671875 Z M 55.578125 77.429688 " fill-opacity="1" fill-rule="nonzero"/></g><path fill="#1700d1" d="M 96.421875 53.125 L 94.789062 53.125 L 94.789062 54.746094 L 96.421875 54.746094 Z M 96.421875 56.363281 L 94.789062 56.363281 L 94.789062 57.984375 L 96.421875 57.984375 Z M 96.421875 59.605469 L 94.789062 59.605469 L 94.789062 61.226562 L 96.421875 61.226562 Z M 96.421875 62.847656 L 94.789062 62.847656 L 94.789062 64.46875 L 96.421875 64.46875 Z M 94.789062 51.503906 L 93.15625 51.503906 L 93.15625 53.125 L 94.789062 53.125 Z M 93.15625 49.882812 L 91.519531 49.882812 L 91.519531 51.503906 L 93.15625 51.503906 Z M 93.15625 53.125 L 91.519531 53.125 L 91.519531 54.746094 L 93.15625 54.746094 Z M 94.789062 54.746094 L 93.15625 54.746094 L 93.15625 56.363281 L 94.789062 56.363281 Z M 93.15625 56.363281 L 91.519531 56.363281 L 91.519531 57.984375 L 93.15625 57.984375 Z M 94.789062 57.984375 L 93.15625 57.984375 L 93.15625 59.605469 L 94.789062 59.605469 Z M 93.15625 59.605469 L 91.519531 59.605469 L 91.519531 61.226562 L 93.15625 61.226562 Z M 94.789062 61.226562 L 93.15625 61.226562 L 93.15625 62.847656 L 94.789062 62.847656 Z M 93.15625 62.847656 L 91.519531 62.847656 L 91.519531 64.46875 L 93.15625 64.46875 Z M 91.519531 51.503906 L 89.886719 51.503906 L 89.886719 53.125 L 91.519531 53.125 Z M 89.886719 49.882812 L 88.253906 49.882812 L 88.253906 51.503906 L 89.886719 51.503906 Z M 91.519531 48.261719 L 89.886719 48.261719 L 89.886719 49.882812 L 91.519531 49.882812 Z M 89.886719 53.125 L 88.253906 53.125 L 88.253906 54.746094 L 89.886719 54.746094 Z M 91.519531 54.746094 L 89.886719 54.746094 L 89.886719 56.363281 L 91.519531 56.363281 Z M 89.886719 56.363281 L 88.253906 56.363281 L 88.253906 57.984375 L 89.886719 57.984375 Z M 91.519531 57.984375 L 89.886719 57.984375 L 89.886719 59.605469 L 91.519531 59.605469 Z M 89.886719 59.605469 L 88.253906 59.605469 L 88.253906 61.226562 L 89.886719 61.226562 Z M 91.519531 61.226562 L 89.886719 61.226562 L 89.886719 62.847656 L 91.519531 62.847656 Z M 89.886719 46.640625 L 88.253906 46.640625 L 88.253906 48.261719 L 89.886719 48.261719 Z M 88.253906 51.503906 L 86.621094 51.503906 L 86.621094 53.125 L 88.253906 53.125 Z M 86.621094 49.882812 L 84.984375 49.882812 L 84.984375 51.503906 L 86.621094 51.503906 Z M 88.253906 48.261719 L 86.621094 48.261719 L 86.621094 49.882812 L 88.253906 49.882812 Z M 86.621094 53.125 L 84.984375 53.125 L 84.984375 54.746094 L 86.621094 54.746094 Z M 88.253906 54.746094 L 86.621094 54.746094 L 86.621094 56.363281 L 88.253906 56.363281 Z M 86.621094 56.363281 L 84.984375 56.363281 L 84.984375 57.984375 L 86.621094 57.984375 Z M 88.253906 57.984375 L 86.621094 57.984375 L 86.621094 59.605469 L 88.253906 59.605469 Z M 86.621094 46.640625 L 84.984375 46.640625 L 84.984375 48.261719 L 86.621094 48.261719 Z M 83.351562 46.640625 L 81.71875 46.640625 L 81.71875 48.261719 L 83.351562 48.261719 Z M 84.984375 51.503906 L 83.351562 51.503906 L 83.351562 53.125 L 84.984375 53.125 Z M 84.984375 48.261719 L 83.351562 48.261719 L 83.351562 49.882812 L 84.984375 49.882812 Z M 84.984375 54.746094 L 83.351562 54.746094 L 83.351562 56.363281 L 84.984375 56.363281 Z M 84.984375 57.984375 L 83.351562 57.984375 L 83.351562 59.605469 L 84.984375 59.605469 Z M 96.421875 66.085938 L 94.789062 66.085938 L 94.789062 67.707031 L 96.421875 67.707031 Z M 93.15625 66.085938 L 91.519531 66.085938 L 91.519531 67.707031 L 93.15625 67.707031 Z M 96.421875 69.328125 L 94.789062 69.328125 L 94.789062 70.949219 L 96.421875 70.949219 Z M 93.15625 69.328125 L 91.519531 69.328125 L 91.519531 70.949219 L 93.15625 70.949219 Z M 94.789062 64.46875 L 93.15625 64.46875 L 93.15625 66.085938 L 94.789062 66.085938 Z M 94.789062 67.707031 L 93.15625 67.707031 L 93.15625 69.328125 L 94.789062 69.328125 Z M 96.421875 72.570312 L 94.789062 72.570312 L 94.789062 74.191406 L 96.421875 74.191406 Z M 94.789062 70.949219 L 93.15625 70.949219 L 93.15625 72.570312 L 94.789062 72.570312 Z M 93.15625 72.570312 L 91.519531 72.570312 L 91.519531 74.191406 L 93.15625 74.191406 Z M 96.421875 75.808594 L 94.789062 75.808594 L 94.789062 77.429688 L 96.421875 77.429688 Z M 94.789062 74.191406 L 93.15625 74.191406 L 93.15625 75.808594 L 94.789062 75.808594 Z M 93.15625 75.808594 L 91.519531 75.808594 L 91.519531 77.429688 L 93.15625 77.429688 Z M 96.421875 79.050781 L 94.789062 79.050781 L 94.789062 80.671875 L 96.421875 80.671875 Z M 94.789062 77.429688 L 93.15625 77.429688 L 93.15625 79.050781 L 94.789062 79.050781 Z M 93.15625 79.050781 L 91.519531 79.050781 L 91.519531 80.671875 L 93.15625 80.671875 Z M 96.421875 82.292969 L 94.789062 82.292969 L 94.789062 83.914062 L 96.421875 83.914062 Z M 94.789062 80.671875 L 93.15625 80.671875 L 93.15625 82.292969 L 94.789062 82.292969 Z M 93.15625 82.292969 L 91.519531 82.292969 L 91.519531 83.914062 L 93.15625 83.914062 Z M 96.421875 85.53125 L 94.789062 85.53125 L 94.789062 87.152344 L 96.421875 87.152344 Z M 94.789062 83.914062 L 93.15625 83.914062 L 93.15625 85.53125 L 94.789062 85.53125 Z M 93.15625 85.53125 L 91.519531 85.53125 L 91.519531 87.152344 L 93.15625 87.152344 Z M 96.421875 88.773438 L 94.789062 88.773438 L 94.789062 90.394531 L 96.421875 90.394531 Z M 94.789062 87.152344 L 93.15625 87.152344 L 93.15625 88.773438 L 94.789062 88.773438 Z M 93.15625 88.773438 L 91.519531 88.773438 L 91.519531 90.394531 L 93.15625 90.394531 Z M 91.519531 87.152344 L 89.886719 87.152344 L 89.886719 88.773438 L 91.519531 88.773438 Z M 89.886719 88.773438 L 88.253906 88.773438 L 88.253906 90.394531 L 89.886719 90.394531 Z M 86.621094 88.773438 L 84.984375 88.773438 L 84.984375 90.394531 L 86.621094 90.394531 Z M 96.421875 92.015625 L 94.789062 92.015625 L 94.789062 93.636719 L 96.421875 93.636719 Z M 94.789062 90.394531 L 93.15625 90.394531 L 93.15625 92.015625 L 94.789062 92.015625 Z M 93.15625 92.015625 L 91.519531 92.015625 L 91.519531 93.636719 L 93.15625 93.636719 Z M 91.519531 90.394531 L 89.886719 90.394531 L 89.886719 92.015625 L 91.519531 92.015625 Z M 89.886719 92.015625 L 88.253906 92.015625 L 88.253906 93.636719 L 89.886719 93.636719 Z M 88.253906 90.394531 L 86.621094 90.394531 L 86.621094 92.015625 L 88.253906 92.015625 Z M 86.621094 92.015625 L 84.984375 92.015625 L 84.984375 93.636719 L 86.621094 93.636719 Z M 84.984375 90.394531 L 83.351562 90.394531 L 83.351562 92.015625 L 84.984375 92.015625 Z M 96.421875 95.253906 L 94.789062 95.253906 L 94.789062 96.875 L 96.421875 96.875 Z M 94.789062 93.636719 L 93.15625 93.636719 L 93.15625 95.253906 L 94.789062 95.253906 Z M 93.15625 95.253906 L 91.519531 95.253906 L 91.519531 96.875 L 93.15625 96.875 Z M 91.519531 93.636719 L 89.886719 93.636719 L 89.886719 95.253906 L 91.519531 95.253906 Z M 89.886719 95.253906 L 88.253906 95.253906 L 88.253906 96.875 L 89.886719 96.875 Z M 88.253906 93.636719 L 86.621094 93.636719 L 86.621094 95.253906 L 88.253906 95.253906 Z M 86.621094 95.253906 L 84.984375 95.253906 L 84.984375 96.875 L 86.621094 96.875 Z M 84.984375 93.636719 L 83.351562 93.636719 L 83.351562 95.253906 L 84.984375 95.253906 Z M 94.789062 96.875 L 93.15625 96.875 L 93.15625 98.496094 L 94.789062 98.496094 Z M 93.15625 98.496094 L 91.519531 98.496094 L 91.519531 100.117188 L 93.15625 100.117188 Z M 91.519531 96.875 L 89.886719 96.875 L 89.886719 98.496094 L 91.519531 98.496094 Z M 89.886719 98.496094 L 88.253906 98.496094 L 88.253906 100.117188 L 89.886719 100.117188 Z M 88.253906 96.875 L 86.621094 96.875 L 86.621094 98.496094 L 88.253906 98.496094 Z M 86.621094 98.496094 L 84.984375 98.496094 L 84.984375 100.117188 L 86.621094 100.117188 Z M 84.984375 96.875 L 83.351562 96.875 L 83.351562 98.496094 L 84.984375 98.496094 Z M 91.519531 100.117188 L 89.886719 100.117188 L 89.886719 101.738281 L 91.519531 101.738281 Z M 88.253906 100.117188 L 86.621094 100.117188 L 86.621094 101.738281 L 88.253906 101.738281 Z M 84.984375 100.117188 L 83.351562 100.117188 L 83.351562 101.738281 L 84.984375 101.738281 Z M 84.984375 100.117188 " fill-opacity="1" fill-rule="nonzero"/><path fill="#ffffff" d="M 96.421875 51.503906 L 96.421875 96.875 L 94.789062 96.875 L 94.789062 51.503906 Z M 93.15625 98.496094 L 94.789062 98.496094 L 94.789062 96.875 L 93.15625 96.875 Z M 93.15625 49.882812 L 93.15625 51.503906 L 94.789062 51.503906 L 94.789062 49.882812 Z M 91.519531 100.117188 L 93.15625 100.117188 L 93.15625 98.496094 L 91.519531 98.496094 Z M 91.519531 48.261719 L 91.519531 49.882812 L 93.15625 49.882812 L 93.15625 48.261719 Z M 89.886719 46.640625 L 81.71875 46.640625 L 81.71875 48.261719 L 91.519531 48.261719 L 91.519531 46.640625 Z M 89.886719 46.640625 " fill-opacity="0.4" fill-rule="nonzero"/><path fill="#ffffff" d="M 80.085938 87.152344 L 81.71875 87.152344 L 81.71875 100.117188 L 80.085938 100.117188 Z M 80.085938 49.882812 L 80.085938 61.226562 L 81.71875 61.226562 L 81.71875 48.261719 L 80.085938 48.261719 Z M 78.449219 101.738281 L 80.085938 101.738281 L 80.085938 100.117188 L 78.449219 100.117188 Z M 78.449219 85.53125 L 78.449219 87.152344 L 80.085938 87.152344 L 80.085938 85.53125 Z M 78.449219 62.847656 L 80.085938 62.847656 L 80.085938 61.226562 L 78.449219 61.226562 Z M 78.449219 46.640625 L 78.449219 48.261719 L 80.085938 48.261719 L 80.085938 46.640625 Z M 78.449219 46.640625 " fill-opacity="0.5" fill-rule="nonzero"/><path fill="#000000" d="M 91.519531 100.117188 L 91.519531 101.738281 L 81.71875 101.738281 L 81.71875 100.117188 Z M 86.621094 87.152344 L 88.253906 87.152344 L 88.253906 85.53125 L 86.621094 85.53125 L 86.621094 62.847656 L 88.253906 62.847656 L 88.253906 61.226562 L 83.351562 61.226562 L 83.351562 62.847656 L 84.984375 62.847656 L 84.984375 85.53125 L 83.351562 85.53125 L 83.351562 87.152344 Z M 70.28125 101.738281 L 70.28125 100.117188 L 68.648438 100.117188 L 68.648438 101.738281 Z M 68.648438 87.152344 L 70.28125 87.152344 L 70.28125 85.53125 L 68.648438 85.53125 Z M 70.28125 62.847656 L 70.28125 61.226562 L 68.648438 61.226562 L 68.648438 62.847656 Z M 68.648438 48.261719 L 70.28125 48.261719 L 70.28125 46.640625 L 68.648438 46.640625 Z M 67.011719 88.773438 L 67.011719 100.117188 L 68.648438 100.117188 L 68.648438 87.152344 L 67.011719 87.152344 Z M 67.011719 49.882812 L 67.011719 61.226562 L 68.648438 61.226562 L 68.648438 48.261719 L 67.011719 48.261719 Z M 67.011719 49.882812 " fill-opacity="0.3" fill-rule="nonzero"/></svg>