<svg xmlns="http://www.w3.org/2000/svg" xmlns:xlink="http://www.w3.org/1999/xlink" zoomAndPan="magnify" preserveAspectRatio="xMidYMid meet" version="1.0" viewBox="45 50.18 60 49.5"><defs><clipPath id="208d6ef133"><path d="M 45 51 L 104 51 L 104 99.683594 L 45 99.683594 Z M 45 51 " clip-rule="nonzero"/></clipPath><clipPath id="72fc7de617"><path d="M 46 50.183594 L 105 50.183594 L 105 98 L 46 98 Z M 46 50.183594 " clip-rule="nonzero"/></clipPath><clipPath id="9171e1fa65"><path d="M 46 50.183594 L 105 50.183594 L 105 98 L 46 98 Z M 46 50.183594 " clip-rule="nonzero"/></clipPath></defs><g clip-path="url(#208d6ef133)"><path fill="#000000" d="M 101.523438 55.300781 L 101.523438 53.59375 L 96.390625 53.59375 L 96.390625 55.300781 L 94.679688 55.300781 L 94.679688 53.59375 L 92.96875 53.59375 L 92.96875 51.886719 L 48.476562 51.886719 L 48.476562 53.59375 L 46.765625 53.59375 L 46.765625 55.300781 L 45.050781 55.300781 L 45.050781 96.265625 L 46.765625 96.265625 L 46.765625 97.972656 L 48.476562 97.972656 L 48.476562 99.679688 L 92.96875 99.679688 L 92.96875 97.972656 L 94.679688 97.972656 L 94.679688 96.265625 L 96.390625 96.265625 L 96.390625 97.972656 L 98.101562 97.972656 L 98.101562 99.679688 L 99.8125 99.679688 L 99.8125 97.972656 L 101.523438 97.972656 L 101.523438 96.265625 L 103.234375 96.265625 L 103.234375 55.300781 Z M 101.523438 55.300781 " fill-opacity="0.3" fill-rule="nonzero"/></g><g clip-path="url(#72fc7de617)"><path fill="#000000" d="M 103.234375 53.59375 L 103.234375 51.886719 L 98.101562 51.886719 L 98.101562 53.59375 L 96.390625 53.59375 L 96.390625 51.886719 L 94.679688 51.886719 L 94.679688 50.183594 L 50.1875 50.183594 L 50.1875 51.886719 L 48.476562 51.886719 L 48.476562 53.59375 L 46.765625 53.59375 L 46.765625 94.558594 L 48.476562 94.558594 L 48.476562 96.265625 L 50.1875 96.265625 L 50.1875 97.972656 L 94.679688 97.972656 L 94.679688 96.265625 L 96.390625 96.265625 L 96.390625 94.558594 L 98.101562 94.558594 L 98.101562 96.265625 L 99.8125 96.265625 L 99.8125 97.972656 L 101.523438 97.972656 L 101.523438 96.265625 L 103.234375 96.265625 L 103.234375 94.558594 L 104.949219 94.558594 L 104.949219 53.59375 Z M 103.234375 53.59375 " fill-opacity="1" fill-rule="nonzero"/></g><path fill="#ffffff" d="M 103.234375 91.144531 L 103.234375 94.558594 L 101.523438 94.558594 L 101.523438 96.265625 L 99.8125 96.265625 L 99.8125 94.558594 L 98.101562 94.558594 L 98.101562 91.144531 Z M 103.234375 91.144531 " fill-opacity="1" fill-rule="nonzero"/><path fill="#e5ff00" d="M 94.679688 89.4375 L 96.390625 89.4375 L 96.390625 94.558594 L 94.679688 94.558594 L 94.679688 96.265625 L 50.1875 96.265625 L 50.1875 94.558594 L 48.476562 94.558594 L 48.476562 89.4375 Z M 92.96875 80.90625 L 48.476562 80.90625 L 48.476562 87.730469 L 96.390625 87.730469 L 96.390625 80.90625 Z M 92.96875 72.371094 L 48.476562 72.371094 L 48.476562 79.199219 L 96.390625 79.199219 L 96.390625 72.371094 Z M 92.96875 63.835938 L 48.476562 63.835938 L 48.476562 70.664062 L 96.390625 70.664062 L 96.390625 63.835938 Z M 101.523438 60.421875 L 98.101562 60.421875 L 98.101562 89.4375 L 103.234375 89.4375 L 103.234375 60.421875 Z M 101.523438 60.421875 " fill-opacity="1" fill-rule="nonzero"/><path fill="#c63bb6" d="M 94.679688 53.59375 L 96.390625 53.59375 L 96.390625 62.128906 L 48.476562 62.128906 L 48.476562 53.59375 L 50.1875 53.59375 L 50.1875 51.886719 L 94.679688 51.886719 Z M 101.523438 53.59375 L 98.101562 53.59375 L 98.101562 58.714844 L 103.234375 58.714844 L 103.234375 53.59375 Z M 101.523438 53.59375 " fill-opacity="1" fill-rule="nonzero"/><g clip-path="url(#9171e1fa65)"><path fill="#000000" d="M 94.679688 53.59375 L 94.679688 51.886719 L 96.390625 51.886719 L 96.390625 53.59375 Z M 101.523438 53.59375 L 103.234375 53.59375 L 103.234375 51.886719 L 98.101562 51.886719 L 98.101562 53.59375 Z M 99.8125 97.972656 L 101.523438 97.972656 L 101.523438 96.265625 L 99.8125 96.265625 Z M 53.609375 51.886719 L 94.679688 51.886719 L 94.679688 50.183594 L 50.1875 50.183594 L 50.1875 51.886719 Z M 50.1875 51.886719 L 48.476562 51.886719 L 48.476562 53.59375 L 50.1875 53.59375 Z M 104.949219 53.59375 L 104.949219 94.558594 L 103.234375 94.558594 L 103.234375 96.265625 L 101.523438 96.265625 L 101.523438 94.558594 L 103.234375 94.558594 L 103.234375 91.144531 L 98.101562 91.144531 L 98.101562 94.558594 L 96.390625 94.558594 L 96.390625 96.265625 L 94.679688 96.265625 L 94.679688 94.558594 L 96.390625 94.558594 L 96.390625 89.4375 L 48.476562 89.4375 L 48.476562 94.558594 L 46.765625 94.558594 L 46.765625 53.59375 L 48.476562 53.59375 L 48.476562 62.128906 L 96.390625 62.128906 L 96.390625 53.59375 L 98.101562 53.59375 L 98.101562 58.714844 L 103.234375 58.714844 L 103.234375 53.59375 Z M 48.476562 70.664062 L 96.390625 70.664062 L 96.390625 63.835938 L 48.476562 63.835938 Z M 48.476562 79.199219 L 96.390625 79.199219 L 96.390625 72.371094 L 48.476562 72.371094 Z M 96.390625 87.730469 L 96.390625 80.90625 L 48.476562 80.90625 L 48.476562 87.730469 Z M 103.234375 89.4375 L 103.234375 60.421875 L 98.101562 60.421875 L 98.101562 89.4375 Z M 48.476562 94.558594 L 48.476562 96.265625 L 50.1875 96.265625 L 50.1875 94.558594 Z M 98.101562 94.558594 L 98.101562 96.265625 L 99.8125 96.265625 L 99.8125 94.558594 Z M 91.257812 96.265625 L 50.1875 96.265625 L 50.1875 97.972656 L 94.679688 97.972656 L 94.679688 96.265625 Z M 91.257812 96.265625 " fill-opacity="1" fill-rule="nonzero"/></g><path fill="#fb4fab" d="M 53.609375 63.835938 L 53.609375 65.542969 L 55.320312 65.542969 L 55.320312 63.835938 Z M 51.898438 65.542969 L 51.898438 67.25 L 53.609375 67.25 L 53.609375 65.542969 Z M 50.1875 63.835938 L 50.1875 65.542969 L 51.898438 65.542969 L 51.898438 63.835938 Z M 55.320312 65.542969 L 55.320312 67.25 L 57.03125 67.25 L 57.03125 65.542969 Z M 57.03125 63.835938 L 57.03125 65.542969 L 58.742188 65.542969 L 58.742188 63.835938 Z M 58.742188 65.542969 L 58.742188 67.25 L 60.453125 67.25 L 60.453125 65.542969 Z M 60.453125 63.835938 L 60.453125 65.542969 L 62.164062 65.542969 L 62.164062 63.835938 Z M 62.164062 65.542969 L 62.164062 67.25 L 63.875 67.25 L 63.875 65.542969 Z M 63.875 63.835938 L 63.875 65.542969 L 65.589844 65.542969 L 65.589844 63.835938 Z M 65.589844 65.542969 L 65.589844 67.25 L 67.300781 67.25 L 67.300781 65.542969 Z M 48.476562 65.542969 L 48.476562 67.25 L 50.1875 67.25 L 50.1875 65.542969 Z M 53.609375 67.25 L 53.609375 68.957031 L 55.320312 68.957031 L 55.320312 67.25 Z M 51.898438 68.957031 L 51.898438 70.664062 L 53.609375 70.664062 L 53.609375 68.957031 Z M 50.1875 67.25 L 50.1875 68.957031 L 51.898438 68.957031 L 51.898438 67.25 Z M 55.320312 68.957031 L 55.320312 70.664062 L 57.03125 70.664062 L 57.03125 68.957031 Z M 57.03125 67.25 L 57.03125 68.957031 L 58.742188 68.957031 L 58.742188 67.25 Z M 58.742188 68.957031 L 58.742188 70.664062 L 60.453125 70.664062 L 60.453125 68.957031 Z M 60.453125 67.25 L 60.453125 68.957031 L 62.164062 68.957031 L 62.164062 67.25 Z M 62.164062 68.957031 L 62.164062 70.664062 L 63.875 70.664062 L 63.875 68.957031 Z M 63.875 67.25 L 63.875 68.957031 L 65.589844 68.957031 L 65.589844 67.25 Z M 65.589844 68.957031 L 65.589844 70.664062 L 67.300781 70.664062 L 67.300781 68.957031 Z M 48.476562 68.957031 L 48.476562 70.664062 L 50.1875 70.664062 L 50.1875 68.957031 Z M 51.898438 72.371094 L 51.898438 74.078125 L 53.609375 74.078125 L 53.609375 72.371094 Z M 55.320312 72.371094 L 55.320312 74.078125 L 57.03125 74.078125 L 57.03125 72.371094 Z M 58.742188 72.371094 L 58.742188 74.078125 L 60.453125 74.078125 L 60.453125 72.371094 Z M 62.164062 72.371094 L 62.164062 74.078125 L 63.875 74.078125 L 63.875 72.371094 Z M 65.589844 72.371094 L 65.589844 74.078125 L 67.300781 74.078125 L 67.300781 72.371094 Z M 48.476562 72.371094 L 48.476562 74.078125 L 50.1875 74.078125 L 50.1875 72.371094 Z M 53.609375 74.078125 L 53.609375 75.785156 L 55.320312 75.785156 L 55.320312 74.078125 Z M 51.898438 75.785156 L 51.898438 77.492188 L 53.609375 77.492188 L 53.609375 75.785156 Z M 50.1875 74.078125 L 50.1875 75.785156 L 51.898438 75.785156 L 51.898438 74.078125 Z M 55.320312 75.785156 L 55.320312 77.492188 L 57.03125 77.492188 L 57.03125 75.785156 Z M 57.03125 74.078125 L 57.03125 75.785156 L 58.742188 75.785156 L 58.742188 74.078125 Z M 58.742188 75.785156 L 58.742188 77.492188 L 60.453125 77.492188 L 60.453125 75.785156 Z M 60.453125 74.078125 L 60.453125 75.785156 L 62.164062 75.785156 L 62.164062 74.078125 Z M 62.164062 75.785156 L 62.164062 77.492188 L 63.875 77.492188 L 63.875 75.785156 Z M 63.875 74.078125 L 63.875 75.785156 L 65.589844 75.785156 L 65.589844 74.078125 Z M 65.589844 75.785156 L 65.589844 77.492188 L 67.300781 77.492188 L 67.300781 75.785156 Z M 48.476562 75.785156 L 48.476562 77.492188 L 50.1875 77.492188 L 50.1875 75.785156 Z M 53.609375 77.492188 L 53.609375 79.199219 L 55.320312 79.199219 L 55.320312 77.492188 Z M 50.1875 77.492188 L 50.1875 79.199219 L 51.898438 79.199219 L 51.898438 77.492188 Z M 57.03125 77.492188 L 57.03125 79.199219 L 58.742188 79.199219 L 58.742188 77.492188 Z M 60.453125 77.492188 L 60.453125 79.199219 L 62.164062 79.199219 L 62.164062 77.492188 Z M 63.875 77.492188 L 63.875 79.199219 L 65.589844 79.199219 L 65.589844 77.492188 Z M 53.609375 80.90625 L 53.609375 82.613281 L 55.320312 82.613281 L 55.320312 80.90625 Z M 51.898438 82.613281 L 51.898438 84.320312 L 53.609375 84.320312 L 53.609375 82.613281 Z M 50.1875 80.90625 L 50.1875 82.613281 L 51.898438 82.613281 L 51.898438 80.90625 Z M 55.320312 82.613281 L 55.320312 84.320312 L 57.03125 84.320312 L 57.03125 82.613281 Z M 57.03125 80.90625 L 57.03125 82.613281 L 58.742188 82.613281 L 58.742188 80.90625 Z M 58.742188 82.613281 L 58.742188 84.320312 L 60.453125 84.320312 L 60.453125 82.613281 Z M 60.453125 80.90625 L 60.453125 82.613281 L 62.164062 82.613281 L 62.164062 80.90625 Z M 62.164062 82.613281 L 62.164062 84.320312 L 63.875 84.320312 L 63.875 82.613281 Z M 63.875 80.90625 L 63.875 82.613281 L 65.589844 82.613281 L 65.589844 80.90625 Z M 65.589844 82.613281 L 65.589844 84.320312 L 67.300781 84.320312 L 67.300781 82.613281 Z M 48.476562 82.613281 L 48.476562 84.320312 L 50.1875 84.320312 L 50.1875 82.613281 Z M 53.609375 84.320312 L 53.609375 86.027344 L 55.320312 86.027344 L 55.320312 84.320312 Z M 51.898438 86.027344 L 51.898438 87.730469 L 53.609375 87.730469 L 53.609375 86.027344 Z M 50.1875 84.320312 L 50.1875 86.027344 L 51.898438 86.027344 L 51.898438 84.320312 Z M 55.320312 86.027344 L 55.320312 87.730469 L 57.03125 87.730469 L 57.03125 86.027344 Z M 57.03125 84.320312 L 57.03125 86.027344 L 58.742188 86.027344 L 58.742188 84.320312 Z M 58.742188 86.027344 L 58.742188 87.730469 L 60.453125 87.730469 L 60.453125 86.027344 Z M 60.453125 84.320312 L 60.453125 86.027344 L 62.164062 86.027344 L 62.164062 84.320312 Z M 62.164062 86.027344 L 62.164062 87.730469 L 63.875 87.730469 L 63.875 86.027344 Z M 63.875 84.320312 L 63.875 86.027344 L 65.589844 86.027344 L 65.589844 84.320312 Z M 65.589844 86.027344 L 65.589844 87.730469 L 67.300781 87.730469 L 67.300781 86.027344 Z M 48.476562 86.027344 L 48.476562 87.730469 L 50.1875 87.730469 L 50.1875 86.027344 Z M 51.898438 89.4375 L 51.898438 91.144531 L 53.609375 91.144531 L 53.609375 89.4375 Z M 55.320312 89.4375 L 55.320312 91.144531 L 57.03125 91.144531 L 57.03125 89.4375 Z M 58.742188 89.4375 L 58.742188 91.144531 L 60.453125 91.144531 L 60.453125 89.4375 Z M 62.164062 89.4375 L 62.164062 91.144531 L 63.875 91.144531 L 63.875 89.4375 Z M 65.589844 89.4375 L 65.589844 91.144531 L 67.300781 91.144531 L 67.300781 89.4375 Z M 48.476562 89.4375 L 48.476562 91.144531 L 50.1875 91.144531 L 50.1875 89.4375 Z M 53.609375 91.144531 L 53.609375 92.851562 L 55.320312 92.851562 L 55.320312 91.144531 Z M 51.898438 92.851562 L 51.898438 94.558594 L 53.609375 94.558594 L 53.609375 92.851562 Z M 50.1875 91.144531 L 50.1875 92.851562 L 51.898438 92.851562 L 51.898438 91.144531 Z M 55.320312 92.851562 L 55.320312 94.558594 L 57.03125 94.558594 L 57.03125 92.851562 Z M 57.03125 91.144531 L 57.03125 92.851562 L 58.742188 92.851562 L 58.742188 91.144531 Z M 58.742188 92.851562 L 58.742188 94.558594 L 60.453125 94.558594 L 60.453125 92.851562 Z M 60.453125 91.144531 L 60.453125 92.851562 L 62.164062 92.851562 L 62.164062 91.144531 Z M 62.164062 92.851562 L 62.164062 94.558594 L 63.875 94.558594 L 63.875 92.851562 Z M 63.875 91.144531 L 63.875 92.851562 L 65.589844 92.851562 L 65.589844 91.144531 Z M 65.589844 92.851562 L 65.589844 94.558594 L 67.300781 94.558594 L 67.300781 92.851562 Z M 48.476562 92.851562 L 48.476562 94.558594 L 50.1875 94.558594 L 50.1875 92.851562 Z M 53.609375 94.558594 L 53.609375 96.265625 L 55.320312 96.265625 L 55.320312 94.558594 Z M 50.1875 94.558594 L 50.1875 96.265625 L 51.898438 96.265625 L 51.898438 94.558594 Z M 57.03125 94.558594 L 57.03125 96.265625 L 58.742188 96.265625 L 58.742188 94.558594 Z M 60.453125 94.558594 L 60.453125 96.265625 L 62.164062 96.265625 L 62.164062 94.558594 Z M 63.875 94.558594 L 63.875 96.265625 L 65.589844 96.265625 L 65.589844 94.558594 Z M 67.300781 63.835938 L 67.300781 65.542969 L 69.011719 65.542969 L 69.011719 63.835938 Z M 69.011719 65.542969 L 69.011719 67.25 L 70.722656 67.25 L 70.722656 65.542969 Z M 67.300781 67.25 L 67.300781 68.957031 L 69.011719 68.957031 L 69.011719 67.25 Z M 69.011719 68.957031 L 69.011719 70.664062 L 70.722656 70.664062 L 70.722656 68.957031 Z M 69.011719 72.371094 L 69.011719 74.078125 L 70.722656 74.078125 L 70.722656 72.371094 Z M 67.300781 74.078125 L 67.300781 75.785156 L 69.011719 75.785156 L 69.011719 74.078125 Z M 69.011719 75.785156 L 69.011719 77.492188 L 70.722656 77.492188 L 70.722656 75.785156 Z M 67.300781 77.492188 L 67.300781 79.199219 L 69.011719 79.199219 L 69.011719 77.492188 Z M 67.300781 80.90625 L 67.300781 82.613281 L 69.011719 82.613281 L 69.011719 80.90625 Z M 69.011719 82.613281 L 69.011719 84.320312 L 70.722656 84.320312 L 70.722656 82.613281 Z M 67.300781 84.320312 L 67.300781 86.027344 L 69.011719 86.027344 L 69.011719 84.320312 Z M 69.011719 86.027344 L 69.011719 87.730469 L 70.722656 87.730469 L 70.722656 86.027344 Z M 69.011719 89.4375 L 69.011719 91.144531 L 70.722656 91.144531 L 70.722656 89.4375 Z M 67.300781 91.144531 L 67.300781 92.851562 L 69.011719 92.851562 L 69.011719 91.144531 Z M 69.011719 92.851562 L 69.011719 94.558594 L 70.722656 94.558594 L 70.722656 92.851562 Z M 67.300781 94.558594 L 67.300781 96.265625 L 69.011719 96.265625 L 69.011719 94.558594 Z M 70.722656 63.835938 L 70.722656 65.542969 L 72.433594 65.542969 L 72.433594 63.835938 Z M 72.433594 65.542969 L 72.433594 67.25 L 74.144531 67.25 L 74.144531 65.542969 Z M 70.722656 67.25 L 70.722656 68.957031 L 72.433594 68.957031 L 72.433594 67.25 Z M 72.433594 68.957031 L 72.433594 70.664062 L 74.144531 70.664062 L 74.144531 68.957031 Z M 72.433594 72.371094 L 72.433594 74.078125 L 74.144531 74.078125 L 74.144531 72.371094 Z M 70.722656 74.078125 L 70.722656 75.785156 L 72.433594 75.785156 L 72.433594 74.078125 Z M 72.433594 75.785156 L 72.433594 77.492188 L 74.144531 77.492188 L 74.144531 75.785156 Z M 70.722656 77.492188 L 70.722656 79.199219 L 72.433594 79.199219 L 72.433594 77.492188 Z M 70.722656 80.90625 L 70.722656 82.613281 L 72.433594 82.613281 L 72.433594 80.90625 Z M 72.433594 82.613281 L 72.433594 84.320312 L 74.144531 84.320312 L 74.144531 82.613281 Z M 70.722656 84.320312 L 70.722656 86.027344 L 72.433594 86.027344 L 72.433594 84.320312 Z M 72.433594 86.027344 L 72.433594 87.730469 L 74.144531 87.730469 L 74.144531 86.027344 Z M 72.433594 89.4375 L 72.433594 91.144531 L 74.144531 91.144531 L 74.144531 89.4375 Z M 70.722656 91.144531 L 70.722656 92.851562 L 72.433594 92.851562 L 72.433594 91.144531 Z M 72.433594 92.851562 L 72.433594 94.558594 L 74.144531 94.558594 L 74.144531 92.851562 Z M 70.722656 94.558594 L 70.722656 96.265625 L 72.433594 96.265625 L 72.433594 94.558594 Z M 74.144531 63.835938 L 74.144531 65.542969 L 75.855469 65.542969 L 75.855469 63.835938 Z M 75.855469 65.542969 L 75.855469 67.25 L 77.566406 67.25 L 77.566406 65.542969 Z M 74.144531 67.25 L 74.144531 68.957031 L 75.855469 68.957031 L 75.855469 67.25 Z M 75.855469 68.957031 L 75.855469 70.664062 L 77.566406 70.664062 L 77.566406 68.957031 Z M 75.855469 72.371094 L 75.855469 74.078125 L 77.566406 74.078125 L 77.566406 72.371094 Z M 74.144531 74.078125 L 74.144531 75.785156 L 75.855469 75.785156 L 75.855469 74.078125 Z M 75.855469 75.785156 L 75.855469 77.492188 L 77.566406 77.492188 L 77.566406 75.785156 Z M 74.144531 77.492188 L 74.144531 79.199219 L 75.855469 79.199219 L 75.855469 77.492188 Z M 74.144531 80.90625 L 74.144531 82.613281 L 75.855469 82.613281 L 75.855469 80.90625 Z M 75.855469 82.613281 L 75.855469 84.320312 L 77.566406 84.320312 L 77.566406 82.613281 Z M 74.144531 84.320312 L 74.144531 86.027344 L 75.855469 86.027344 L 75.855469 84.320312 Z M 75.855469 86.027344 L 75.855469 87.730469 L 77.566406 87.730469 L 77.566406 86.027344 Z M 75.855469 89.4375 L 75.855469 91.144531 L 77.566406 91.144531 L 77.566406 89.4375 Z M 74.144531 91.144531 L 74.144531 92.851562 L 75.855469 92.851562 L 75.855469 91.144531 Z M 75.855469 92.851562 L 75.855469 94.558594 L 77.566406 94.558594 L 77.566406 92.851562 Z M 74.144531 94.558594 L 74.144531 96.265625 L 75.855469 96.265625 L 75.855469 94.558594 Z M 77.566406 63.835938 L 77.566406 65.542969 L 79.277344 65.542969 L 79.277344 63.835938 Z M 79.277344 65.542969 L 79.277344 67.25 L 80.988281 67.25 L 80.988281 65.542969 Z M 77.566406 67.25 L 77.566406 68.957031 L 79.277344 68.957031 L 79.277344 67.25 Z M 79.277344 68.957031 L 79.277344 70.664062 L 80.988281 70.664062 L 80.988281 68.957031 Z M 79.277344 72.371094 L 79.277344 74.078125 L 80.988281 74.078125 L 80.988281 72.371094 Z M 77.566406 74.078125 L 77.566406 75.785156 L 79.277344 75.785156 L 79.277344 74.078125 Z M 79.277344 75.785156 L 79.277344 77.492188 L 80.988281 77.492188 L 80.988281 75.785156 Z M 77.566406 77.492188 L 77.566406 79.199219 L 79.277344 79.199219 L 79.277344 77.492188 Z M 77.566406 80.90625 L 77.566406 82.613281 L 79.277344 82.613281 L 79.277344 80.90625 Z M 79.277344 82.613281 L 79.277344 84.320312 L 80.988281 84.320312 L 80.988281 82.613281 Z M 77.566406 84.320312 L 77.566406 86.027344 L 79.277344 86.027344 L 79.277344 84.320312 Z M 79.277344 86.027344 L 79.277344 87.730469 L 80.988281 87.730469 L 80.988281 86.027344 Z M 79.277344 89.4375 L 79.277344 91.144531 L 80.988281 91.144531 L 80.988281 89.4375 Z M 77.566406 91.144531 L 77.566406 92.851562 L 79.277344 92.851562 L 79.277344 91.144531 Z M 79.277344 92.851562 L 79.277344 94.558594 L 80.988281 94.558594 L 80.988281 92.851562 Z M 77.566406 94.558594 L 77.566406 96.265625 L 79.277344 96.265625 L 79.277344 94.558594 Z M 80.988281 63.835938 L 80.988281 65.542969 L 82.699219 65.542969 L 82.699219 63.835938 Z M 82.699219 65.542969 L 82.699219 67.25 L 84.410156 67.25 L 84.410156 65.542969 Z M 80.988281 67.25 L 80.988281 68.957031 L 82.699219 68.957031 L 82.699219 67.25 Z M 82.699219 68.957031 L 82.699219 70.664062 L 84.410156 70.664062 L 84.410156 68.957031 Z M 82.699219 72.371094 L 82.699219 74.078125 L 84.410156 74.078125 L 84.410156 72.371094 Z M 80.988281 74.078125 L 80.988281 75.785156 L 82.699219 75.785156 L 82.699219 74.078125 Z M 82.699219 75.785156 L 82.699219 77.492188 L 84.410156 77.492188 L 84.410156 75.785156 Z M 80.988281 77.492188 L 80.988281 79.199219 L 82.699219 79.199219 L 82.699219 77.492188 Z M 80.988281 80.90625 L 80.988281 82.613281 L 82.699219 82.613281 L 82.699219 80.90625 Z M 82.699219 82.613281 L 82.699219 84.320312 L 84.410156 84.320312 L 84.410156 82.613281 Z M 80.988281 84.320312 L 80.988281 86.027344 L 82.699219 86.027344 L 82.699219 84.320312 Z M 82.699219 86.027344 L 82.699219 87.730469 L 84.410156 87.730469 L 84.410156 86.027344 Z M 82.699219 89.4375 L 82.699219 91.144531 L 84.410156 91.144531 L 84.410156 89.4375 Z M 80.988281 91.144531 L 80.988281 92.851562 L 82.699219 92.851562 L 82.699219 91.144531 Z M 82.699219 92.851562 L 82.699219 94.558594 L 84.410156 94.558594 L 84.410156 92.851562 Z M 80.988281 94.558594 L 80.988281 96.265625 L 82.699219 96.265625 L 82.699219 94.558594 Z M 84.410156 63.835938 L 84.410156 65.542969 L 86.125 65.542969 L 86.125 63.835938 Z M 86.125 65.542969 L 86.125 67.25 L 87.835938 67.25 L 87.835938 65.542969 Z M 84.410156 67.25 L 84.410156 68.957031 L 86.125 68.957031 L 86.125 67.25 Z M 86.125 68.957031 L 86.125 70.664062 L 87.835938 70.664062 L 87.835938 68.957031 Z M 86.125 72.371094 L 86.125 74.078125 L 87.835938 74.078125 L 87.835938 72.371094 Z M 84.410156 74.078125 L 84.410156 75.785156 L 86.125 75.785156 L 86.125 74.078125 Z M 86.125 75.785156 L 86.125 77.492188 L 87.835938 77.492188 L 87.835938 75.785156 Z M 84.410156 77.492188 L 84.410156 79.199219 L 86.125 79.199219 L 86.125 77.492188 Z M 84.410156 80.90625 L 84.410156 82.613281 L 86.125 82.613281 L 86.125 80.90625 Z M 86.125 82.613281 L 86.125 84.320312 L 87.835938 84.320312 L 87.835938 82.613281 Z M 84.410156 84.320312 L 84.410156 86.027344 L 86.125 86.027344 L 86.125 84.320312 Z M 86.125 86.027344 L 86.125 87.730469 L 87.835938 87.730469 L 87.835938 86.027344 Z M 86.125 89.4375 L 86.125 91.144531 L 87.835938 91.144531 L 87.835938 89.4375 Z M 84.410156 91.144531 L 84.410156 92.851562 L 86.125 92.851562 L 86.125 91.144531 Z M 86.125 92.851562 L 86.125 94.558594 L 87.835938 94.558594 L 87.835938 92.851562 Z M 84.410156 94.558594 L 84.410156 96.265625 L 86.125 96.265625 L 86.125 94.558594 Z M 87.835938 63.835938 L 87.835938 65.542969 L 89.546875 65.542969 L 89.546875 63.835938 Z M 89.546875 65.542969 L 89.546875 67.25 L 91.257812 67.25 L 91.257812 65.542969 Z M 87.835938 67.25 L 87.835938 68.957031 L 89.546875 68.957031 L 89.546875 67.25 Z M 89.546875 68.957031 L 89.546875 70.664062 L 91.257812 70.664062 L 91.257812 68.957031 Z M 89.546875 72.371094 L 89.546875 74.078125 L 91.257812 74.078125 L 91.257812 72.371094 Z M 87.835938 74.078125 L 87.835938 75.785156 L 89.546875 75.785156 L 89.546875 74.078125 Z M 89.546875 75.785156 L 89.546875 77.492188 L 91.257812 77.492188 L 91.257812 75.785156 Z M 87.835938 77.492188 L 87.835938 79.199219 L 89.546875 79.199219 L 89.546875 77.492188 Z M 87.835938 80.90625 L 87.835938 82.613281 L 89.546875 82.613281 L 89.546875 80.90625 Z M 89.546875 82.613281 L 89.546875 84.320312 L 91.257812 84.320312 L 91.257812 82.613281 Z M 87.835938 84.320312 L 87.835938 86.027344 L 89.546875 86.027344 L 89.546875 84.320312 Z M 89.546875 86.027344 L 89.546875 87.730469 L 91.257812 87.730469 L 91.257812 86.027344 Z M 89.546875 89.4375 L 89.546875 91.144531 L 91.257812 91.144531 L 91.257812 89.4375 Z M 87.835938 91.144531 L 87.835938 92.851562 L 89.546875 92.851562 L 89.546875 91.144531 Z M 89.546875 92.851562 L 89.546875 94.558594 L 91.257812 94.558594 L 91.257812 92.851562 Z M 87.835938 94.558594 L 87.835938 96.265625 L 89.546875 96.265625 L 89.546875 94.558594 Z M 91.257812 63.835938 L 91.257812 65.542969 L 92.96875 65.542969 L 92.96875 63.835938 Z M 92.96875 65.542969 L 92.96875 67.25 L 94.679688 67.25 L 94.679688 65.542969 Z M 91.257812 67.25 L 91.257812 68.957031 L 92.96875 68.957031 L 92.96875 67.25 Z M 92.96875 68.957031 L 92.96875 70.664062 L 94.679688 70.664062 L 94.679688 68.957031 Z M 92.96875 72.371094 L 92.96875 74.078125 L 94.679688 74.078125 L 94.679688 72.371094 Z M 91.257812 74.078125 L 91.257812 75.785156 L 92.96875 75.785156 L 92.96875 74.078125 Z M 92.96875 75.785156 L 92.96875 77.492188 L 94.679688 77.492188 L 94.679688 75.785156 Z M 91.257812 77.492188 L 91.257812 79.199219 L 92.96875 79.199219 L 92.96875 77.492188 Z M 91.257812 80.90625 L 91.257812 82.613281 L 92.96875 82.613281 L 92.96875 80.90625 Z M 92.96875 82.613281 L 92.96875 84.320312 L 94.679688 84.320312 L 94.679688 82.613281 Z M 91.257812 84.320312 L 91.257812 86.027344 L 92.96875 86.027344 L 92.96875 84.320312 Z M 92.96875 86.027344 L 92.96875 87.730469 L 94.679688 87.730469 L 94.679688 86.027344 Z M 92.96875 89.4375 L 92.96875 91.144531 L 94.679688 91.144531 L 94.679688 89.4375 Z M 91.257812 91.144531 L 91.257812 92.851562 L 92.96875 92.851562 L 92.96875 91.144531 Z M 92.96875 92.851562 L 92.96875 94.558594 L 94.679688 94.558594 L 94.679688 92.851562 Z M 91.257812 94.558594 L 91.257812 96.265625 L 92.96875 96.265625 L 92.96875 94.558594 Z M 94.679688 63.835938 L 94.679688 65.542969 L 96.390625 65.542969 L 96.390625 63.835938 Z M 94.679688 67.25 L 94.679688 68.957031 L 96.390625 68.957031 L 96.390625 67.25 Z M 94.679688 74.078125 L 94.679688 75.785156 L 96.390625 75.785156 L 96.390625 74.078125 Z M 94.679688 77.492188 L 94.679688 79.199219 L 96.390625 79.199219 L 96.390625 77.492188 Z M 94.679688 80.90625 L 94.679688 82.613281 L 96.390625 82.613281 L 96.390625 80.90625 Z M 94.679688 84.320312 L 94.679688 86.027344 L 96.390625 86.027344 L 96.390625 84.320312 Z M 94.679688 91.144531 L 94.679688 92.851562 L 96.390625 92.851562 L 96.390625 91.144531 Z M 101.523438 62.128906 L 101.523438 63.835938 L 103.234375 63.835938 L 103.234375 62.128906 Z M 99.8125 60.421875 L 99.8125 62.128906 L 101.523438 62.128906 L 101.523438 60.421875 Z M 98.101562 62.128906 L 98.101562 63.835938 L 99.8125 63.835938 L 99.8125 62.128906 Z M 101.523438 65.542969 L 101.523438 67.25 L 103.234375 67.25 L 103.234375 65.542969 Z M 99.8125 63.835938 L 99.8125 65.542969 L 101.523438 65.542969 L 101.523438 63.835938 Z M 98.101562 65.542969 L 98.101562 67.25 L 99.8125 67.25 L 99.8125 65.542969 Z M 101.523438 68.957031 L 101.523438 70.664062 L 103.234375 70.664062 L 103.234375 68.957031 Z M 99.8125 67.25 L 99.8125 68.957031 L 101.523438 68.957031 L 101.523438 67.25 Z M 98.101562 68.957031 L 98.101562 70.664062 L 99.8125 70.664062 L 99.8125 68.957031 Z M 101.523438 72.371094 L 101.523438 74.078125 L 103.234375 74.078125 L 103.234375 72.371094 Z M 99.8125 70.664062 L 99.8125 72.371094 L 101.523438 72.371094 L 101.523438 70.664062 Z M 98.101562 72.371094 L 98.101562 74.078125 L 99.8125 74.078125 L 99.8125 72.371094 Z M 101.523438 75.785156 L 101.523438 77.492188 L 103.234375 77.492188 L 103.234375 75.785156 Z M 99.8125 74.078125 L 99.8125 75.785156 L 101.523438 75.785156 L 101.523438 74.078125 Z M 98.101562 75.785156 L 98.101562 77.492188 L 99.8125 77.492188 L 99.8125 75.785156 Z M 101.523438 79.199219 L 101.523438 80.90625 L 103.234375 80.90625 L 103.234375 79.199219 Z M 99.8125 77.492188 L 99.8125 79.199219 L 101.523438 79.199219 L 101.523438 77.492188 Z M 98.101562 79.199219 L 98.101562 80.90625 L 99.8125 80.90625 L 99.8125 79.199219 Z M 101.523438 82.613281 L 101.523438 84.320312 L 103.234375 84.320312 L 103.234375 82.613281 Z M 99.8125 80.90625 L 99.8125 82.613281 L 101.523438 82.613281 L 101.523438 80.90625 Z M 98.101562 82.613281 L 98.101562 84.320312 L 99.8125 84.320312 L 99.8125 82.613281 Z M 101.523438 86.027344 L 101.523438 87.730469 L 103.234375 87.730469 L 103.234375 86.027344 Z M 99.8125 84.320312 L 99.8125 86.027344 L 101.523438 86.027344 L 101.523438 84.320312 Z M 98.101562 86.027344 L 98.101562 87.730469 L 99.8125 87.730469 L 99.8125 86.027344 Z M 99.8125 87.730469 L 99.8125 89.4375 L 101.523438 89.4375 L 101.523438 87.730469 Z M 99.8125 87.730469 " fill-opacity="0.15" fill-rule="nonzero"/><path fill="#000000" d="M 92.96875 89.4375 L 94.679688 89.4375 L 94.679688 91.144531 L 50.1875 91.144531 L 50.1875 94.558594 L 48.476562 94.558594 L 48.476562 89.4375 Z M 91.257812 80.90625 L 48.476562 80.90625 L 48.476562 87.730469 L 50.1875 87.730469 L 50.1875 82.613281 L 94.679688 82.613281 L 94.679688 80.90625 Z M 51.898438 96.265625 L 94.679688 96.265625 L 94.679688 94.558594 L 50.1875 94.558594 L 50.1875 96.265625 Z M 99.8125 87.730469 L 99.8125 60.421875 L 98.101562 60.421875 L 98.101562 89.4375 L 99.8125 89.4375 Z M 99.8125 94.558594 L 99.8125 96.265625 L 101.523438 96.265625 L 101.523438 94.558594 Z M 99.8125 91.144531 L 98.101562 91.144531 L 98.101562 94.558594 L 99.8125 94.558594 Z M 91.257812 72.238281 L 50.1875 72.238281 L 50.1875 72.371094 L 48.476562 72.371094 L 48.476562 79.199219 L 50.1875 79.199219 L 50.1875 73.945312 L 94.679688 73.945312 L 94.679688 72.238281 Z M 91.257812 63.835938 L 48.476562 63.835938 L 48.476562 70.664062 L 50.1875 70.664062 L 50.1875 65.542969 L 94.679688 65.542969 L 94.679688 63.835938 Z M 91.257812 63.835938 " fill-opacity="0.25" fill-rule="nonzero"/><path fill="#000000" d="M 99.8125 58.714844 L 98.101562 58.714844 L 98.101562 53.59375 L 99.8125 53.59375 Z M 50.1875 60.421875 L 50.1875 55.300781 L 51.898438 55.300781 L 51.898438 53.59375 L 48.476562 53.59375 L 48.476562 62.128906 L 50.1875 62.128906 Z M 50.1875 60.421875 " fill-opacity="0.3" fill-rule="nonzero"/><path fill="#ffffff" d="M 103.234375 53.59375 L 103.234375 58.714844 L 101.523438 58.714844 L 101.523438 53.59375 Z M 94.679688 55.300781 L 94.679688 62.128906 L 96.390625 62.128906 L 96.390625 53.59375 L 94.679688 53.59375 Z M 92.96875 51.886719 L 50.1875 51.886719 L 50.1875 53.59375 L 94.679688 53.59375 L 94.679688 51.886719 Z M 92.96875 51.886719 " fill-opacity="0.4" fill-rule="nonzero"/><path fill="#ffffff" d="M 101.523438 60.421875 L 103.234375 60.421875 L 103.234375 89.4375 L 101.523438 89.4375 Z M 94.679688 91.144531 L 94.679688 92.851562 L 92.96875 92.851562 L 92.96875 94.558594 L 96.390625 94.558594 L 96.390625 89.4375 L 94.679688 89.4375 Z M 94.679688 82.613281 L 94.679688 87.730469 L 96.390625 87.730469 L 96.390625 80.90625 L 94.679688 80.90625 Z M 94.679688 74.078125 L 94.679688 79.199219 L 96.390625 79.199219 L 96.390625 72.371094 L 94.679688 72.371094 Z M 94.679688 65.542969 L 94.679688 70.664062 L 96.390625 70.664062 L 96.390625 63.835938 L 94.679688 63.835938 Z M 94.679688 65.542969 " fill-opacity="0.6" fill-rule="nonzero"/></svg>