<svg xmlns="http://www.w3.org/2000/svg" xmlns:xlink="http://www.w3.org/1999/xlink" width="40" zoomAndPan="magnify" viewBox="0 0 30 30.000001" height="40" preserveAspectRatio="xMidYMid meet" version="1.0"><defs><clipPath id="f397379538"><path d="M 0.558594 0.96875 L 29.515625 0.96875 L 29.515625 27.824219 L 0.558594 27.824219 Z M 0.558594 0.96875 " clip-rule="nonzero"/></clipPath><clipPath id="c73cf3cc50"><path d="M 0.558594 0.96875 L 29.515625 0.96875 L 29.515625 27.824219 L 0.558594 27.824219 Z M 0.558594 0.96875 " clip-rule="nonzero"/></clipPath></defs><g clip-path="url(#f397379538)"><path fill="#000000" d="M 29.59375 14.394531 L 29.59375 16.183594 L 28.683594 16.183594 L 28.683594 17.078125 L 27.777344 17.078125 L 27.777344 17.972656 L 26.871094 17.972656 L 26.871094 18.867188 L 25.964844 18.867188 L 25.964844 21.550781 L 25.054688 21.550781 L 25.054688 22.445312 L 23.242188 22.445312 L 23.242188 23.339844 L 21.425781 23.339844 L 21.425781 24.234375 L 19.613281 24.234375 L 19.613281 25.128906 L 17.796875 25.128906 L 17.796875 26.023438 L 15.984375 26.023438 L 15.984375 26.917969 L 14.167969 26.917969 L 14.167969 27.8125 L 11.449219 27.8125 L 11.449219 26.917969 L 9.632812 26.917969 L 9.632812 26.023438 L 7.816406 26.023438 L 7.816406 25.128906 L 6.003906 25.128906 L 6.003906 24.234375 L 4.1875 24.234375 L 4.1875 23.339844 L 2.375 23.339844 L 2.375 22.445312 L 1.46875 22.445312 L 1.46875 19.761719 L 0.558594 19.761719 L 0.558594 12.609375 L 2.375 12.609375 L 2.375 11.714844 L 4.1875 11.714844 L 4.1875 10.820312 L 6.003906 10.820312 L 6.003906 9.925781 L 7.816406 9.925781 L 7.816406 9.03125 L 9.632812 9.03125 L 9.632812 8.136719 L 11.449219 8.136719 L 11.449219 7.242188 L 13.261719 7.242188 L 13.261719 5.453125 L 14.167969 5.453125 L 14.167969 4.558594 L 15.078125 4.558594 L 15.078125 3.664062 L 15.984375 3.664062 L 15.984375 2.769531 L 16.890625 2.769531 L 16.890625 1.875 L 17.796875 1.875 L 17.796875 0.980469 L 20.519531 0.980469 L 20.519531 1.875 L 22.335938 1.875 L 22.335938 2.769531 L 24.148438 2.769531 L 24.148438 3.664062 L 25.964844 3.664062 L 25.964844 5.453125 L 24.148438 5.453125 L 24.148438 6.347656 L 23.242188 6.347656 L 23.242188 7.242188 L 22.335938 7.242188 L 22.335938 8.136719 L 21.425781 8.136719 L 21.425781 9.03125 L 23.242188 9.03125 L 23.242188 9.925781 L 25.054688 9.925781 L 25.054688 10.820312 L 26.871094 10.820312 L 26.871094 12.609375 L 27.777344 12.609375 L 27.777344 13.503906 L 28.683594 13.503906 L 28.683594 14.394531 Z M 29.59375 14.394531 " fill-opacity="1" fill-rule="nonzero"/></g><path fill="#d1d3d4" d="M 21.425781 9.03125 L 23.242188 9.925781 L 25.054688 10.820312 L 26.871094 11.714844 L 26.871094 12.609375 L 28.683594 14.394531 L 28.683594 16.183594 L 25.964844 18.867188 L 25.054688 21.550781 L 14.167969 26.917969 L 11.449219 26.917969 L 2.375 22.445312 L 1.46875 19.761719 L 1.46875 13.503906 L 2.375 12.609375 L 13.261719 7.242188 L 14.167969 5.453125 L 17.796875 1.875 L 20.519531 1.875 L 24.148438 3.664062 L 24.148438 5.453125 L 22.335938 7.242188 L 21.425781 8.136719 L 20.519531 9.03125 Z M 21.425781 9.03125 " fill-opacity="1" fill-rule="nonzero"/><g clip-path="url(#c73cf3cc50)"><path fill="#000000" d="M 18.707031 1.875 L 17.796875 1.875 L 17.796875 0.980469 L 20.519531 0.980469 L 20.519531 1.875 Z M 17.796875 1.875 L 16.890625 1.875 L 16.890625 2.769531 L 17.796875 2.769531 Z M 21.425781 2.769531 L 22.335938 2.769531 L 22.335938 1.875 L 20.519531 1.875 L 20.519531 2.769531 Z M 16.890625 2.769531 L 15.984375 2.769531 L 15.984375 3.664062 L 16.890625 3.664062 Z M 23.242188 3.664062 L 24.148438 3.664062 L 24.148438 2.769531 L 22.335938 2.769531 L 22.335938 3.664062 Z M 15.984375 3.664062 L 15.078125 3.664062 L 15.078125 4.558594 L 15.984375 4.558594 Z M 15.078125 4.558594 L 14.167969 4.558594 L 14.167969 5.453125 L 15.078125 5.453125 Z M 24.148438 5.453125 L 25.964844 5.453125 L 25.964844 3.664062 L 24.148438 3.664062 Z M 23.242188 6.347656 L 24.148438 6.347656 L 24.148438 5.453125 L 23.242188 5.453125 Z M 14.167969 6.347656 L 14.167969 5.453125 L 13.261719 5.453125 L 13.261719 7.242188 L 14.167969 7.242188 Z M 22.335938 7.242188 L 23.242188 7.242188 L 23.242188 6.347656 L 22.335938 6.347656 Z M 21.425781 8.136719 L 22.335938 8.136719 L 22.335938 7.242188 L 21.425781 7.242188 Z M 11.449219 9.03125 L 11.449219 8.136719 L 9.632812 8.136719 L 9.632812 9.03125 Z M 12.355469 9.03125 L 12.355469 9.925781 L 11.449219 9.925781 L 11.449219 10.820312 L 13.261719 10.820312 L 13.261719 7.242188 L 11.449219 7.242188 L 11.449219 8.136719 L 12.355469 8.136719 Z M 20.519531 9.03125 L 21.425781 9.03125 L 21.425781 8.136719 L 20.519531 8.136719 Z M 9.632812 9.925781 L 9.632812 9.03125 L 7.816406 9.03125 L 7.816406 9.925781 Z M 22.335938 9.925781 L 23.242188 9.925781 L 23.242188 9.03125 L 21.425781 9.03125 L 21.425781 9.925781 Z M 7.816406 10.820312 L 7.816406 9.925781 L 6.003906 9.925781 L 6.003906 10.820312 Z M 20.519531 9.925781 L 20.519531 9.03125 L 19.613281 9.03125 L 19.613281 10.820312 L 20.519531 10.820312 Z M 24.148438 10.820312 L 25.054688 10.820312 L 25.054688 9.925781 L 23.242188 9.925781 L 23.242188 10.820312 Z M 6.003906 11.714844 L 6.003906 10.820312 L 4.1875 10.820312 L 4.1875 11.714844 Z M 14.167969 10.820312 L 13.261719 10.820312 L 13.261719 11.714844 L 15.078125 11.714844 L 15.078125 10.820312 Z M 15.984375 11.714844 L 15.078125 11.714844 L 15.078125 12.609375 L 16.890625 12.609375 L 16.890625 11.714844 Z M 19.613281 11.714844 L 19.613281 10.820312 L 18.707031 10.820312 L 18.707031 12.609375 L 16.890625 12.609375 L 16.890625 13.503906 L 19.613281 13.503906 Z M 23.242188 11.714844 L 23.242188 12.609375 L 25.054688 12.609375 L 25.054688 11.714844 Z M 23.242188 13.503906 L 23.242188 12.609375 L 21.425781 12.609375 L 21.425781 13.503906 Z M 6.003906 14.394531 L 6.910156 14.394531 L 6.910156 13.503906 L 5.097656 13.503906 L 5.097656 14.394531 Z M 21.425781 14.394531 L 21.425781 13.503906 L 19.613281 13.503906 L 19.613281 14.394531 Z M 28.683594 14.394531 L 28.683594 13.503906 L 27.777344 13.503906 L 27.777344 14.394531 Z M 7.816406 15.289062 L 8.726562 15.289062 L 8.726562 14.394531 L 6.910156 14.394531 L 6.910156 15.289062 Z M 19.613281 15.289062 L 19.613281 14.394531 L 17.796875 14.394531 L 17.796875 15.289062 Z M 28.683594 14.394531 L 28.683594 16.183594 L 29.59375 16.183594 L 29.59375 14.394531 Z M 9.632812 16.183594 L 10.539062 16.183594 L 10.539062 15.289062 L 8.726562 15.289062 L 8.726562 16.183594 Z M 17.796875 16.183594 L 17.796875 15.289062 L 15.984375 15.289062 L 15.984375 16.183594 Z M 11.449219 17.078125 L 12.355469 17.078125 L 12.355469 16.183594 L 10.539062 16.183594 L 10.539062 17.078125 Z M 15.984375 17.078125 L 15.984375 16.183594 L 14.167969 16.183594 L 14.167969 17.078125 Z M 26.871094 16.183594 L 26.871094 13.503906 L 27.777344 13.503906 L 27.777344 12.609375 L 26.871094 12.609375 L 26.871094 10.820312 L 25.054688 10.820312 L 25.054688 11.714844 L 25.964844 11.714844 L 25.964844 17.972656 L 25.054688 17.972656 L 25.054688 18.867188 L 23.242188 18.867188 L 23.242188 19.761719 L 25.054688 19.761719 L 25.054688 21.550781 L 25.964844 21.550781 L 25.964844 18.867188 L 26.871094 18.867188 L 26.871094 17.972656 L 27.777344 17.972656 L 27.777344 17.078125 L 26.871094 17.078125 Z M 27.777344 17.078125 L 28.683594 17.078125 L 28.683594 16.183594 L 27.777344 16.183594 Z M 13.261719 17.972656 L 14.167969 17.972656 L 14.167969 17.078125 L 12.355469 17.078125 L 12.355469 17.972656 Z M 1.46875 17.972656 L 1.46875 13.503906 L 2.375 13.503906 L 2.375 12.609375 L 0.558594 12.609375 L 0.558594 19.761719 L 1.46875 19.761719 Z M 21.425781 19.761719 L 21.425781 20.65625 L 23.242188 20.65625 L 23.242188 19.761719 Z M 2.375 20.65625 L 4.1875 20.65625 L 4.1875 13.503906 L 5.097656 13.503906 L 5.097656 12.609375 L 4.1875 12.609375 L 4.1875 11.714844 L 2.375 11.714844 L 2.375 12.609375 L 3.28125 12.609375 L 3.28125 19.761719 L 1.46875 19.761719 L 1.46875 22.445312 L 2.375 22.445312 Z M 5.097656 20.65625 L 4.1875 20.65625 L 4.1875 21.550781 L 6.003906 21.550781 L 6.003906 20.65625 Z M 19.613281 20.65625 L 19.613281 21.550781 L 21.425781 21.550781 L 21.425781 20.65625 Z M 6.910156 21.550781 L 6.003906 21.550781 L 6.003906 22.445312 L 7.816406 22.445312 L 7.816406 21.550781 Z M 17.796875 21.550781 L 17.796875 22.445312 L 19.613281 22.445312 L 19.613281 21.550781 Z M 23.242188 21.550781 L 23.242188 22.445312 L 25.054688 22.445312 L 25.054688 21.550781 Z M 3.28125 22.445312 L 2.375 22.445312 L 2.375 23.339844 L 4.1875 23.339844 L 4.1875 22.445312 Z M 8.726562 22.445312 L 7.816406 22.445312 L 7.816406 23.339844 L 9.632812 23.339844 L 9.632812 22.445312 Z M 15.984375 22.445312 L 15.984375 23.339844 L 17.796875 23.339844 L 17.796875 22.445312 Z M 21.425781 22.445312 L 21.425781 23.339844 L 23.242188 23.339844 L 23.242188 22.445312 Z M 5.097656 23.339844 L 4.1875 23.339844 L 4.1875 24.234375 L 6.003906 24.234375 L 6.003906 23.339844 Z M 10.539062 23.339844 L 9.632812 23.339844 L 9.632812 24.234375 L 11.449219 24.234375 L 11.449219 23.339844 Z M 14.167969 23.339844 L 14.167969 24.234375 L 15.984375 24.234375 L 15.984375 23.339844 Z M 19.613281 23.339844 L 19.613281 24.234375 L 21.425781 24.234375 L 21.425781 23.339844 Z M 6.910156 24.234375 L 6.003906 24.234375 L 6.003906 25.128906 L 7.816406 25.128906 L 7.816406 24.234375 Z M 12.355469 24.234375 L 11.449219 24.234375 L 11.449219 25.128906 L 14.167969 25.128906 L 14.167969 24.234375 Z M 17.796875 24.234375 L 17.796875 25.128906 L 19.613281 25.128906 L 19.613281 24.234375 Z M 8.726562 25.128906 L 7.816406 25.128906 L 7.816406 26.023438 L 9.632812 26.023438 L 9.632812 25.128906 Z M 15.984375 25.128906 L 15.984375 26.023438 L 17.796875 26.023438 L 17.796875 25.128906 Z M 10.539062 26.023438 L 9.632812 26.023438 L 9.632812 26.917969 L 11.449219 26.917969 L 11.449219 26.023438 Z M 14.167969 26.023438 L 14.167969 26.917969 L 15.984375 26.917969 L 15.984375 26.023438 Z M 12.355469 26.917969 L 11.449219 26.917969 L 11.449219 27.8125 L 14.167969 27.8125 L 14.167969 26.917969 Z M 12.355469 26.917969 " fill-opacity="1" fill-rule="nonzero"/></g><path fill="#ffffff" d="M 5.097656 13.503906 L 5.097656 14.394531 L 4.1875 14.394531 L 4.1875 13.503906 Z M 6.003906 14.394531 L 5.097656 14.394531 L 5.097656 15.289062 L 6.910156 15.289062 L 6.910156 14.394531 Z M 7.816406 15.289062 L 6.910156 15.289062 L 6.910156 16.183594 L 8.726562 16.183594 L 8.726562 15.289062 Z M 9.632812 16.183594 L 8.726562 16.183594 L 8.726562 17.078125 L 10.539062 17.078125 L 10.539062 16.183594 Z M 10.539062 17.078125 L 10.539062 17.972656 L 12.355469 17.972656 L 12.355469 17.078125 Z M 27.777344 14.394531 L 27.777344 16.183594 L 28.683594 16.183594 L 28.683594 14.394531 Z M 3.28125 20.65625 L 3.28125 21.550781 L 4.1875 21.550781 L 4.1875 20.65625 Z M 5.097656 21.550781 L 4.1875 21.550781 L 4.1875 22.445312 L 6.003906 22.445312 L 6.003906 21.550781 Z M 6.910156 22.445312 L 6.003906 22.445312 L 6.003906 23.339844 L 7.816406 23.339844 L 7.816406 22.445312 Z M 8.726562 23.339844 L 7.816406 23.339844 L 7.816406 24.234375 L 9.632812 24.234375 L 9.632812 23.339844 Z M 10.539062 24.234375 L 9.632812 24.234375 L 9.632812 25.128906 L 11.449219 25.128906 L 11.449219 24.234375 Z M 11.449219 26.023438 L 12.355469 26.023438 L 12.355469 25.128906 L 11.449219 25.128906 Z M 11.449219 26.023438 " fill-opacity="1" fill-rule="nonzero"/><path fill="#1700d1" d="M 15.984375 9.03125 L 15.984375 9.925781 L 14.167969 9.925781 L 14.167969 9.03125 Z M 15.984375 10.820312 L 17.796875 10.820312 L 17.796875 9.925781 L 15.984375 9.925781 Z M 15.078125 7.242188 L 15.078125 8.136719 L 16.890625 8.136719 L 16.890625 7.242188 Z M 16.890625 9.03125 L 18.707031 9.03125 L 18.707031 8.136719 L 16.890625 8.136719 Z M 15.984375 5.453125 L 15.984375 6.347656 L 17.796875 6.347656 L 17.796875 5.453125 Z M 17.796875 7.242188 L 19.613281 7.242188 L 19.613281 6.347656 L 17.796875 6.347656 Z M 17.796875 3.664062 L 17.796875 4.558594 L 19.613281 4.558594 L 19.613281 3.664062 Z M 19.613281 4.558594 L 19.613281 5.453125 L 21.425781 5.453125 L 21.425781 4.558594 Z M 19.613281 4.558594 " fill-opacity="1" fill-rule="nonzero"/><path fill="#00ff18" d="M 8.726562 13.503906 L 8.726562 14.394531 L 6.910156 14.394531 L 6.910156 13.503906 Z M 8.726562 14.394531 L 8.726562 15.289062 L 10.539062 15.289062 L 10.539062 14.394531 Z M 8.726562 14.394531 " fill-opacity="1" fill-rule="nonzero"/><path fill="#000000" d="M 25.054688 11.714844 L 25.054688 12.609375 L 23.242188 12.609375 L 23.242188 14.394531 L 23.242188 13.503906 L 21.425781 13.503906 L 21.425781 15.289062 L 21.425781 14.394531 L 19.613281 14.394531 L 19.613281 16.183594 L 19.613281 15.289062 L 17.796875 15.289062 L 17.796875 17.078125 L 17.796875 16.183594 L 15.984375 16.183594 L 15.984375 17.972656 L 15.984375 17.078125 L 14.167969 17.078125 L 14.167969 18.867188 L 14.167969 17.972656 L 12.355469 17.972656 L 12.355469 21.550781 L 14.167969 21.550781 L 12.355469 21.550781 L 12.355469 23.339844 L 15.984375 23.339844 L 15.984375 24.234375 L 14.167969 24.234375 L 14.167969 23.339844 L 12.355469 23.339844 L 12.355469 24.234375 L 14.167969 24.234375 L 14.167969 25.128906 L 12.355469 25.128906 L 12.355469 26.917969 L 14.167969 26.917969 L 14.167969 26.023438 L 15.984375 26.023438 L 15.984375 25.128906 L 17.796875 25.128906 L 17.796875 24.234375 L 19.613281 24.234375 L 19.613281 23.339844 L 21.425781 23.339844 L 21.425781 22.445312 L 23.242188 22.445312 L 23.242188 21.550781 L 25.054688 21.550781 L 25.054688 19.761719 L 23.242188 19.761719 L 23.242188 18.867188 L 21.425781 18.867188 L 25.054688 18.867188 L 25.054688 17.972656 L 23.242188 17.972656 L 25.964844 17.972656 L 25.964844 11.714844 Z M 17.796875 18.867188 L 19.613281 18.867188 Z M 15.984375 19.761719 L 17.796875 19.761719 Z M 14.167969 20.65625 L 15.984375 20.65625 Z M 15.984375 23.339844 L 15.984375 22.445312 L 14.167969 22.445312 L 17.796875 22.445312 L 17.796875 23.339844 Z M 17.796875 22.445312 L 17.796875 21.550781 L 15.984375 21.550781 L 19.613281 21.550781 L 19.613281 22.445312 Z M 19.613281 21.550781 L 19.613281 20.65625 L 17.796875 20.65625 L 21.425781 20.65625 L 21.425781 21.550781 Z M 23.242188 19.761719 L 23.242188 20.65625 L 21.425781 20.65625 L 21.425781 19.761719 L 19.613281 19.761719 Z M 21.425781 17.972656 L 19.613281 17.972656 Z M 23.242188 17.078125 L 21.425781 17.078125 Z M 25.054688 16.183594 L 23.242188 16.183594 Z M 10.539062 17.972656 L 11.449219 17.972656 L 11.449219 23.339844 L 10.539062 23.339844 Z M 2.375 12.609375 L 3.28125 12.609375 L 3.28125 19.761719 L 2.375 19.761719 Z M 8.726562 10.820312 L 8.726562 11.714844 L 6.910156 11.714844 L 6.910156 10.820312 Z M 10.539062 11.714844 L 10.539062 12.609375 L 8.726562 12.609375 L 8.726562 11.714844 Z M 10.539062 13.503906 L 10.539062 12.609375 L 12.355469 12.609375 L 12.355469 13.503906 Z M 8.726562 13.503906 L 10.539062 13.503906 L 10.539062 14.394531 L 8.726562 14.394531 Z M 12.355469 14.394531 L 12.355469 13.503906 L 14.167969 13.503906 L 14.167969 14.394531 Z M 14.167969 15.289062 L 14.167969 14.394531 L 15.984375 14.394531 L 15.984375 15.289062 Z M 14.167969 15.289062 " fill-opacity="0.5" fill-rule="nonzero"/></svg>