<svg xmlns="http://www.w3.org/2000/svg" xmlns:xlink="http://www.w3.org/1999/xlink" width="40" zoomAndPan="magnify" viewBox="0 0 30 30.000001" height="40" preserveAspectRatio="xMidYMid meet" version="1.0"><defs><clipPath id="5f168027a8"><path d="M 15.144531 21.519531 L 26.632812 21.519531 L 26.632812 28.453125 L 15.144531 28.453125 Z M 15.144531 21.519531 " clip-rule="nonzero"/></clipPath><clipPath id="e60e99c3a5"><path d="M 23 11 L 26.636719 11 L 26.636719 19 L 23 19 Z M 23 11 " clip-rule="nonzero"/></clipPath><clipPath id="6bcef99345"><path d="M 24 18 L 26.636719 18 L 26.636719 22 L 24 22 Z M 24 18 " clip-rule="nonzero"/></clipPath><clipPath id="8aa764a8ff"><path d="M 7 0.878906 L 10 0.878906 L 10 6 L 7 6 Z M 7 0.878906 " clip-rule="nonzero"/></clipPath><clipPath id="c64a7e0a1c"><path d="M 3.410156 7 L 8 7 L 8 11 L 3.410156 11 Z M 3.410156 7 " clip-rule="nonzero"/></clipPath><clipPath id="35acf395a9"><path d="M 3.410156 4 L 9 4 L 9 7 L 3.410156 7 Z M 3.410156 4 " clip-rule="nonzero"/></clipPath></defs><path fill="#ffffff" d="M 23.164062 11.742188 L 25.414062 18.019531 L 24.382812 18.398438 L 25.507812 21.542969 L 24.476562 21.921875 L 25.222656 24.007812 L 16.949219 27.03125 L 16.199219 24.945312 L 15.167969 25.324219 L 14.417969 23.234375 L 13.382812 23.613281 L 12.632812 21.527344 L 11.601562 21.902344 L 10.851562 19.816406 L 9.816406 20.195312 L 9.441406 19.148438 L 8.40625 19.527344 L 7.65625 17.441406 L 9.726562 16.683594 L 10.101562 17.726562 L 11.136719 17.351562 L 11.511719 18.394531 L 12.542969 18.015625 L 9.164062 8.59375 L 11.230469 7.839844 L 14.230469 16.1875 L 15.261719 15.8125 L 13.765625 11.636719 L 15.832031 10.878906 L 17.332031 15.054688 L 18.367188 14.675781 L 17.242188 11.546875 L 19.3125 10.789062 L 20.808594 14.964844 L 21.84375 14.585938 L 20.71875 11.457031 L 21.753906 11.078125 L 22.128906 12.121094 L 23.164062 11.742188 " fill-opacity="1" fill-rule="nonzero"/><path fill="#000000" d="M 14.417969 23.234375 L 15.167969 25.324219 L 14.132812 25.699219 L 13.382812 23.613281 L 14.417969 23.234375 " fill-opacity="1" fill-rule="nonzero"/><g clip-path="url(#5f168027a8)"><path fill="#000000" d="M 25.507812 21.542969 L 26.632812 24.671875 L 16.289062 28.453125 L 15.167969 25.324219 L 16.199219 24.945312 L 16.949219 27.03125 L 25.222656 24.007812 L 24.476562 21.921875 L 25.507812 21.542969 " fill-opacity="1" fill-rule="nonzero"/></g><path fill="#000000" d="M 15.457031 9.835938 L 15.832031 10.878906 L 13.765625 11.636719 L 15.261719 15.8125 L 14.230469 16.1875 L 11.230469 7.839844 L 12.265625 7.460938 L 13.390625 10.589844 L 15.457031 9.835938 " fill-opacity="1" fill-rule="nonzero"/><path fill="#000000" d="M 18.9375 9.746094 L 19.3125 10.789062 L 17.242188 11.546875 L 18.367188 14.675781 L 17.332031 15.054688 L 15.832031 10.878906 L 18.9375 9.746094 " fill-opacity="1" fill-rule="nonzero"/><path fill="#000000" d="M 21.378906 10.035156 L 21.753906 11.078125 L 20.71875 11.457031 L 21.84375 14.585938 L 20.808594 14.964844 L 19.3125 10.789062 L 21.378906 10.035156 " fill-opacity="1" fill-rule="nonzero"/><g clip-path="url(#e60e99c3a5)"><path fill="#000000" d="M 24.195312 11.363281 L 26.449219 17.640625 L 25.414062 18.019531 L 23.164062 11.742188 L 24.195312 11.363281 " fill-opacity="1" fill-rule="nonzero"/></g><g clip-path="url(#6bcef99345)"><path fill="#000000" d="M 25.414062 18.019531 L 26.542969 21.164062 L 25.507812 21.542969 L 24.382812 18.398438 L 25.414062 18.019531 " fill-opacity="1" fill-rule="nonzero"/></g><path fill="#000000" d="M 12.632812 21.527344 L 13.382812 23.613281 L 12.347656 23.992188 L 11.601562 21.902344 L 12.632812 21.527344 " fill-opacity="1" fill-rule="nonzero"/><path fill="#000000" d="M 10.851562 19.816406 L 11.601562 21.902344 L 10.566406 22.28125 L 9.816406 20.195312 L 10.851562 19.816406 " fill-opacity="1" fill-rule="nonzero"/><path fill="#000000" d="M 9.441406 19.148438 L 9.816406 20.195312 L 8.78125 20.574219 L 8.40625 19.527344 L 9.441406 19.148438 " fill-opacity="1" fill-rule="nonzero"/><path fill="#000000" d="M 9.351562 15.640625 L 9.726562 16.683594 L 7.65625 17.441406 L 8.40625 19.527344 L 7.371094 19.90625 L 6.25 16.773438 L 9.351562 15.640625 " fill-opacity="1" fill-rule="nonzero"/><path fill="#000000" d="M 9.164062 8.59375 L 12.542969 18.015625 L 11.511719 18.394531 L 11.136719 17.351562 L 10.101562 17.726562 L 9.726562 16.683594 L 10.761719 16.304688 L 8.128906 8.972656 L 9.164062 8.59375 " fill-opacity="1" fill-rule="nonzero"/><path fill="#000000" d="M 10.855469 6.792969 L 11.230469 7.839844 L 9.164062 8.59375 L 8.789062 7.550781 L 10.855469 6.792969 " fill-opacity="1" fill-rule="nonzero"/><path fill="#000000" d="M 22.789062 10.699219 L 23.164062 11.742188 L 22.128906 12.121094 L 21.753906 11.078125 L 22.789062 10.699219 " fill-opacity="1" fill-rule="nonzero"/><g clip-path="url(#8aa764a8ff)"><path fill="#000000" d="M 9.28125 4.015625 L 8.15625 0.882812 L 7.121094 1.261719 L 7.871094 3.351562 L 8.621094 5.4375 L 9.65625 5.058594 L 9.28125 4.015625 " fill-opacity="1" fill-rule="nonzero"/></g><g clip-path="url(#c64a7e0a1c)"><path fill="#000000" d="M 5.851562 9.316406 L 7.921875 8.5625 L 7.546875 7.519531 L 5.476562 8.273438 L 4.445312 8.652344 L 3.410156 9.03125 L 3.785156 10.074219 L 4.820312 9.695312 L 5.851562 9.316406 " fill-opacity="1" fill-rule="nonzero"/></g><g clip-path="url(#35acf395a9)"><path fill="#000000" d="M 5.667969 5.964844 L 6.664062 6.433594 L 7.660156 6.90625 L 8.125 5.898438 L 7.128906 5.429688 L 6.132812 4.957031 L 5.136719 4.488281 L 4.140625 4.015625 L 3.675781 5.023438 L 4.671875 5.492188 L 5.667969 5.964844 " fill-opacity="1" fill-rule="nonzero"/></g><path fill="#000000" d="M 15.925781 4.457031 L 14.894531 4.832031 L 11.789062 5.96875 L 12.164062 7.011719 L 14.234375 6.253906 L 16.300781 5.5 L 15.925781 4.457031 " fill-opacity="1" fill-rule="nonzero"/><path fill="#000000" d="M 12.125 1.046875 L 11.65625 2.054688 L 11.191406 3.058594 L 10.722656 4.066406 L 10.257812 5.070312 L 11.253906 5.539062 L 11.71875 4.535156 L 12.1875 3.53125 L 12.652344 2.523438 L 13.121094 1.519531 L 12.125 1.046875 " fill-opacity="1" fill-rule="nonzero"/></svg>