<svg xmlns="http://www.w3.org/2000/svg" xmlns:xlink="http://www.w3.org/1999/xlink" zoomAndPan="magnify" preserveAspectRatio="xMidYMid meet" version="1.0" viewBox="53.29 45.02 43.49 59.95"><defs><clipPath id="301f2c87fd"><path d="M 65.710938 90.484375 L 88.605469 90.484375 L 88.605469 104.976562 L 65.710938 104.976562 Z M 65.710938 90.484375 " clip-rule="nonzero"/></clipPath><clipPath id="7cb7cee79d"><path d="M 53.289062 45.027344 L 96.78125 45.027344 L 96.78125 104.976562 L 53.289062 104.976562 Z M 53.289062 45.027344 " clip-rule="nonzero"/></clipPath><clipPath id="d19e9ed794"><path d="M 59.5 82.21875 L 90.675781 82.21875 L 90.675781 104.976562 L 59.5 104.976562 Z M 59.5 82.21875 " clip-rule="nonzero"/></clipPath></defs><g clip-path="url(#301f2c87fd)"><path fill="#fcf7db" d="M 86.425781 92.574219 L 86.425781 94.640625 L 84.355469 94.640625 L 84.355469 96.707031 L 80.214844 96.707031 L 80.214844 98.773438 L 78.140625 98.773438 L 78.140625 100.84375 L 76.070312 100.84375 L 76.070312 98.773438 L 74 98.773438 L 74 96.707031 L 76.070312 96.707031 L 76.070312 90.503906 L 74 90.503906 L 74 94.640625 L 71.929688 94.640625 L 71.929688 98.773438 L 69.855469 98.773438 L 69.855469 96.707031 L 67.785156 96.707031 L 67.785156 94.640625 L 65.714844 94.640625 L 65.714844 98.773438 L 67.785156 98.773438 L 67.785156 100.84375 L 69.855469 100.84375 L 69.855469 102.910156 L 71.929688 102.910156 L 71.929688 104.976562 L 80.214844 104.976562 L 80.214844 102.910156 L 82.285156 102.910156 L 82.285156 100.84375 L 84.355469 100.84375 L 84.355469 98.773438 L 86.425781 98.773438 L 86.425781 96.707031 L 88.5 96.707031 L 88.5 92.574219 L 86.425781 92.574219 " fill-opacity="1" fill-rule="nonzero"/></g><path fill="#e2902a" d="M 90.570312 88.4375 L 90.570312 84.304688 L 86.425781 84.304688 L 86.425781 78.101562 L 84.355469 78.101562 L 84.355469 80.167969 L 82.285156 80.167969 L 82.285156 78.101562 L 80.214844 78.101562 L 80.214844 73.96875 L 78.140625 73.96875 L 78.140625 71.898438 L 80.214844 71.898438 L 80.214844 69.832031 L 82.285156 69.832031 L 82.285156 65.699219 L 80.214844 65.699219 L 80.214844 61.5625 L 78.140625 61.5625 L 78.140625 63.628906 L 76.070312 63.628906 L 76.070312 67.765625 L 74 67.765625 L 74 78.101562 L 76.070312 78.101562 L 76.070312 82.234375 L 74 82.234375 L 74 84.304688 L 69.855469 84.304688 L 69.855469 86.371094 L 67.785156 86.371094 L 67.785156 90.503906 L 69.855469 90.503906 L 69.855469 94.640625 L 71.929688 94.640625 L 71.929688 92.574219 L 74 92.574219 L 74 88.4375 L 76.070312 88.4375 L 76.070312 92.574219 L 80.214844 92.574219 L 80.214844 86.371094 L 78.140625 86.371094 L 78.140625 82.234375 L 80.214844 82.234375 L 80.214844 86.371094 L 82.285156 86.371094 L 82.285156 94.640625 L 84.355469 94.640625 L 84.355469 90.503906 L 86.425781 90.503906 L 86.425781 88.4375 L 88.5 88.4375 L 88.5 90.503906 L 90.570312 90.503906 L 90.570312 94.640625 L 92.640625 94.640625 L 92.640625 88.4375 Z M 59.5 94.640625 L 59.5 96.707031 L 61.574219 96.707031 L 61.574219 98.773438 L 63.644531 98.773438 L 63.644531 94.640625 L 61.574219 94.640625 L 61.574219 92.574219 L 59.5 92.574219 Z M 67.785156 84.304688 L 67.785156 86.371094 L 65.714844 86.371094 L 65.714844 92.574219 L 61.574219 92.574219 L 61.574219 90.503906 L 59.5 90.503906 L 59.5 88.4375 L 61.574219 88.4375 L 61.574219 84.304688 L 63.644531 84.304688 L 63.644531 80.167969 L 65.714844 80.167969 L 65.714844 84.304688 L 67.785156 84.304688 " fill-opacity="1" fill-rule="nonzero"/><g clip-path="url(#7cb7cee79d)"><path fill="#d75623" d="M 53.289062 76.035156 L 53.289062 78.101562 L 55.359375 78.101562 L 55.359375 76.035156 Z M 61.574219 53.292969 L 59.5 53.292969 L 59.5 55.359375 L 61.574219 55.359375 Z M 61.574219 59.496094 L 61.574219 57.429688 L 59.5 57.429688 L 59.5 61.5625 L 61.574219 61.5625 Z M 63.644531 63.628906 L 63.644531 61.5625 L 61.574219 61.5625 L 61.574219 63.628906 Z M 80.214844 47.09375 L 80.214844 45.023438 L 78.140625 45.023438 L 78.140625 49.160156 L 80.214844 49.160156 Z M 82.285156 73.96875 L 82.285156 71.898438 L 84.355469 71.898438 L 84.355469 61.5625 L 82.285156 61.5625 L 82.285156 59.496094 L 80.214844 59.496094 L 80.214844 55.359375 L 78.140625 55.359375 L 78.140625 49.160156 L 76.070312 49.160156 L 76.070312 61.5625 L 74 61.5625 L 74 57.429688 L 71.929688 57.429688 L 71.929688 55.359375 L 69.855469 55.359375 L 69.855469 59.496094 L 71.929688 59.496094 L 71.929688 63.628906 L 74 63.628906 L 74 65.699219 L 71.929688 65.699219 L 71.929688 67.765625 L 69.855469 67.765625 L 69.855469 71.898438 L 71.929688 71.898438 L 71.929688 82.234375 L 69.855469 82.234375 L 69.855469 80.167969 L 67.785156 80.167969 L 67.785156 71.898438 L 65.714844 71.898438 L 65.714844 69.832031 L 63.644531 69.832031 L 63.644531 78.101562 L 61.574219 78.101562 L 61.574219 82.234375 L 59.5 82.234375 L 59.5 80.167969 L 57.429688 80.167969 L 57.429688 78.101562 L 55.359375 78.101562 L 55.359375 82.234375 L 57.429688 82.234375 L 57.429688 90.503906 L 55.359375 90.503906 L 55.359375 96.707031 L 57.429688 96.707031 L 57.429688 98.773438 L 59.5 98.773438 L 59.5 100.84375 L 61.574219 100.84375 L 61.574219 102.910156 L 63.644531 102.910156 L 63.644531 104.976562 L 67.785156 104.976562 L 67.785156 102.910156 L 65.714844 102.910156 L 65.714844 100.84375 L 63.644531 100.84375 L 63.644531 98.773438 L 61.574219 98.773438 L 61.574219 96.707031 L 59.5 96.707031 L 59.5 88.4375 L 61.574219 88.4375 L 61.574219 84.304688 L 63.644531 84.304688 L 63.644531 80.167969 L 65.714844 80.167969 L 65.714844 84.304688 L 74 84.304688 L 74 82.234375 L 76.070312 82.234375 L 76.070312 78.101562 L 74 78.101562 L 74 67.765625 L 76.070312 67.765625 L 76.070312 63.628906 L 78.140625 63.628906 L 78.140625 61.5625 L 80.214844 61.5625 L 80.214844 65.699219 L 82.285156 65.699219 L 82.285156 69.832031 L 80.214844 69.832031 L 80.214844 71.898438 L 78.140625 71.898438 L 78.140625 73.96875 L 80.214844 73.96875 L 80.214844 78.101562 L 82.285156 78.101562 Z M 82.285156 80.167969 L 84.355469 80.167969 L 84.355469 78.101562 L 82.285156 78.101562 Z M 94.710938 59.496094 L 92.640625 59.496094 L 92.640625 61.5625 L 94.710938 61.5625 Z M 96.78125 88.4375 L 96.78125 96.707031 L 94.710938 96.707031 L 94.710938 98.773438 L 92.640625 98.773438 L 92.640625 100.84375 L 90.570312 100.84375 L 90.570312 102.910156 L 88.5 102.910156 L 88.5 104.976562 L 84.355469 104.976562 L 84.355469 102.910156 L 86.425781 102.910156 L 86.425781 100.84375 L 88.5 100.84375 L 88.5 98.773438 L 90.570312 98.773438 L 90.570312 94.640625 L 92.640625 94.640625 L 92.640625 88.4375 L 90.570312 88.4375 L 90.570312 84.304688 L 86.425781 84.304688 L 86.425781 78.101562 L 84.355469 78.101562 L 84.355469 73.96875 L 86.425781 73.96875 L 86.425781 69.832031 L 88.5 69.832031 L 88.5 65.699219 L 90.570312 65.699219 L 90.570312 63.628906 L 92.640625 63.628906 L 92.640625 67.765625 L 90.570312 67.765625 L 90.570312 78.101562 L 88.5 78.101562 L 88.5 82.234375 L 90.570312 82.234375 L 90.570312 78.101562 L 92.640625 78.101562 L 92.640625 73.96875 L 94.710938 73.96875 L 94.710938 80.167969 L 92.640625 80.167969 L 92.640625 86.371094 L 94.710938 86.371094 L 94.710938 88.4375 L 96.78125 88.4375 " fill-opacity="1" fill-rule="nonzero"/></g><g clip-path="url(#d19e9ed794)"><path fill="#f0c82f" d="M 59.5 90.503906 L 59.5 92.574219 L 61.574219 92.574219 L 61.574219 90.503906 Z M 69.855469 84.304688 L 67.785156 84.304688 L 67.785156 86.371094 L 69.855469 86.371094 Z M 69.855469 92.574219 L 69.855469 90.503906 L 67.785156 90.503906 L 67.785156 86.371094 L 65.714844 86.371094 L 65.714844 92.574219 L 61.574219 92.574219 L 61.574219 94.640625 L 63.644531 94.640625 L 63.644531 100.84375 L 65.714844 100.84375 L 65.714844 102.910156 L 67.785156 102.910156 L 67.785156 104.976562 L 71.929688 104.976562 L 71.929688 102.910156 L 69.855469 102.910156 L 69.855469 100.84375 L 67.785156 100.84375 L 67.785156 98.773438 L 65.714844 98.773438 L 65.714844 94.640625 L 67.785156 94.640625 L 67.785156 96.707031 L 69.855469 96.707031 L 69.855469 98.773438 L 71.929688 98.773438 L 71.929688 94.640625 L 69.855469 94.640625 Z M 74 92.574219 L 71.929688 92.574219 L 71.929688 94.640625 L 74 94.640625 Z M 76.070312 88.4375 L 74 88.4375 L 74 90.503906 L 76.070312 90.503906 Z M 80.214844 82.234375 L 78.140625 82.234375 L 78.140625 86.371094 L 80.214844 86.371094 Z M 82.285156 92.574219 L 82.285156 86.371094 L 80.214844 86.371094 L 80.214844 92.574219 L 76.070312 92.574219 L 76.070312 96.707031 L 74 96.707031 L 74 98.773438 L 76.070312 98.773438 L 76.070312 100.84375 L 78.140625 100.84375 L 78.140625 98.773438 L 80.214844 98.773438 L 80.214844 96.707031 L 84.355469 96.707031 L 84.355469 94.640625 L 82.285156 94.640625 Z M 90.570312 90.503906 L 90.570312 98.773438 L 88.5 98.773438 L 88.5 100.84375 L 86.425781 100.84375 L 86.425781 102.910156 L 84.355469 102.910156 L 84.355469 104.976562 L 80.214844 104.976562 L 80.214844 102.910156 L 82.285156 102.910156 L 82.285156 100.84375 L 84.355469 100.84375 L 84.355469 98.773438 L 86.425781 98.773438 L 86.425781 96.707031 L 88.5 96.707031 L 88.5 92.574219 L 86.425781 92.574219 L 86.425781 94.640625 L 84.355469 94.640625 L 84.355469 90.503906 L 86.425781 90.503906 L 86.425781 88.4375 L 88.5 88.4375 L 88.5 90.503906 L 90.570312 90.503906 " fill-opacity="1" fill-rule="nonzero"/></g></svg>